<?xml version="1.0" encoding="utf-8"?>
<!-- Generator: Adobe Illustrator 27.5.0, SVG Export Plug-In . SVG Version: 6.00 Build 0)  -->
<svg version="1.1" xmlns="http://www.w3.org/2000/svg" xmlns:xlink="http://www.w3.org/1999/xlink" x="0px" y="0px"
	 viewBox="0 0 750 500" style="enable-background:new 0 0 750 500;" xml:space="preserve">
<g id="BACKGROUND">
	<rect x="125" style="fill:#FFFFFF;" width="500" height="500"/>
</g>
<g id="OBJECTS">
	<g>
		<g>
			<path style="fill:#8EE4FD;" d="M178.204,436.395c-0.424,0-0.835-0.218-1.065-0.608c-1.406-2.395-2.844-4.938-4.273-7.557
				c-0.326-0.597-0.106-1.347,0.492-1.673c0.601-0.325,1.348-0.106,1.674,0.493c1.416,2.596,2.841,5.115,4.235,7.487
				c0.345,0.588,0.148,1.344-0.439,1.689C178.632,436.341,178.417,436.395,178.204,436.395z M618.424,431.695
				c-0.05,0-0.102-0.004-0.154-0.01c-0.676-0.084-1.155-0.701-1.071-1.377c0.322-2.579,0.742-5.393,1.284-8.602
				c0.115-0.672,0.751-1.117,1.423-1.011c0.671,0.115,1.124,0.75,1.011,1.423c-0.537,3.172-0.952,5.951-1.27,8.496
				C619.57,431.238,619.038,431.695,618.424,431.695z M169.915,421.231c-0.449,0-0.881-0.245-1.099-0.671
				c-1.287-2.514-2.586-5.126-3.859-7.764c-0.296-0.613-0.039-1.351,0.574-1.647c0.616-0.294,1.352-0.037,1.647,0.575
				c1.266,2.62,2.555,5.215,3.834,7.711c0.31,0.607,0.071,1.35-0.536,1.66C170.296,421.188,170.104,421.231,169.915,421.231z
				 M621.253,414.643c-0.077,0-0.157-0.007-0.236-0.023c-0.669-0.129-1.106-0.776-0.976-1.446c0.532-2.754,1.106-5.593,1.705-8.487
				c0.137-0.667,0.793-1.094,1.458-0.959c0.667,0.139,1.096,0.792,0.959,1.458c-0.596,2.884-1.167,5.714-1.7,8.458
				C622.349,414.233,621.833,414.643,621.253,414.643z M162.393,405.672c-0.468,0-0.916-0.267-1.123-0.72
				c-1.187-2.597-2.372-5.261-3.523-7.919c-0.271-0.625,0.016-1.352,0.642-1.623c0.625-0.269,1.352,0.017,1.622,0.642
				c1.144,2.642,2.323,5.291,3.504,7.873c0.283,0.621,0.01,1.352-0.609,1.635C162.739,405.636,162.564,405.672,162.393,405.672z
				 M624.736,397.712c-0.085,0-0.172-0.008-0.259-0.028c-0.666-0.142-1.09-0.798-0.948-1.464l1.811-8.451
				c0.143-0.665,0.79-1.095,1.465-0.947c0.666,0.142,1.09,0.799,0.947,1.465l-1.811,8.448
				C625.818,397.315,625.306,397.712,624.736,397.712z M155.52,389.815c-0.485,0-0.946-0.288-1.142-0.765
				c-1.095-2.668-2.176-5.375-3.213-8.046c-0.246-0.636,0.068-1.351,0.704-1.598c0.633-0.247,1.349,0.069,1.596,0.704
				c1.031,2.656,2.107,5.349,3.197,8.003c0.258,0.63-0.043,1.352-0.673,1.609C155.835,389.786,155.676,389.815,155.52,389.815z
				 M628.346,380.807c-0.084,0-0.17-0.008-0.255-0.027c-0.666-0.14-1.093-0.794-0.953-1.461c0.599-2.85,1.184-5.675,1.741-8.452
				c0.134-0.669,0.784-1.105,1.452-0.967c0.669,0.134,1.101,0.784,0.967,1.452c-0.559,2.784-1.144,5.619-1.746,8.476
				C629.431,380.409,628.917,380.807,628.346,380.807z M149.267,373.714c-0.503,0-0.975-0.31-1.158-0.81
				c-0.992-2.706-1.967-5.453-2.9-8.163c-0.222-0.645,0.121-1.346,0.766-1.567c0.641-0.223,1.346,0.121,1.568,0.765
				c0.927,2.695,1.897,5.426,2.883,8.117c0.234,0.64-0.094,1.348-0.734,1.582C149.551,373.69,149.408,373.714,149.267,373.714z
				 M631.726,363.856c-0.073,0-0.148-0.006-0.224-0.02c-0.67-0.123-1.113-0.766-0.99-1.436c0.56-3.054,1.047-5.909,1.445-8.486
				c0.104-0.673,0.731-1.132,1.407-1.031c0.673,0.104,1.135,0.734,1.031,1.407c-0.407,2.637-0.883,5.435-1.456,8.556
				C632.829,363.44,632.31,363.856,631.726,363.856z M143.647,357.374c-0.522,0-1.007-0.334-1.175-0.857
				c-0.894-2.784-1.756-5.572-2.562-8.288c-0.194-0.653,0.178-1.34,0.831-1.534c0.655-0.193,1.34,0.178,1.534,0.832
				c0.801,2.698,1.658,5.469,2.546,8.235c0.208,0.648-0.149,1.343-0.798,1.552C143.899,357.354,143.772,357.374,143.647,357.374z
				 M634.301,346.765c-0.041,0-0.084-0.003-0.126-0.006c-0.677-0.07-1.171-0.675-1.102-1.353c0.172-1.683,0.296-3.258,0.371-4.681
				c0-1.18-0.031-2.465-0.094-3.756c-0.032-0.681,0.493-1.259,1.172-1.293c0.669-0.049,1.259,0.49,1.293,1.172
				c0.064,1.332,0.096,2.659,0.095,3.943c-0.078,1.526-0.206,3.143-0.382,4.866C635.463,346.292,634.926,346.765,634.301,346.765z
				 M138.728,340.799c-0.543,0-1.041-0.361-1.19-0.911c-0.764-2.812-1.492-5.637-2.165-8.398c-0.161-0.661,0.244-1.329,0.906-1.49
				c0.662-0.163,1.329,0.243,1.491,0.907c0.668,2.74,1.39,5.544,2.148,8.335c0.179,0.657-0.21,1.335-0.867,1.513
				C138.944,340.786,138.835,340.799,138.728,340.799z M633.741,329.551c-0.604,0-1.131-0.442-1.219-1.057
				c-0.393-2.711-0.923-5.533-1.575-8.388c-0.152-0.664,0.263-1.325,0.928-1.477c0.664-0.155,1.325,0.261,1.477,0.928
				c0.667,2.919,1.209,5.808,1.611,8.583c0.098,0.675-0.37,1.301-1.043,1.398C633.859,329.547,633.799,329.551,633.741,329.551z
				 M134.646,324.009c-0.57,0-1.082-0.396-1.205-0.977c-0.614-2.883-1.176-5.749-1.672-8.52c-0.12-0.671,0.326-1.312,0.997-1.431
				c0.678-0.118,1.312,0.326,1.431,0.997c0.49,2.744,1.047,5.584,1.656,8.44c0.142,0.666-0.283,1.322-0.949,1.464
				C134.818,324.001,134.731,324.009,134.646,324.009z M629.935,312.719c-0.531,0-1.022-0.345-1.182-0.879
				c-0.788-2.624-1.693-5.361-2.691-8.133c-0.23-0.641,0.102-1.348,0.743-1.578c0.642-0.236,1.348,0.101,1.578,0.742
				c1.013,2.814,1.932,5.593,2.734,8.26c0.195,0.652-0.175,1.34-0.828,1.536C630.172,312.702,630.052,312.719,629.935,312.719z
				 M131.623,307c-0.606,0-1.134-0.447-1.22-1.064c-0.411-2.95-0.749-5.856-1.007-8.635c-0.063-0.68,0.436-1.279,1.114-1.343
				c0.678-0.06,1.279,0.436,1.342,1.114c0.254,2.743,0.589,5.612,0.994,8.524c0.094,0.675-0.376,1.297-1.052,1.391
				C131.737,306.997,131.679,307,131.623,307z M624.118,296.465c-0.487,0-0.948-0.29-1.142-0.769
				c-0.178-0.437-0.359-0.873-0.541-1.308c-0.965-2.171-1.941-4.367-2.912-6.566c-0.275-0.623,0.007-1.352,0.631-1.626
				c0.623-0.272,1.352,0.008,1.626,0.631c0.969,2.196,1.944,4.39,2.92,6.584c0.195,0.467,0.378,0.911,0.559,1.355
				c0.258,0.631-0.046,1.35-0.677,1.607C624.431,296.436,624.273,296.465,624.118,296.465z M130.059,289.798
				c-0.661,0-1.208-0.523-1.233-1.189c-0.058-1.604-0.088-3.206-0.089-4.762c0-1.338,0.022-2.658,0.066-3.959
				c0.023-0.681,0.567-1.263,1.275-1.19c0.681,0.023,1.214,0.594,1.191,1.275c-0.043,1.273-0.065,2.565-0.065,3.874
				c0.001,1.526,0.03,3.099,0.088,4.673c0.025,0.681-0.507,1.253-1.188,1.277C130.089,289.798,130.074,289.798,130.059,289.798z
				 M617.201,280.642c-0.478,0-0.934-0.28-1.133-0.748c-1.137-2.651-2.256-5.312-3.346-7.982c-0.258-0.631,0.046-1.352,0.676-1.608
				c0.634-0.26,1.351,0.044,1.608,0.676c1.084,2.659,2.198,5.304,3.329,7.944c0.269,0.625-0.022,1.35-0.648,1.619
				C617.528,280.61,617.363,280.642,617.201,280.642z M130.907,272.581c-0.067,0-0.137-0.006-0.206-0.017
				c-0.672-0.113-1.125-0.749-1.012-1.422c0.487-2.897,1.166-5.776,2.017-8.556c0.2-0.652,0.89-1.017,1.541-0.818
				c0.651,0.199,1.017,0.889,0.818,1.541c-0.82,2.677-1.473,5.45-1.943,8.243C132.02,272.154,131.498,272.581,130.907,272.581z
				 M610.696,264.644c-0.497,0-0.967-0.303-1.154-0.797c-1.079-2.855-2.041-5.525-2.938-8.162c-0.22-0.645,0.124-1.346,0.77-1.565
				c0.646-0.223,1.346,0.125,1.565,0.77c0.89,2.611,1.842,5.255,2.912,8.085c0.241,0.637-0.081,1.349-0.718,1.59
				C610.989,264.619,610.841,264.644,610.696,264.644z M135.951,256.117c-0.172,0-0.346-0.036-0.513-0.112
				c-0.62-0.283-0.892-1.016-0.608-1.635c1.203-2.63,2.602-5.232,4.159-7.737c0.36-0.578,1.12-0.755,1.699-0.396
				c0.579,0.36,0.756,1.12,0.396,1.7c-1.502,2.414-2.851,4.925-4.011,7.46C136.866,255.85,136.418,256.117,135.951,256.117z
				 M605.146,248.294c-0.531,0-1.023-0.347-1.182-0.883c-0.84-2.839-1.605-5.662-2.273-8.39c-0.161-0.662,0.243-1.329,0.905-1.492
				c0.661-0.162,1.33,0.242,1.493,0.905c0.658,2.689,1.413,5.475,2.242,8.276c0.193,0.654-0.18,1.339-0.832,1.533
				C605.381,248.278,605.263,248.294,605.146,248.294z M145.021,241.479c-0.27,0-0.542-0.089-0.769-0.27
				c-0.533-0.426-0.619-1.202-0.194-1.734c1.781-2.229,3.742-4.43,5.829-6.54c0.478-0.484,1.26-0.489,1.744-0.01
				c0.484,0.479,0.489,1.26,0.01,1.744c-2.026,2.049-3.929,4.184-5.655,6.346C145.742,241.32,145.383,241.479,145.021,241.479z
				 M601.059,231.523c-0.582,0-1.099-0.412-1.211-1.004c-0.345-1.816-0.658-3.669-0.934-5.505c-0.113-1.119-0.192-2.167-0.248-3.207
				c-0.036-0.681,0.485-1.262,1.166-1.299c0.63-0.043,1.261,0.484,1.297,1.165c0.055,1.004,0.13,2.015,0.232,3.035
				c0.263,1.746,0.572,3.566,0.91,5.352c0.126,0.669-0.313,1.315-0.982,1.441C601.212,231.516,601.135,231.523,601.059,231.523z
				 M157.229,229.307c-0.348,0-0.694-0.146-0.938-0.432c-0.443-0.517-0.382-1.296,0.136-1.739c2.182-1.867,4.428-3.731,6.676-5.54
				c0.529-0.428,1.306-0.345,1.734,0.187c0.427,0.531,0.343,1.307-0.187,1.734c-2.228,1.794-4.455,3.643-6.619,5.493
				C157.797,229.209,157.512,229.307,157.229,229.307z M170.683,218.472c-0.373,0-0.742-0.169-0.983-0.488
				c-0.411-0.543-0.305-1.317,0.238-1.728c2.289-1.735,4.641-3.463,6.989-5.137c0.556-0.395,1.325-0.266,1.721,0.288
				c0.395,0.555,0.266,1.325-0.289,1.721c-2.329,1.66-4.662,3.374-6.931,5.094C171.205,218.39,170.943,218.472,170.683,218.472z
				 M599.894,214.343c-0.019,0-0.037-0.001-0.055-0.001c-0.681-0.03-1.208-0.607-1.178-1.287c0.129-2.921,0.358-5.764,0.6-8.661
				c0.056-0.678,0.635-1.184,1.331-1.126c0.68,0.057,1.184,0.653,1.126,1.332c-0.24,2.872-0.465,5.687-0.593,8.565
				C601.096,213.826,600.549,214.343,599.894,214.343z M184.749,208.447c-0.398,0-0.788-0.192-1.026-0.547
				c-0.38-0.566-0.228-1.332,0.338-1.711c2.38-1.594,4.827-3.183,7.272-4.723c0.578-0.362,1.338-0.19,1.701,0.387
				c0.363,0.576,0.19,1.338-0.387,1.701c-2.426,1.527-4.853,3.103-7.213,4.684C185.223,208.38,184.985,208.447,184.749,208.447z
				 M199.363,199.246c-0.422,0-0.833-0.216-1.063-0.605c-0.347-0.587-0.152-1.343,0.434-1.69c2.469-1.46,4.999-2.91,7.52-4.311
				c0.596-0.332,1.347-0.115,1.678,0.479c0.331,0.596,0.116,1.347-0.479,1.678c-2.502,1.39-5.013,2.829-7.462,4.278
				C199.793,199.191,199.576,199.246,199.363,199.246z M601.15,197.12c-0.024,0-0.049-0.001-0.073-0.002
				c-0.681-0.04-1.2-0.624-1.159-1.304c0.145-2.444,0.216-4.63,0.217-6.681l-0.214-1.707c-0.086-0.676,0.391-1.293,1.067-1.38
				c0.684-0.085,1.295,0.393,1.381,1.068l0.224,1.791c0.006,0.05,0.01,0.101,0.01,0.151c0,2.122-0.072,4.38-0.222,6.903
				C602.342,196.614,601.798,197.12,601.15,197.12z M214.456,190.856c-0.445,0-0.875-0.241-1.094-0.663
				c-0.316-0.604-0.082-1.349,0.522-1.664c2.524-1.318,5.124-2.635,7.729-3.914c0.61-0.301,1.35-0.049,1.651,0.563
				c0.301,0.612,0.048,1.351-0.563,1.651c-2.587,1.27-5.169,2.578-7.675,3.886C214.843,190.811,214.648,190.856,214.456,190.856z
				 M229.952,183.246c-0.466,0-0.912-0.266-1.12-0.717c-0.286-0.619-0.016-1.352,0.602-1.637c2.014-0.931,4.04-1.844,6.076-2.741
				l1.081-1.081c0.482-0.482,1.263-0.482,1.744,0c0.482,0.482,0.482,1.263,0,1.745l-1.244,1.244
				c-0.108,0.109-0.236,0.195-0.375,0.257c-2.094,0.921-4.177,1.859-6.247,2.815C230.301,183.209,230.125,183.246,229.952,183.246z
				 M599.806,179.974c-0.573,0-1.088-0.402-1.207-0.986c-0.622-3.036-1.39-5.674-2.349-8.067c-0.253-0.633,0.054-1.35,0.687-1.604
				c0.631-0.252,1.351,0.054,1.605,0.686c1.013,2.531,1.823,5.308,2.474,8.489c0.137,0.668-0.294,1.319-0.961,1.456
				C599.971,179.966,599.888,179.974,599.806,179.974z M244.391,174.138c-0.422,0-0.833-0.217-1.064-0.607
				c-0.346-0.587-0.15-1.343,0.436-1.689c2.899-1.709,5.185-3.166,7.193-4.585c0.557-0.394,1.326-0.261,1.719,0.295
				c0.393,0.557,0.261,1.326-0.295,1.719c-2.065,1.46-4.405,2.952-7.364,4.696C244.82,174.083,244.603,174.138,244.391,174.138z
				 M593.257,164.143c-0.383,0-0.759-0.177-1.001-0.511c-0.528-0.73-1.097-1.453-1.693-2.147c-1.254-1.433-2.564-2.844-3.885-4.184
				c-0.478-0.485-0.474-1.266,0.012-1.744c0.485-0.478,1.266-0.474,1.744,0.012c1.355,1.375,2.7,2.822,3.994,4.301
				c0.647,0.755,1.259,1.532,1.827,2.317c0.399,0.552,0.275,1.323-0.277,1.722C593.761,164.068,593.508,164.143,593.257,164.143z
				 M258.336,164.028c-0.322,0-0.643-0.125-0.885-0.375c-0.475-0.489-0.463-1.27,0.026-1.744c1.851-1.795,3.446-3.641,4.877-5.645
				c0.04-0.055,0.084-0.107,0.132-0.155c0.24-0.24,0.479-0.469,0.719-0.688c0.501-0.461,1.282-0.425,1.743,0.078
				c0.46,0.502,0.425,1.283-0.078,1.743c-0.19,0.174-0.379,0.354-0.569,0.542c-1.503,2.093-3.174,4.023-5.106,5.897
				C258.955,163.913,258.646,164.028,258.336,164.028z M270.709,152.098c-0.316,0-0.631-0.12-0.872-0.361
				c-0.482-0.482-0.482-1.263,0-1.744l0.051-0.051c1.587-1.93,3.342-4.103,5.287-6.559c0.423-0.534,1.199-0.623,1.733-0.201
				c0.534,0.423,0.624,1.199,0.201,1.733c-1.955,2.469-3.721,4.655-5.397,6.684c-0.025,0.03-0.102,0.11-0.129,0.137
				C271.34,151.977,271.025,152.098,270.709,152.098z M581.222,151.809c-0.279,0-0.563-0.095-0.794-0.29
				c-2.143-1.805-4.418-3.548-6.761-5.18c-0.559-0.39-0.696-1.158-0.307-1.717c0.389-0.56,1.158-0.698,1.717-0.308
				c2.406,1.675,4.74,3.464,6.941,5.318c0.521,0.438,0.588,1.217,0.148,1.738C581.923,151.66,581.574,151.809,581.222,151.809z
				 M567.081,141.932c-0.21,0-0.423-0.053-0.617-0.166c-2.023-1.171-4.161-2.321-6.357-3.419c-0.346-0.149-0.753-0.323-1.159-0.494
				c-0.628-0.265-0.922-0.989-0.656-1.617c0.265-0.628,0.989-0.92,1.615-0.656c0.416,0.175,0.83,0.353,1.245,0.533
				c2.3,1.148,4.484,2.323,6.549,3.519c0.59,0.341,0.792,1.096,0.449,1.685C567.921,141.712,567.507,141.932,567.081,141.932z
				 M281.465,138.579c-0.264,0-0.531-0.084-0.756-0.259c-0.538-0.418-0.635-1.193-0.218-1.731l1.897-2.445
				c1.135-1.465,2.268-2.926,3.402-4.381c0.419-0.538,1.196-0.633,1.731-0.216c0.538,0.418,0.634,1.194,0.216,1.732
				c-1.132,1.454-2.265,2.914-3.399,4.377l-1.897,2.447C282.197,138.415,281.833,138.579,281.465,138.579z M551.376,134.845
				c-0.135,0-0.273-0.023-0.408-0.07c-2.613-0.917-5.357-1.796-8.156-2.614c-0.654-0.191-1.029-0.876-0.838-1.53
				c0.192-0.654,0.875-1.029,1.53-0.839c2.841,0.829,5.627,1.722,8.281,2.654c0.643,0.225,0.981,0.929,0.755,1.572
				C552.361,134.527,551.885,134.845,551.376,134.845z M534.82,129.979c-0.098,0-0.196-0.012-0.295-0.036
				c-2.653-0.652-5.395-1.273-8.381-1.902c-0.666-0.14-1.093-0.795-0.953-1.461c0.14-0.667,0.799-1.094,1.461-0.954
				c3.013,0.634,5.781,1.261,8.461,1.92c0.661,0.163,1.066,0.831,0.904,1.492C535.878,129.602,535.374,129.979,534.82,129.979z
				 M517.926,126.394c-0.075,0-0.151-0.007-0.228-0.021c-2.817-0.525-5.646-1.027-8.486-1.518c-0.671-0.116-1.12-0.755-1.005-1.426
				c0.116-0.671,0.757-1.118,1.426-1.005c2.849,0.494,5.689,0.998,8.517,1.525c0.669,0.125,1.111,0.769,0.987,1.438
				C519.027,125.979,518.509,126.394,517.926,126.394z M292.114,124.968c-0.27,0-0.543-0.088-0.77-0.27
				c-0.532-0.427-0.618-1.202-0.192-1.734c1.979-2.47,3.778-4.663,5.502-6.706c0.44-0.521,1.218-0.587,1.738-0.147
				c0.52,0.439,0.587,1.218,0.147,1.738c-1.71,2.026-3.496,4.203-5.461,6.657C292.833,124.809,292.475,124.968,292.114,124.968z
				 M500.911,123.416c-0.069,0-0.139-0.006-0.208-0.018c-2.833-0.484-5.674-0.971-8.52-1.476c-0.671-0.119-1.118-0.76-0.999-1.431
				c0.119-0.671,0.746-1.124,1.43-0.999c2.841,0.504,5.674,0.99,8.503,1.473c0.672,0.115,1.124,0.752,1.008,1.423
				C502.023,122.991,501.501,123.416,500.911,123.416z M483.905,120.368c-0.078,0-0.157-0.007-0.236-0.023
				c-3.037-0.59-5.814-1.164-8.49-1.755c-0.665-0.147-1.086-0.805-0.938-1.47c0.148-0.665,0.8-1.09,1.471-0.939
				c2.654,0.586,5.411,1.156,8.427,1.743c0.67,0.13,1.106,0.778,0.976,1.446C485,119.959,484.484,120.368,483.905,120.368z
				 M466.985,116.916c-0.073,0-0.148-0.007-0.223-0.02c-2.83-0.517-5.696-1.175-8.521-1.953c-0.657-0.181-1.042-0.86-0.861-1.517
				c0.181-0.658,0.868-1.043,1.517-0.861c2.755,0.759,5.551,1.4,8.309,1.904c0.671,0.123,1.114,0.766,0.991,1.435
				C468.089,116.499,467.57,116.916,466.985,116.916z M450.35,112.35c-0.141,0-0.284-0.025-0.424-0.076
				c-1.9-0.696-3.821-1.459-5.711-2.27c-0.795-0.349-1.578-0.701-2.36-1.06c-0.62-0.284-0.893-1.016-0.608-1.635
				c0.284-0.618,1.012-0.893,1.636-0.608c0.771,0.354,1.542,0.7,2.314,1.04c1.84,0.788,3.72,1.536,5.578,2.217
				c0.64,0.234,0.968,0.943,0.735,1.583C451.325,112.04,450.852,112.35,450.35,112.35z M303.29,111.787
				c-0.297,0-0.595-0.107-0.832-0.323c-0.502-0.46-0.538-1.24-0.078-1.743c2.072-2.267,4.046-4.319,6.035-6.273
				c0.484-0.478,1.266-0.471,1.744,0.016c0.478,0.486,0.47,1.267-0.016,1.744c-1.956,1.923-3.9,3.944-5.942,6.178
				C303.958,111.652,303.624,111.787,303.29,111.787z M434.585,105.299c-0.187,0-0.376-0.042-0.554-0.132
				c-2.567-1.294-5.131-2.631-7.696-3.983c-0.602-0.318-0.834-1.064-0.516-1.667c0.319-0.603,1.063-0.833,1.667-0.516
				c2.55,1.345,5.1,2.675,7.655,3.962c0.608,0.307,0.853,1.049,0.546,1.657C435.47,105.051,435.037,105.299,434.585,105.299z
				 M315.635,99.716c-0.348,0-0.694-0.146-0.938-0.431c-0.443-0.518-0.382-1.296,0.135-1.74c2.267-1.94,4.575-3.757,6.86-5.402
				c0.554-0.399,1.324-0.273,1.722,0.281c0.398,0.552,0.272,1.323-0.28,1.721c-2.23,1.605-4.483,3.38-6.697,5.275
				C316.204,99.618,315.918,99.716,315.635,99.716z M419.276,97.283c-0.194,0-0.391-0.046-0.575-0.143
				c-2.543-1.342-5.091-2.674-7.649-3.969c-0.607-0.308-0.85-1.051-0.542-1.658c0.307-0.607,1.046-0.851,1.658-0.543
				c2.57,1.302,5.13,2.64,7.685,3.989c0.602,0.318,0.834,1.064,0.516,1.667C420.147,97.044,419.719,97.283,419.276,97.283z
				 M329.647,89.675c-0.425,0-0.839-0.22-1.067-0.613c-0.343-0.589-0.143-1.344,0.446-1.687c2.539-1.477,5.16-2.822,7.791-3.999
				c0.619-0.277,1.351,0.001,1.63,0.623c0.278,0.622-0.001,1.352-0.623,1.629c-2.552,1.141-5.094,2.447-7.558,3.879
				C330.071,89.621,329.857,89.675,329.647,89.675z M403.847,89.526c-0.173,0-0.349-0.037-0.518-0.114
				c-2.777-1.287-5.348-2.4-7.859-3.403c-0.633-0.252-0.941-0.97-0.688-1.603c0.253-0.634,0.972-0.939,1.603-0.688
				c2.553,1.019,5.164,2.15,7.982,3.456c0.618,0.287,0.887,1.02,0.6,1.638C404.759,89.262,404.313,89.526,403.847,89.526z
				 M387.804,83.19c-0.122,0-0.247-0.019-0.37-0.057c-2.797-0.878-5.565-1.606-8.226-2.164c-0.667-0.14-1.094-0.793-0.954-1.46
				c0.14-0.667,0.794-1.095,1.46-0.954c2.74,0.574,5.585,1.322,8.459,2.225c0.649,0.204,1.011,0.896,0.807,1.546
				C388.816,82.852,388.329,83.19,387.804,83.19z M345.376,82.656c-0.522,0-1.007-0.334-1.175-0.858
				c-0.208-0.649,0.149-1.343,0.798-1.551c1.035-0.332,2.085-0.645,3.15-0.939c1.778-0.49,3.582-0.907,5.36-1.238
				c0.666-0.128,1.314,0.317,1.439,0.987c0.125,0.67-0.317,1.314-0.987,1.438c-1.71,0.319-3.445,0.72-5.156,1.191
				c-1.032,0.285-2.049,0.589-3.053,0.91C345.627,82.637,345.5,82.656,345.376,82.656z M370.932,79.716
				c-0.036,0-0.073-0.002-0.11-0.005c-2.836-0.251-5.643-0.317-8.459-0.187c-0.711,0.011-1.258-0.496-1.289-1.176
				c-0.031-0.681,0.495-1.258,1.176-1.289c2.927-0.134,5.843-0.066,8.789,0.194c0.679,0.06,1.181,0.658,1.12,1.337
				C372.103,79.232,371.564,79.716,370.932,79.716z"/>
		</g>
		<g>
			<path style="fill:#8EE4FD;" d="M119.025,235.316c0,3.066-2.485,5.551-5.551,5.551c-3.066,0-5.551-2.485-5.551-5.551
				c0-3.066,2.485-5.551,5.551-5.551C116.54,229.765,119.025,232.25,119.025,235.316z"/>
			<g>
				
					<ellipse transform="matrix(0.5661 -0.8243 0.8243 0.5661 128.2888 593.4661)" style="fill:#8EE4FD;" cx="627.891" cy="174.869" rx="14.187" ry="14.187"/>
				<circle style="fill:none;stroke:#8EE4FD;stroke-width:1.2336;stroke-miterlimit:10;" cx="624.19" cy="153.897" r="15.42"/>
			</g>
			<g>
				<circle style="fill:#8EE4FD;" cx="270.76" cy="69.395" r="9.869"/>
				<circle style="fill:none;stroke:#8EE4FD;stroke-width:1.2336;stroke-miterlimit:10;" cx="284.946" cy="72.479" r="10.486"/>
			</g>
			<circle style="fill:none;stroke:#8EE4FD;stroke-width:1.2336;stroke-miterlimit:10;" cx="135.062" cy="205.092" r="6.168"/>
			<circle style="fill:none;stroke:#8EE4FD;stroke-width:1.2336;stroke-miterlimit:10;" cx="625.423" cy="243.951" r="6.785"/>
		</g>
	</g>
	<g>
		<g>
			<path style="fill:#64E4E6;" d="M500.828,169.934c0,0-3.084-72.166-25.289-90.054C453.334,61.993,473.689,156.365,500.828,169.934
				z"/>
			<g>
				<path style="fill:#2CD0D1;" d="M494.465,160.461c-6.77-9.42-9.21-21.827-6.511-33.11c0.596-2.492,1.513-5.055,3.466-6.714
					c2.147-1.822,5.221-2.221,7.99-1.711c2.769,0.509,5.316,1.819,7.817,3.112c-0.935-5.657-0.765-11.769-0.739-17.503
					c0.022-4.793,0.43-9.758,2.73-13.964c2.3-4.205,6.931-7.458,11.68-6.806c5.449,0.748,8.979,5.964,11.798,10.686
					c1.567-7.54,5.504-15.061,10.575-20.856c4.748-5.426,11.947-9.903,18.88-7.92c5.829,1.667,9.668,7.627,10.419,13.643
					c0.751,6.016-1.044,12.06-3.332,17.674c-2.494,6.119-5.599,11.988-9.255,17.492c4.264-0.46,10.239,0.024,12.844,3.431
					c1.877,2.455,2.083,5.862,1.332,8.86c-1.172,4.671-4.413,8.612-8.247,11.528c-3.833,2.916-8.262,4.927-12.649,6.915
					c6.384,2.596,10.04,10.828,7.319,17.16c-1.6,3.724-4.846,6.493-8.282,8.644c-9.256,5.792-20.717,7.96-31.449,5.951
					C510.118,174.961,500.838,169.328,494.465,160.461z"/>
				<g>
					
						<line style="fill:none;stroke:#0B334C;stroke-width:0.9252;stroke-linecap:round;stroke-linejoin:round;stroke-miterlimit:10;" x1="561.687" y1="68.367" x2="514.193" y2="164.794"/>
					
						<line style="fill:none;stroke:#0B334C;stroke-width:0.9252;stroke-linecap:round;stroke-linejoin:round;stroke-miterlimit:10;" x1="518.305" y1="85.637" x2="536.809" y2="118.534"/>
					
						<line style="fill:none;stroke:#0B334C;stroke-width:0.9252;stroke-linecap:round;stroke-linejoin:round;stroke-miterlimit:10;" x1="512.137" y1="89.544" x2="533.725" y2="125.113"/>
					
						<line style="fill:none;stroke:#0B334C;stroke-width:0.9252;stroke-linecap:round;stroke-linejoin:round;stroke-miterlimit:10;" x1="556.135" y1="139.094" x2="526.94" y2="139.505"/>
				</g>
			</g>
			<g>
				<path style="fill:#2CD0D1;" d="M506.249,165.324c0,0-33.382-55.133-58.43-59.597
					C422.772,101.263,479.194,166.355,506.249,165.324z"/>
				
					<line style="fill:none;stroke:#0B334C;stroke-width:0.9252;stroke-linecap:round;stroke-linejoin:round;stroke-miterlimit:10;" x1="446.961" y1="110.104" x2="485.203" y2="147.318"/>
			</g>
		</g>
		<g>
			<g>
				<path style="fill:#64E4E6;" d="M193.453,416.657c0,0-39.064-82.652-5.757-101.978c33.308-19.327,11.514,102.39,11.514,102.39
					L193.453,416.657z"/>
				<g>
					<path style="fill:#2CD0D1;" d="M192.22,408.022c0,0-21.383-62.914-39.064-62.914c-17.682,0-4.523,33.308,34.13,64.559
						L192.22,408.022z"/>
					
						<line style="fill:none;stroke:#0B334C;stroke-width:0.9252;stroke-linecap:round;stroke-linejoin:round;stroke-miterlimit:10;" x1="149.557" y1="349.425" x2="178.239" y2="393.835"/>
				</g>
			</g>
			<path style="fill:#2CD0D1;" d="M150.894,436.395c0,0-13.364-12.747-7.402-24.467c5.963-11.719,23.233-8.018,23.233-8.018
				s-7.607-16.037,5.963-23.233c13.57-7.196,24.672,10.897,24.672,10.897s7.402-20.766,37.214-20.149
				c29.812,0.617,27.962,32.485,27.962,32.485s7.402-6.785,16.859-0.617c9.458,6.168,0,17.887,0,17.887s9.252,2.673,8.635,15.009
				L150.894,436.395z"/>
		</g>
	</g>
	<g>
		<g>
			<path style="fill:#FFFFFF;stroke:#1F5B99;stroke-width:1.1536;stroke-miterlimit:10;" d="M527.695,345.93H192.698V140.5
				c0-4.41,3.575-7.985,7.985-7.985H519.71c4.41,0,7.985,3.575,7.985,7.985V345.93z"/>
			<path style="fill:#1F5B99;" d="M527.695,148.552H192.698V140.5c0-4.41,3.575-7.985,7.985-7.985H519.71
				c4.41,0,7.985,3.575,7.985,7.985V148.552z"/>
		</g>
		<g>
			
				<ellipse transform="matrix(0.229 -0.9734 0.9734 0.229 95.9738 619.6586)" style="fill:#00A2DD;" cx="439.148" cy="249.246" rx="8.018" ry="8.018"/>
			
				<ellipse transform="matrix(0.7071 -0.7071 0.7071 0.7071 -39.9118 402.1357)" style="fill:#FCB13A;" cx="465.465" cy="249.246" rx="8.018" ry="8.018"/>
			
				<ellipse transform="matrix(0.9387 -0.3449 0.3449 0.9387 -55.7862 184.8872)" style="fill:#F64652;" cx="491.782" cy="249.246" rx="8.019" ry="8.018"/>
		</g>
		<g>
			<g>
				
					<rect x="296.73" y="167.869" style="fill:none;stroke:#0B334C;stroke-width:1.1536;stroke-miterlimit:10;" width="121.298" height="156.277"/>
				
					<rect x="413.467" y="241.494" style="fill:#FFFFFF;stroke:#1F5B99;stroke-width:1.1536;stroke-miterlimit:10;" width="9.027" height="9.027"/>
				
					<rect x="413.467" y="319.633" style="fill:#FFFFFF;stroke:#1F5B99;stroke-width:1.1536;stroke-miterlimit:10;" width="9.027" height="9.027"/>
				
					<rect x="413.467" y="163.638" style="fill:#FFFFFF;stroke:#1F5B99;stroke-width:1.1536;stroke-miterlimit:10;" width="9.027" height="9.027"/>
				
					<rect x="292.17" y="163.638" style="fill:#FFFFFF;stroke:#1F5B99;stroke-width:1.1536;stroke-miterlimit:10;" width="9.027" height="9.027"/>
				
					<rect x="291.746" y="241.494" style="fill:#FFFFFF;stroke:#1F5B99;stroke-width:1.1536;stroke-miterlimit:10;" width="9.027" height="9.027"/>
				
					<rect x="291.746" y="319.069" style="fill:#FFFFFF;stroke:#1F5B99;stroke-width:1.1536;stroke-miterlimit:10;" width="9.027" height="9.027"/>
				
					<rect x="352.865" y="163.92" transform="matrix(6.123234e-17 -1 1 6.123234e-17 188.9452 525.8124)" style="fill:#FFFFFF;stroke:#1F5B99;stroke-width:1.1536;stroke-miterlimit:10;" width="9.027" height="9.027"/>
				
					<rect x="352.865" y="317.94" transform="matrix(6.123234e-17 -1 1 6.123234e-17 34.9253 679.8323)" style="fill:#FFFFFF;stroke:#1F5B99;stroke-width:1.1536;stroke-miterlimit:10;" width="9.027" height="9.027"/>
			</g>
			<g>
				<g>
					<path style="fill:#FCB13A;" d="M398.17,223.158c0-22.23-17.67-40.332-39.73-41.029c-22.803-0.72-42.248,17.993-42.369,40.807
						c-0.059,11.132,4.316,21.239,11.46,28.664c6.653,6.915,10.58,16,10.58,25.596v1.614h38.02v-1.601
						c0-9.444,3.643-18.552,10.264-25.285C393.677,244.519,398.17,234.365,398.17,223.158z"/>
					<path style="fill:#0B334C;" d="M366.405,310.189h-18.57c-5.319,0-9.632-4.312-9.632-9.632v-22.244h37.833v22.244
						C376.037,305.877,371.724,310.189,366.405,310.189z"/>
					<path style="fill:#114D73;" d="M374.433,298.135l-35.871-7.265c-1.463-0.296-2.514-1.582-2.514-3.075v0
						c0-1.983,1.817-3.468,3.76-3.075l35.871,7.265c1.463,0.296,2.514,1.582,2.514,3.075l0,0
						C378.193,297.043,376.376,298.529,374.433,298.135z"/>
					<path style="fill:#0B334C;" d="M374.433,291.733l-35.871-7.265c-1.463-0.296-2.514-1.582-2.514-3.075l0,0
						c0-1.983,1.817-3.468,3.76-3.075l35.871,7.265c1.463,0.296,2.514,1.582,2.514,3.075l0,0
						C378.193,290.642,376.376,292.127,374.433,291.733z"/>
					<path style="fill:#0B334C;" d="M374.433,304.537l-35.871-7.265c-1.463-0.296-2.514-1.582-2.514-3.075l0,0
						c0-1.983,1.817-3.468,3.76-3.075l35.871,7.265c1.463,0.296,2.514,1.582,2.514,3.075l0,0
						C378.193,303.445,376.376,304.931,374.433,304.537z"/>
					<g>
						<g>
							<path style="fill:#0B334C;" d="M361.363,281.977l-2.115-0.272c1.808-14.077,3.985-28.254,6.493-42.297
								c-2.454,1.451-5.363,2.437-8.614,2.882c-2.295,0.312-5.262,0.412-8.235-0.351c3.972,12.108,6.722,24.625,8.187,37.287
								l-2.12,0.246c-1.511-13.058-4.403-25.961-8.61-38.413c-0.714-0.319-1.419-0.7-2.102-1.154
								c-2.274-1.507-4.059-3.836-4.896-6.388c-0.464-1.418,0.158-2.852,1.513-3.489c1.358-0.641,2.866-0.204,3.664,1.064
								c1.1,1.743,1.872,3.703,2.542,5.561c0.334,0.925,0.661,1.854,0.981,2.784c2.529,0.917,5.552,1.183,8.788,0.738
								c2.52-0.343,6.262-1.253,9.422-3.642c0.617-3.386,1.252-6.764,1.907-10.13c0.151-0.779,0.359-1.846,1.094-2.665
								c0.499-0.557,1.238-0.904,1.978-0.929c0.614-0.032,1.213,0.196,1.639,0.61c0.581,0.566,0.724,1.32,0.783,1.914
								c0.21,2.091-0.012,3.999-0.659,5.671c-1.011,2.607-2.642,4.85-4.778,6.648C365.561,252.357,363.259,267.22,361.363,281.977z
								 M342.132,231.873c-0.16,0-0.296,0.053-0.36,0.084c-0.18,0.083-0.575,0.339-0.393,0.893c0.675,2.059,2.1,3.943,3.921,5.191
								c-0.078-0.222-0.159-0.443-0.239-0.665c-0.63-1.746-1.349-3.577-2.339-5.149
								C342.547,231.949,342.323,231.873,342.132,231.873z M371.331,224.938c-0.115,0-0.339,0.065-0.482,0.224
								c-0.316,0.352-0.448,0.929-0.588,1.647c-0.461,2.374-0.913,4.756-1.356,7.141c0.832-1.057,1.554-2.286,2.108-3.718
								c0.525-1.356,0.702-2.933,0.526-4.687c-0.047-0.466-0.126-0.576-0.149-0.598
								C371.378,224.941,371.357,224.938,371.331,224.938z"/>
						</g>
					</g>
				</g>
				<g>
					
						<line style="fill:none;stroke:#FFFFFF;stroke-width:0.3084;stroke-linecap:round;stroke-linejoin:round;stroke-miterlimit:10;" x1="340.459" y1="278.236" x2="376.028" y2="285.74"/>
					
						<line style="fill:none;stroke:#FFFFFF;stroke-width:0.3084;stroke-linecap:round;stroke-linejoin:round;stroke-miterlimit:10;" x1="338.3" y1="297.048" x2="374.692" y2="304.758"/>
				</g>
			</g>
		</g>
	</g>
	<g>
		<g>
			<path style="fill:#0B334C;" d="M291.085,358.78h-14.407c-1.326,0-2.401-1.075-2.401-2.401v-17.688
				c0-1.282,1.039-2.321,2.321-2.321h14.567c1.282,0,2.321,1.039,2.321,2.321v17.688C293.486,357.705,292.411,358.78,291.085,358.78
				z"/>
			<rect x="274.277" y="342.933" style="fill:#FCB13A;" width="11.205" height="10.405"/>
			<path style="fill:#FCB13A;" d="M274.017,337.212v0.51c0,0.501,0.395,0.916,0.895,0.932c0.549,0.017,1.102,0.085,1.55,0.33
				c1.001,0.547,1.683,1.623,2.766,1.983c1.093,0.363,2.29-0.112,3.248-0.752c1.189-0.794,2.219-1.862,3.687-2.147
				c0.653-0.127,1.346-0.045,1.896,0.329c1.15,0.782,0.967,2.157,1.012,3.374c0.028,0.761,0.164,1.517,0.403,2.24
				c0.2,0.606,0.494,1.217,1.018,1.581c0.524,0.364,1.326,0.389,1.745-0.092c0.247-0.285,0.319-0.679,0.363-1.053
				c0.113-0.946,0.12-1.904,0.02-2.851c-0.055-0.521-0.141-1.051-0.029-1.563c0.078-0.358,0.282-0.709,0.575-0.915
				c0.258-0.181,0.423-0.464,0.423-0.778v-1.127c0-0.664-0.538-1.202-1.202-1.202h-17.168
				C274.555,336.009,274.017,336.548,274.017,337.212z"/>
		</g>
		<g>
			<g>
				<g>
					<rect x="178.349" y="358.667" style="fill:#184778;" width="7.402" height="77.612"/>
					<rect x="150.808" y="358.667" style="fill:#1F5B99;" width="7.402" height="77.612"/>
				</g>
				<g>
					<rect x="264.578" y="358.667" style="fill:#184778;" width="7.402" height="77.612"/>
					<rect x="292.12" y="358.667" style="fill:#1F5B99;" width="7.402" height="77.612"/>
				</g>
				<rect x="150.997" y="358.677" style="fill:#1F5B99;" width="148.524" height="7.402"/>
			</g>
		</g>
		<g>
			<g>
				<g>
					<g>
						<g>
							<path style="fill:#FA9778;" d="M268.383,299.278c-2.183-1.114-3.134-0.571-7.361-1.492c-0.635-0.139-1.434-0.278-2.329-0.417
								c-1.226,4.926-2.621,9.815-3.506,14.838c-0.08,0.456-0.149,0.917-0.222,1.375c2.304-0.154,4.609-0.286,6.919-0.366
								c-1.959,12.949-4.534,28.55-6.39,41.53c1.404,0.229,2.327,1.212,3.932,0.617c4.781-8.435,12.462-32.435,13.888-38.988
								c1.427-6.554,1.382-5.025,1.412-7.048C274.83,302.229,273.982,302.135,268.383,299.278z"/>
						</g>
						
							<line style="fill:none;stroke:#0B334C;stroke-width:0.3084;stroke-linecap:round;stroke-linejoin:round;stroke-miterlimit:10;" x1="262.202" y1="312.108" x2="261.893" y2="313.342"/>
					</g>
					<path style="fill:#1F5B99;" d="M259.854,354.403c0,0-2.517,1.663-4.413-0.003l-0.401,1.1c-0.351,0.962-0.53,1.977-0.531,3.001
						l0,0.311l13.2,0.011l0,0c0.001-0.952-0.596-1.802-1.492-2.125L259.854,354.403z"/>
				</g>
				<g>
					<g>
						<path style="fill:#FA9778;" d="M218.738,342.73c-2.215-0.293-4.4-0.587-6.549-0.975c0.089,1.203,0.182,2.396,0.282,3.562
							c-15.174-1.073-38.341,2.43-43.09,3.195c-0.568,0.086-0.876,0.136-0.876,0.136l-0.407,4.096l1.234,0.16l44.558,5.687
							l4.156,0.529c5.956,0.759,11.372-3.531,11.996-9.503l0.526-5.028l0.045-0.428C226.654,343.822,222.711,343.256,218.738,342.73
							z"/>
						
							<path style="fill:none;stroke:#0B334C;stroke-width:0.3084;stroke-linecap:round;stroke-linejoin:round;stroke-miterlimit:10;" d="
							M212.549,345.416c0,0,3.469,0.925,3.932,1.311"/>
					</g>
					<path style="fill:#1F5B99;" d="M169.369,352.815c0,0-1.609-2.552,0.097-4.412l-1.092-0.424
						c-0.954-0.371-1.966-0.572-2.989-0.595l-0.311-0.007l-0.291,13.197l0,0c0.952,0.021,1.815-0.558,2.156-1.446L169.369,352.815z"
						/>
				</g>
				<g>
					<path style="fill:#F64652;" d="M216.275,295.352c0,0-4.729,12.542-4.729,16.859c0,4.318,0,31.046,0,31.046l18.915,2.056
						l5.962-29.196l23.439-1.439l3.29-18.504l-18.447-3.016L216.275,295.352z"/>
					<g>
						
							<line style="fill:none;stroke:#0B334C;stroke-width:0.3084;stroke-linecap:round;stroke-linejoin:round;stroke-miterlimit:10;" x1="237.709" y1="306.249" x2="236.476" y2="315.912"/>
						
							<line style="fill:none;stroke:#0B334C;stroke-width:0.3084;stroke-linecap:round;stroke-linejoin:round;stroke-miterlimit:10;" x1="261.045" y1="296.071" x2="257.807" y2="314.036"/>
						
							<line style="fill:none;stroke:#0B334C;stroke-width:0.3084;stroke-linecap:round;stroke-linejoin:round;stroke-miterlimit:10;" x1="212.086" y1="341.021" x2="230.205" y2="343.103"/>
						
							<line style="fill:none;stroke:#0B334C;stroke-width:0.3084;stroke-linecap:round;stroke-linejoin:round;stroke-miterlimit:10;" x1="236.835" y1="313.727" x2="257.884" y2="312.802"/>
						
							<path style="fill:none;stroke:#0B334C;stroke-width:0.3084;stroke-linecap:round;stroke-linejoin:round;stroke-miterlimit:10;" d="
							M217.329,297.845c0,0-3.778,10.1-3.778,14.803c0,4.703-0.077,28.527-0.077,28.527"/>
						
							<line style="fill:none;stroke:#0B334C;stroke-width:0.3084;stroke-linecap:round;stroke-linejoin:round;stroke-miterlimit:10;" x1="222.032" y1="297.767" x2="214.939" y2="305.555"/>
					</g>
				</g>
			</g>
			<g>
				<g>
					<path style="fill:#FA9778;" d="M275.509,267.402c-0.753-1.049-2.196-1.32-3.257-0.617c-0.025,0.012-0.049,0.037-0.074,0.049
						l-0.062,0.049c-2.307,1.641-4.7,3.306-7.093,4.873c-2.406,1.579-4.824,3.121-7.278,4.601c-3.75,2.258-7.562,4.404-11.423,6.267
						c-0.358-0.999-0.691-2.011-1.011-3.022c-0.744-2.34-1.422-4.7-2.061-7.069c-0.611,0.344-1.201,0.666-1.746,0.915
						c-2.598,1.185-5.186,2.3-7.91,3.031c0.683,2.167,1.403,4.324,2.218,6.454c0.444,1.147,0.913,2.295,1.394,3.442
						c0.691,1.665,1.431,3.318,2.208,4.959l0.017,0.035c0.969,1.938,3.335,2.756,5.274,1.789c0.643-0.321,1.281-0.653,1.912-0.997
						c0.938-0.506,1.875-1.024,2.788-1.567c1.727-0.987,3.417-2.035,5.046-3.133c1.271-0.827,2.492-1.702,3.713-2.554
						c1.209-0.888,2.418-1.776,3.602-2.689c4.688-3.615,9.092-7.426,13.323-11.584c0.049-0.049,0.099-0.099,0.148-0.148
						C276.052,269.672,276.2,268.364,275.509,267.402z"/>
					<path style="fill:#FA9778;" d="M272.026,267.364c0,0,1.574-4.272,2.254-4.229c0.68,0.043,0.678,2.276,0.678,2.276
						s3.905-3.121,4.413-2.777c0.508,0.344-2.478,3.076-2.478,3.076s2.878-1.73,3.429-1.322c0.551,0.408-3.071,2.721-3.071,2.721
						s3.256-1.046,3.528-0.359c0.272,0.687-3.722,1.744-3.722,1.744s2.426-0.22,2.526,0.302c0.1,0.523-5.233,2.058-5.233,2.058
						L272.026,267.364z"/>
					<path style="fill:#1F5B99;" d="M234.368,279.803c0,0-6.785-16.268-1.773-19.584c5.012-3.315,8.481,2.159,8.789,3.624
						c0.308,1.465,3.315,13.184,3.315,13.184L234.368,279.803z"/>
				</g>
				<g>
					<path style="fill:#FA9778;" d="M233.662,255.907v-9.53h-7.491v9.53c0,1.147-0.93,2.077-2.076,2.077l0,0
						c8.499,12.36,11.718,0,11.718,0h-0.074C234.592,257.984,233.662,257.054,233.662,255.907z"/>
					<path style="fill:#0B334C;" d="M233.665,252.381v1.579c-0.365,0.031-0.731,0.012-1.096-0.062
						c-1.617-0.31-3.92-1.053-5.351-2.818c-0.347-0.421-0.7-1.028-1.047-1.759v-0.242c0.124,0.198,0.254,0.378,0.378,0.533
						c1.431,1.765,3.735,2.508,5.351,2.818C232.495,252.548,233.096,252.524,233.665,252.381z"/>
				</g>
				<g>
					<path style="fill:#1F5B99;" d="M241.256,261.53c-0.811-1.097-2.483-2.279-4.045-3.235l0.549-0.466l-4.009-1.439l-2.056,6.579
						l-5.524-7.062l-4.036,1.203l0.62,0.38c-1.984,0.383-6.621,2.015-7.005,7.677c-0.377,5.558-0.973,29.063-1.07,32.953
						c-0.007,0.289,0.242,0.518,0.53,0.487l20.186-2.227l1.645-2.056l2.262,2.262l9.197-2.835
						C248.5,293.75,243.003,263.895,241.256,261.53z"/>
					<g>
						
							<polyline style="fill:none;stroke:#0B334C;stroke-width:0.3084;stroke-linecap:round;stroke-linejoin:round;stroke-miterlimit:10;" points="
							231.708,265.27 231.708,262.957 222.649,257.444 						"/>
						
							<line style="fill:none;stroke:#0B334C;stroke-width:0.3084;stroke-linecap:round;stroke-linejoin:round;stroke-miterlimit:10;" x1="237.144" y1="258.408" x2="231.708" y2="262.957"/>
						
							<rect x="236.488" y="268.508" style="fill:none;stroke:#0B334C;stroke-width:0.3084;stroke-linecap:round;stroke-linejoin:round;stroke-miterlimit:10;" width="5.359" height="1.041"/>
						
							<line style="fill:none;stroke:#0B334C;stroke-width:0.3084;stroke-linecap:round;stroke-linejoin:round;stroke-miterlimit:10;" x1="237.144" y1="294.221" x2="237.144" y2="285.997"/>
					</g>
				</g>
				<g>
					<g>
						<g>
							<path style="fill:#1F5B99;" d="M277.695,269.19l2.357-0.973c0.084-0.035,0.124-0.131,0.089-0.215l-3.42-8.286
								c-0.035-0.084-0.131-0.124-0.215-0.089l-2.357,0.973c-0.084,0.035-0.124,0.131-0.089,0.215l3.42,8.286
								C277.515,269.185,277.611,269.225,277.695,269.19z"/>
							<g>
								<path style="fill:#1F5B99;" d="M276.07,263.099l-2.541-6.157l-6.462,2.667c-0.922,0.382-1.982-0.061-2.362-0.982
									l-1.726-4.182c-0.184-0.447-0.183-0.938,0.002-1.385c0.186-0.446,0.534-0.794,0.981-0.978l6.69-2.761l0.376,0.913
									l-6.69,2.761c-0.202,0.083-0.361,0.241-0.446,0.445c-0.084,0.202-0.084,0.426,0,0.63l1.725,4.18
									c0.172,0.419,0.657,0.617,1.075,0.446l7.373-3.043l2.919,7.07L276.07,263.099z"/>
							</g>
							<path style="fill:#FCB13A;" d="M267.776,253.889l16.344-6.746c0.525-0.217,0.775-0.818,0.558-1.342l-1.161-2.813
								c-0.217-0.525-0.818-0.775-1.342-0.558l-16.344,6.746c-0.525,0.217-0.775,0.818-0.558,1.342l1.161,2.813
								C266.65,253.855,267.251,254.105,267.776,253.889z"/>
						</g>
						<path style="fill:#FA9778;" d="M279.804,266.095c0.025-0.344-0.439-1.265-0.439-1.265c0.012-0.645-0.869-1.365-0.869-1.365
							s0.381-0.964-0.263-1.31c-0.41-0.221-1.093,0.293-1.535,0.695c-0.702,0.433-1.241,0.787-1.241,0.787s0.2-2.224-0.473-2.328
							c-0.521-0.08-1.799,2.354-2.354,3.467c-0.023,0.012-0.046,0.023-0.07,0.035l-0.062,0.037c-2.443,1.431-4.971,2.874-7.5,4.219
							c-2.541,1.369-5.083,2.689-7.661,3.948c-4.404,2.146-8.882,4.145-13.385,5.761c-1.887-1.653-3.738-3.38-5.539-5.169
							c-0.817-0.802-1.618-1.623-2.416-2.447c-1.342,1.08-2.674,2.175-3.975,3.296c-0.639,0.713-1.277,1.424-1.904,2.136
							c-0.497,0.564-0.986,1.137-1.478,1.706c0.954,0.905,1.916,1.801,2.901,2.674c0.358,0.321,0.728,0.629,1.098,0.95
							c1.937,1.665,3.923,3.294,5.995,4.823c0.177,0.129,0.355,0.257,0.533,0.385c1.642,1.182,3.793,1.445,5.654,0.652
							c0.01-0.004,0.02-0.009,0.03-0.013c2.245-0.975,4.441-1.998,6.575-3.109c0.555-0.296,1.098-0.58,1.64-0.888
							c1.345-0.703,2.628-1.468,3.935-2.208c1.283-0.777,2.566-1.554,3.824-2.356c4.984-3.183,9.696-6.587,14.285-10.35
							c0.002-0.002,0.004-0.004,0.007-0.005c1.022-0.214,2.841-0.617,3.872-0.98c0-0.001,0-0.001-0.001-0.001
							c0.529-0.086,1.06-0.207,1.252-0.373C280.675,267.126,279.804,266.095,279.804,266.095z M277.275,266.895
							c0,0,0.035-0.006,0.069-0.012l0.004,0.013C277.317,266.895,277.275,266.895,277.275,266.895z"/>
					</g>
					<g>
						<polygon style="fill:#0B334C;" points="237.298,272.504 230.462,280.009 232.543,281.859 						"/>
						
							<path style="fill:none;stroke:#0B334C;stroke-width:0.3084;stroke-linecap:round;stroke-linejoin:round;stroke-miterlimit:10;" d="
							M240.485,281.011c0,0,2.724-1.902,3.547-2.21"/>
						
							<path style="fill:none;stroke:#0B334C;stroke-width:0.3084;stroke-linecap:round;stroke-linejoin:round;stroke-miterlimit:10;" d="
							M245.368,287.487c0,0,21.023-10.897,29.915-18.71l2.107-0.514"/>
					</g>
					<g>
						<path style="fill:#1F5B99;" d="M230.05,280.574L218.1,267.698c0,0-2.287-5.294,1.388-7.787
							c3.675-2.493,7.325,0.231,8.712,1.85c1.388,1.619,9.329,10.563,9.329,10.563L230.05,280.574z"/>
						<g>
							
								<polyline style="fill:none;stroke:#0B334C;stroke-width:0.3084;stroke-linecap:round;stroke-linejoin:round;stroke-miterlimit:10;" points="
								219.796,269.703 229.973,280.728 230.513,280.111 							"/>
							
								<line style="fill:none;stroke:#0B334C;stroke-width:0.3084;stroke-linecap:round;stroke-linejoin:round;stroke-miterlimit:10;" x1="228.329" y1="278.929" x2="236.373" y2="271.296"/>
						</g>
					</g>
				</g>
			</g>
			<g>
				<g>
					<path style="fill:#FA9778;" d="M237.654,238.595c-0.898-4.069-5.011-6.565-9.042-5.5c-3.724,0.985-6.005,4.653-5.357,8.344
						c-0.051,0.016-0.104,0.025-0.154,0.046c-1.049,0.429-1.551,1.627-1.122,2.675c0.382,0.935,1.742,2.011,2.776,1.931
						c0.584,1.502,1.196,2.787,1.795,3.522c1.431,1.765,3.735,2.508,5.351,2.818c1.214,0.235,2.465-0.093,3.406-0.898
						c0.867-0.737,1.914-1.808,2.595-3.146c0.31-0.595,0.545-1.245,0.663-1.945c0.062-0.366,0.08-0.799,0.068-1.288
						C238.601,243.401,238.174,240.948,237.654,238.595z"/>
					<g>
						<g>
							<path style="fill:#0B334C;" d="M233.202,242.699c0.208,0.656,0.444,1.194,0.595,1.856c0.052,0.322,0.148,0.675,0.003,1.094
								c-0.164,0.43-0.553,0.576-0.874,0.65c0.206-0.282,0.391-0.554,0.391-0.775c0.008-0.223-0.076-0.525-0.144-0.835
								C233.052,244.086,232.901,243.353,233.202,242.699z"/>
						</g>
						<g>
							<g>
								<path style="fill:#0B334C;" d="M231.35,241.109c-0.366-0.021-0.748-0.051-1.094,0.002c-0.348,0.061-0.66,0.231-0.94,0.522
									l-0.01,0.011c-0.052,0.054-0.137,0.055-0.19,0.004c-0.042-0.04-0.052-0.101-0.03-0.152c0.092-0.206,0.202-0.428,0.392-0.586
									c0.177-0.168,0.401-0.294,0.634-0.363c0.471-0.148,0.958-0.12,1.396,0.094c0.123,0.06,0.174,0.209,0.114,0.332
									c-0.045,0.092-0.14,0.144-0.237,0.139L231.35,241.109z"/>
							</g>
							<g>
								<path style="fill:#0B334C;" d="M235.006,240.641c0.438-0.214,0.925-0.242,1.396-0.094c0.234,0.069,0.458,0.195,0.634,0.363
									c0.19,0.157,0.301,0.38,0.392,0.586c0.03,0.068,0,0.148-0.068,0.178c-0.053,0.024-0.113,0.01-0.152-0.03l-0.01-0.011
									c-0.279-0.291-0.591-0.461-0.94-0.522c-0.346-0.053-0.728-0.023-1.094-0.002l-0.035,0.002
									c-0.137,0.008-0.254-0.097-0.262-0.234C234.861,240.775,234.919,240.684,235.006,240.641z"/>
							</g>
						</g>
						<g>
							<path style="fill:#0B334C;" d="M236.56,243.654c0,0.584-0.295,1.058-0.658,1.058c-0.363,0-0.658-0.474-0.658-1.058
								c0-0.584,0.295-1.058,0.658-1.058C236.266,242.597,236.56,243.07,236.56,243.654z"/>
							<path style="fill:#0B334C;" d="M231.27,243.654c0,0.584-0.295,1.058-0.658,1.058c-0.363,0-0.658-0.474-0.658-1.058
								c0-0.584,0.295-1.058,0.658-1.058C230.975,242.597,231.27,243.07,231.27,243.654z"/>
						</g>
						<g>
							<g>
								<path style="fill:#0B334C;" d="M233.082,248.896c-0.163,0.097-0.346,0.098-0.526,0.126
									c-0.177-0.027-0.376-0.031-0.518-0.163c0.184,0.004,0.344,0.034,0.518,0.008
									C232.728,248.894,232.898,248.861,233.082,248.896z"/>
							</g>
							<g>
								<path style="fill:#0B334C;" d="M234.314,247.751c-0.339,0.466-0.891,0.788-1.507,0.829
									c-0.307,0.004-0.624-0.081-0.869-0.258c-0.256-0.165-0.434-0.411-0.564-0.664c0.442,0.361,0.904,0.659,1.425,0.613
									C233.314,248.268,233.814,248.02,234.314,247.751z"/>
							</g>
						</g>
						<path style="fill:#0B334C;" d="M230.606,247.371c0,0-0.064-1.148,2.415-1.1c0,0,1.65,0.047,1.938,1.147
							C234.959,247.418,233.752,248.424,230.606,247.371z"/>
					</g>
				</g>
				<path style="fill:#0B334C;" d="M224.283,237.448c-0.019-0.005-0.037-0.009-0.055-0.014c-1.604-0.392-3.303,0.474-3.837,2.036
					c-0.046,0.136-0.087,0.273-0.122,0.41c-0.592,2.257-0.062,4.749,1.295,6.661c1.123,1.579,2.776,2.751,4.614,3.38v-0.839
					c-0.481-0.753-0.962-1.801-1.431-2.998c-1.036,0.086-2.393-0.987-2.763-1.924c-0.269-0.652-0.174-1.361,0.188-1.909
					c0.445-0.672,1.396-0.778,2.072-0.339c0.437,0.284,0.813,0.675,0.976,1.216c0,0,0.874,0.154,1.182-0.206
					c0.163-0.19-0.017-1.496-0.041-2.778C226.336,238.882,225.507,237.755,224.283,237.448z"/>
				<path style="fill:#0B334C;" d="M239.716,240.35c0.004-0.169-0.002-0.331-0.01-0.493c-0.005-0.11-0.009-0.217-0.018-0.335
					c-0.002-0.028-0.008-0.051-0.01-0.078c-0.004-0.029-0.007-0.059-0.011-0.087c-0.32-2.836-2.458-2.085-2.458-2.085
					c0.167,0.333,0.37,1.01,0.37,1.01s1.021,5.113,1.058,6.866c0.012,0.284,0,0.555-0.025,0.802c0.333-0.814,0.58-1.665,0.716-2.529
					c0.114-0.734,0.267-1.555,0.346-2.35C239.699,240.854,239.714,240.613,239.716,240.35z"/>
			</g>
		</g>
	</g>
	<g>
		<g>
			<g>
				<polygon style="fill:#FCB13A;" points="435.94,409.809 430.613,416.948 436.154,416.948 				"/>
				<polygon style="fill:#FCB13A;" points="479.602,409.809 484.93,416.948 479.389,416.948 				"/>
				<rect x="435.94" y="409.809" style="fill:#FCB13A;" width="43.688" height="23.336"/>
				<polygon style="fill:#FCB13A;" points="482.612,419.399 432.957,419.399 435.94,409.809 479.628,409.809 				"/>
			</g>
			<g>
				<polygon style="fill:#0B334C;" points="479.591,409.886 481.904,416.902 483.831,416.902 				"/>
				<polygon style="fill:#0B334C;" points="479.591,419.369 435.935,419.369 435.935,422.839 				"/>
			</g>
		</g>
		<g>
			<g>
				<g>
					<path style="fill:#0B334C;" d="M382.68,408.507l2.479,5.95h-6.445h-4.284h-9.88c0,0-2.268,3.434-4.51,7.659
						c-3.439,6.479-0.532,14.514,6.268,17.266c8.337,3.374,17.757,2.457,25.262-2.371c13.685-3.593,31.034-9.285,36.174-16.053
						C434.353,412.253,382.68,408.507,382.68,408.507z"/>
					<g>
						
							<path style="fill:none;stroke:#FFFFFF;stroke-width:0.3305;stroke-linecap:round;stroke-linejoin:round;stroke-miterlimit:10;" d="
							M384.884,414.787c0,0-2.755,11.018,3.085,12.34c5.839,1.322,27.324-5.399,26.553-11.789"/>
						
							<line style="fill:none;stroke:#FFFFFF;stroke-width:0.3305;stroke-linecap:round;stroke-linejoin:round;stroke-miterlimit:10;" x1="387.197" y1="414.346" x2="402.292" y2="412.253"/>
						
							<path style="fill:none;stroke:#FFFFFF;stroke-width:0.3305;stroke-linecap:round;stroke-linejoin:round;stroke-miterlimit:10;" d="
							M367.696,423.711l9.365,0.331c0,0,0.331,11.458-3.966,11.789C368.798,436.162,365.382,432.305,367.696,423.711z"/>
						
							<path style="fill:none;stroke:#FFFFFF;stroke-width:0.3305;stroke-linecap:round;stroke-linejoin:round;stroke-miterlimit:10;" d="
							M364.28,416.55c0,0,10.467,1.432,20.052,0.661"/>
					</g>
				</g>
				<path style="fill:#00A2DD;" d="M401.61,438.541c-3.029-0.213-3.756-4.347-0.99-5.597c5.789-2.617,13.491-5.659,15.995-4.605
					C420.038,429.78,412.708,439.323,401.61,438.541z"/>
			</g>
			<g>
				<g>
					<g>
						<path style="fill:#FFCBA1;" d="M411.767,382.534c-0.473-1.957-0.975-3.964-1.177-4.722c-0.04-0.106-0.066-0.225-0.093-0.33
							c-0.45-1.534-0.899-3.068-1.388-4.588c-1.901-6.008-4.133-11.791-6.772-17.548c0.086-1.604,0.228-5.153-0.206-5.223
							c-0.561-0.09-1.223,2.426-1.223,2.426s0.394-4.393-0.395-4.371c-0.789,0.022-0.924,3.672-0.924,3.672
							s-1.003-4.478-1.613-4.074c-0.61,0.404,0.078,3.924,0.078,3.924s-1.655-3.992-2.185-3.608
							c-0.53,0.385,1.181,5.441,1.181,5.441s-2.241-0.815-2.532-0.148c-0.226,0.517,1.951,2.512,2.943,3.385
							c0,0.002,0,0.005,0.001,0.007c0,0.027,0.013,0.04,0.013,0.066l0.013,0.079c0.807,2.909,1.613,5.91,2.314,8.898
							c0.714,2.988,1.375,5.976,1.97,8.977c0.317,1.6,0.608,3.213,0.886,4.813c-4.072,0.727-8.237,1.177-12.428,1.481
							c-0.996,0.071-1.995,0.117-2.994,0.169c0.225,2.566,0.357,5.139,0.416,7.737c0.024,1.059,0.095,2.109,0.18,3.157
							c1.152-0.111,2.305-0.219,3.456-0.366c3.213-0.423,6.426-0.939,9.625-1.626c1.031-0.225,2.049-0.463,3.081-0.727
							c1.025-0.252,2.882-0.808,4.629-1.353C410.968,387.349,412.344,384.923,411.767,382.534z"/>
						
							<path style="fill:none;stroke:#0B334C;stroke-width:0.3305;stroke-linecap:round;stroke-linejoin:round;stroke-miterlimit:10;" d="
							M402.594,379.503c0,0,0.496,3.553,1.157,4.793"/>
					</g>
					<path style="fill:#F64652;" d="M389.511,392.311c0,0-18.73,3.416-22.586-1.763c-3.856-5.178,2.314-9.255,3.526-9.365
						c1.212-0.11,17.959-0.22,17.959-0.22L389.511,392.311z"/>
				</g>
				<g>
					<path style="fill:#FFCBA1;" d="M377.667,379.95v-10.176h-7.999v10.176c0,1.225-0.841,2.322-2.066,2.322l-0.62,0.124
						c11.51,9.499,12.981-0.228,12.981-0.228h-0.079C378.66,382.167,377.667,381.174,377.667,379.95z"/>
					<path style="fill:#0B334C;" d="M377.669,376.009v2.34c-0.926-0.423-1.824-1.018-2.552-1.838
						c-0.317-0.357-0.635-0.833-0.952-1.415c1.084,0.476,2.181,0.74,3.094,0.873C377.392,375.996,377.524,376.009,377.669,376.009z"
						/>
				</g>
				<path style="fill:#F64652;" d="M369.097,381.534c0,0,9.727,0.09,10.939,0.641c1.212,0.551,6.831,5.95,7.602,9.255
					c0.771,3.305-3.966,13.111-3.415,14.984c0.551,1.873,2.69,8.043,2.69,8.043H363.73c0,0,2.975-11.458,0.22-18.289
					C361.196,389.336,361.905,381.773,369.097,381.534z"/>
				<g>
					<path style="fill:#FFCBA1;" d="M451.708,417.269c-0.089-0.649-5.354-1.529-5.354-1.529s1.776-1.591,1.326-2.162
						c-0.349-0.443-3.13,0.531-4.37,0.994c-0.024-0.006-0.046-0.018-0.071-0.023l-0.079-0.018c-2.944-0.664-5.976-1.378-8.933-2.172
						c-2.97-0.782-5.925-1.604-8.844-2.498c-5.832-1.786-11.569-3.804-16.928-6.268c-5.305-2.468-10.388-5.581-15.324-8.971
						c-1.647-1.125-3.266-2.303-4.873-3.496c-0.34,0.63-0.678,1.26-1.001,1.883c-1.324,2.554-2.623,5.339-4.112,7.993
						c1.362,0.908,2.742,1.792,4.145,2.646c2.773,1.678,5.606,3.275,8.531,4.734c2.943,1.43,5.95,2.784,9.066,3.905
						c3.097,1.102,6.196,2.091,9.322,2.868c1.557,0.422,3.123,0.766,4.683,1.132c1.566,0.33,3.13,0.663,4.699,0.945
						c6.204,1.152,12.373,1.931,18.69,2.327c1.384,0.84,4.414,2.619,4.679,2.271c0.344-0.452-1.561-2.224-1.561-2.224
						s3.686,2.422,4.039,1.716c0.353-0.706-2.8-2.549-2.8-2.549s4.421,1.231,4.352,0.502c-0.068-0.729-3.495-1.784-3.495-1.784
						S451.797,417.917,451.708,417.269z"/>
					<g>
						<path style="fill:#F64652;" d="M386.536,403.88c0,0-19.171-8.594-17.408-16.857c1.763-8.263,9.255-4.517,12.009-1.542
							c2.755,2.975,11.995,9.143,11.995,9.143L386.536,403.88z"/>
						<g>
							
								<path style="fill:none;stroke:#0B334C;stroke-width:0.3305;stroke-linecap:round;stroke-linejoin:round;stroke-miterlimit:10;" d="
								M384.911,403.219c0,0-11.816-6.941-15.122-11.155"/>
							
								<line style="fill:none;stroke:#0B334C;stroke-width:0.3305;stroke-linecap:round;stroke-linejoin:round;stroke-miterlimit:10;" x1="389.125" y1="391.733" x2="380.201" y2="384.626"/>
						</g>
					</g>
				</g>
			</g>
			<g>
				<g>
					<path style="fill:#FFCBA1;" d="M385.349,368.299c-0.126-0.175-0.306-0.303-0.47-0.444c-0.384-0.331-0.659-0.741-0.868-1.197
						c-0.219-1.69-0.664-3.711-1.178-5.679c-1.123-4.305-5.612-6.802-9.871-5.502c-4.253,1.299-6.587,5.875-5.118,10.068
						c1.091,3.115,2.396,6.289,3.586,7.64c1.598,1.825,4.086,2.525,5.824,2.79c1.305,0.202,2.626-0.199,3.598-1.096
						c0.895-0.821,1.969-2.007,2.642-3.462c0.191-0.403,0.334-0.835,0.45-1.279c0.412-0.319,0.824-0.638,1.236-0.957
						c0.1-0.078,0.203-0.159,0.26-0.272C385.539,368.715,385.476,368.474,385.349,368.299z"/>
					<g>
						<g>
							<path style="fill:#FFB285;" d="M380.403,369.651c0,1.027-0.833,1.86-1.86,1.86c-1.027,0-1.86-0.833-1.86-1.86
								c0-1.027,0.833-1.86,1.86-1.86C379.57,367.79,380.403,368.623,380.403,369.651z"/>
						</g>
						<g>
							<g>
								<path style="fill:#0B334C;" d="M381.784,363.736c-0.391-0.022-0.799-0.054-1.168,0.003
									c-0.372,0.065-0.705,0.247-1.004,0.557l-0.011,0.011c-0.055,0.057-0.146,0.059-0.203,0.004
									c-0.045-0.043-0.056-0.108-0.032-0.162c0.098-0.22,0.216-0.457,0.418-0.625c0.189-0.18,0.428-0.314,0.677-0.388
									c0.503-0.158,1.023-0.129,1.491,0.1c0.131,0.064,0.186,0.223,0.122,0.354c-0.048,0.098-0.15,0.154-0.253,0.148
									L381.784,363.736z"/>
							</g>
						</g>
						<g>
							<g>
								<path style="fill:#0B334C;" d="M381.201,371.849c-0.201,0.028-0.381-0.046-0.57-0.093c-0.163-0.1-0.357-0.185-0.444-0.374
									c0.18,0.08,0.325,0.175,0.507,0.222C380.854,371.702,381.035,371.739,381.201,371.849z"/>
							</g>
							<g>
								<path style="fill:#0B334C;" d="M382.887,371.228c-0.526,0.319-1.202,0.409-1.826,0.196c-0.304-0.122-0.581-0.336-0.75-0.612
									c-0.184-0.268-0.258-0.583-0.282-0.887c0.287,0.537,0.62,1.022,1.151,1.19C381.689,371.326,382.283,371.287,382.887,371.228
									z"/>
							</g>
						</g>
						<g>
							<path style="fill:#0B334C;" d="M382.042,366.813c-0.447-0.128-0.802-0.197-1.163-0.173c-0.361,0.013-0.715,0.121-1.171,0.236
								c0.105-0.21,0.266-0.382,0.465-0.511c0.194-0.142,0.439-0.203,0.683-0.225C381.35,366.119,381.85,366.379,382.042,366.813z"
								/>
						</g>
					</g>
				</g>
				<path style="fill:#0B334C;" d="M383.672,358.61c-0.436-1.706-1.494-3.252-2.975-4.178c-0.859-0.542-1.838-0.873-2.843-1.045
					c-2.34-0.423-4.826,0.027-6.888,1.216c-0.714,0.41-1.375,0.899-1.996,1.428c-0.793,0.674-1.534,1.401-2.142,2.248
					c-1.044,1.467-1.296,3.411-1.613,5.183c-0.463,2.684-1.613,5.183-2.882,7.589c-0.569,1.097-1.177,2.182-1.534,3.371
					c-0.357,1.19-0.449,2.499,0.013,3.649c0.489,1.23,1.613,2.168,2.882,2.565c0.918,0.287,3.613,0.435,5.364,0.591
					c1.483,0.132,3.005-0.202,4.182-1.113c4.687-3.631-1.743-10.885-1.743-10.885c-3.856-2.81-0.606-4.627-0.606-4.627
					c0.78,0.096,1.521,0.102,2.236,0.058c0.342,0.509,0.712,1.363,0.519,2.586c0,0,1.706-1.721,2.249-3.074
					c3.738-1.121,6.107-3.699,6.578-4.249c0.142,0.339,0.27,0.687,0.366,1.053c0.212,0.793,0.41,1.6,0.582,2.393
					C383.962,361.849,384.068,360.184,383.672,358.61z"/>
			</g>
		</g>
	</g>
	<g>
		<g>
			<polygon style="fill:#8EE4FD;" points="416.532,52.485 428.456,59.269 440.998,34.803 			"/>
			<polygon style="fill:#84D3EB;" points="416.532,52.485 416.12,61.531 423.728,56.597 			"/>
			<polygon style="fill:#51BAD9;" points="416.12,61.531 411.803,51.251 440.998,34.803 416.532,52.485 			"/>
			<polygon style="fill:#8EE4FD;" points="440.998,34.803 401.934,47.756 411.803,51.251 			"/>
		</g>
		<g>
			<g>
				<polygon style="fill:#8EE4FD;" points="595.075,264.666 550.379,264.666 550.379,213.265 584.04,213.265 595.075,225.277 				
					"/>
				<polygon style="fill:#8EE4FD;" points="584.04,213.265 580.967,225.417 595.075,225.277 				"/>
			</g>
			
				<polyline style="fill:none;stroke:#0B334C;stroke-width:0.9252;stroke-linecap:round;stroke-linejoin:round;stroke-miterlimit:10;" points="
				583.892,213.163 581.013,225.499 594.994,225.396 			"/>
		</g>
		<g>
			<path style="fill:#00A2DD;" d="M223.11,116.625c3.144-0.951,6.373-0.524,9.046,0.941l-8.652-28.589l-26.125,7.906
				c0.172-1.533,0.045-3.124-0.43-4.694c-1.875-6.195-8.416-9.697-14.611-7.822c-6.194,1.875-9.696,8.416-7.822,14.611
				c0.475,1.57,1.252,2.965,2.245,4.145l-26.125,7.906l8.652,28.589c1.413-2.701,3.863-4.847,7.007-5.799
				c6.189-1.873,12.729,1.628,14.602,7.817c1.876,6.199-1.625,12.739-7.814,14.612c-3.144,0.951-6.372,0.524-9.046-0.941
				l8.652,28.589l26.125-7.906c-0.172,1.533-0.045,3.124,0.43,4.694c1.875,6.195,8.416,9.697,14.61,7.822
				c6.195-1.875,9.697-8.416,7.822-14.611c-0.475-1.57-1.252-2.965-2.245-4.145l26.125-7.906l-8.652-28.589
				c-1.413,2.701-3.863,4.847-7.007,5.799c-6.189,1.873-12.739-1.625-14.615-7.824C213.41,125.041,216.921,118.498,223.11,116.625z"
				/>
			<g>
				
					<line style="fill:none;stroke:#0B334C;stroke-width:0.9252;stroke-linecap:round;stroke-linejoin:round;stroke-miterlimit:10;" x1="174.075" y1="180.112" x2="197.206" y2="173.327"/>
				
					<line style="fill:none;stroke:#0B334C;stroke-width:0.9252;stroke-linecap:round;stroke-linejoin:round;stroke-miterlimit:10;" x1="199.673" y1="99.619" x2="222.495" y2="92.371"/>
			</g>
		</g>
	</g>
	<g>
		<g>
			<g>
				<path style="fill:#CC6F49;" d="M555.1,421.074l0.764,11.912l4.134-0.206c0,0,1.117-4.851,2.344-11.706H555.1z"/>
				<path style="fill:#0B334C;" d="M555.76,431.834c0,0,2.533,1.673,4.44-0.004l0.404,1.107c0.353,0.968,0.534,1.989,0.534,3.019
					l0,0.313l-13.28,0.011l0,0c-0.001-0.958,0.6-1.813,1.501-2.138L555.76,431.834z"/>
			</g>
			<g>
				<path style="fill:#CC6F49;" d="M575.881,421.074l1.263,12.02l4.128-0.314c0,0,0.923-4.835,1.926-11.706H575.881z"/>
				<path style="fill:#0B334C;" d="M577.101,431.818c0,0,2.531,1.675,4.44,0l0.402,1.108c0.352,0.968,0.532,1.99,0.532,3.02l0,0.313
					l-13.28-0.002l0,0c0-0.958,0.601-1.813,1.503-2.137L577.101,431.818z"/>
			</g>
		</g>
		<g>
			<g>
				<path style="fill:#CC6F49;" d="M551.598,302.064c-0.156,0.372-0.302,0.75-0.461,1.121c-2.222,5.187-4.699,10.227-7.679,14.866
					c-3.024,4.662-6.574,9.16-10.318,13.521c-1.873,2.183-3.811,4.326-5.782,6.446c-1.955,2.123-4.008,4.218-6.018,6.231
					l-0.054,0.054c-0.937,0.938-0.935,2.458,0.003,3.395c0.845,0.844,2.164,0.926,3.101,0.247c4.899-3.538,9.476-7.314,13.89-11.41
					c1.107-1.015,2.184-2.068,3.265-3.12c1.057-1.078,2.13-2.141,3.158-3.262c2.096-2.194,4.065-4.544,5.976-6.982
					c1.916-2.462,3.627-5.056,5.25-7.678c1.593-2.636,3.044-5.335,4.406-8.069c0.371-0.749,0.711-1.511,1.064-2.267
					C558.085,304.291,554.803,303.312,551.598,302.064z"/>
				<path style="fill:#CC6F49;" d="M521.835,344.237c0,0-4.501,0.849-4.571,1.53c-0.07,0.682,2.145,1.053,2.145,1.053
					s-3.749,3.354-3.492,3.915c0.257,0.561,3.466-1.946,3.466-1.946s-2.197,2.567-1.884,3.182c0.313,0.615,3.212-2.593,3.212-2.593
					s-1.581,3.056-0.945,3.44c0.637,0.384,2.351-3.402,2.351-3.402s-0.623,2.371-0.122,2.557c0.502,0.186,2.915-4.849,2.915-4.849
					L521.835,344.237z"/>
				<path style="fill:#FCB13A;" d="M566.349,294.189c-0.09,0.26-0.18,0.52-0.27,0.78c-2.02,5.58-5.17,12.33-5.17,12.33l-0.43-0.16
					l-2.99-1.14l-1.64-0.63h-0.01l-0.07-0.03l-4.77-1.82l-0.42-0.16c0,0,0.66-1.57,1.53-3.74c0.01-0.01,0.01-0.01,0.01-0.01
					c0.6-1.49,1.3-3.25,1.97-4.98c0.06-0.17,0.13-0.35,0.2-0.52c0.22-0.58,0.43-1.15,0.63-1.7c0.01-0.01,0.02-0.03,0.02-0.04
					c0.31-0.84,0.6-1.64,0.83-2.34c0.22-0.62,0.39-1.17,0.52-1.62c0.39-1.41,1.23-2.44,2.19-3.21c1.32-1.06,2.88-1.61,3.86-1.91
					c0.02-0.01,0.04-0.01,0.06-0.02c0.01,0,0.02,0,0.02-0.01c0.23-0.07,0.43-0.12,0.58-0.17c0.01,0,0.02-0.01,0.03-0.01
					c0.02-0.01,0.05-0.01,0.08-0.02h0.03c1.18-0.16,3.27,1.95,4.27,4.46c0.01,0.02,0.01,0.03,0.01,0.04
					c0.07,0.16,0.13,0.32,0.18,0.48c0.01,0.02,0.01,0.04,0.02,0.06C567.919,289.029,567.309,291.409,566.349,294.189z"/>
			</g>
			<g>
				<path style="fill:#CC6F49;" d="M573.299,283.669c-0.81,1.2-1.6,2.11-2.36,2.78c-0.4,0.36-0.8,0.64-1.18,0.87
					c-0.36,0.22-0.72,0.38-1.06,0.5c-0.38,0.12-0.74,0.19-1.1,0.22c-0.1,0.01-0.21,0.01-0.31,0.01c-0.49,0-0.95-0.08-1.38-0.24
					c-0.67-0.22-1.28-0.58-1.82-1.02c-0.03-0.01-0.05-0.03-0.07-0.05c-0.59-0.48-1.08-1.02-1.48-1.52c-0.2-0.26-0.38-0.51-0.52-0.73
					c-0.21-0.3-0.35-0.54-0.43-0.68c-0.05-0.09-0.08-0.14-0.08-0.14h0.07c0.08,0,0.16,0,0.23-0.01c0.48-0.06,0.9-0.27,1.22-0.58
					c0.04-0.03,0.07-0.06,0.1-0.1l0.01-0.01c0.33-0.37,0.53-0.86,0.53-1.39v-9.59h7.54v2.71c0,0.01,0,0.01,0,0.01v6.87
					c0,0.39,0.11,0.76,0.3,1.08c0.14,0.24,0.34,0.45,0.57,0.61c0.15,0.12,0.33,0.21,0.51,0.27
					C572.809,283.629,573.049,283.669,573.299,283.669z"/>
				<path style="fill:#0B334C;" d="M571.209,274.709v0.24c-0.35,0.74-0.71,1.35-1.06,1.77c-1.43,1.78-3.75,2.52-5.38,2.84
					c-0.37,0.07-0.73,0.09-1.1,0.06v-1.59c0.57,0.14,1.18,0.17,1.77,0.05c1.63-0.31,3.95-1.06,5.39-2.84
					C570.949,275.089,571.079,274.909,571.209,274.709z"/>
			</g>
			<g>
				<path style="fill:#FCB13A;" d="M575.809,304.629c-0.57,2.28-0.85,4.12-0.43,5c1.24,2.57,2.27,4.89,2.27,4.89h-24.01
					c0,0,1.31-1.54,2.4-3.66c0.51-1,0.98-2.12,1.24-3.27v-0.01c0.12-0.52,0.2-1.05,0.21-1.58c0.03-0.69-0.04-1.36-0.25-2.01
					c-0.01-0.03-0.02-0.06-0.03-0.09c-1.19-3.52-2.83-6.49-3.1-8.99c-0.01-0.1-0.02-0.19-0.02-0.28c-0.05-0.64,0.01-1.25,0.19-1.83
					c0.24-0.76,0.78-1.73,1.49-2.77c1-1.45,2.34-3.03,3.67-4.35c0.2-0.2,0.4-0.39,0.59-0.56c0.54-0.5,1.06-0.94,1.56-1.31
					c0.07-0.05,0.15-0.1,0.22-0.15c0.2-0.15,0.4-0.27,0.59-0.39c0.01,0,0.02,0,0.02-0.01c0.06-0.03,0.11-0.06,0.16-0.08l0.03-0.02
					l0.54-0.25l-0.01,0.06v0.09c-0.04,0.54-0.07,2.44,0.91,3.68c0.01,0.02,0.02,0.03,0.04,0.05c0.38,0.48,0.92,0.85,1.68,1
					c0.05,0.01,0.1,0.02,0.14,0.02c0.53,0.08,1.03-0.03,1.51-0.25c0.02-0.01,0.04-0.02,0.05-0.03c2.14-1.03,3.78-4.39,3.99-4.83
					l-0.01,0.05c-0.03,0.16,0.01,0.45,0.58,0.65c0.14,0.06,0.33,0.1,0.56,0.14c0.24,0.03,0.52,0.06,0.87,0.06
					c0.08,0.01,0.16,0.01,0.25,0.01c0.87,0,1.73,0.18,2.49,0.6c1.49,0.83,3.56,2.62,3.32,6.1c0,0.08-0.01,0.16-0.02,0.25
					c-0.34,3.31-2.14,8.45-3.31,12.65c-0.05,0.21-0.11,0.41-0.16,0.62C575.949,304.099,575.879,304.369,575.809,304.629z"/>
				<g>
					<path style="fill:#0B334C;" d="M584.069,388.639c2.29,11.46,1.63,24.78,0.5,34.75h-10.85l-7.1-70.21l-0.03-0.32l-0.02,0.35
						l-2.34,35.53c1.74,9.56,0.47,23.93-0.97,34.65h-9.77c-1.14-18.73-3.14-51.39-4.42-70.98c0-0.04-0.01-0.07-0.01-0.11
						c-0.22-3.42-0.43-6.44-0.6-8.91c-0.2-2.94-0.36-5.1-0.47-6.26c-0.29-3.18,0.26-6.95,1.18-10.73c0.16-0.66,0.33-1.32,0.51-1.97
						c0.73-2.68,1.61-5.3,2.47-7.67c0.22-0.6,0.43-1.17,0.65-1.73c0.62-1.66,1.22-3.15,1.71-4.37c0.59-1.49,1.03-2.58,1.19-3.13
						c0.15-0.52,0.16-1.28,0.07-2.19c0-0.03-0.01-0.07-0.01-0.1v-0.01c-0.06-0.55-0.15-1.16-0.27-1.79
						c-0.3-1.57-0.74-3.31-1.17-4.81c-0.34-1.23-0.41-2.5-0.21-3.72c0.05-0.27,0.1-0.54,0.18-0.8c0.15-0.59,0.36-1.16,0.63-1.7
						c0.01-0.01,0.02-0.03,0.02-0.04c0.2-0.39,0.43-0.77,0.69-1.13l3.97-5.52l0.43-0.6l0.81-1.13l0.67-0.32h0.01l0.82-0.38
						l0.24-0.11l0.03-0.02l0.54-0.25l-0.01,0.06l-0.01,0.01l-0.02,0.08l-0.57,2.16l-0.29,1.11l-1.93,7.32l6.03,0.54l0.86,0.08
						l2.3-6.27l0.25-0.68l1.69-4.57l0.01-0.05l0.02-0.05l0.03,0.01l1.97,0.81l-0.02,0.13l-0.22,1.18l-0.7,3.92l-1.22,6.8l3.76,7.64
						l0.33,0.66l0.4,0.83l2.57,5.22c0,0,0.3,0.9,0.88,2.59c1.31,3.79,3.99,11.53,7.69,21.92
						C592.289,349.369,584.069,388.639,584.069,388.639z"/>
					<g>
						
							<polyline style="fill:none;stroke:#FFFFFF;stroke-width:0.3084;stroke-linecap:round;stroke-linejoin:round;stroke-miterlimit:10;" points="
							562.224,283.778 559.063,294.418 567.853,295.112 572.17,283.007 						"/>
						
							<line style="fill:none;stroke:#FFFFFF;stroke-width:0.3084;stroke-linecap:round;stroke-linejoin:round;stroke-miterlimit:10;" x1="563.227" y1="355.174" x2="570.32" y2="351.01"/>
						
							<line style="fill:none;stroke:#FFFFFF;stroke-width:0.3084;stroke-linecap:round;stroke-linejoin:round;stroke-miterlimit:10;" x1="565" y1="325.953" x2="583.042" y2="325.953"/>
						
							<path style="fill:none;stroke:#FFFFFF;stroke-width:0.3084;stroke-linecap:round;stroke-linejoin:round;stroke-miterlimit:10;" d="
							M577.259,326.03c0,0,0.617,13.724,7.787,14.418"/>
						
							<path style="fill:none;stroke:#FFFFFF;stroke-width:0.3084;stroke-linecap:round;stroke-linejoin:round;stroke-miterlimit:10;" d="
							M580.497,326.03c0,0,5.012,10.794,4.703,16.808c-0.308,6.014-3.855,46.646-3.855,46.646v31.985"/>
						
							<path style="fill:none;stroke:#FFFFFF;stroke-width:0.3084;stroke-linecap:round;stroke-linejoin:round;stroke-miterlimit:10;" d="
							M564.46,354.249l-1.773,34.464c0,0-0.452,16.586-1.529,33.253"/>
					</g>
				</g>
			</g>
			<g>
				<g>
					<g>
						
							<rect x="479.222" y="283.134" transform="matrix(0.8389 -0.5442 0.5442 0.8389 -92.3455 334.8214)" style="fill:#FFFFFF;" width="80.596" height="80.596"/>
						<g>
							
								<rect x="487.034" y="290.942" transform="matrix(0.8389 -0.5442 0.5442 0.8389 -92.3438 334.8202)" style="fill:#8EE4FD;" width="64.974" height="64.974"/>
							<path style="fill:#2CD0D1;" d="M558.044,323.12l6.411,9.884l-54.51,35.36l-9.62-14.831
								c1.892-5.697,5.396-10.926,10.513-14.01c4.32-2.611,9.42-3.522,14.385-4.391C533.838,333.632,547.866,326.311,558.044,323.12
								z"/>
							<path style="fill:#FCB13A;" d="M524.9,303.767c2.101,3.239,1.179,7.568-2.06,9.669c-3.239,2.101-7.568,1.179-9.669-2.06
								c-2.101-3.239-1.179-7.568,2.06-9.669C518.469,299.606,522.798,300.529,524.9,303.767z"/>
						</g>
					</g>
					
						<polygon style="fill:none;stroke:#0B334C;stroke-width:0.3084;stroke-linecap:round;stroke-linejoin:round;stroke-miterlimit:10;" points="
						531.437,267.671 463.843,311.548 507.477,379.255 575.327,335.457 					"/>
				</g>
				<g>
					<path style="fill:#CC6F49;" d="M569.782,302.431c0.002,1.277-0.006,2.553-0.039,3.824c-0.049,1.962-0.136,3.911-0.271,5.847
						c-3.22-0.148-6.476-0.432-9.733-0.789c-2.862-0.321-5.724-0.703-8.586-1.135c-2.862-0.419-5.749-0.937-8.537-1.456
						l-0.074-0.012c-0.025,0-0.037-0.012-0.062,0c-0.001,0-0.002,0-0.002,0c-0.894-0.858-2.952-2.756-3.421-2.502
						c-0.603,0.326,0.34,2.366,0.34,2.366s-4.884-1.204-5.203-0.676c-0.319,0.528,3.561,1.765,3.561,1.765s-3.359-0.367-3.69,0.239
						c-0.331,0.605,3.953,1.19,3.953,1.19s-3.415,0.418-3.374,1.16c0.042,0.742,4.135,0.023,4.135,0.023s-2.309,0.822-2.18,1.342
						c0.099,0.4,3.392-0.01,4.901-0.22c0,0,0,0,0,0c5.602,2.011,11.228,3.64,17.028,4.961c1.468,0.345,2.948,0.641,4.429,0.938
						c1.48,0.271,2.961,0.555,4.466,0.765c0.394,0.062,0.777,0.124,1.172,0.173c0.969,0.146,2.418,0.304,3.879,0.445
						c2.998,0.29,5.747-1.746,6.277-4.711c0.003-0.017,0.006-0.035,0.009-0.052c0.21-1.271,0.395-2.553,0.543-3.824
						c0.234-1.776,0.407-3.541,0.555-5.305c0.095-1.173,0.151-2.347,0.206-3.519C576.617,303.36,573.074,303.063,569.782,302.431z"
						/>
					<path style="fill:#FCB13A;" d="M580.679,289.559c0,0.46-0.03,0.82-0.03,1c0,1.08-0.38,13.42-0.38,13.42l-0.24-0.01l-4-0.14
						l-0.62-0.03l-5.63-0.2l-0.31-0.01c0,0,1.17-8.68,2.69-14.98c0.34-1.45,0.71-2.77,1.08-3.83c0.16-0.44,0.31-0.83,0.47-1.17
						C580.039,283.499,580.659,287.539,580.679,289.559z"/>
				</g>
			</g>
		</g>
		<g>
			<g>
				<path style="fill:#CC6F49;" d="M575.429,269.759c-0.39,0.94-1.76,2.02-2.8,1.94c-0.46,1.19-0.94,2.25-1.42,3
					c0,0.01,0,0.01,0,0.01c-0.13,0.2-0.26,0.38-0.38,0.53c-1.44,1.78-3.76,2.53-5.39,2.84c-0.6,0.12-1.2,0.1-1.77-0.04
					c-0.6-0.15-1.17-0.44-1.65-0.86c-0.88-0.75-1.93-1.82-2.61-3.17c-0.32-0.6-0.55-1.25-0.67-1.96c-0.06-0.36-0.08-0.8-0.07-1.29
					c0.03-1.77,0.46-4.23,0.99-6.6c0.9-4.1,5.04-6.61,9.09-5.53c3.75,0.99,6.05,4.68,5.39,8.39c0.05,0.02,0.11,0.03,0.16,0.05
					C575.349,267.499,575.859,268.699,575.429,269.759z"/>
				<g>
					<g>
						<path style="fill:#C4533A;" d="M566.414,272.26c0,0.968,0.785,1.753,1.753,1.753s1.753-0.785,1.753-1.753
							s-0.785-1.753-1.753-1.753S566.414,271.292,566.414,272.26z"/>
						<path style="fill:#C4533A;" d="M561.309,272.259c0,0.97-0.78,1.76-1.75,1.76c-0.05,0-0.1,0-0.15-0.01
							c-0.32-0.6-0.55-1.25-0.67-1.96c-0.06-0.36-0.08-0.8-0.07-1.29c0.26-0.16,0.56-0.25,0.89-0.25
							C560.529,270.509,561.309,271.289,561.309,272.259z"/>
					</g>
					<g>
						<path style="fill:#0B334C;" d="M564.133,268.287c0.302,0.658,0.15,1.395,0.029,2.002c-0.069,0.312-0.153,0.616-0.145,0.84
							c0.001,0.223,0.187,0.496,0.394,0.78c-0.323-0.074-0.714-0.222-0.879-0.654c-0.146-0.422-0.049-0.777,0.003-1.101
							C563.686,269.488,563.924,268.946,564.133,268.287z"/>
					</g>
					<g>
						<g>
							<path style="fill:#0B334C;" d="M565.837,266.216c0.441-0.216,0.931-0.243,1.405-0.094c0.235,0.069,0.46,0.196,0.638,0.365
								c0.191,0.158,0.302,0.382,0.394,0.589c0.03,0.068,0,0.148-0.069,0.179c-0.054,0.024-0.114,0.01-0.153-0.03l-0.01-0.011
								c-0.281-0.293-0.595-0.464-0.945-0.525c-0.348-0.053-0.732-0.023-1.101-0.002l-0.036,0.002
								c-0.138,0.008-0.255-0.097-0.263-0.235C565.692,266.351,565.75,266.259,565.837,266.216z"/>
						</g>
						<g>
							<path style="fill:#0B334C;" d="M562.159,266.687c-0.369-0.021-0.752-0.051-1.101,0.002c-0.351,0.061-0.665,0.232-0.946,0.525
								l-0.01,0.011c-0.052,0.054-0.138,0.056-0.191,0.004c-0.042-0.041-0.052-0.102-0.03-0.153
								c0.092-0.207,0.203-0.431,0.394-0.589c0.178-0.169,0.403-0.296,0.638-0.365c0.474-0.148,0.964-0.121,1.405,0.094
								c0.124,0.06,0.175,0.21,0.115,0.334c-0.045,0.093-0.141,0.145-0.238,0.139L562.159,266.687z"/>
						</g>
					</g>
					<g>
						<ellipse style="fill:#0B334C;" cx="561.417" cy="269.248" rx="0.662" ry="1.064"/>
						<path style="fill:#0B334C;" d="M566.077,269.248c0,0.588,0.297,1.065,0.662,1.065c0.366,0,0.662-0.477,0.662-1.065
							c0-0.588-0.296-1.064-0.662-1.064C566.373,268.184,566.077,268.66,566.077,269.248z"/>
					</g>
					<g>
						<g>
							<path style="fill:#0B334C;" d="M565.662,273.266c0.157-0.103,0.327-0.138,0.477-0.231c0.172-0.044,0.309-0.133,0.478-0.209
								c-0.081,0.178-0.265,0.258-0.418,0.352C566.022,273.223,565.852,273.293,565.662,273.266z"/>
						</g>
						<g>
							<path style="fill:#0B334C;" d="M564.074,272.682c0.569,0.056,1.128,0.092,1.609-0.105c0.501-0.159,0.815-0.615,1.085-1.122
								c-0.023,0.286-0.093,0.583-0.266,0.835c-0.159,0.26-0.42,0.461-0.707,0.577C565.207,273.067,564.57,272.982,564.074,272.682z
								"/>
						</g>
					</g>
				</g>
			</g>
			<path style="fill:#0B334C;" d="M582.839,281.219c-0.53-2.55-1.47-5.1-3.55-6.67c0.56-1.97,0.53-4.13-0.21-6.05
				c-0.74-1.91-2.04-3.63-3.91-4.46c0.2-1.46-4.457-10.32-13.873-6.237c-2.129,0.923-3.125,3.458-2.837,6.157
				c-1.48,1.31-2.26,3.29-2.4,5.26c-0.14,1.98,0.3,3.95,0.94,5.83c0.36,1.04,0.79,2.14,1.26,3.14c-0.77,0.69-1.22,1.71-1.3,2.74
				s0.18,2.07,0.66,2.99c0.23,0.46,0.52,0.89,0.86,1.28c1.32-1.06,2.88-1.61,3.86-1.91l0.24-0.11l0.03-0.02
				c0.19-0.1,0.37-0.19,0.54-0.25l-0.01,0.06c0.33-0.37,0.53-0.86,0.53-1.39v-3.54c-0.6-0.15-1.17-0.44-1.65-0.86
				c-0.88-0.75-1.93-1.82-2.61-3.17c-0.32-0.6-0.55-1.25-0.67-1.96c-0.06-0.36-0.08-0.8-0.07-1.29
				c0.022-1.286,0.256-2.937,0.585-4.652c0.912,0.034,2.849-0.15,4.792-1.971c0,0,0.75,4.542,6.208,4.042
				c0,0-0.333,2.25,0.833,2.417c0.869,0.124,2.361-2.316,3.067-3.57c0.047,0.017,0.1,0.027,0.145,0.045
				c1.05,0.43,1.56,1.63,1.13,2.69c-0.39,0.94-1.76,2.02-2.8,1.94c-0.46,1.19-0.94,2.25-1.42,3c0,0.01,0,0.01,0,0.01v6.87
				c0,0.39,0.11,0.76,0.3,1.08l1.97,0.81l-0.02,0.13c0.08,0.01,0.16,0.01,0.25,0.01c6.33-0.11,6.95,3.93,6.97,5.95
				c1.14-1.57,2.18-3.25,2.4-5.15C583.199,283.339,583.059,282.269,582.839,281.219z"/>
		</g>
	</g>
</g>
<g id="DESIGNED_BY_FREEPIK">
	<g id="XMLID_258_">
		<g id="XMLID_287_">
			<g id="XMLID_306_">
				<path id="XMLID_314_" style="fill:#9EB7C7;" d="M385.104,465.465c-0.433,0.443-0.804,0.932-1.108,1.453l-0.465-0.241
					c-0.067-0.297-0.35-0.502-0.659-0.466c-0.331,0.039-0.567,0.339-0.529,0.67c0.039,0.331,0.339,0.567,0.67,0.528
					c0.065-0.007,0.127-0.025,0.184-0.052l0.451,0.234c-0.251,0.554-0.433,1.139-0.539,1.743l0.747,0.132
					c0.229-1.306,0.85-2.507,1.792-3.473L385.104,465.465z"/>
				<path id="XMLID_313_" style="fill:#9EB7C7;" d="M390.591,463.164c-0.171,0-0.341,0.006-0.509,0.017l-0.074-0.626
					c0.188-0.149,0.296-0.389,0.266-0.645c-0.046-0.393-0.402-0.674-0.795-0.628c-0.394,0.046-0.675,0.402-0.628,0.796
					c0.03,0.254,0.189,0.461,0.404,0.563l0.073,0.624c-0.714,0.116-1.402,0.332-2.06,0.646l0.327,0.685
					c0.935-0.447,1.941-0.674,2.995-0.674c0.497,0,0.993,0.053,1.476,0.158l0.16-0.741
					C391.692,463.222,391.142,463.164,390.591,463.164z"/>
				<path id="XMLID_312_" style="fill:#9EB7C7;" d="M397.194,465.711c0.331-0.04,0.566-0.341,0.525-0.672
					c-0.04-0.331-0.341-0.566-0.672-0.525c-0.31,0.038-0.535,0.304-0.53,0.608l-0.416,0.363c-0.418-0.43-0.89-0.813-1.407-1.14
					l-0.404,0.642c1.135,0.715,2.021,1.727,2.564,2.925l0.69-0.313c-0.251-0.554-0.567-1.071-0.942-1.545l0.402-0.351
					C397.065,465.715,397.128,465.719,397.194,465.711z"/>
				<path id="XMLID_311_" style="fill:#9EB7C7;" d="M390.044,473.372c-0.386,0.023-0.775,0.035-1.157,0.035
					c-0.88,0-1.733-0.061-2.479-0.18c-0.391-0.062-0.846-0.154-1.271-0.292c1.047,1.861,3.069,3.125,5.389,3.125
					c2.855,0,5.263-1.916,5.949-4.503c-0.682,0.449-1.505,0.825-2.458,1.122C392.838,473.047,391.463,473.287,390.044,473.372z"/>
				<path id="XMLID_307_" style="fill:#9EB7C7;" d="M390.591,464.68c-3.351,0-6.079,2.666-6.079,5.943
					c0,0.425,0.046,0.849,0.137,1.261c0.674,0.483,2.706,0.891,5.348,0.731c2.88-0.174,5.297-0.958,6.672-2.159
					c-0.005-0.194-0.02-0.39-0.045-0.581C396.244,466.914,393.65,464.68,390.591,464.68z M388.432,471.195
					c-1.02,0-1.85-0.83-1.85-1.85c0-1.021,0.83-1.851,1.85-1.851c1.02,0,1.85,0.83,1.85,1.851
					C390.282,470.365,389.452,471.195,388.432,471.195z M393.169,470.287c-0.75,0-1.36-0.61-1.36-1.36s0.61-1.36,1.36-1.36
					s1.36,0.61,1.36,1.36S393.919,470.287,393.169,470.287z"/>
			</g>
			<path id="XMLID_304_" style="fill:#9EB7C7;" d="M406.595,466.547c-0.295-0.116-0.806-0.31-1.383-0.238
				c-0.551,0.069-0.844,0.341-0.844,1.007v0.866h2.229v1.717h-2.229v5.455h-1.932v-5.455h-1.339v-1.717h1.339v-0.889
				c0-1.68,0.896-2.782,2.568-2.782c0.643,0,1.157,0.121,1.59,0.308V466.547z"/>
			<path id="XMLID_302_" style="fill:#9EB7C7;" d="M411.297,469.878c-0.177-0.029-0.357-0.046-0.525-0.046
				c-0.896,0-1.51,0.548-1.51,1.613v3.908h-1.933v-7.172h1.873v0.784c0.451-0.673,1.14-0.977,2.021-0.977
				c0.414,0,0.848,0.128,1.095,0.337L411.297,469.878z"/>
			<path id="XMLID_299_" style="fill:#9EB7C7;" d="M418.965,471.757c0,0.222-0.016,0.488-0.037,0.651h-5.085
				c0.207,1.036,0.933,1.487,1.843,1.487c0.622,0,1.295-0.252,1.813-0.689l1.133,1.243c-0.814,0.748-1.851,1.089-3.057,1.089
				c-2.198,0-3.724-1.496-3.724-3.753c0-2.258,1.48-3.797,3.627-3.797C417.543,467.99,418.958,469.522,418.965,471.757z
				 M413.851,471.091h3.175c-0.178-0.918-0.732-1.437-1.561-1.437C414.554,469.655,414.021,470.203,413.851,471.091z"/>
			<path id="XMLID_296_" style="fill:#9EB7C7;" d="M426.619,471.757c0,0.222-0.016,0.488-0.037,0.651h-5.085
				c0.207,1.036,0.933,1.487,1.843,1.487c0.622,0,1.296-0.252,1.814-0.689l1.133,1.243c-0.815,0.748-1.851,1.089-3.058,1.089
				c-2.198,0-3.723-1.496-3.723-3.753c0-2.258,1.48-3.797,3.627-3.797C425.197,467.99,426.611,469.522,426.619,471.757z
				 M421.504,471.091h3.175c-0.178-0.918-0.733-1.437-1.561-1.437C422.208,469.655,421.674,470.203,421.504,471.091z"/>
			<path id="XMLID_293_" style="fill:#9EB7C7;" d="M434.964,471.764c0,2.154-1.495,3.775-3.472,3.775
				c-0.962,0-1.644-0.378-2.109-0.933v3.708h-1.925v-10.133h1.888v0.792c0.467-0.585,1.154-0.984,2.139-0.984
				C433.469,467.99,434.964,469.611,434.964,471.764z M429.287,471.764c0,1.133,0.748,1.977,1.844,1.977
				c1.14,0,1.85-0.881,1.85-1.977c0-1.095-0.71-1.976-1.85-1.976C430.035,469.789,429.287,470.632,429.287,471.764z"/>
			<path id="XMLID_290_" style="fill:#9EB7C7;" d="M438.068,465.836c0,0.696-0.541,1.229-1.236,1.229
				c-0.696,0-1.229-0.533-1.229-1.229c0-0.695,0.532-1.243,1.229-1.243C437.527,464.592,438.068,465.14,438.068,465.836z
				 M437.808,475.354h-1.932v-7.172h1.932V475.354z"/>
			<path id="XMLID_288_" style="fill:#9EB7C7;" d="M441.032,470.736l2.702-2.554h2.368l-3.478,3.375l3.501,3.797h-2.376
				l-2.717-2.901v2.901H439.1v-10.658h1.932V470.736z"/>
		</g>
		<g id="XMLID_259_">
			<path id="XMLID_284_" style="fill:#9EB7C7;" d="M309.412,475.29v-1.055c-0.527,0.718-1.391,1.23-2.387,1.23
				c-1.846,0-3.149-1.406-3.149-3.706c0-2.256,1.289-3.721,3.149-3.721c0.952,0,1.816,0.469,2.387,1.245v-3.765h1.099v9.771H309.412
				z M309.412,473.371v-3.208c-0.395-0.615-1.245-1.143-2.124-1.143c-1.42,0-2.27,1.172-2.27,2.739c0,1.567,0.85,2.725,2.27,2.725
				C308.167,474.484,309.017,473.986,309.412,473.371z"/>
			<path id="XMLID_281_" style="fill:#9EB7C7;" d="M311.932,471.745c0-2.051,1.465-3.706,3.486-3.706
				c2.139,0,3.398,1.67,3.398,3.794v0.278h-5.727c0.088,1.333,1.025,2.446,2.549,2.446c0.806,0,1.626-0.322,2.182-0.894l0.527,0.718
				c-0.703,0.703-1.655,1.084-2.812,1.084C313.44,475.465,311.932,473.957,311.932,471.745z M315.403,468.947
				c-1.509,0-2.256,1.274-2.314,2.358h4.644C317.718,470.25,317.015,468.947,315.403,468.947z"/>
			<path id="XMLID_279_" style="fill:#9EB7C7;" d="M319.607,474.352l0.571-0.791c0.469,0.542,1.362,1.011,2.329,1.011
				c1.084,0,1.67-0.513,1.67-1.216c0-1.714-4.38-0.659-4.38-3.281c0-1.099,0.952-2.036,2.636-2.036c1.202,0,2.051,0.454,2.623,1.025
				l-0.513,0.762c-0.424-0.513-1.201-0.894-2.109-0.894c-0.966,0-1.567,0.483-1.567,1.113c0,1.553,4.379,0.527,4.379,3.281
				c0,1.187-0.952,2.139-2.783,2.139C321.306,475.465,320.325,475.114,319.607,474.352z"/>
			<path id="XMLID_276_" style="fill:#9EB7C7;" d="M326.477,466.471c0-0.41,0.337-0.747,0.732-0.747c0.41,0,0.747,0.337,0.747,0.747
				c0,0.41-0.337,0.732-0.747,0.732C326.814,467.204,326.477,466.881,326.477,466.471z M326.667,475.29v-7.075h1.099v7.075H326.667z
				"/>
			<path id="XMLID_273_" style="fill:#9EB7C7;" d="M329.582,477.106l0.556-0.82c0.586,0.703,1.289,0.967,2.3,0.967
				c1.172,0,2.271-0.571,2.271-2.124v-1.011c-0.513,0.718-1.377,1.26-2.373,1.26c-1.846,0-3.149-1.377-3.149-3.662
				c0-2.271,1.289-3.677,3.149-3.677c0.952,0,1.802,0.469,2.373,1.245v-1.069h1.099v6.87c0,2.344-1.641,3.076-3.369,3.076
				C331.237,478.161,330.417,477.925,329.582,477.106z M334.708,473.253v-3.091c-0.381-0.615-1.23-1.143-2.109-1.143
				c-1.421,0-2.27,1.128-2.27,2.695c0,1.553,0.849,2.695,2.27,2.695C333.478,474.411,334.328,473.869,334.708,473.253z"/>
			<path id="XMLID_271_" style="fill:#9EB7C7;" d="M342.413,475.29v-4.629c0-1.245-0.63-1.641-1.582-1.641
				c-0.864,0-1.685,0.527-2.094,1.099v5.171h-1.099v-7.075h1.099v1.025c0.497-0.586,1.464-1.201,2.519-1.201
				c1.479,0,2.256,0.747,2.256,2.285v4.966H342.413z"/>
			<path id="XMLID_268_" style="fill:#9EB7C7;" d="M344.932,471.745c0-2.051,1.465-3.706,3.486-3.706
				c2.139,0,3.398,1.67,3.398,3.794v0.278h-5.727c0.088,1.333,1.025,2.446,2.548,2.446c0.806,0,1.626-0.322,2.183-0.894l0.527,0.718
				c-0.703,0.703-1.655,1.084-2.813,1.084C346.441,475.465,344.932,473.957,344.932,471.745z M348.404,468.947
				c-1.509,0-2.256,1.274-2.314,2.358h4.643C350.718,470.25,350.015,468.947,348.404,468.947z"/>
			<path id="XMLID_265_" style="fill:#9EB7C7;" d="M358.35,475.29v-1.055c-0.527,0.718-1.392,1.23-2.388,1.23
				c-1.845,0-3.149-1.406-3.149-3.706c0-2.256,1.289-3.721,3.149-3.721c0.952,0,1.817,0.469,2.388,1.245v-3.765h1.098v9.771H358.35z
				 M358.35,473.371v-3.208c-0.396-0.615-1.245-1.143-2.124-1.143c-1.421,0-2.271,1.172-2.271,2.739c0,1.567,0.85,2.725,2.271,2.725
				C357.105,474.484,357.954,473.986,358.35,473.371z"/>
			<path id="XMLID_262_" style="fill:#9EB7C7;" d="M364.692,475.29v-9.771h1.099v3.765c0.571-0.776,1.421-1.245,2.388-1.245
				c1.845,0,3.149,1.465,3.149,3.721c0,2.3-1.304,3.706-3.149,3.706c-0.996,0-1.86-0.513-2.388-1.23v1.055H364.692z M367.9,474.484
				c1.436,0,2.285-1.157,2.285-2.725c0-1.567-0.85-2.739-2.285-2.739c-0.864,0-1.729,0.527-2.109,1.143v3.208
				C366.171,473.986,367.036,474.484,367.9,474.484z"/>
			<path id="XMLID_260_" style="fill:#9EB7C7;" d="M372.528,477.062c0.161,0.073,0.425,0.117,0.601,0.117
				c0.483,0,0.806-0.161,1.055-0.747l0.469-1.069l-2.959-7.148h1.186l2.358,5.801l2.344-5.801h1.2l-3.545,8.511
				c-0.425,1.024-1.143,1.421-2.08,1.436c-0.234,0-0.6-0.044-0.806-0.104L372.528,477.062z"/>
		</g>
	</g>
</g>
</svg>
