<svg width="669" height="1610" viewBox="0 0 669 1610" fill="none" xmlns="http://www.w3.org/2000/svg">
<g filter="url(#filter0_f_6_3766)">
<ellipse cx="-148" cy="805" rx="480" ry="389" fill="#FF7426" fill-opacity="0.31"/>
</g>
<path fill-rule="evenodd" clip-rule="evenodd" d="M270.674 882.294C269.698 881.334 268.146 881.349 267.178 882.312C255.575 893.472 243.358 899.149 230.901 899.291C218.772 899.428 206.518 894.166 194.495 883.74C191.823 881.464 187.692 876.726 184.058 871.132C187.107 866.746 189.139 861.553 190.142 856.549C191.622 849.159 190.545 842.365 188.106 838.999C186.755 837.136 185.012 835.994 182.975 835.518C180.367 834.912 176.824 835.453 172.757 838.902C167.146 843.684 165.783 850.511 167.459 858.025C168.344 861.975 170.131 866.12 172.358 870.103C169.782 872.16 166.576 873.349 162.676 872.921C154.419 872.071 148.228 865.291 143.825 857.314C140.006 850.413 135.405 840.218 136.621 832.118C137.033 829.365 138.237 826.999 135.965 824.749C132.487 821.268 129.298 824.871 128.728 828.652C127.506 836.775 130.401 846.559 133.258 854.052C138.502 867.84 148.342 880.242 161.63 881.952C167.859 882.725 173.144 881.068 177.426 877.991C181.489 883.63 185.872 888.296 188.748 890.638C202.977 901.993 217.298 907.273 231.154 906.47C244.996 905.675 258.421 898.879 270.692 885.791C271.652 884.814 271.651 883.254 270.674 882.294ZM178.38 860.183C177.516 857.891 176.932 855.64 176.76 853.499C176.547 850.777 177.072 848.252 179.194 846.458C179.554 846.159 179.991 845.74 180.351 845.441C180.621 846.386 181.089 848.246 181.096 849.784C181.096 853.217 180.315 857.303 178.749 861.108C178.601 860.789 178.484 860.49 178.38 860.183Z" fill="#4D2C5E"/>
<path fill-rule="evenodd" clip-rule="evenodd" d="M180.678 845.18C180.921 845.315 181.154 845.401 181.135 845.21C181.106 844.969 180.945 845.007 180.678 845.18Z" fill="#4D2C5E"/>
<path fill-rule="evenodd" clip-rule="evenodd" d="M263.876 887.724C262.746 890.249 261.653 892.936 260.874 895.497C259.675 899.494 259.161 903.151 260.147 905.812C260.454 907.14 261.793 907.964 263.113 907.643C264.441 907.335 265.265 905.997 264.944 904.677C264.876 904.018 265.105 903.335 265.323 902.567C265.819 900.756 266.931 898.866 268.141 896.828C269.687 894.228 271.547 891.63 273.134 889.227C274.577 887.053 275.781 885.036 276.547 883.438C277.756 880.922 277.822 878.81 277.548 877.572C277.472 877.249 274.79 872.445 270.204 874.359C268.564 875.049 264.501 877.009 264.3 877.107C261.859 878.443 257.324 880.859 253.005 882.123C251.64 882.525 250.322 882.882 249.122 882.933C249.058 882.822 248.995 882.712 248.917 882.61C247.796 881.018 245.615 880.643 244.015 881.75C243.128 882.281 241.971 883.775 241.661 884.67C241.068 886.408 241.729 887.807 243.351 888.963C245.561 890.533 248.757 890.982 252.351 890.688C256.128 890.362 260.407 889.029 263.876 887.724ZM267.865 879.656C268.133 879.135 268.224 878.752 267.863 878.667C267.458 878.57 267.727 879.259 267.865 879.656Z" fill="#4D2C5E"/>
<defs>
<filter id="filter0_f_6_3766" x="-882" y="162" width="1468" height="1286" filterUnits="userSpaceOnUse" color-interpolation-filters="sRGB">
<feFlood flood-opacity="0" result="BackgroundImageFix"/>
<feBlend mode="normal" in="SourceGraphic" in2="BackgroundImageFix" result="shape"/>
<feGaussianBlur stdDeviation="127" result="effect1_foregroundBlur_6_3766"/>
</filter>
</defs>
</svg>
