<svg width="353" height="280" viewBox="0 0 353 280" fill="none" xmlns="http://www.w3.org/2000/svg">
<path d="M305.791 68.6336C305.791 68.6336 245.585 24.6775 187.432 21.4211C129.279 18.1652 68.3903 30.6465 43.7608 57.2376C19.1312 83.8286 38.2864 135.382 32.1294 161.43C25.9717 187.478 13.6569 235.776 56.7589 255.312C99.8602 274.848 155.247 264.117 188.345 238.293C221.441 212.471 275.004 226.008 304.422 202.672C333.841 179.338 353.681 101.736 305.791 68.6336Z" fill="#92E3A9"/>
<path opacity="0.7" d="M305.791 68.6336C305.791 68.6336 245.585 24.6775 187.432 21.4211C129.279 18.1652 68.3903 30.6465 43.7608 57.2376C19.1312 83.8286 38.2864 135.382 32.1294 161.43C25.9717 187.478 13.6569 235.776 56.7589 255.312C99.8602 274.848 155.247 264.117 188.345 238.293C221.441 212.471 275.004 226.008 304.422 202.672C333.841 179.338 353.681 101.736 305.791 68.6336Z" fill="white"/>
<g opacity="0.1">
<path d="M94.8242 15.053V24.7472H35.2971V32.9865H70.254V31.9012H36.6653V25.8331H96.1924V15.053C97.0135 14.8274 97.6073 14.2147 97.6073 13.4862C97.6073 12.5666 96.6676 11.8213 95.5083 11.8213C94.3491 11.8213 93.4094 12.5666 93.4094 13.4862C93.4087 14.2147 94.0024 14.8274 94.8242 15.053Z" fill="black"/>
<path d="M23.2838 59.1586C23.2838 58.2391 22.3441 57.4932 21.1849 57.4932C20.0256 57.4932 19.0859 58.2385 19.0859 59.1586C19.0859 59.8625 19.638 60.4612 20.416 60.7048V81.7008L42.0436 96.3006H71.6081V95.2153H42.9798V68.598C43.6674 68.3247 44.1433 67.7664 44.1433 67.1145C44.1433 66.195 43.2036 65.4491 42.0444 65.4491C40.8851 65.4491 39.9454 66.1944 39.9454 67.1145C39.9454 67.9164 40.6606 68.5851 41.6116 68.7436V94.5836L32.1568 88.2013V64.7743C32.9786 64.5486 33.5716 63.936 33.5716 63.2074C33.5716 62.2879 32.632 61.5425 31.4727 61.5425C30.3135 61.5425 29.3738 62.2879 29.3738 63.2074C29.3738 63.936 29.9675 64.5486 30.7893 64.7743V87.2779L21.7857 81.1996V60.7468C22.6491 60.5407 23.2838 59.9118 23.2838 59.1586Z" fill="black"/>
<path d="M21.2711 104.528H70.2541V103.443H21.2711C20.9866 102.791 20.2142 102.32 19.2957 102.32C18.1365 102.32 17.1968 103.066 17.1968 103.986C17.1968 104.905 18.1365 105.651 19.2957 105.651C20.2142 105.65 20.9866 105.179 21.2711 104.528Z" fill="black"/>
<path d="M22.6859 199.161V140.686L56.12 112.398H72.0586V111.312H55.5276L21.3177 140.257V199.05C20.3921 199.224 19.7017 199.879 19.7017 200.667C19.7017 201.586 20.6413 202.332 21.8006 202.332C22.9598 202.332 23.9002 201.586 23.9002 200.667C23.8995 199.999 23.4011 199.427 22.6859 199.161Z" fill="black"/>
<path d="M30.3524 199.478V143.541L56.127 120.982H72.0579V119.896H55.5206L28.9842 143.122V199.478C28.1624 199.704 27.5693 200.316 27.5693 201.045C27.5693 201.774 28.1631 202.386 28.9842 202.612V202.71H29.6662H29.6683H29.6704H30.3524V202.612C31.1742 202.386 31.7672 201.774 31.7672 201.045C31.7672 200.317 31.1735 199.704 30.3524 199.478Z" fill="black"/>
<path d="M73.1784 232.038V194.533H65.3813C65.1617 193.8 64.3357 193.252 63.3438 193.252C62.3526 193.252 61.5265 193.8 61.307 194.533H49.233V148.949H82.7567V147.863H47.8647V195.618H61.4454C61.7793 196.187 62.5015 196.583 63.3438 196.583C64.1868 196.583 64.9083 196.187 65.2422 195.618H71.8094V217.325H37.6023V245.062C36.7805 245.289 36.1875 245.901 36.1875 246.629C36.1875 247.549 37.1272 248.294 38.2864 248.294C39.4457 248.294 40.3854 247.549 40.3854 246.629C40.3854 245.901 39.7916 245.288 38.9706 245.062V218.41H71.8101V232.038C70.9884 232.264 70.3953 232.876 70.3953 233.605C70.3953 234.524 71.335 235.27 72.4943 235.27C73.6535 235.27 74.5932 234.524 74.5932 233.605C74.5932 232.877 74.0002 232.264 73.1784 232.038Z" fill="black"/>
<path d="M189.484 198.393V171.741H188.116V198.393C187.295 198.619 186.701 199.232 186.701 199.96C186.701 200.88 187.641 201.625 188.8 201.625C189.959 201.625 190.899 200.88 190.899 199.96C190.899 199.232 190.306 198.619 189.484 198.393Z" fill="black"/>
<path d="M201.799 198.318V171.741H200.431V198.539C199.822 198.831 199.411 199.355 199.411 199.96C199.411 200.88 200.351 201.625 201.51 201.625C202.669 201.625 203.609 200.88 203.609 199.96C203.61 199.119 202.82 198.431 201.799 198.318Z" fill="black"/>
<path d="M333.841 55.8848C334.044 56.6369 334.884 57.2008 335.893 57.2008C337.052 57.2008 337.992 56.4554 337.992 55.5359C337.992 54.6164 337.052 53.871 335.893 53.871C335.068 53.871 334.362 54.2513 334.019 54.7995H312.01L296.621 67.0064H296.211V67.3312L281.569 78.9456H260.635V23.5924H309.894V34.4457H333.877C334.122 35.1497 334.927 35.6699 335.892 35.6699C337.051 35.6699 337.991 34.9245 337.991 34.005C337.991 33.0855 337.051 32.3401 335.892 32.3401C335.021 32.3401 334.274 32.7613 333.956 33.361H311.263V22.5071H259.267V28.4767H238.058V16.0391C238.884 15.8145 239.48 15.2008 239.48 14.4705C239.48 13.551 238.54 12.8057 237.381 12.8057C236.222 12.8057 235.282 13.551 235.282 14.4705C235.282 15.1969 235.872 15.8084 236.691 16.0357V29.562H259.268V80.0303H280.202L263.774 93.0609H165.13L145.298 77.33H56.0571V36.1946H25.3913V20.4676H71.88C72.2139 21.036 72.9361 21.4325 73.7791 21.4325C74.9384 21.4325 75.878 20.6871 75.878 19.7676C75.878 18.8481 74.9384 18.1027 73.7791 18.1027C72.7879 18.1027 71.9619 18.6493 71.7416 19.3823H24.023V37.2799H54.6882V56.2258H46.6369L34.0101 46.2102H18.2035C17.9875 45.4727 17.1586 44.9217 16.1631 44.9217C15.0039 44.9217 14.0642 45.667 14.0642 46.5871C14.0642 47.5066 15.0039 48.252 16.1631 48.252C17.0019 48.252 17.7199 47.8594 18.0559 47.2955H33.4432L46.07 57.3111H54.6882V78.4153H144.731L164.563 94.1462H264.057H264.34H319.473V116.932H289.804C289.439 116.441 288.772 116.108 288.001 116.108C286.842 116.108 285.902 116.853 285.902 117.773C285.902 118.692 286.842 119.438 288.001 119.438C289.055 119.438 289.92 118.82 290.07 118.017H319.473V131.584H289.978C289.693 130.932 288.921 130.462 288.002 130.462C286.843 130.462 285.903 131.207 285.903 132.127C285.903 133.046 286.843 133.791 288.002 133.791C288.921 133.791 289.693 133.32 289.978 132.669H319.473V151.539C318.583 151.596 317.856 152.087 317.625 152.748H290.054V179.882H291.423V153.833H317.704C318.021 154.434 318.768 154.856 319.64 154.856C320.799 154.856 321.739 154.11 321.739 153.191C321.739 152.626 321.383 152.129 320.841 151.828V93.0609H265.708L282.136 80.0303H333.917C334.201 80.6821 334.974 81.1525 335.892 81.1525C337.051 81.1525 337.991 80.4072 337.991 79.4877C337.991 78.5681 337.051 77.8228 335.892 77.8228C334.974 77.8228 334.201 78.2937 333.917 78.945H283.504L297.187 68.0917H333.957C334.275 68.6909 335.022 69.1109 335.892 69.1109C337.051 69.1109 337.991 68.3655 337.991 67.446C337.991 66.5265 337.051 65.7811 335.892 65.7811C334.926 65.7811 334.121 66.3019 333.877 67.0064H298.555L312.576 55.8848H333.841Z" fill="black"/>
<path d="M113.543 195.619H97.8078V212.503C96.986 212.729 96.3929 213.341 96.3929 214.07C96.3929 214.989 97.3326 215.735 98.4919 215.735C99.6511 215.735 100.591 214.989 100.591 214.07C100.591 213.341 99.9971 212.728 99.176 212.503V196.705H114.911V170.656H113.543V195.619Z" fill="black"/>
<path d="M329.736 92.5107C327.095 92.5107 324.947 94.2148 324.947 96.3092C324.947 98.4036 327.095 100.108 329.736 100.108C332.376 100.108 334.525 98.4036 334.525 96.3092C334.525 94.2148 332.376 92.5107 329.736 92.5107ZM329.736 99.023C327.85 99.023 326.315 97.8055 326.315 96.3098C326.315 94.8135 327.85 93.5966 329.736 93.5966C331.622 93.5966 333.156 94.814 333.156 96.3098C333.156 97.8055 331.622 99.023 329.736 99.023Z" fill="black"/>
<path d="M49.2329 136.467C49.2329 138.562 51.3813 140.266 54.0217 140.266C56.6621 140.266 58.8105 138.562 58.8105 136.467C58.8105 134.373 56.6621 132.669 54.0217 132.669C51.3813 132.669 49.2329 134.372 49.2329 136.467ZM57.443 136.467C57.443 137.963 55.9081 139.181 54.0224 139.181C52.1367 139.181 50.6018 137.963 50.6018 136.467C50.6018 134.971 52.1367 133.754 54.0224 133.754C55.9081 133.754 57.443 134.971 57.443 136.467Z" fill="black"/>
<path d="M121.069 21.4212C123.71 21.4212 125.858 19.7171 125.858 17.6227C125.858 15.5283 123.71 13.8242 121.069 13.8242C118.429 13.8242 116.28 15.5283 116.28 17.6227C116.28 19.7171 118.428 21.4212 121.069 21.4212ZM121.069 14.9095C122.955 14.9095 124.49 16.1269 124.49 17.6227C124.49 19.119 122.955 20.3359 121.069 20.3359C119.183 20.3359 117.649 19.1185 117.649 17.6227C117.649 16.1264 119.183 14.9095 121.069 14.9095Z" fill="black"/>
<path d="M148.435 21.4212C151.075 21.4212 153.224 19.7171 153.224 17.6227C153.224 15.5283 151.075 13.8242 148.435 13.8242C145.795 13.8242 143.646 15.5283 143.646 17.6227C143.646 19.7171 145.795 21.4212 148.435 21.4212ZM148.435 14.9095C150.321 14.9095 151.856 16.1269 151.856 17.6227C151.856 19.119 150.321 20.3359 148.435 20.3359C146.549 20.3359 145.014 19.1185 145.014 17.6227C145.014 16.1264 146.549 14.9095 148.435 14.9095Z" fill="black"/>
<path d="M55.3906 240.117C52.7502 240.117 50.6018 241.822 50.6018 243.916C50.6018 246.01 52.7502 247.714 55.3906 247.714C58.031 247.714 60.1794 246.01 60.1794 243.916C60.1794 241.822 58.031 240.117 55.3906 240.117ZM55.3906 246.629C53.5049 246.629 51.97 245.412 51.97 243.916C51.97 242.42 53.5049 241.203 55.3906 241.203C57.277 241.203 58.8112 242.42 58.8112 243.916C58.8112 245.412 57.2763 246.629 55.3906 246.629Z" fill="black"/>
<path d="M86.1772 193.991C83.5368 193.991 81.3884 195.695 81.3884 197.79C81.3884 199.884 83.5368 201.588 86.1772 201.588C88.8177 201.588 90.966 199.884 90.966 197.79C90.9667 195.695 88.8177 193.991 86.1772 193.991ZM86.1772 200.503C84.2908 200.503 82.7567 199.285 82.7567 197.79C82.7567 196.293 84.2915 195.077 86.1772 195.077C88.063 195.077 89.5978 196.294 89.5978 197.79C89.5978 199.285 88.0637 200.503 86.1772 200.503Z" fill="black"/>
<path d="M329.736 140.267C327.095 140.267 324.947 141.971 324.947 144.065C324.947 146.159 327.095 147.864 329.736 147.864C332.376 147.864 334.525 146.159 334.525 144.065C334.525 141.971 332.376 140.267 329.736 140.267ZM329.736 146.779C327.85 146.779 326.315 145.561 326.315 144.066C326.315 142.569 327.85 141.352 329.736 141.352C331.622 141.352 333.156 142.57 333.156 144.066C333.156 145.561 331.622 146.779 329.736 146.779Z" fill="black"/>
</g>
<path d="M85.5305 220.409C85.5679 220.428 86.3085 218.153 86.3347 218.006C86.6347 216.296 85.9478 212.852 83.7528 212.011C82.1721 211.405 80.4043 212.134 79.8282 213.39C79.2394 214.672 79.9856 216.246 80.8695 217.329C81.9059 218.599 85.5284 220.407 85.5305 220.409Z" fill="#92E3A9"/>
<path d="M42.2563 219.662C44.005 220.268 48.2841 220.192 48.2869 220.192C48.3314 220.191 47.3677 217.971 47.2865 217.836C46.3475 216.279 43.3788 213.707 40.9636 213.965C39.2233 214.152 38.2561 215.533 38.6486 216.833C39.0496 218.16 40.7666 219.146 42.2563 219.662Z" fill="#92E3A9"/>
<path d="M43.7332 229.492C45.5476 229.702 49.3657 228.823 49.6693 228.753C50.2722 230.448 51.0636 232.149 51.985 233.835C52.5102 234.8 53.0771 235.758 53.6603 236.714C53.3122 236.309 52.9966 235.949 52.9458 235.903C51.5218 234.597 47.8019 232.738 45.5589 233.494C43.9422 234.039 43.4692 235.574 44.2811 236.745C45.1099 237.941 47.0938 238.532 48.7028 238.718C50.335 238.907 53.6095 238.209 54.4729 238.016C54.7016 238.38 54.9247 238.747 55.1549 239.111C56.2605 240.857 57.3738 242.595 58.399 244.327C58.7611 244.938 59.0887 245.549 59.4198 246.16C59.1099 245.801 58.8451 245.501 58.7986 245.458C57.3745 244.153 53.6553 242.294 51.4117 243.05C49.7949 243.594 49.3219 245.129 50.1331 246.3C50.962 247.497 52.9458 248.088 54.5548 248.274C56.1122 248.454 59.1417 247.832 60.1689 247.606C60.4838 248.24 60.8015 248.874 61.0705 249.5C61.242 249.93 61.4453 250.335 61.5873 250.774C61.7397 251.207 61.8901 251.636 62.0398 252.061C62.2897 252.887 62.5538 253.738 62.7719 254.549C62.9294 255.111 63.0656 255.65 63.2054 256.193C62.8545 255.582 62.1351 254.398 62.0603 254.304C60.9024 252.843 57.5807 250.559 55.2184 251.036C53.517 251.38 52.7559 252.84 53.3341 254.095C53.925 255.377 55.7733 256.2 57.328 256.577C59.0393 256.992 62.8291 256.613 63.3021 256.563C63.5295 257.461 63.7391 258.336 63.9206 259.165C64.395 261.301 64.7346 263.179 64.9782 264.697H66.5935C66.3019 263.137 65.8988 261.186 65.3396 258.955C65.1137 258.042 64.849 257.07 64.5659 256.074C64.8504 255.984 66.4671 255.466 67.8989 254.831C69.1464 255.903 72.3432 257.157 72.7569 257.316C72.3213 258.165 71.8878 258.987 71.4635 259.757C70.4094 261.682 69.4182 263.347 68.583 264.696H70.3388C71.0738 263.423 71.9132 261.911 72.7936 260.203C73.2398 259.343 73.6952 258.417 74.1519 257.462C74.6108 257.538 78.3625 258.143 80.1106 257.829C81.6963 257.545 83.6166 256.833 84.3261 255.59C85.0208 254.373 84.3995 252.871 82.7341 252.428C80.4233 251.812 76.8969 253.893 75.6042 255.283C75.5279 255.365 74.8262 256.327 74.3955 256.94C74.5798 256.549 74.7633 256.172 74.9462 255.768C75.3147 254.971 75.6536 254.166 76.0214 253.302C76.181 252.88 76.3412 252.453 76.5036 252.022C76.6766 251.598 76.791 251.133 76.9378 250.683C77.252 249.637 77.5061 248.564 77.7321 247.479C78.6131 247.733 81.7577 248.601 83.3871 248.511C85.0088 248.421 87.0428 247.948 87.9818 246.804C88.901 245.684 88.5734 244.125 87.0124 243.487C84.8457 242.601 80.9627 244.235 79.4194 245.453C79.3234 245.529 78.3399 246.501 77.8125 247.043C77.9417 246.391 78.0752 245.739 78.179 245.075C78.479 243.158 78.707 241.211 78.9464 239.268C79.0191 238.673 79.101 238.081 79.1794 237.488C79.4914 237.581 83.2014 238.677 85.0257 238.575C86.6474 238.484 88.6814 238.012 89.6204 236.868C90.5396 235.748 90.212 234.189 88.6511 233.551C86.4851 232.665 82.6013 234.298 81.0587 235.516C80.9422 235.608 79.5302 237.009 79.1935 237.379C79.3672 236.073 79.5564 234.773 79.8077 233.497C80.1515 231.736 80.6118 230.024 81.2126 228.391C81.3581 228.435 85.2234 229.592 87.0922 229.488C88.7139 229.398 90.7479 228.925 91.6869 227.781C92.6061 226.661 92.2785 225.103 90.7175 224.464C88.5508 223.578 84.6678 225.212 83.1252 226.429C83.0242 226.509 81.9469 227.576 81.4499 228.093C81.3821 228.065 81.3941 228.07 81.3263 228.042C81.9963 226.299 82.9219 224.677 83.8827 223.194C84.4369 222.333 85.0279 221.535 85.6244 220.769C86.3163 221.043 89.4968 222.269 91.1912 222.322C92.8158 222.373 94.9027 222.081 95.9949 221.026C97.0638 219.993 96.9536 218.415 95.4908 217.645C93.4603 216.575 89.374 217.861 87.6718 218.937C87.5794 218.995 86.7216 219.672 86.1052 220.173C86.3813 219.831 86.658 219.474 86.9305 219.149C87.95 217.931 88.9786 216.866 89.8986 215.928C90.4274 215.398 90.9187 214.927 91.384 214.491C92.2404 214.478 95.6892 214.395 97.1972 213.834C98.6685 213.286 100.351 212.264 100.707 210.929C101.055 209.621 100.041 208.261 98.2957 208.112C95.872 207.905 92.9923 210.539 92.1069 212.116C92.0307 212.252 91.1425 214.493 91.187 214.493C91.187 214.493 91.2287 214.492 91.2386 214.492C90.7797 214.906 90.2939 215.353 89.7757 215.85C88.8276 216.774 87.7671 217.824 86.7103 219.029C85.6499 220.231 84.5407 221.561 83.5319 223.046C82.518 224.533 81.5473 226.138 80.8166 227.894C80.8081 227.913 80.8032 227.935 80.7947 227.955C80.8067 227.389 80.7756 225.804 80.7559 225.683C80.4763 223.971 78.6668 220.793 76.2699 220.441C74.5431 220.188 73.0809 221.261 72.9433 222.593C72.8028 223.954 74.046 225.315 75.2589 226.174C76.6265 227.143 80.4219 228.081 80.7241 228.155C80.0477 229.832 79.5253 231.598 79.1208 233.407C78.8878 234.441 78.6943 235.489 78.5164 236.541C78.5072 236.051 78.4945 235.613 78.4847 235.552C78.2051 233.84 76.3956 230.662 73.9987 230.31C72.2719 230.057 70.8097 231.13 70.6721 232.462C70.5316 233.822 71.7748 235.183 72.9877 236.043C74.2183 236.914 77.4334 237.766 78.2884 237.982C78.2256 238.386 78.1571 238.79 78.0964 239.194C77.8041 241.134 77.5231 243.071 77.1736 244.965C77.0508 245.632 76.899 246.286 76.7507 246.94C76.7422 246.505 76.7302 246.138 76.7211 246.083C76.4415 244.371 74.632 241.193 72.2351 240.841C70.5083 240.588 69.0461 241.661 68.9085 242.994C68.768 244.354 70.012 245.715 71.2242 246.574C72.3982 247.406 75.3571 248.213 76.3716 248.474C76.1937 249.14 76.0172 249.808 75.8068 250.447C75.6508 250.881 75.5385 251.308 75.3514 251.737C75.1771 252.165 75.0048 252.588 74.8339 253.008C74.4675 253.807 74.0962 254.632 73.7142 255.404C73.4537 255.942 73.1932 256.451 72.932 256.964C73.064 256.301 73.2871 254.999 73.2906 254.889C73.3245 253.742 72.8105 251.877 71.789 250.566C71.7953 250.397 71.7826 250.228 71.7487 250.06C71.4811 248.741 69.9188 247.761 68.2215 248.119C65.8663 248.617 64.3724 251.896 64.2609 253.62C64.2545 253.722 64.3385 254.831 64.4056 255.531C64.287 255.125 64.1776 254.729 64.0491 254.312C63.802 253.486 63.5252 252.667 63.2308 251.785C63.0699 251.363 62.9075 250.937 62.743 250.507C62.5919 250.077 62.3631 249.639 62.1739 249.199C61.708 248.189 61.1742 247.183 60.6073 246.179C61.5188 246.006 64.7452 245.354 66.0414 244.565C67.3313 243.78 68.6988 242.496 68.6868 241.131C68.6748 239.795 67.3171 238.638 65.5712 238.789C63.1482 238.997 61.045 242.059 60.6052 243.75C60.5777 243.856 60.4344 245.097 60.3722 245.78C60.0256 245.179 59.6839 244.577 59.309 243.977C58.226 242.247 57.0618 240.523 55.9103 238.799C55.5573 238.271 55.2135 237.741 54.8661 237.212C55.1916 237.153 59.0478 236.443 60.4986 235.56C61.7885 234.775 63.1567 233.491 63.144 232.126C63.132 230.79 61.7743 229.633 60.0284 229.784C57.6047 229.993 55.5022 233.055 55.0624 234.745C55.0292 234.873 54.8259 236.659 54.8026 237.116C54.0394 235.95 53.2925 234.783 52.6154 233.609C51.6778 231.99 50.8709 230.361 50.2362 228.735C50.388 228.709 54.4164 227.982 55.9032 227.077C57.1931 226.293 58.5606 225.008 58.5486 223.643C58.5366 222.307 57.179 221.15 55.4331 221.301C53.0094 221.51 50.9069 224.572 50.467 226.262C50.4381 226.373 50.2814 227.735 50.2263 228.384C50.1501 228.39 50.1642 228.389 50.0879 228.395C49.4342 226.648 49.0791 224.89 48.8482 223.232C48.7119 222.272 48.6498 221.348 48.6152 220.449C49.3833 220.375 52.8872 220.004 54.3388 219.307C55.7296 218.639 57.2665 217.482 57.4437 216.125C57.6167 214.795 56.4278 213.527 54.6713 213.525C52.2342 213.522 49.7201 216.382 49.0487 218.024C49.012 218.113 48.7677 219.054 48.6018 219.741C48.594 219.335 48.5764 218.915 48.5785 218.526C48.582 217.064 48.6985 215.725 48.8136 214.541C48.8863 213.867 48.9682 213.259 49.0529 212.691C49.7582 212.307 52.5773 210.728 53.445 209.6C54.2907 208.499 54.9833 206.91 54.3515 205.64C53.7323 204.397 51.9405 203.707 50.3802 204.346C48.2149 205.234 47.6452 208.691 48.0038 210.395C48.0349 210.542 48.8524 212.799 48.8898 212.78C48.8898 212.78 48.9244 212.761 48.9322 212.756C48.8369 213.302 48.743 213.888 48.6562 214.528C48.5079 215.714 48.354 217.054 48.3109 218.522C48.2629 219.988 48.2622 221.583 48.4535 223.262C48.642 224.946 48.9484 226.709 49.5605 228.493C49.5676 228.514 49.5782 228.534 49.5853 228.554C49.2019 228.076 48.0737 226.769 47.9727 226.676C46.5487 225.37 42.8295 223.511 40.5859 224.267C38.9691 224.811 38.4961 226.346 39.3073 227.518C40.1404 228.715 42.1242 229.306 43.7332 229.492Z" fill="#92E3A9"/>
<path opacity="0.3" d="M42.2563 219.662C44.005 220.268 48.2841 220.192 48.2869 220.192C48.3314 220.191 47.3677 217.971 47.2865 217.836C46.3475 216.279 43.3788 213.707 40.9636 213.965C39.2233 214.152 38.2561 215.533 38.6486 216.833C39.0496 218.16 40.7666 219.146 42.2563 219.662Z" fill="#92E3A9"/>
<path opacity="0.3" d="M85.5305 220.409C85.5679 220.428 86.3085 218.153 86.3347 218.006C86.6347 216.296 85.9478 212.852 83.7528 212.011C82.1721 211.405 80.4043 212.134 79.8282 213.39C79.2394 214.672 79.9856 216.246 80.8695 217.329C81.9059 218.599 85.5284 220.407 85.5305 220.409Z" fill="#92E3A9"/>
<path opacity="0.3" d="M43.7332 229.492C45.5476 229.702 49.3657 228.823 49.6693 228.753C50.2722 230.448 51.0636 232.149 51.985 233.835C52.5102 234.8 53.0771 235.758 53.6603 236.714C53.3122 236.309 52.9966 235.949 52.9458 235.903C51.5218 234.597 47.8019 232.738 45.5589 233.494C43.9422 234.039 43.4692 235.574 44.2811 236.745C45.1099 237.941 47.0938 238.532 48.7028 238.718C50.335 238.907 53.6095 238.209 54.4729 238.016C54.7016 238.38 54.9247 238.747 55.1549 239.111C56.2605 240.857 57.3738 242.595 58.399 244.327C58.7611 244.938 59.0887 245.549 59.4198 246.16C59.1099 245.801 58.8451 245.501 58.7986 245.458C57.3745 244.153 53.6553 242.294 51.4117 243.05C49.7949 243.594 49.3219 245.129 50.1331 246.3C50.962 247.497 52.9458 248.088 54.5548 248.274C56.1122 248.454 59.1417 247.832 60.1689 247.606C60.4838 248.24 60.8015 248.874 61.0705 249.5C61.242 249.93 61.4453 250.335 61.5873 250.774C61.7397 251.207 61.8901 251.636 62.0398 252.061C62.2897 252.887 62.5538 253.738 62.7719 254.549C62.9294 255.111 63.0656 255.65 63.2054 256.193C62.8545 255.582 62.1351 254.398 62.0603 254.304C60.9024 252.843 57.5807 250.559 55.2184 251.036C53.517 251.38 52.7559 252.84 53.3341 254.095C53.925 255.377 55.7733 256.2 57.328 256.577C59.0393 256.992 62.8291 256.613 63.3021 256.563C63.5295 257.461 63.7391 258.336 63.9206 259.165C64.395 261.301 64.7346 263.179 64.9782 264.697H66.5935C66.3019 263.137 65.8988 261.186 65.3396 258.955C65.1137 258.042 64.849 257.07 64.5659 256.074C64.8504 255.984 66.4671 255.466 67.8989 254.831C69.1464 255.903 72.3432 257.157 72.7569 257.316C72.3213 258.165 71.8878 258.987 71.4635 259.757C70.4094 261.682 69.4182 263.347 68.583 264.696H70.3388C71.0738 263.423 71.9132 261.911 72.7936 260.203C73.2398 259.343 73.6952 258.417 74.1519 257.462C74.6108 257.538 78.3625 258.143 80.1106 257.829C81.6963 257.545 83.6166 256.833 84.3261 255.59C85.0208 254.373 84.3995 252.871 82.7341 252.428C80.4233 251.812 76.8969 253.893 75.6042 255.283C75.5279 255.365 74.8262 256.327 74.3955 256.94C74.5798 256.549 74.7633 256.172 74.9462 255.768C75.3147 254.971 75.6536 254.166 76.0214 253.302C76.181 252.88 76.3412 252.453 76.5036 252.022C76.6766 251.598 76.791 251.133 76.9378 250.683C77.252 249.637 77.5061 248.564 77.7321 247.479C78.6131 247.733 81.7577 248.601 83.3871 248.511C85.0088 248.421 87.0428 247.948 87.9818 246.804C88.901 245.684 88.5734 244.125 87.0124 243.487C84.8457 242.601 80.9627 244.235 79.4194 245.453C79.3234 245.529 78.3399 246.501 77.8125 247.043C77.9417 246.391 78.0752 245.739 78.179 245.075C78.479 243.158 78.707 241.211 78.9464 239.268C79.0191 238.673 79.101 238.081 79.1794 237.488C79.4914 237.581 83.2014 238.677 85.0257 238.575C86.6474 238.484 88.6814 238.012 89.6204 236.868C90.5396 235.748 90.212 234.189 88.6511 233.551C86.4851 232.665 82.6013 234.298 81.0587 235.516C80.9422 235.608 79.5302 237.009 79.1935 237.379C79.3672 236.073 79.5564 234.773 79.8077 233.497C80.1515 231.736 80.6118 230.024 81.2126 228.391C81.3581 228.435 85.2234 229.592 87.0922 229.488C88.7139 229.398 90.7479 228.925 91.6869 227.781C92.6061 226.661 92.2785 225.103 90.7175 224.464C88.5508 223.578 84.6678 225.212 83.1252 226.429C83.0242 226.509 81.9469 227.576 81.4499 228.093C81.3821 228.065 81.3941 228.07 81.3263 228.042C81.9963 226.299 82.9219 224.677 83.8827 223.194C84.4369 222.333 85.0279 221.535 85.6244 220.769C86.3163 221.043 89.4968 222.269 91.1912 222.322C92.8158 222.373 94.9027 222.081 95.9949 221.026C97.0638 219.993 96.9536 218.415 95.4908 217.645C93.4603 216.575 89.374 217.861 87.6718 218.937C87.5794 218.995 86.7216 219.672 86.1052 220.173C86.3813 219.831 86.658 219.474 86.9305 219.149C87.95 217.931 88.9786 216.866 89.8986 215.928C90.4274 215.398 90.9187 214.927 91.384 214.491C92.2404 214.478 95.6892 214.395 97.1972 213.834C98.6685 213.286 100.351 212.264 100.707 210.929C101.055 209.621 100.041 208.261 98.2957 208.112C95.872 207.905 92.9923 210.539 92.1069 212.116C92.0307 212.252 91.1425 214.493 91.187 214.493C91.187 214.493 91.2287 214.492 91.2386 214.492C90.7797 214.906 90.2939 215.353 89.7757 215.85C88.8276 216.774 87.7671 217.824 86.7103 219.029C85.6499 220.231 84.5407 221.561 83.5319 223.046C82.518 224.533 81.5473 226.138 80.8166 227.894C80.8081 227.913 80.8032 227.935 80.7947 227.955C80.8067 227.389 80.7756 225.804 80.7559 225.683C80.4763 223.971 78.6668 220.793 76.2699 220.441C74.5431 220.188 73.0809 221.261 72.9433 222.593C72.8028 223.954 74.046 225.315 75.2589 226.174C76.6265 227.143 80.4219 228.081 80.7241 228.155C80.0477 229.832 79.5253 231.598 79.1208 233.407C78.8878 234.441 78.6943 235.489 78.5164 236.541C78.5072 236.051 78.4945 235.613 78.4847 235.552C78.2051 233.84 76.3956 230.662 73.9987 230.31C72.2719 230.057 70.8097 231.13 70.6721 232.462C70.5316 233.822 71.7748 235.183 72.9877 236.043C74.2183 236.914 77.4334 237.766 78.2884 237.982C78.2256 238.386 78.1571 238.79 78.0964 239.194C77.8041 241.134 77.5231 243.071 77.1736 244.965C77.0508 245.632 76.899 246.286 76.7507 246.94C76.7422 246.505 76.7302 246.138 76.7211 246.083C76.4415 244.371 74.632 241.193 72.2351 240.841C70.5083 240.588 69.0461 241.661 68.9085 242.994C68.768 244.354 70.012 245.715 71.2242 246.574C72.3982 247.406 75.3571 248.213 76.3716 248.474C76.1937 249.14 76.0172 249.808 75.8068 250.447C75.6508 250.881 75.5385 251.308 75.3514 251.737C75.1771 252.165 75.0048 252.588 74.8339 253.008C74.4675 253.807 74.0962 254.632 73.7142 255.404C73.4537 255.942 73.1932 256.451 72.932 256.964C73.064 256.301 73.2871 254.999 73.2906 254.889C73.3245 253.742 72.8105 251.877 71.789 250.566C71.7953 250.397 71.7826 250.228 71.7487 250.06C71.4811 248.741 69.9188 247.761 68.2215 248.119C65.8663 248.617 64.3724 251.896 64.2609 253.62C64.2545 253.722 64.3385 254.831 64.4056 255.531C64.287 255.125 64.1776 254.729 64.0491 254.312C63.802 253.486 63.5252 252.667 63.2308 251.785C63.0699 251.363 62.9075 250.937 62.743 250.507C62.5919 250.077 62.3631 249.639 62.1739 249.199C61.708 248.189 61.1742 247.183 60.6073 246.179C61.5188 246.006 64.7452 245.354 66.0414 244.565C67.3313 243.78 68.6988 242.496 68.6868 241.131C68.6748 239.795 67.3171 238.638 65.5712 238.789C63.1482 238.997 61.045 242.059 60.6052 243.75C60.5777 243.856 60.4344 245.097 60.3722 245.78C60.0256 245.179 59.6839 244.577 59.309 243.977C58.226 242.247 57.0618 240.523 55.9103 238.799C55.5573 238.271 55.2135 237.741 54.8661 237.212C55.1916 237.153 59.0478 236.443 60.4986 235.56C61.7885 234.775 63.1567 233.491 63.144 232.126C63.132 230.79 61.7743 229.633 60.0284 229.784C57.6047 229.993 55.5022 233.055 55.0624 234.745C55.0292 234.873 54.8259 236.659 54.8026 237.116C54.0394 235.95 53.2925 234.783 52.6154 233.609C51.6778 231.99 50.8709 230.361 50.2362 228.735C50.388 228.709 54.4164 227.982 55.9032 227.077C57.1931 226.293 58.5606 225.008 58.5486 223.643C58.5366 222.307 57.179 221.15 55.4331 221.301C53.0094 221.51 50.9069 224.572 50.467 226.262C50.4381 226.373 50.2814 227.735 50.2263 228.384C50.1501 228.39 50.1642 228.389 50.0879 228.395C49.4342 226.648 49.0791 224.89 48.8482 223.232C48.7119 222.272 48.6498 221.348 48.6152 220.449C49.3833 220.375 52.8872 220.004 54.3388 219.307C55.7296 218.639 57.2665 217.482 57.4437 216.125C57.6167 214.795 56.4278 213.527 54.6713 213.525C52.2342 213.522 49.7201 216.382 49.0487 218.024C49.012 218.113 48.7677 219.054 48.6018 219.741C48.594 219.335 48.5764 218.915 48.5785 218.526C48.582 217.064 48.6985 215.725 48.8136 214.541C48.8863 213.867 48.9682 213.259 49.0529 212.691C49.7582 212.307 52.5773 210.728 53.445 209.6C54.2907 208.499 54.9833 206.91 54.3515 205.64C53.7323 204.397 51.9405 203.707 50.3802 204.346C48.2149 205.234 47.6452 208.691 48.0038 210.395C48.0349 210.542 48.8524 212.799 48.8898 212.78C48.8898 212.78 48.9244 212.761 48.9322 212.756C48.8369 213.302 48.743 213.888 48.6562 214.528C48.5079 215.714 48.354 217.054 48.3109 218.522C48.2629 219.988 48.2622 221.583 48.4535 223.262C48.642 224.946 48.9484 226.709 49.5605 228.493C49.5676 228.514 49.5782 228.534 49.5853 228.554C49.2019 228.076 48.0737 226.769 47.9727 226.676C46.5487 225.37 42.8295 223.511 40.5859 224.267C38.9691 224.811 38.4961 226.346 39.3073 227.518C40.1404 228.715 42.1242 229.306 43.7332 229.492Z" fill="#92E3A9"/>
<path d="M281.503 28.71H66.1007V183.909H281.503V28.71Z" fill="#92E3A9"/>
<path opacity="0.15" d="M281.503 28.71H66.1007V183.909H281.503V28.71Z" fill="black"/>
<path d="M281.503 28.71H66.1007V183.909H281.503V28.71Z" stroke="#263238" stroke-miterlimit="10"/>
<path d="M275.706 111.234V69.1252H240.619V28.71H66.1007V183.909H240.619V179.965H259.841V164.476H275.096V132.047H258.62V111.235L275.706 111.234ZM268.994 74.4491V85.0975H240.619V74.4491H268.994ZM268.384 137.371V159.152H253.129V174.64H240.619V90.422H268.994V105.91H251.908V137.371H268.384Z" fill="#92E3A9" stroke="#263238" stroke-miterlimit="10"/>
<path d="M76.4676 49.3609C76.4676 48.7225 75.8152 48.2051 75.0104 48.2051C74.2056 48.2051 73.5532 48.7225 73.5532 49.3609C73.5532 49.9993 74.2056 50.5168 75.0104 50.5168C75.8152 50.5162 76.4676 49.9988 76.4676 49.3609Z" fill="#263238"/>
<path d="M99.2015 49.3609C99.2015 48.7225 98.5491 48.2051 97.7443 48.2051C96.9395 48.2051 96.2871 48.7225 96.2871 49.3609C96.2871 49.9993 96.9395 50.5168 97.7443 50.5168C98.5498 50.5162 99.2015 49.9988 99.2015 49.3609Z" fill="#263238"/>
<path d="M121.936 49.3609C121.936 48.7225 121.284 48.2051 120.479 48.2051C119.674 48.2051 119.022 48.7225 119.022 49.3609C119.022 49.9993 119.674 50.5168 120.479 50.5168C121.284 50.5162 121.936 49.9988 121.936 49.3609Z" fill="#263238"/>
<path d="M144.67 49.3609C144.67 48.7225 144.018 48.2051 143.213 48.2051C142.408 48.2051 141.756 48.7225 141.756 49.3609C141.756 49.9993 142.408 50.5168 143.213 50.5168C144.018 50.5162 144.67 49.9988 144.67 49.3609Z" fill="#263238"/>
<path d="M167.404 49.3609C167.404 48.7225 166.752 48.2051 165.947 48.2051C165.142 48.2051 164.49 48.7225 164.49 49.3609C164.49 49.9993 165.142 50.5168 165.947 50.5168C166.752 50.5162 167.404 49.9988 167.404 49.3609Z" fill="#263238"/>
<path d="M190.138 49.3609C190.138 48.7225 189.486 48.2051 188.681 48.2051C187.876 48.2051 187.224 48.7225 187.224 49.3609C187.224 49.9993 187.876 50.5168 188.681 50.5168C189.486 50.5162 190.138 49.9988 190.138 49.3609Z" fill="#263238"/>
<path d="M212.872 49.3609C212.872 48.7225 212.219 48.2051 211.415 48.2051C210.61 48.2051 209.957 48.7225 209.957 49.3609C209.957 49.9993 210.61 50.5168 211.415 50.5168C212.219 50.5168 212.872 49.9988 212.872 49.3609Z" fill="#263238"/>
<path d="M235.606 49.3609C235.606 48.7225 234.953 48.2051 234.148 48.2051C233.344 48.2051 232.691 48.7225 232.691 49.3609C232.691 49.9993 233.344 50.5168 234.148 50.5168C234.953 50.5162 235.606 49.9988 235.606 49.3609Z" fill="#263238"/>
<path d="M76.4676 66.8726C76.4676 66.2342 75.8152 65.7168 75.0104 65.7168C74.2056 65.7168 73.5532 66.2342 73.5532 66.8726C73.5532 67.511 74.2056 68.0285 75.0104 68.0285C75.8152 68.0285 76.4676 67.511 76.4676 66.8726Z" fill="#263238"/>
<path d="M97.745 68.0285C98.5498 68.0285 99.2022 67.511 99.2022 66.8726C99.2022 66.2343 98.5498 65.7168 97.745 65.7168C96.9403 65.7168 96.2878 66.2343 96.2878 66.8726C96.2878 67.511 96.9403 68.0285 97.745 68.0285Z" fill="#263238"/>
<path d="M120.479 68.0285C121.284 68.0285 121.936 67.511 121.936 66.8726C121.936 66.2343 121.284 65.7168 120.479 65.7168C119.674 65.7168 119.022 66.2343 119.022 66.8726C119.022 67.511 119.674 68.0285 120.479 68.0285Z" fill="#263238"/>
<path d="M144.67 66.8726C144.67 66.2342 144.018 65.7168 143.213 65.7168C142.408 65.7168 141.756 66.2342 141.756 66.8726C141.756 67.511 142.408 68.0285 143.213 68.0285C144.018 68.0285 144.67 67.511 144.67 66.8726Z" fill="#263238"/>
<path d="M167.404 66.8726C167.404 66.2342 166.752 65.7168 165.947 65.7168C165.142 65.7168 164.49 66.2342 164.49 66.8726C164.49 67.511 165.142 68.0285 165.947 68.0285C166.752 68.0285 167.404 67.511 167.404 66.8726Z" fill="#263238"/>
<path d="M188.681 68.0285C189.485 68.0285 190.138 67.511 190.138 66.8726C190.138 66.2343 189.485 65.7168 188.681 65.7168C187.876 65.7168 187.224 66.2343 187.224 66.8726C187.224 67.511 187.876 68.0285 188.681 68.0285Z" fill="#263238"/>
<path d="M211.415 68.0285C212.219 68.0285 212.872 67.511 212.872 66.8726C212.872 66.2343 212.219 65.7168 211.415 65.7168C210.61 65.7168 209.957 66.2343 209.957 66.8726C209.957 67.511 210.61 68.0285 211.415 68.0285Z" fill="#263238"/>
<path d="M235.606 66.8726C235.606 66.2342 234.953 65.7168 234.148 65.7168C233.344 65.7168 232.691 66.2342 232.691 66.8726C232.691 67.511 233.344 68.0285 234.148 68.0285C234.953 68.0285 235.606 67.511 235.606 66.8726Z" fill="#263238"/>
<path d="M76.4676 84.3853C76.4676 83.7469 75.8152 83.2295 75.0104 83.2295C74.2056 83.2295 73.5532 83.7469 73.5532 84.3853C73.5532 85.0237 74.2056 85.5412 75.0104 85.5412C75.8152 85.5412 76.4676 85.0237 76.4676 84.3853Z" fill="#263238"/>
<path d="M97.745 85.5412C98.5498 85.5412 99.2022 85.0237 99.2022 84.3853C99.2022 83.747 98.5498 83.2295 97.745 83.2295C96.9403 83.2295 96.2878 83.747 96.2878 84.3853C96.2878 85.0237 96.9403 85.5412 97.745 85.5412Z" fill="#263238"/>
<path d="M120.479 85.5412C121.284 85.5412 121.936 85.0237 121.936 84.3853C121.936 83.747 121.284 83.2295 120.479 83.2295C119.674 83.2295 119.022 83.747 119.022 84.3853C119.022 85.0237 119.674 85.5412 120.479 85.5412Z" fill="#263238"/>
<path d="M144.67 84.3853C144.67 83.7469 144.018 83.2295 143.213 83.2295C142.408 83.2295 141.756 83.7469 141.756 84.3853C141.756 85.0237 142.408 85.5412 143.213 85.5412C144.018 85.5412 144.67 85.0237 144.67 84.3853Z" fill="#263238"/>
<path d="M167.404 84.3853C167.404 83.7469 166.752 83.2295 165.947 83.2295C165.142 83.2295 164.49 83.7469 164.49 84.3853C164.49 85.0237 165.142 85.5412 165.947 85.5412C166.752 85.5412 167.404 85.0237 167.404 84.3853Z" fill="#263238"/>
<path d="M188.681 85.5412C189.485 85.5412 190.138 85.0237 190.138 84.3853C190.138 83.747 189.485 83.2295 188.681 83.2295C187.876 83.2295 187.224 83.747 187.224 84.3853C187.224 85.0237 187.876 85.5412 188.681 85.5412Z" fill="#263238"/>
<path d="M211.415 85.5412C212.219 85.5412 212.872 85.0237 212.872 84.3853C212.872 83.747 212.219 83.2295 211.415 83.2295C210.61 83.2295 209.957 83.747 209.957 84.3853C209.957 85.0237 210.61 85.5412 211.415 85.5412Z" fill="#263238"/>
<path d="M235.606 84.3853C235.606 83.7469 234.953 83.2295 234.148 83.2295C233.344 83.2295 232.691 83.7469 232.691 84.3853C232.691 85.0237 233.344 85.5412 234.148 85.5412C234.953 85.5412 235.606 85.0237 235.606 84.3853Z" fill="#263238"/>
<path d="M76.4676 101.899C76.4676 101.261 75.8152 100.743 75.0104 100.743C74.2056 100.743 73.5532 101.261 73.5532 101.899C73.5532 102.537 74.2056 103.055 75.0104 103.055C75.8152 103.055 76.4676 102.537 76.4676 101.899Z" fill="#263238"/>
<path d="M99.2015 101.899C99.2015 101.261 98.5491 100.743 97.7443 100.743C96.9395 100.743 96.2871 101.261 96.2871 101.899C96.2871 102.537 96.9395 103.055 97.7443 103.055C98.5498 103.055 99.2015 102.537 99.2015 101.899Z" fill="#263238"/>
<path d="M121.936 101.899C121.936 101.261 121.284 100.743 120.479 100.743C119.674 100.743 119.022 101.261 119.022 101.899C119.022 102.537 119.674 103.055 120.479 103.055C121.284 103.055 121.936 102.537 121.936 101.899Z" fill="#263238"/>
<path d="M144.67 101.899C144.67 101.261 144.018 100.743 143.213 100.743C142.408 100.743 141.756 101.261 141.756 101.899C141.756 102.537 142.408 103.055 143.213 103.055C144.018 103.055 144.67 102.537 144.67 101.899Z" fill="#263238"/>
<path d="M167.404 101.899C167.404 101.261 166.752 100.743 165.947 100.743C165.142 100.743 164.49 101.261 164.49 101.899C164.49 102.537 165.142 103.055 165.947 103.055C166.752 103.055 167.404 102.537 167.404 101.899Z" fill="#263238"/>
<path d="M190.138 101.899C190.138 101.261 189.486 100.743 188.681 100.743C187.876 100.743 187.224 101.261 187.224 101.899C187.224 102.537 187.876 103.055 188.681 103.055C189.486 103.055 190.138 102.537 190.138 101.899Z" fill="#263238"/>
<path d="M212.872 101.899C212.872 101.261 212.219 100.743 211.415 100.743C210.61 100.743 209.957 101.261 209.957 101.899C209.957 102.537 210.61 103.055 211.415 103.055C212.219 103.055 212.872 102.537 212.872 101.899Z" fill="#263238"/>
<path d="M235.606 101.899C235.606 101.261 234.953 100.743 234.148 100.743C233.344 100.743 232.691 101.261 232.691 101.899C232.691 102.537 233.344 103.055 234.148 103.055C234.953 103.055 235.606 102.537 235.606 101.899Z" fill="#263238"/>
<path d="M76.4676 119.412C76.4676 118.773 75.8152 118.256 75.0104 118.256C74.2056 118.256 73.5532 118.773 73.5532 119.412C73.5532 120.05 74.2056 120.568 75.0104 120.568C75.8152 120.568 76.4676 120.05 76.4676 119.412Z" fill="#263238"/>
<path d="M97.745 120.568C98.5498 120.568 99.2022 120.05 99.2022 119.412C99.2022 118.773 98.5498 118.256 97.745 118.256C96.9403 118.256 96.2878 118.773 96.2878 119.412C96.2878 120.05 96.9403 120.568 97.745 120.568Z" fill="#263238"/>
<path d="M120.479 120.568C121.284 120.568 121.936 120.05 121.936 119.412C121.936 118.773 121.284 118.256 120.479 118.256C119.674 118.256 119.022 118.773 119.022 119.412C119.022 120.05 119.674 120.568 120.479 120.568Z" fill="#263238"/>
<path d="M144.67 119.412C144.67 118.773 144.018 118.256 143.213 118.256C142.408 118.256 141.756 118.773 141.756 119.412C141.756 120.05 142.408 120.568 143.213 120.568C144.018 120.568 144.67 120.05 144.67 119.412Z" fill="#263238"/>
<path d="M167.404 119.412C167.404 118.773 166.752 118.256 165.947 118.256C165.142 118.256 164.49 118.773 164.49 119.412C164.49 120.05 165.142 120.568 165.947 120.568C166.752 120.568 167.404 120.05 167.404 119.412Z" fill="#263238"/>
<path d="M188.681 120.568C189.485 120.568 190.138 120.05 190.138 119.412C190.138 118.773 189.485 118.256 188.681 118.256C187.876 118.256 187.224 118.773 187.224 119.412C187.224 120.05 187.876 120.568 188.681 120.568Z" fill="#263238"/>
<path d="M211.415 120.568C212.219 120.568 212.872 120.05 212.872 119.412C212.872 118.773 212.219 118.256 211.415 118.256C210.61 118.256 209.957 118.773 209.957 119.412C209.957 120.05 210.61 120.568 211.415 120.568Z" fill="#263238"/>
<path d="M235.606 119.412C235.606 118.773 234.953 118.256 234.148 118.256C233.344 118.256 232.691 118.773 232.691 119.412C232.691 120.05 233.344 120.568 234.148 120.568C234.953 120.568 235.606 120.05 235.606 119.412Z" fill="#263238"/>
<path d="M76.4676 136.924C76.4676 136.286 75.8152 135.769 75.0104 135.769C74.2056 135.769 73.5532 136.286 73.5532 136.924C73.5532 137.563 74.2056 138.08 75.0104 138.08C75.8152 138.08 76.4676 137.563 76.4676 136.924Z" fill="#263238"/>
<path d="M99.2015 136.924C99.2015 136.286 98.5491 135.769 97.7443 135.769C96.9395 135.769 96.2871 136.286 96.2871 136.924C96.2871 137.563 96.9395 138.08 97.7443 138.08C98.5498 138.08 99.2015 137.563 99.2015 136.924Z" fill="#263238"/>
<path d="M121.936 136.924C121.936 136.286 121.284 135.769 120.479 135.769C119.674 135.769 119.022 136.286 119.022 136.924C119.022 137.563 119.674 138.08 120.479 138.08C121.284 138.08 121.936 137.563 121.936 136.924Z" fill="#263238"/>
<path d="M144.67 136.924C144.67 136.286 144.018 135.769 143.213 135.769C142.408 135.769 141.756 136.286 141.756 136.924C141.756 137.563 142.408 138.08 143.213 138.08C144.018 138.08 144.67 137.563 144.67 136.924Z" fill="#263238"/>
<path d="M167.404 136.924C167.404 136.286 166.752 135.769 165.947 135.769C165.142 135.769 164.49 136.286 164.49 136.924C164.49 137.563 165.142 138.08 165.947 138.08C166.752 138.08 167.404 137.563 167.404 136.924Z" fill="#263238"/>
<path d="M190.138 136.924C190.138 136.286 189.486 135.769 188.681 135.769C187.876 135.769 187.224 136.286 187.224 136.924C187.224 137.563 187.876 138.08 188.681 138.08C189.486 138.08 190.138 137.563 190.138 136.924Z" fill="#263238"/>
<path d="M212.872 136.924C212.872 136.286 212.219 135.769 211.415 135.769C210.61 135.769 209.957 136.286 209.957 136.924C209.957 137.563 210.61 138.08 211.415 138.08C212.219 138.08 212.872 137.563 212.872 136.924Z" fill="#263238"/>
<path d="M235.606 136.924C235.606 136.286 234.953 135.769 234.148 135.769C233.344 135.769 232.691 136.286 232.691 136.924C232.691 137.563 233.344 138.08 234.148 138.08C234.953 138.08 235.606 137.563 235.606 136.924Z" fill="#263238"/>
<path d="M76.4676 154.437C76.4676 153.799 75.8152 153.281 75.0104 153.281C74.2056 153.281 73.5532 153.799 73.5532 154.437C73.5532 155.075 74.2056 155.593 75.0104 155.593C75.8152 155.593 76.4676 155.075 76.4676 154.437Z" fill="#263238"/>
<path d="M99.2015 154.437C99.2015 153.799 98.5491 153.281 97.7443 153.281C96.9395 153.281 96.2871 153.799 96.2871 154.437C96.2871 155.075 96.9395 155.593 97.7443 155.593C98.5498 155.593 99.2015 155.075 99.2015 154.437Z" fill="#263238"/>
<path d="M121.936 154.437C121.936 153.799 121.284 153.281 120.479 153.281C119.674 153.281 119.022 153.799 119.022 154.437C119.022 155.075 119.674 155.593 120.479 155.593C121.284 155.593 121.936 155.075 121.936 154.437Z" fill="#263238"/>
<path d="M144.67 154.437C144.67 153.799 144.018 153.281 143.213 153.281C142.408 153.281 141.756 153.799 141.756 154.437C141.756 155.075 142.408 155.593 143.213 155.593C144.018 155.593 144.67 155.075 144.67 154.437Z" fill="#263238"/>
<path d="M167.404 154.437C167.404 153.799 166.752 153.281 165.947 153.281C165.142 153.281 164.49 153.799 164.49 154.437C164.49 155.075 165.142 155.593 165.947 155.593C166.752 155.593 167.404 155.075 167.404 154.437Z" fill="#263238"/>
<path d="M190.138 154.437C190.138 153.799 189.486 153.281 188.681 153.281C187.876 153.281 187.224 153.799 187.224 154.437C187.224 155.075 187.876 155.593 188.681 155.593C189.486 155.593 190.138 155.075 190.138 154.437Z" fill="#263238"/>
<path d="M212.872 154.437C212.872 153.799 212.219 153.281 211.415 153.281C210.61 153.281 209.957 153.799 209.957 154.437C209.957 155.075 210.61 155.593 211.415 155.593C212.219 155.593 212.872 155.075 212.872 154.437Z" fill="#263238"/>
<path d="M235.606 154.437C235.606 153.799 234.953 153.281 234.148 153.281C233.344 153.281 232.691 153.799 232.691 154.437C232.691 155.075 233.344 155.593 234.148 155.593C234.953 155.593 235.606 155.075 235.606 154.437Z" fill="#263238"/>
<path d="M76.4676 171.95C76.4676 171.311 75.8152 170.794 75.0104 170.794C74.2056 170.794 73.5532 171.311 73.5532 171.95C73.5532 172.588 74.2056 173.106 75.0104 173.106C75.8152 173.105 76.4676 172.588 76.4676 171.95Z" fill="#263238"/>
<path d="M97.745 173.106C98.5498 173.106 99.2022 172.588 99.2022 171.95C99.2022 171.311 98.5498 170.794 97.745 170.794C96.9403 170.794 96.2878 171.311 96.2878 171.95C96.2878 172.588 96.9403 173.106 97.745 173.106Z" fill="#263238"/>
<path d="M120.479 173.106C121.284 173.106 121.936 172.588 121.936 171.95C121.936 171.311 121.284 170.794 120.479 170.794C119.674 170.794 119.022 171.311 119.022 171.95C119.022 172.588 119.674 173.106 120.479 173.106Z" fill="#263238"/>
<path d="M144.67 171.95C144.67 171.311 144.018 170.794 143.213 170.794C142.408 170.794 141.756 171.311 141.756 171.95C141.756 172.588 142.408 173.106 143.213 173.106C144.018 173.105 144.67 172.588 144.67 171.95Z" fill="#263238"/>
<path d="M167.404 171.95C167.404 171.311 166.752 170.794 165.947 170.794C165.142 170.794 164.49 171.311 164.49 171.95C164.49 172.588 165.142 173.106 165.947 173.106C166.752 173.105 167.404 172.588 167.404 171.95Z" fill="#263238"/>
<path d="M188.681 173.106C189.485 173.106 190.138 172.588 190.138 171.95C190.138 171.311 189.485 170.794 188.681 170.794C187.876 170.794 187.224 171.311 187.224 171.95C187.224 172.588 187.876 173.106 188.681 173.106Z" fill="#263238"/>
<path d="M211.415 173.106C212.219 173.106 212.872 172.588 212.872 171.95C212.872 171.311 212.219 170.794 211.415 170.794C210.61 170.794 209.957 171.311 209.957 171.95C209.957 172.588 210.61 173.106 211.415 173.106Z" fill="#263238"/>
<path d="M235.606 171.95C235.606 171.311 234.953 170.794 234.148 170.794C233.344 170.794 232.691 171.311 232.691 171.95C232.691 172.588 233.344 173.106 234.148 173.106C234.953 173.105 235.606 172.588 235.606 171.95Z" fill="#263238"/>
<path d="M91.6424 48.1704C88.6094 48.1704 86.1504 46.22 86.1504 43.8142V28.8096H97.1343V43.8142C97.1343 46.22 94.6753 48.1704 91.6424 48.1704Z" fill="white" stroke="#263238" stroke-miterlimit="10"/>
<path d="M95.0319 43.4997C95.0319 42.0145 93.514 40.8105 91.6417 40.8105C89.7694 40.8105 88.2522 42.0145 88.2522 43.4997C88.2522 44.9848 89.7701 46.1882 91.6417 46.1882C93.5147 46.1888 95.0319 44.9848 95.0319 43.4997Z" fill="#263238" stroke="#263238" stroke-miterlimit="10"/>
<path d="M105.764 48.1704C102.731 48.1704 100.272 46.22 100.272 43.8142V28.8096H111.256V43.8142C111.256 46.22 108.798 48.1704 105.764 48.1704Z" fill="white" stroke="#263238" stroke-miterlimit="10"/>
<path d="M109.154 43.4997C109.154 42.0145 107.636 40.8105 105.764 40.8105C103.892 40.8105 102.374 42.0145 102.374 43.4997C102.374 44.9848 103.892 46.1882 105.764 46.1882C107.636 46.1888 109.154 44.9848 109.154 43.4997Z" fill="#263238" stroke="#263238" stroke-miterlimit="10"/>
<path d="M119.886 48.1704C116.853 48.1704 114.394 46.22 114.394 43.8142V28.8096H125.378V43.8142C125.378 46.22 122.919 48.1704 119.886 48.1704Z" fill="white" stroke="#263238" stroke-miterlimit="10"/>
<path d="M123.275 43.4997C123.275 42.0145 121.758 40.8105 119.885 40.8105C118.013 40.8105 116.496 42.0145 116.496 43.4997C116.496 44.9848 118.014 46.1882 119.885 46.1882C121.758 46.1888 123.275 44.9848 123.275 43.4997Z" fill="#263238" stroke="#263238" stroke-miterlimit="10"/>
<path d="M134.008 48.1704C130.975 48.1704 128.516 46.22 128.516 43.8142V28.8096H139.5V43.8142C139.499 46.22 137.041 48.1704 134.008 48.1704Z" fill="white" stroke="#263238" stroke-miterlimit="10"/>
<path d="M137.398 43.4997C137.398 42.0145 135.88 40.8105 134.008 40.8105C132.136 40.8105 130.618 42.0145 130.618 43.4997C130.618 44.9848 132.136 46.1882 134.008 46.1882C135.88 46.1888 137.398 44.9848 137.398 43.4997Z" fill="#263238" stroke="#263238" stroke-miterlimit="10"/>
<path d="M148.129 48.1704C145.096 48.1704 142.637 46.22 142.637 43.8142V28.8096H153.621V43.8142C153.621 46.22 151.162 48.1704 148.129 48.1704Z" fill="white" stroke="#263238" stroke-miterlimit="10"/>
<path d="M151.52 43.4997C151.52 42.0145 150.002 40.8105 148.13 40.8105C146.258 40.8105 144.74 42.0145 144.74 43.4997C144.74 44.9848 146.258 46.1882 148.13 46.1882C150.002 46.1888 151.52 44.9848 151.52 43.4997Z" fill="#263238" stroke="#263238" stroke-miterlimit="10"/>
<path d="M162.251 48.1704C159.218 48.1704 156.759 46.22 156.759 43.8142V28.8096H167.743V43.8142C167.743 46.22 165.285 48.1704 162.251 48.1704Z" fill="white" stroke="#263238" stroke-miterlimit="10"/>
<path d="M165.641 43.4997C165.641 42.0145 164.123 40.8105 162.251 40.8105C160.379 40.8105 158.861 42.0145 158.861 43.4997C158.861 44.9848 160.379 46.1882 162.251 46.1882C164.123 46.1888 165.641 44.9848 165.641 43.4997Z" fill="#263238" stroke="#263238" stroke-miterlimit="10"/>
<path d="M176.373 48.1704C173.34 48.1704 170.881 46.22 170.881 43.8142V28.8096H181.865V43.8142C181.865 46.22 179.406 48.1704 176.373 48.1704Z" fill="white" stroke="#263238" stroke-miterlimit="10"/>
<path d="M179.763 43.4997C179.763 42.0145 178.245 40.8105 176.374 40.8105C174.501 40.8105 172.983 42.0145 172.983 43.4997C172.983 44.9848 174.501 46.1882 176.374 46.1882C178.245 46.1888 179.763 44.9848 179.763 43.4997Z" fill="#263238" stroke="#263238" stroke-miterlimit="10"/>
<path d="M190.495 48.1704C187.462 48.1704 185.003 46.22 185.003 43.8142V28.8096H195.987V43.8142C195.986 46.22 193.528 48.1704 190.495 48.1704Z" fill="white" stroke="#263238" stroke-miterlimit="10"/>
<path d="M193.885 43.4997C193.885 42.0145 192.367 40.8105 190.495 40.8105C188.623 40.8105 187.105 42.0145 187.105 43.4997C187.105 44.9848 188.623 46.1882 190.495 46.1882C192.367 46.1882 193.885 44.9848 193.885 43.4997Z" fill="#263238" stroke="#263238" stroke-miterlimit="10"/>
<path d="M204.617 48.1704C201.584 48.1704 199.125 46.22 199.125 43.8142V28.8096H210.108V43.8142C210.108 46.22 207.649 48.1704 204.617 48.1704Z" fill="white" stroke="#263238" stroke-miterlimit="10"/>
<path d="M208.007 43.4997C208.007 42.0145 206.489 40.8105 204.617 40.8105C202.744 40.8105 201.226 42.0145 201.226 43.4997C201.226 44.9848 202.744 46.1882 204.617 46.1882C206.489 46.1888 208.007 44.9848 208.007 43.4997Z" fill="#263238" stroke="#263238" stroke-miterlimit="10"/>
<path d="M204.617 164.549C207.649 164.549 210.108 166.499 210.108 168.905V183.91H199.125V168.905C199.125 166.499 201.584 164.549 204.617 164.549Z" fill="white" stroke="#263238" stroke-miterlimit="10"/>
<path d="M201.227 169.219C201.227 170.704 202.745 171.908 204.617 171.908C206.489 171.908 208.007 170.704 208.007 169.219C208.007 167.734 206.489 166.53 204.617 166.53C202.744 166.53 201.227 167.734 201.227 169.219Z" fill="#263238" stroke="#263238" stroke-miterlimit="10"/>
<path d="M190.495 164.549C193.528 164.549 195.987 166.499 195.987 168.905V183.91H185.003V168.905C185.003 166.499 187.461 164.549 190.495 164.549Z" fill="white" stroke="#263238" stroke-miterlimit="10"/>
<path d="M187.105 169.219C187.105 170.704 188.623 171.908 190.495 171.908C192.367 171.908 193.885 170.704 193.885 169.219C193.885 167.734 192.367 166.53 190.495 166.53C188.623 166.53 187.105 167.734 187.105 169.219Z" fill="#263238" stroke="#263238" stroke-miterlimit="10"/>
<path d="M176.373 164.549C179.406 164.549 181.865 166.499 181.865 168.905V183.91H170.881V168.905C170.881 166.499 173.34 164.549 176.373 164.549Z" fill="white" stroke="#263238" stroke-miterlimit="10"/>
<path d="M172.983 169.219C172.983 170.704 174.501 171.908 176.373 171.908C178.245 171.908 179.763 170.704 179.763 169.219C179.763 167.734 178.245 166.53 176.373 166.53C174.501 166.53 172.983 167.734 172.983 169.219Z" fill="#263238" stroke="#263238" stroke-miterlimit="10"/>
<path d="M162.251 164.549C165.284 164.549 167.743 166.499 167.743 168.905V183.91H156.759V168.905C156.76 166.499 159.218 164.549 162.251 164.549Z" fill="white" stroke="#263238" stroke-miterlimit="10"/>
<path d="M158.861 169.219C158.861 170.704 160.379 171.908 162.251 171.908C164.123 171.908 165.641 170.704 165.641 169.219C165.641 167.734 164.123 166.53 162.251 166.53C160.379 166.53 158.861 167.734 158.861 169.219Z" fill="#263238" stroke="#263238" stroke-miterlimit="10"/>
<path d="M148.129 164.549C151.162 164.549 153.621 166.499 153.621 168.905V183.91H142.637V168.905C142.637 166.499 145.096 164.549 148.129 164.549Z" fill="white" stroke="#263238" stroke-miterlimit="10"/>
<path d="M144.739 169.219C144.739 170.704 146.257 171.908 148.129 171.908C150.002 171.908 151.519 170.704 151.519 169.219C151.519 167.734 150.001 166.53 148.129 166.53C146.257 166.53 144.739 167.734 144.739 169.219Z" fill="#263238" stroke="#263238" stroke-miterlimit="10"/>
<path d="M134.007 164.549C137.04 164.549 139.499 166.499 139.499 168.905V183.91H128.515V168.905C128.516 166.499 130.974 164.549 134.007 164.549Z" fill="white" stroke="#263238" stroke-miterlimit="10"/>
<path d="M130.618 169.219C130.618 170.704 132.136 171.908 134.008 171.908C135.88 171.908 137.398 170.704 137.398 169.219C137.398 167.734 135.88 166.53 134.008 166.53C132.136 166.53 130.618 167.734 130.618 169.219Z" fill="#263238" stroke="#263238" stroke-miterlimit="10"/>
<path d="M119.886 164.549C122.919 164.549 125.378 166.499 125.378 168.905V183.91H114.394V168.905C114.394 166.499 116.853 164.549 119.886 164.549Z" fill="white" stroke="#263238" stroke-miterlimit="10"/>
<path d="M116.496 169.219C116.496 170.704 118.014 171.908 119.885 171.908C121.758 171.908 123.275 170.704 123.275 169.219C123.275 167.734 121.758 166.53 119.885 166.53C118.014 166.53 116.496 167.734 116.496 169.219Z" fill="#263238" stroke="#263238" stroke-miterlimit="10"/>
<path d="M105.764 164.549C108.797 164.549 111.256 166.499 111.256 168.905V183.91H100.272V168.905C100.273 166.499 102.731 164.549 105.764 164.549Z" fill="white" stroke="#263238" stroke-miterlimit="10"/>
<path d="M102.374 169.219C102.374 170.704 103.892 171.908 105.764 171.908C107.637 171.908 109.154 170.704 109.154 169.219C109.154 167.734 107.636 166.53 105.764 166.53C103.892 166.53 102.374 167.734 102.374 169.219Z" fill="#263238" stroke="#263238" stroke-miterlimit="10"/>
<path d="M91.6424 164.549C94.6753 164.549 97.1343 166.499 97.1343 168.905V183.91H86.1504V168.905C86.1504 166.499 88.6094 164.549 91.6424 164.549Z" fill="white" stroke="#263238" stroke-miterlimit="10"/>
<path d="M88.2522 169.219C88.2522 170.704 89.7701 171.908 91.6417 171.908C93.514 171.908 95.0319 170.704 95.0319 169.219C95.0319 167.734 93.514 166.53 91.6417 166.53C89.7701 166.53 88.2522 167.734 88.2522 169.219Z" fill="#263238" stroke="#263238" stroke-miterlimit="10"/>
<path d="M145.085 79.952V74.828L141.538 71.3028V67.4248" stroke="#263238" stroke-width="2" stroke-miterlimit="10"/>
<path d="M176.392 79.4199V58.5918" stroke="#263238" stroke-width="2" stroke-miterlimit="10"/>
<path d="M157.538 82.7109V61.8828" stroke="#263238" stroke-width="2" stroke-miterlimit="10"/>
<path d="M151.207 79.4199V58.5918" stroke="#263238" stroke-width="2" stroke-miterlimit="10"/>
<path d="M144.481 73.2822C143.405 73.2822 142.532 73.9744 142.532 74.8278C142.532 75.6813 143.405 76.3734 144.481 76.3734C145.557 76.3734 146.429 75.6813 146.429 74.8278C146.429 73.9744 145.557 73.2822 144.481 73.2822Z" fill="#263238" stroke="#263238" stroke-miterlimit="10"/>
<path d="M144.481 75.5753C145.002 75.5753 145.423 75.2406 145.423 74.8277C145.423 74.4148 145.002 74.0801 144.481 74.0801C143.96 74.0801 143.538 74.4148 143.538 74.8277C143.538 75.2406 143.96 75.5753 144.481 75.5753Z" fill="white" stroke="#263238" stroke-miterlimit="10"/>
<path d="M151.155 57.0654C150.08 57.0654 149.207 57.7576 149.207 58.611C149.207 59.4645 150.08 60.1566 151.155 60.1566C152.231 60.1566 153.104 59.4645 153.104 58.611C153.104 57.7576 152.232 57.0654 151.155 57.0654Z" fill="#263238" stroke="#263238" stroke-miterlimit="10"/>
<path d="M151.156 59.3585C151.676 59.3585 152.098 59.0238 152.098 58.6109C152.098 58.198 151.676 57.8633 151.156 57.8633C150.635 57.8633 150.213 58.198 150.213 58.6109C150.213 59.0238 150.635 59.3585 151.156 59.3585Z" fill="white" stroke="#263238" stroke-miterlimit="10"/>
<path d="M157.373 59.4453C156.297 59.4453 155.425 60.1375 155.425 60.9909C155.425 61.8444 156.297 62.5365 157.373 62.5365C158.449 62.5365 159.322 61.8444 159.322 60.9909C159.322 60.1375 158.449 59.4453 157.373 59.4453Z" fill="#263238" stroke="#263238" stroke-miterlimit="10"/>
<path d="M157.373 61.7384C157.894 61.7384 158.316 61.4037 158.316 60.9908C158.316 60.5779 157.894 60.2432 157.373 60.2432C156.853 60.2432 156.431 60.5779 156.431 60.9908C156.431 61.4037 156.853 61.7384 157.373 61.7384Z" fill="white" stroke="#263238" stroke-miterlimit="10"/>
<path d="M163.799 56.2988C162.723 56.2988 161.851 56.991 161.851 57.8444C161.851 58.6979 162.723 59.39 163.799 59.39C164.875 59.39 165.748 58.6979 165.748 57.8444C165.748 56.991 164.876 56.2988 163.799 56.2988Z" fill="#263238" stroke="#263238" stroke-miterlimit="10"/>
<path d="M163.799 58.5919C164.32 58.5919 164.742 58.2572 164.742 57.8443C164.742 57.4314 164.32 57.0967 163.799 57.0967C163.279 57.0967 162.857 57.4314 162.857 57.8443C162.857 58.2572 163.279 58.5919 163.799 58.5919Z" fill="white" stroke="#263238" stroke-miterlimit="10"/>
<path d="M169.929 59.4453C168.853 59.4453 167.98 60.1375 167.98 60.9909C167.98 61.8444 168.853 62.5365 169.929 62.5365C171.005 62.5365 171.877 61.8444 171.877 60.9909C171.877 60.1375 171.005 59.4453 169.929 59.4453Z" fill="#263238" stroke="#263238" stroke-miterlimit="10"/>
<path d="M169.929 61.7384C170.449 61.7384 170.871 61.4037 170.871 60.9908C170.871 60.5779 170.449 60.2432 169.929 60.2432C169.408 60.2432 168.986 60.5779 168.986 60.9908C168.986 61.4037 169.408 61.7384 169.929 61.7384Z" fill="white" stroke="#263238" stroke-miterlimit="10"/>
<path d="M176.355 56.2988C175.279 56.2988 174.406 56.991 174.406 57.8444C174.406 58.6979 175.279 59.39 176.355 59.39C177.431 59.39 178.303 58.6979 178.303 57.8444C178.303 56.991 177.431 56.2988 176.355 56.2988Z" fill="#263238" stroke="#263238" stroke-miterlimit="10"/>
<path d="M176.355 58.5919C176.875 58.5919 177.297 58.2572 177.297 57.8443C177.297 57.4314 176.875 57.0967 176.355 57.0967C175.834 57.0967 175.412 57.4314 175.412 57.8443C175.412 58.2572 175.834 58.5919 176.355 58.5919Z" fill="white" stroke="#263238" stroke-miterlimit="10"/>
<path d="M170.131 82.7109V61.8828" stroke="#263238" stroke-width="2" stroke-miterlimit="10"/>
<path d="M163.799 79.4199V58.5918" stroke="#263238" stroke-width="2" stroke-miterlimit="10"/>
<path d="M176.392 124.753V145.582" stroke="#263238" stroke-width="2" stroke-miterlimit="10"/>
<path d="M157.538 121.462V142.291" stroke="#263238" stroke-width="2" stroke-miterlimit="10"/>
<path d="M151.207 124.753V145.582" stroke="#263238" stroke-width="2" stroke-miterlimit="10"/>
<path d="M151.155 147.108C150.08 147.108 149.207 146.416 149.207 145.562C149.207 144.709 150.08 144.017 151.155 144.017C152.231 144.017 153.104 144.709 153.104 145.562C153.104 146.416 152.232 147.108 151.155 147.108Z" fill="#263238" stroke="#263238" stroke-miterlimit="10"/>
<path d="M151.156 146.31C151.676 146.31 152.098 145.975 152.098 145.562C152.098 145.149 151.676 144.814 151.156 144.814C150.635 144.814 150.213 145.149 150.213 145.562C150.213 145.975 150.635 146.31 151.156 146.31Z" fill="white" stroke="#263238" stroke-miterlimit="10"/>
<path d="M145.293 124.753V138.178" stroke="#263238" stroke-width="2" stroke-miterlimit="10"/>
<path d="M145.55 139.686C144.233 139.846 143.115 138.959 143.317 137.914C143.442 137.264 144.113 136.732 144.933 136.632C146.25 136.472 147.368 137.359 147.166 138.403C147.041 139.054 146.37 139.586 145.55 139.686Z" fill="#263238" stroke="#263238" stroke-miterlimit="10"/>
<path d="M145.476 137.434C144.775 137.299 144.158 137.788 144.327 138.345C144.407 138.606 144.677 138.821 145.007 138.884C145.709 139.018 146.325 138.53 146.156 137.973C146.076 137.711 145.806 137.497 145.476 137.434Z" fill="white" stroke="#263238" stroke-miterlimit="10"/>
<path d="M138.774 124.753V140.164" stroke="#263238" stroke-width="2" stroke-miterlimit="10"/>
<path d="M139.031 134.621C137.715 134.781 136.597 133.894 136.798 132.85C136.924 132.199 137.595 131.667 138.415 131.568C139.732 131.407 140.85 132.295 140.648 133.339C140.522 133.99 139.852 134.522 139.031 134.621Z" fill="#263238" stroke="#263238" stroke-miterlimit="10"/>
<path d="M138.958 132.369C138.256 132.235 137.639 132.724 137.808 133.28C137.888 133.542 138.159 133.756 138.488 133.82C139.19 133.954 139.806 133.465 139.638 132.908C139.558 132.647 139.288 132.432 138.958 132.369Z" fill="white" stroke="#263238" stroke-miterlimit="10"/>
<path d="M157.373 144.728C156.297 144.728 155.425 144.036 155.425 143.182C155.425 142.329 156.297 141.637 157.373 141.637C158.449 141.637 159.322 142.329 159.322 143.182C159.322 144.036 158.449 144.728 157.373 144.728Z" fill="#263238" stroke="#263238" stroke-miterlimit="10"/>
<path d="M157.373 143.93C157.894 143.93 158.316 143.595 158.316 143.182C158.316 142.769 157.894 142.435 157.373 142.435C156.853 142.435 156.431 142.769 156.431 143.182C156.431 143.595 156.853 143.93 157.373 143.93Z" fill="white" stroke="#263238" stroke-miterlimit="10"/>
<path d="M163.799 147.874C162.723 147.874 161.851 147.182 161.851 146.329C161.851 145.475 162.723 144.783 163.799 144.783C164.875 144.783 165.748 145.475 165.748 146.329C165.748 147.182 164.876 147.874 163.799 147.874Z" fill="#263238" stroke="#263238" stroke-miterlimit="10"/>
<path d="M163.799 147.076C164.32 147.076 164.742 146.742 164.742 146.329C164.742 145.916 164.32 145.581 163.799 145.581C163.279 145.581 162.857 145.916 162.857 146.329C162.857 146.742 163.279 147.076 163.799 147.076Z" fill="white" stroke="#263238" stroke-miterlimit="10"/>
<path d="M169.929 144.728C168.853 144.728 167.98 144.036 167.98 143.182C167.98 142.329 168.853 141.637 169.929 141.637C171.005 141.637 171.877 142.329 171.877 143.182C171.877 144.036 171.005 144.728 169.929 144.728Z" fill="#263238" stroke="#263238" stroke-miterlimit="10"/>
<path d="M169.929 143.93C170.449 143.93 170.871 143.595 170.871 143.182C170.871 142.769 170.449 142.435 169.929 142.435C169.408 142.435 168.986 142.769 168.986 143.182C168.986 143.595 169.408 143.93 169.929 143.93Z" fill="white" stroke="#263238" stroke-miterlimit="10"/>
<path d="M176.355 147.874C175.279 147.874 174.406 147.182 174.406 146.329C174.406 145.475 175.279 144.783 176.355 144.783C177.431 144.783 178.303 145.475 178.303 146.329C178.303 147.182 177.431 147.874 176.355 147.874Z" fill="#263238" stroke="#263238" stroke-miterlimit="10"/>
<path d="M176.355 147.076C176.875 147.076 177.297 146.742 177.297 146.329C177.297 145.916 176.875 145.581 176.355 145.581C175.834 145.581 175.412 145.916 175.412 146.329C175.412 146.742 175.834 147.076 176.355 147.076Z" fill="white" stroke="#263238" stroke-miterlimit="10"/>
<path d="M170.131 121.462V142.291" stroke="#263238" stroke-width="2" stroke-miterlimit="10"/>
<path d="M163.799 124.753V145.582" stroke="#263238" stroke-width="2" stroke-miterlimit="10"/>
<path d="M143.76 61.6074H139.76V67.7769H143.76V61.6074Z" fill="white" stroke="#263238" stroke-miterlimit="10"/>
<path d="M143.76 62.9014H139.76V66.482H143.76V62.9014Z" fill="white" stroke="#263238" stroke-miterlimit="10"/>
<path d="M141.019 138.489H137.019V144.659H141.019V138.489Z" fill="white" stroke="#263238" stroke-miterlimit="10"/>
<path d="M141.019 139.783H137.019V143.364H141.019V139.783Z" fill="white" stroke="#263238" stroke-miterlimit="10"/>
<path d="M184.872 131.674H180.872V137.843H184.872V131.674Z" fill="white" stroke="#263238" stroke-miterlimit="10"/>
<path d="M184.872 132.968H180.872V136.548H184.872V132.968Z" fill="white" stroke="#263238" stroke-miterlimit="10"/>
<path d="M182.734 79.952V74.828L186.281 71.3028V67.4248" stroke="#263238" stroke-width="2" stroke-miterlimit="10"/>
<path d="M183.338 73.2822C184.414 73.2822 185.287 73.9744 185.287 74.8278C185.287 75.6813 184.414 76.3734 183.338 76.3734C182.263 76.3734 181.39 75.6813 181.39 74.8278C181.39 73.9744 182.263 73.2822 183.338 73.2822Z" fill="#263238" stroke="#263238" stroke-miterlimit="10"/>
<path d="M183.339 75.5753C183.859 75.5753 184.281 75.2406 184.281 74.8277C184.281 74.4148 183.859 74.0801 183.339 74.0801C182.818 74.0801 182.396 74.4148 182.396 74.8277C182.396 75.2406 182.818 75.5753 183.339 75.5753Z" fill="white" stroke="#263238" stroke-miterlimit="10"/>
<path d="M212.798 80.9951C213.874 80.9951 214.746 81.6873 214.746 82.5407C214.746 83.3942 213.874 84.0863 212.798 84.0863C211.722 84.0863 210.849 83.3942 210.849 82.5407C210.849 81.6873 211.721 80.9951 212.798 80.9951Z" fill="#263238" stroke="#263238" stroke-miterlimit="10"/>
<path d="M212.798 83.2882C213.318 83.2882 213.74 82.9535 213.74 82.5406C213.74 82.1277 213.318 81.793 212.798 81.793C212.277 81.793 211.855 82.1277 211.855 82.5406C211.855 82.9535 212.277 83.2882 212.798 83.2882Z" fill="white" stroke="#263238" stroke-miterlimit="10"/>
<path d="M184.059 67.7773H188.059V61.6078H184.059V67.7773Z" fill="white" stroke="#263238" stroke-miterlimit="10"/>
<path d="M184.059 66.4824H188.059V62.9018H184.059V66.4824Z" fill="white" stroke="#263238" stroke-miterlimit="10"/>
<path d="M138.822 79.9513V76.4726L134.063 71.5367V66.3164" stroke="#263238" stroke-width="2" stroke-miterlimit="10"/>
<path d="M136.059 61.6074H132.059V67.7769H136.059V61.6074Z" fill="white" stroke="#263238" stroke-miterlimit="10"/>
<path d="M136.059 62.9014H132.059V66.482H136.059V62.9014Z" fill="white" stroke="#263238" stroke-miterlimit="10"/>
<path d="M189.39 84.9333H195.316V66.4824" stroke="#263238" stroke-width="2" stroke-miterlimit="10"/>
<path d="M193.316 67.7773H197.316V61.6078H193.316V67.7773Z" fill="white" stroke="#263238" stroke-miterlimit="10"/>
<path d="M193.316 66.4824H197.316V62.9018H193.316V66.4824Z" fill="white" stroke="#263238" stroke-miterlimit="10"/>
<path d="M210.723 80.5293H214.723V74.3598H210.723V80.5293Z" fill="white" stroke="#263238" stroke-miterlimit="10"/>
<path d="M210.723 79.2344H214.723V75.6537H210.723V79.2344Z" fill="white" stroke="#263238" stroke-miterlimit="10"/>
<path d="M189.39 99.7399H199.168L206.575 89.1643V82.8184" stroke="#263238" stroke-width="2" stroke-miterlimit="10"/>
<path d="M204.575 83.7588H208.575V77.5893H204.575V83.7588Z" fill="white" stroke="#263238" stroke-miterlimit="10"/>
<path d="M204.575 82.4639H208.575V78.8832H204.575V82.4639Z" fill="white" stroke="#263238" stroke-miterlimit="10"/>
<path d="M189.686 90.3389H205.686" stroke="#263238" stroke-width="2" stroke-miterlimit="10"/>
<path d="M189.686 94.8047H202.427" stroke="#263238" stroke-width="2" stroke-miterlimit="10"/>
<path d="M210.505 112.859L206.575 112.902L201.242 110.081H188.797" stroke="#263238" stroke-width="2" stroke-miterlimit="10"/>
<path d="M210.13 101.385H224.699C227.071 101.385 229.283 102.334 230.581 103.909L230.719 104.076C232.397 106.112 232.218 108.775 230.276 110.657C228.962 111.931 227.007 112.679 224.932 112.701L210.503 112.858" stroke="#263238" stroke-width="6" stroke-miterlimit="10"/>
<path d="M188.797 104.91H201.242L205.983 101.385H210.13" stroke="#263238" stroke-width="2" stroke-miterlimit="10"/>
<path d="M206.612 99.4179V102.591H214.39V99.4179H206.612Z" fill="white" stroke="#263238" stroke-miterlimit="10"/>
<path d="M208.244 99.4179V102.591H212.758V99.4179H208.244Z" fill="white" stroke="#263238" stroke-miterlimit="10"/>
<path d="M220.761 99.4179V102.591H228.539V99.4179H220.761Z" fill="white" stroke="#263238" stroke-miterlimit="10"/>
<path d="M222.392 99.4179V102.591H226.906V99.4179H222.392Z" fill="white" stroke="#263238" stroke-miterlimit="10"/>
<path d="M206.612 111.08V114.253H214.39V111.08H206.612Z" fill="white" stroke="#263238" stroke-miterlimit="10"/>
<path d="M208.244 111.08V114.253H212.758V111.08H208.244Z" fill="white" stroke="#263238" stroke-miterlimit="10"/>
<path d="M220.76 111.079V114.252H228.538V111.079H220.76Z" fill="white" stroke="#263238" stroke-miterlimit="10"/>
<path d="M222.392 111.079V114.252H226.906V111.079H222.392Z" fill="white" stroke="#263238" stroke-miterlimit="10"/>
<path d="M188.501 115.017H200.353L207.464 119.247H214.575" stroke="#263238" stroke-width="2" stroke-miterlimit="10"/>
<path d="M206.588 117.472L206.653 120.645L214.431 120.543L214.365 117.371L206.588 117.472Z" fill="white" stroke="#263238" stroke-miterlimit="10"/>
<path d="M208.219 117.451L208.285 120.624L212.799 120.565L212.733 117.393L208.219 117.451Z" fill="white" stroke="#263238" stroke-miterlimit="10"/>
<path d="M204.631 115.931C205.707 115.931 206.58 116.623 206.58 117.476C206.58 118.33 205.707 119.022 204.631 119.022C203.555 119.022 202.683 118.33 202.683 117.476C202.683 116.623 203.555 115.931 204.631 115.931Z" fill="#263238" stroke="#263238" stroke-miterlimit="10"/>
<path d="M204.631 118.224C205.152 118.224 205.574 117.889 205.574 117.476C205.574 117.063 205.152 116.729 204.631 116.729C204.111 116.729 203.689 117.063 203.689 117.476C203.689 117.889 204.111 118.224 204.631 118.224Z" fill="white" stroke="#263238" stroke-miterlimit="10"/>
<path d="M188.797 120.187H195.374C198.706 120.187 201.855 121.395 203.924 123.468C205.449 124.996 206.279 126.887 206.279 128.837V140.163H223.465L226.724 142.984" stroke="#263238" stroke-width="2" stroke-miterlimit="10"/>
<path d="M228.596 156.381H217.443C214.714 156.381 212.501 154.626 212.501 152.461V146.199C212.501 144.034 214.714 142.279 217.443 142.279H228.596C231.325 142.279 233.538 144.034 233.538 146.199V152.461C233.538 154.626 231.325 156.381 228.596 156.381Z" fill="white" stroke="#263238" stroke-miterlimit="10"/>
<path d="M226.843 155.205H219.196C216.467 155.205 214.254 153.45 214.254 151.285V147.374C214.254 145.209 216.467 143.454 219.196 143.454H226.843C229.572 143.454 231.785 145.209 231.785 147.374V151.285C231.785 153.45 229.572 155.205 226.843 155.205Z" fill="white" stroke="#263238" stroke-miterlimit="10"/>
<path d="M182.871 122.067V129.588" stroke="#263238" stroke-width="2" stroke-miterlimit="10"/>
<path d="M183.168 130.763C181.851 130.923 180.733 130.036 180.934 128.992C181.06 128.341 181.731 127.809 182.551 127.709C183.868 127.549 184.985 128.436 184.784 129.48C184.659 130.131 183.988 130.663 183.168 130.763Z" fill="#263238" stroke="#263238" stroke-miterlimit="10"/>
<path d="M183.094 128.511C182.392 128.376 181.776 128.865 181.945 129.422C182.025 129.683 182.295 129.898 182.625 129.961C183.326 130.096 183.943 129.607 183.774 129.05C183.695 128.789 183.425 128.574 183.094 128.511Z" fill="white" stroke="#263238" stroke-miterlimit="10"/>
<path d="M133.094 119.717H124.205L119.464 123.948V131.703" stroke="#263238" stroke-width="2" stroke-miterlimit="10"/>
<path d="M134.279 114.781H116.501L110.871 120.657V134.993" stroke="#263238" stroke-width="2" stroke-miterlimit="10"/>
<path d="M119.721 133.211C118.404 133.371 117.286 132.484 117.488 131.44C117.613 130.789 118.284 130.257 119.104 130.157C120.421 129.997 121.539 130.884 121.337 131.929C121.212 132.579 120.541 133.111 119.721 133.211Z" fill="#263238" stroke="#263238" stroke-miterlimit="10"/>
<path d="M119.647 130.959C118.946 130.825 118.329 131.313 118.498 131.87C118.578 132.132 118.848 132.346 119.178 132.409C119.88 132.544 120.496 132.055 120.327 131.498C120.247 131.237 119.977 131.022 119.647 130.959Z" fill="white" stroke="#263238" stroke-miterlimit="10"/>
<path d="M111.414 135.795C110.097 135.955 108.98 135.068 109.181 134.024C109.307 133.373 109.977 132.841 110.798 132.741C112.114 132.581 113.232 133.468 113.031 134.513C112.905 135.163 112.234 135.695 111.414 135.795Z" fill="#263238" stroke="#263238" stroke-miterlimit="10"/>
<path d="M111.341 133.543C110.639 133.409 110.022 133.897 110.191 134.455C110.271 134.716 110.541 134.931 110.871 134.994C111.573 135.128 112.189 134.639 112.02 134.083C111.941 133.821 111.67 133.606 111.341 133.543Z" fill="white" stroke="#263238" stroke-miterlimit="10"/>
<path d="M134.279 109.944H116.501L110.871 104.069V67.1699" stroke="#263238" stroke-width="2" stroke-miterlimit="10"/>
<path d="M111.414 66.3683C110.097 66.2087 108.98 67.0952 109.181 68.1396C109.307 68.7903 109.977 69.3223 110.798 69.422C112.114 69.5821 113.232 68.6951 113.031 67.6507C112.905 67 112.234 66.468 111.414 66.3683Z" fill="#263238" stroke="#263238" stroke-miterlimit="10"/>
<path d="M111.341 68.6209C110.639 68.7553 110.022 68.2664 110.191 67.7092C110.271 67.4477 110.541 67.2332 110.871 67.1699C111.573 67.0355 112.189 67.5244 112.02 68.0811C111.941 68.3431 111.67 68.5576 111.341 68.6209Z" fill="white" stroke="#263238" stroke-miterlimit="10"/>
<path d="M138.13 104.87H120.353L114.723 98.9947V62.0957" stroke="#263238" stroke-width="2" stroke-miterlimit="10"/>
<path d="M115.266 61.2941C113.949 61.1345 112.832 62.0209 113.033 63.0653C113.158 63.7161 113.829 64.2481 114.65 64.3477C115.966 64.5079 117.084 63.6209 116.883 62.5765C116.757 61.9257 116.086 61.3937 115.266 61.2941Z" fill="#263238" stroke="#263238" stroke-miterlimit="10"/>
<path d="M115.193 63.5461C114.491 63.6805 113.874 63.1916 114.043 62.635C114.123 62.3735 114.393 62.1584 114.723 62.0957C115.425 61.9613 116.041 62.4502 115.872 63.0068C115.793 63.2684 115.522 63.4828 115.193 63.5461Z" fill="white" stroke="#263238" stroke-miterlimit="10"/>
<path d="M142.279 99.9346H124.501L118.871 94.0586V57.1602" stroke="#263238" stroke-width="2" stroke-miterlimit="10"/>
<path d="M119.414 56.3585C118.097 56.1989 116.979 57.0854 117.181 58.1298C117.306 58.7805 117.977 59.3125 118.797 59.4122C120.114 59.5724 121.232 58.6853 121.03 57.6409C120.905 56.9896 120.234 56.4576 119.414 56.3585Z" fill="#263238" stroke="#263238" stroke-miterlimit="10"/>
<path d="M119.34 58.6102C118.638 58.7446 118.022 58.2557 118.191 57.6985C118.271 57.437 118.541 57.2225 118.871 57.1592C119.572 57.0248 120.189 57.5137 120.02 58.0703C119.941 58.3324 119.671 58.5474 119.34 58.6102Z" fill="white" stroke="#263238" stroke-miterlimit="10"/>
<path d="M88.4323 85.586V77.3613" stroke="#263238" stroke-width="2" stroke-miterlimit="10"/>
<path d="M88.7591 79.6252C87.4424 79.4651 86.3248 80.3521 86.526 81.3965C86.6517 82.0472 87.3224 82.5792 88.1427 82.6789C89.4594 82.8391 90.5777 81.952 90.3758 80.9076C90.2501 80.2564 89.5794 79.7244 88.7591 79.6252Z" fill="#263238" stroke="#263238" stroke-miterlimit="10"/>
<path d="M88.6864 81.8772C87.9846 82.0116 87.3676 81.5227 87.537 80.9661C87.6168 80.7045 87.8872 80.4895 88.2169 80.4268C88.9186 80.2924 89.535 80.7813 89.3662 81.3379C89.2865 81.5994 89.0161 81.8139 88.6864 81.8772Z" fill="white" stroke="#263238" stroke-miterlimit="10"/>
<path d="M81.6265 75.3537L81.6921 78.5264L89.4694 78.4252L89.4038 75.2525L81.6265 75.3537Z" fill="white" stroke="#263238" stroke-miterlimit="10"/>
<path d="M83.258 75.3332L83.3236 78.5059L87.8373 78.4471L87.7717 75.2745L83.258 75.3332Z" fill="white" stroke="#263238" stroke-miterlimit="10"/>
<path d="M88.4323 111.146V119.371" stroke="#263238" stroke-width="2" stroke-miterlimit="10"/>
<path d="M88.7591 117.107C87.4424 117.266 86.3248 116.38 86.526 115.335C86.6517 114.685 87.3224 114.153 88.1427 114.053C89.4594 113.893 90.5777 114.78 90.3758 115.824C90.2501 116.475 89.5794 117.007 88.7591 117.107Z" fill="#263238" stroke="#263238" stroke-miterlimit="10"/>
<path d="M88.6864 114.855C87.9846 114.72 87.3676 115.209 87.537 115.766C87.6168 116.027 87.8872 116.242 88.2169 116.305C88.9186 116.439 89.535 115.95 89.3662 115.394C89.2865 115.132 89.0161 114.918 88.6864 114.855Z" fill="white" stroke="#263238" stroke-miterlimit="10"/>
<path d="M89.3947 121.482L89.4603 118.31L81.6831 118.208L81.6175 121.381L89.3947 121.482Z" fill="white" stroke="#263238" stroke-miterlimit="10"/>
<path d="M87.7634 121.461L87.829 118.288L83.3153 118.229L83.2497 121.402L87.7634 121.461Z" fill="white" stroke="#263238" stroke-miterlimit="10"/>
<path d="M95.5826 85.0186H79.1364V88.989H95.5826V85.0186Z" fill="white" stroke="#263238" stroke-miterlimit="10"/>
<path d="M95.5826 107.989H79.1364V111.96H95.5826V107.989Z" fill="white" stroke="#263238" stroke-miterlimit="10"/>
<path d="M92.7219 87.0039H81.2811V109.408H92.7219V87.0039Z" fill="#263238" stroke="#263238" stroke-miterlimit="10"/>
<path d="M231.926 107.218V63.7891" stroke="#263238" stroke-width="6" stroke-miterlimit="10"/>
<path d="M227.316 50.9648H222.427V64.0084H227.316V50.9648Z" fill="white" stroke="#263238" stroke-miterlimit="10"/>
<path d="M234.649 53.2568H229.76V66.3004H234.649V53.2568Z" fill="white" stroke="#263238" stroke-miterlimit="10"/>
<path d="M241.982 50.9648H237.093V64.0084H241.982V50.9648Z" fill="white" stroke="#263238" stroke-miterlimit="10"/>
<path d="M139.797 78.5166H137.848V81.3866H139.797V78.5166Z" fill="white" stroke="#263238" stroke-miterlimit="10"/>
<path d="M146.06 78.5166H144.111V81.3866H146.06V78.5166Z" fill="white" stroke="#263238" stroke-miterlimit="10"/>
<path d="M152.322 78.5166H150.374V81.3866H152.322V78.5166Z" fill="white" stroke="#263238" stroke-miterlimit="10"/>
<path d="M158.585 78.5166H156.637V81.3866H158.585V78.5166Z" fill="white" stroke="#263238" stroke-miterlimit="10"/>
<path d="M164.848 78.5166H162.9V81.3866H164.848V78.5166Z" fill="white" stroke="#263238" stroke-miterlimit="10"/>
<path d="M171.111 78.5166H169.163V81.3866H171.111V78.5166Z" fill="white" stroke="#263238" stroke-miterlimit="10"/>
<path d="M177.374 78.5166H175.426V81.3866H177.374V78.5166Z" fill="white" stroke="#263238" stroke-miterlimit="10"/>
<path d="M183.637 78.5166H181.688V81.3866H183.637V78.5166Z" fill="white" stroke="#263238" stroke-miterlimit="10"/>
<path d="M139.797 122.653H137.848V125.524H139.797V122.653Z" fill="white" stroke="#263238" stroke-miterlimit="10"/>
<path d="M146.06 122.653H144.111V125.524H146.06V122.653Z" fill="white" stroke="#263238" stroke-miterlimit="10"/>
<path d="M152.322 122.653H150.374V125.524H152.322V122.653Z" fill="white" stroke="#263238" stroke-miterlimit="10"/>
<path d="M158.585 122.653H156.637V125.524H158.585V122.653Z" fill="white" stroke="#263238" stroke-miterlimit="10"/>
<path d="M164.848 122.653H162.9V125.524H164.848V122.653Z" fill="white" stroke="#263238" stroke-miterlimit="10"/>
<path d="M171.111 122.653H169.163V125.524H171.111V122.653Z" fill="white" stroke="#263238" stroke-miterlimit="10"/>
<path d="M177.374 122.653H175.426V125.524H177.374V122.653Z" fill="white" stroke="#263238" stroke-miterlimit="10"/>
<path d="M183.637 122.653H181.688V125.524H183.637V122.653Z" fill="white" stroke="#263238" stroke-miterlimit="10"/>
<path d="M186.819 119.116V120.661H190.437V119.116H186.819Z" fill="white" stroke="#263238" stroke-miterlimit="10"/>
<path d="M186.819 114.148V115.693H190.437V114.148H186.819Z" fill="white" stroke="#263238" stroke-miterlimit="10"/>
<path d="M186.819 109.18V110.726H190.437V109.18H186.819Z" fill="white" stroke="#263238" stroke-miterlimit="10"/>
<path d="M186.819 104.212V105.758H190.437V104.212H186.819Z" fill="white" stroke="#263238" stroke-miterlimit="10"/>
<path d="M186.819 99.2445V100.79H190.437V99.2445H186.819Z" fill="white" stroke="#263238" stroke-miterlimit="10"/>
<path d="M186.819 94.2767V95.8223H190.437V94.2767H186.819Z" fill="white" stroke="#263238" stroke-miterlimit="10"/>
<path d="M186.819 89.3089V90.8545H190.437V89.3089H186.819Z" fill="white" stroke="#263238" stroke-miterlimit="10"/>
<path d="M186.819 84.3411V85.8867H190.437V84.3411H186.819Z" fill="white" stroke="#263238" stroke-miterlimit="10"/>
<path d="M130.873 119.116V120.661H134.491V119.116H130.873Z" fill="white" stroke="#263238" stroke-miterlimit="10"/>
<path d="M130.873 114.148V115.693H134.491V114.148H130.873Z" fill="white" stroke="#263238" stroke-miterlimit="10"/>
<path d="M130.873 109.18V110.726H134.491V109.18H130.873Z" fill="white" stroke="#263238" stroke-miterlimit="10"/>
<path d="M130.873 104.212V105.758H134.491V104.212H130.873Z" fill="white" stroke="#263238" stroke-miterlimit="10"/>
<path d="M130.873 99.2444V100.79H134.491V99.2444H130.873Z" fill="white" stroke="#263238" stroke-miterlimit="10"/>
<path d="M130.873 94.2767V95.8223H134.491V94.2767H130.873Z" fill="white" stroke="#263238" stroke-miterlimit="10"/>
<path d="M130.873 89.3089V90.8545H134.491V89.3089H130.873Z" fill="white" stroke="#263238" stroke-miterlimit="10"/>
<path d="M130.873 84.3411V85.8867H134.491V84.3411H130.873Z" fill="white" stroke="#263238" stroke-miterlimit="10"/>
<path d="M188.076 80.8203H133.409V124.182H188.076V80.8203Z" fill="#263238" stroke="#263238" stroke-miterlimit="10"/>
<path d="M261.297 53.4571C268.098 53.4571 273.612 49.0837 273.612 43.689C273.612 38.2942 268.098 33.9209 261.297 33.9209C254.496 33.9209 248.982 38.2942 248.982 43.689C248.982 49.0837 254.496 53.4571 261.297 53.4571Z" fill="#263238" stroke="#263238" stroke-miterlimit="10"/>
<path d="M266.841 48.4855C270.18 46.052 270.4 41.9325 267.332 39.2844C264.264 36.6362 259.07 36.4621 255.732 38.8956C252.393 41.329 252.174 45.4485 255.241 48.0967C258.309 50.7449 263.503 50.919 266.841 48.4855Z" fill="white" stroke="#263238" stroke-miterlimit="10"/>
<path d="M85.8798 153.035C90.0908 152.491 92.9486 149.342 92.263 146.002C91.5774 142.662 87.6079 140.395 83.397 140.939C79.186 141.483 76.3281 144.632 77.0138 147.972C77.6994 151.312 81.6688 153.579 85.8798 153.035Z" fill="#263238" stroke="#263238" stroke-miterlimit="10"/>
<path d="M89.4369 148.459C90.4668 146.356 89.1525 143.989 86.5012 143.172C83.8499 142.355 80.8657 143.398 79.8357 145.501C78.8058 147.604 80.1201 149.971 82.7714 150.788C85.4227 151.605 88.4069 150.562 89.4369 148.459Z" fill="white" stroke="#263238" stroke-miterlimit="10"/>
<path d="M103.629 153.038C107.843 152.506 110.715 149.366 110.044 146.023C109.374 142.681 105.414 140.403 101.201 140.935C96.9871 141.467 94.1151 144.608 94.7858 147.95C95.4565 151.292 99.4159 153.57 103.629 153.038Z" fill="#263238" stroke="#263238" stroke-miterlimit="10"/>
<path d="M107.129 148.619C108.262 146.55 107.066 144.144 104.457 143.245C101.848 142.346 98.8144 143.295 97.6811 145.364C96.5479 147.434 97.7442 149.84 100.353 150.739C102.962 151.638 105.996 150.689 107.129 148.619Z" fill="white" stroke="#263238" stroke-miterlimit="10"/>
<path d="M188.676 243.861H129.238L123.834 208.681H183.271L188.676 243.861Z" fill="#263238" stroke="#263238" stroke-miterlimit="10"/>
<path d="M185.588 242.186H131.812L126.921 210.356H180.698L185.588 242.186Z" fill="#808080" stroke="#263238" stroke-miterlimit="10"/>
<path d="M230.204 265.802L229.722 227.348L216.446 234.767L203.473 238.117L188.99 235.485L190.197 233.091C190.197 233.091 195.025 224.476 197.74 222.083C200.455 219.69 210.412 215.143 210.412 215.143L218.86 209.639C218.86 209.639 221.877 197.673 222.782 195.519C223.688 193.365 240.584 185.467 240.584 185.467C240.584 185.467 252.954 179.963 259.29 179.006C265.626 178.048 269.548 178.527 269.548 178.527C269.548 178.527 295.193 186.424 297.004 188.339C298.814 190.254 299.116 236.921 299.116 246.254C299.116 255.588 302.736 267.793 302.736 267.793" fill="white"/>
<path d="M230.204 265.802L229.722 227.348L216.446 234.767L203.473 238.117L188.99 235.485L190.197 233.091C190.197 233.091 195.025 224.476 197.74 222.083C200.455 219.69 210.412 215.143 210.412 215.143L218.86 209.639C218.86 209.639 221.877 197.673 222.782 195.519C223.688 193.365 240.584 185.467 240.584 185.467C240.584 185.467 252.954 179.963 259.29 179.006C265.626 178.048 269.548 178.527 269.548 178.527C269.548 178.527 295.193 186.424 297.004 188.339C298.814 190.254 299.116 236.921 299.116 246.254C299.116 255.588 302.736 267.793 302.736 267.793" stroke="#263238" stroke-miterlimit="10"/>
<path d="M248.176 253.996C248.146 255.862 248.126 257.025 248.126 257.025" stroke="#263238" stroke-miterlimit="10"/>
<path d="M249.638 206.95C249.166 214.39 248.529 224.975 248.529 227.986C248.529 231.325 248.333 244.139 248.215 251.582" stroke="#263238" stroke-miterlimit="10"/>
<path d="M250.138 199.268C250.138 199.268 249.988 201.508 249.778 204.755" stroke="#263238" stroke-miterlimit="10"/>
<path d="M226.531 203.11L226.171 200.661" stroke="#263238" stroke-miterlimit="10"/>
<path d="M229.953 226.374L226.804 204.964" stroke="#263238" stroke-miterlimit="10"/>
<path d="M222.867 209.479C221.88 208.608 221.056 207.781 220.768 207.232" stroke="#263238" stroke-miterlimit="10"/>
<path d="M227.792 213.375C227.792 213.375 226.013 212.088 224.231 210.633" stroke="#263238" stroke-miterlimit="10"/>
<path d="M213.925 213.089C213.925 213.089 218.607 217.231 226.711 220.374" stroke="#263238" stroke-miterlimit="10"/>
<path d="M218.383 218.999C220.372 219.906 222.9 220.917 225.631 221.66" stroke="#263238" stroke-miterlimit="10"/>
<path d="M214.105 216.803C214.105 216.803 214.853 217.252 216.123 217.904" stroke="#263238" stroke-miterlimit="10"/>
<path d="M250.697 197.175L242.251 193.423L238.051 197.966L240.534 186.457L247.597 191.454L250.697 197.175Z" fill="white" stroke="#263238" stroke-miterlimit="10"/>
<path d="M265.425 176.294L250.298 189.083L249.851 197.422L245.91 194.515L236.098 187.284C236.098 187.284 230.791 190.253 228.913 190.414C227.03 190.576 220.578 183.061 220.578 183.061C220.578 183.061 216.856 183.982 215.812 183.321C214.768 182.654 214.448 175.056 214.448 175.056C214.448 175.056 213.167 172.653 211.465 171.793C209.764 170.933 207.98 162.531 207.98 162.531C207.98 162.531 207.227 159.327 209.877 157.843C212.532 156.353 220.205 152.176 226.507 151.884C232.81 151.593 244.57 154.108 247.797 156.849C251.03 159.591 253.018 167.219 253.018 167.219L265.425 176.294Z" fill="white" stroke="#263238" stroke-miterlimit="10"/>
<path d="M221.764 174.032C222.238 174.566 222.291 175.184 221.883 175.412C221.475 175.64 220.76 175.391 220.286 174.857C219.812 174.323 219.759 173.705 220.167 173.477C220.575 173.249 221.29 173.498 221.764 174.032Z" fill="#263238"/>
<path d="M222.016 169.688C216.912 170.278 216.907 171.649 216.907 171.649L216.609 172.284" stroke="#263238" stroke-width="2" stroke-miterlimit="10" stroke-linecap="round"/>
<path d="M224.451 184.71L228.082 183.18" stroke="#263238" stroke-miterlimit="10"/>
<path d="M220.577 183.063L223.871 181.866L223.244 180.092" stroke="#263238" stroke-miterlimit="10"/>
<path d="M246.882 178.824L245.91 194.515L236.098 187.284C236.098 187.284 244.979 180.359 245.405 179.254C245.831 178.153 244.267 173.719 244.267 173.719L246.882 178.824Z" fill="#263238" stroke="#263238" stroke-miterlimit="10"/>
<path d="M245.772 165.058C245.772 165.058 245.404 167.984 245.127 168.769C244.85 169.554 242.213 169.933 242.213 169.933" fill="white"/>
<path d="M245.772 165.058C245.772 165.058 245.404 167.984 245.127 168.769C244.85 169.554 242.213 169.933 242.213 169.933" stroke="#263238" stroke-miterlimit="10"/>
<path d="M215.173 147.827C215.173 147.827 212.715 143.762 207.548 147.727C202.381 151.693 200.959 159.864 202.45 161.497C203.942 163.13 208.364 163.002 209.618 162.894C210.872 162.787 222.969 158.478 222.969 158.478C222.969 158.478 223.538 164.969 225.834 165.526C228.13 166.083 232.239 165.983 232.239 165.983C232.239 165.983 232.96 168.939 234.84 168.778C236.721 168.616 238.187 167.735 238.017 166.492C237.847 165.249 234.161 163.805 237.338 161.519C240.514 159.234 243.717 159.463 245.031 162.116C246.345 164.771 244.879 165.651 246.234 166.29C247.59 166.928 254.444 168.351 254.444 168.351C254.444 168.351 254.035 156.061 252.484 151.666C250.933 147.271 241.689 142.28 235.495 141.051C229.302 139.822 220.306 143.613 218.874 144.742C217.443 145.871 215.173 147.827 215.173 147.827Z" fill="#263238" stroke="#263238" stroke-miterlimit="10"/>
<path d="M249.506 189.789L255.854 200.113L274.275 179.165L265.827 174.06L249.506 189.789Z" fill="white" stroke="#263238" stroke-miterlimit="10"/>
<path d="M229.276 218.449C229.276 218.449 232.62 215.924 235.486 217.061C238.351 218.197 239.307 221.481 239.307 223.122C239.307 224.764 239.307 264.67 239.307 264.67" stroke="#263238" stroke-miterlimit="10"/>
<path d="M222.048 225.266C222.048 225.266 218.76 224.77 217.194 224.397C215.628 224.024 214.375 223.651 214.218 225.142C214.061 226.633 217.82 228.123 218.446 228.123C219.072 228.123 225.494 227.005 225.963 226.881C226.433 226.757 222.048 225.266 222.048 225.266Z" fill="#92E3A9" stroke="#263238" stroke-miterlimit="10"/>
<path d="M213.127 233.735L212.686 233.439L202.512 243.006L202.953 243.302L213.127 233.735Z" fill="white" stroke="#263238" stroke-miterlimit="10"/>
<path d="M229.967 218.827L228.349 217.744L211.603 233.494L213.221 234.576L229.967 218.827Z" fill="#92E3A9" stroke="#263238" stroke-miterlimit="10"/>
<path d="M249.434 236.602L234.348 225.594H220.771C220.771 225.594 212.625 230.38 211.719 232.056C210.814 233.731 212.926 233.252 213.831 233.013C214.736 232.774 218.055 230.141 218.055 230.141C218.055 230.141 217.451 237.56 219.564 239.235C221.675 240.91 230.123 241.15 232.236 241.15C234.348 241.15 239.175 243.065 240.985 243.304C242.795 243.543 247.623 243.783 247.623 243.783L249.434 236.602Z" fill="#92E3A9" stroke="#263238" stroke-miterlimit="10"/>
<path d="M218.056 230.14L219.866 228.943L230.192 228.868" stroke="#263238" stroke-miterlimit="10"/>
<path d="M218.29 233.092L229.408 232.968" stroke="#263238" stroke-miterlimit="10"/>
<path d="M218.446 236.819L228.782 236.943" stroke="#263238" stroke-miterlimit="10"/>
<path d="M244.758 232.633L242.566 244.584L257.756 248.568L260.262 237.029L244.758 232.633Z" fill="white" stroke="#263238" stroke-miterlimit="10"/>
<path d="M280.913 195.279C276.689 198.47 270.655 211.871 271.057 213.467C271.46 215.062 282.12 232.134 282.12 232.134C282.12 232.134 281.115 233.729 280.914 234.208C280.713 234.687 282.523 235.484 282.523 235.484C282.523 235.484 263.414 234.846 262.408 235.325C261.403 235.804 260.262 236.607 260.262 236.607C260.262 236.607 256.575 244.738 257.178 247.77C257.782 250.801 262.81 253.035 265.023 253.354C267.235 253.673 284.332 256.066 294.188 256.066C304.044 256.066 310.682 257.023 313.9 255.587C317.118 254.152 319.733 246.653 317.521 242.824C315.308 238.995 306.257 208.043 305.05 203.735C303.843 199.427 297.407 189.774 297.206 189.057C297.004 188.339 293.987 186.663 288.556 188.737" fill="white"/>
<path d="M280.913 195.279C276.689 198.47 270.655 211.871 271.057 213.467C271.46 215.062 282.12 232.134 282.12 232.134C282.12 232.134 281.115 233.729 280.914 234.208C280.713 234.687 282.523 235.484 282.523 235.484C282.523 235.484 263.414 234.846 262.408 235.325C261.403 235.804 260.262 236.607 260.262 236.607C260.262 236.607 256.575 244.738 257.178 247.77C257.782 250.801 262.81 253.035 265.023 253.354C267.235 253.673 284.332 256.066 294.188 256.066C304.044 256.066 310.682 257.023 313.9 255.587C317.118 254.152 319.733 246.653 317.521 242.824C315.308 238.995 306.257 208.043 305.05 203.735C303.843 199.427 297.407 189.774 297.206 189.057C297.004 188.339 293.987 186.663 288.556 188.737" stroke="#263238" stroke-miterlimit="10"/>
<path d="M282.522 235.484C282.522 235.484 294.59 235.005 298.01 235.803" stroke="#263238" stroke-miterlimit="10"/>
<path d="M285.74 234.208C285.74 234.208 297.206 229.262 301.228 228.624C305.251 227.985 304.245 228.943 302.837 229.74C301.43 230.538 298.613 231.336 298.613 231.336" stroke="#263238" stroke-miterlimit="10"/>
<path d="M287.169 218.358C287.561 217.009 287.961 215.721 288.355 214.584" stroke="#263238" stroke-miterlimit="10"/>
<path d="M283.729 232.134C283.729 232.134 284.97 226.392 286.488 220.79" stroke="#263238" stroke-miterlimit="10"/>
<path d="M231.231 265.879V244.101H97.2699V265.879" fill="white"/>
<path d="M231.231 265.879V244.101H97.2699V265.879" stroke="#263238" stroke-miterlimit="10"/>
<path d="M231.231 245.696H97.2699V251.281H231.231V245.696Z" fill="#263238" stroke="#263238" stroke-miterlimit="10"/>
<path d="M235.254 244.101H93.2471V249.685H235.254V244.101Z" fill="white" stroke="#263238" stroke-miterlimit="10"/>
<path d="M203.875 236.989C203.875 236.989 202.467 234.595 199.048 233C195.628 231.404 192.208 231.404 192.208 231.404C192.208 231.404 190.801 239.86 190.398 240.499C189.996 241.137 189.393 241.137 192.007 241.775C194.622 242.413 198.645 241.775 198.645 241.775L203.875 236.989Z" fill="#92E3A9" stroke="#263238" stroke-miterlimit="10"/>
<path d="M182.554 236.35C182.554 236.35 179.738 237.785 179.738 238.264C179.738 238.743 179.335 242.891 180.341 243.051C181.347 243.21 182.152 241.934 182.152 241.934L182.755 240.498H183.76L182.554 236.35Z" fill="#92E3A9" stroke="#263238" stroke-miterlimit="10"/>
<path d="M185.974 234.116C185.974 234.116 180.744 234.435 181.347 236.03C181.951 237.626 183.158 241.615 183.962 242.093C184.767 242.572 187.784 241.774 187.784 241.774L186.979 233.956L185.974 234.116Z" fill="#92E3A9" stroke="#263238" stroke-miterlimit="10"/>
<path d="M188.789 231.404C188.789 231.404 185.973 231.564 184.565 232.681C183.158 233.797 185.37 235.234 185.571 235.871C185.772 236.51 186.376 241.296 187.18 241.775C187.985 242.254 189.593 242.254 189.996 241.137C190.398 240.019 188.789 231.404 188.789 231.404Z" fill="#92E3A9" stroke="#263238" stroke-miterlimit="10"/>
<path d="M194.019 231.404C194.019 231.404 195.427 240.658 194.221 241.296C193.014 241.934 189.192 242.732 189.192 241.775C189.192 240.818 188.387 230.447 188.387 229.968C188.387 229.489 189.795 228.852 191.404 228.852C193.013 228.851 194.019 231.404 194.019 231.404Z" fill="#92E3A9" stroke="#263238" stroke-miterlimit="10"/>
<path d="M200.255 235.552C200.255 235.552 195.83 240.498 196.433 241.455C197.037 242.413 197.238 242.572 198.042 242.572C198.847 242.572 205.136 237.951 205.008 237.31C204.88 236.669 201.26 234.595 201.26 234.595L200.255 235.552Z" fill="#92E3A9" stroke="#263238" stroke-miterlimit="10"/>
<path d="M214.335 242.505H173.905V243.941H214.335V242.505Z" fill="white" stroke="#263238" stroke-miterlimit="10"/>
<path d="M169.883 222.722H118.189V244.101H169.883V222.722Z" fill="#263238" stroke="#263238" stroke-miterlimit="10"/>
<path d="M169.882 222.722H129.452V244.101H169.882V222.722Z" fill="white" stroke="#263238" stroke-miterlimit="10"/>
<path d="M147.928 239.793H135.114C134.209 239.793 133.476 239.211 133.476 238.493V226.255C133.476 225.537 134.209 224.955 135.114 224.955H147.928C148.833 224.955 149.567 225.537 149.567 226.255V238.493C149.567 239.21 148.833 239.793 147.928 239.793Z" fill="white" stroke="#263238" stroke-miterlimit="10"/>
<path d="M147.138 239.064H135.904C134.999 239.064 134.266 238.482 134.266 237.764V226.983C134.266 226.265 134.999 225.684 135.904 225.684H147.138C148.043 225.684 148.777 226.265 148.777 226.983V237.764C148.777 238.482 148.043 239.064 147.138 239.064Z" fill="#92E3A9" stroke="#263238" stroke-miterlimit="10"/>
<path d="M134.188 228.721H135.701L136.349 227.635L137.069 229.063L138.005 228.378L138.365 229.407L139.662 227.521L140.238 228.95L141.175 228.092L141.391 228.835L142.111 228.264L142.327 229.12L143.624 227.749L143.984 228.892H145.065L145.569 227.521C145.569 227.521 145.857 228.606 145.857 228.778C145.857 228.949 147.298 227.978 147.298 227.978L147.658 229.692L148.162 228.606L148.45 228.549" stroke="#263238" stroke-miterlimit="10"/>
<path d="M148.307 232.549H146.825L146.189 231.463L145.483 232.892L144.566 232.206L144.213 233.235L142.942 231.35L142.377 232.778L141.459 231.921L141.247 232.663L140.541 232.092L140.33 232.95L139.059 231.578L138.706 232.721H137.647L137.153 231.35C137.153 231.35 136.871 232.435 136.871 232.607C136.871 232.778 135.46 231.807 135.46 231.807L135.107 233.521L134.612 232.435L134.33 232.378" stroke="#263238" stroke-miterlimit="10"/>
<path d="M148.307 235.92H146.825L146.189 234.834L145.483 236.263L144.566 235.578L144.213 236.606L142.942 234.721L142.377 236.149L141.459 235.292L141.247 236.035L140.541 235.464L140.33 236.321L139.059 234.949L138.706 236.092H137.647L137.153 234.721C137.153 234.721 136.871 235.807 136.871 235.978C136.871 236.149 135.46 235.178 135.46 235.178L135.107 236.892L134.612 235.807L134.33 235.749" stroke="#263238" stroke-miterlimit="10"/>
<path d="M154.315 226.346C154.315 226.711 153.942 227.007 153.481 227.007C153.02 227.007 152.646 226.711 152.646 226.346C152.646 225.98 153.02 225.684 153.481 225.684C153.942 225.683 154.315 225.98 154.315 226.346Z" fill="white" stroke="#263238" stroke-miterlimit="10"/>
<path d="M159.709 226.346C159.709 226.711 159.335 227.007 158.874 227.007C158.413 227.007 158.04 226.711 158.04 226.346C158.04 225.98 158.413 225.684 158.874 225.684C159.335 225.683 159.709 225.98 159.709 226.346Z" fill="white" stroke="#263238" stroke-miterlimit="10"/>
<path d="M165.102 226.346C165.102 226.711 164.729 227.007 164.268 227.007C163.807 227.007 163.433 226.711 163.433 226.346C163.433 225.98 163.807 225.684 164.268 225.684C164.728 225.683 165.102 225.98 165.102 226.346Z" fill="white" stroke="#263238" stroke-miterlimit="10"/>
<path d="M154.315 229.962C154.315 230.327 153.942 230.624 153.481 230.624C153.02 230.624 152.646 230.327 152.646 229.962C152.646 229.596 153.02 229.3 153.481 229.3C153.942 229.299 154.315 229.595 154.315 229.962Z" fill="white" stroke="#263238" stroke-miterlimit="10"/>
<path d="M159.709 229.962C159.709 230.327 159.335 230.624 158.874 230.624C158.413 230.624 158.04 230.327 158.04 229.962C158.04 229.596 158.413 229.3 158.874 229.3C159.335 229.299 159.709 229.595 159.709 229.962Z" fill="white" stroke="#263238" stroke-miterlimit="10"/>
<path d="M165.102 229.962C165.102 230.327 164.729 230.624 164.268 230.624C163.807 230.624 163.433 230.327 163.433 229.962C163.433 229.596 163.807 229.3 164.268 229.3C164.728 229.299 165.102 229.595 165.102 229.962Z" fill="white" stroke="#263238" stroke-miterlimit="10"/>
<path d="M154.315 233.577C154.315 233.943 153.942 234.239 153.481 234.239C153.02 234.239 152.646 233.943 152.646 233.577C152.646 233.211 153.02 232.915 153.481 232.915C153.942 232.915 154.315 233.211 154.315 233.577Z" fill="white" stroke="#263238" stroke-miterlimit="10"/>
<path d="M159.709 233.577C159.709 233.943 159.335 234.239 158.874 234.239C158.413 234.239 158.04 233.943 158.04 233.577C158.04 233.211 158.413 232.915 158.874 232.915C159.335 232.915 159.709 233.211 159.709 233.577Z" fill="white" stroke="#263238" stroke-miterlimit="10"/>
<path d="M165.102 233.577C165.102 233.943 164.729 234.239 164.268 234.239C163.807 234.239 163.433 233.943 163.433 233.577C163.433 233.211 163.807 232.915 164.268 232.915C164.728 232.915 165.102 233.211 165.102 233.577Z" fill="white" stroke="#263238" stroke-miterlimit="10"/>
<path d="M154.315 237.193C154.315 237.559 153.942 237.855 153.481 237.855C153.02 237.855 152.646 237.559 152.646 237.193C152.646 236.827 153.02 236.531 153.481 236.531C153.942 236.531 154.315 236.827 154.315 237.193Z" fill="white" stroke="#263238" stroke-miterlimit="10"/>
<path d="M159.709 237.193C159.709 237.559 159.335 237.855 158.874 237.855C158.413 237.855 158.04 237.559 158.04 237.193C158.04 236.827 158.413 236.531 158.874 236.531C159.335 236.531 159.709 236.827 159.709 237.193Z" fill="white" stroke="#263238" stroke-miterlimit="10"/>
<path d="M165.102 237.193C165.102 237.559 164.729 237.855 164.268 237.855C163.807 237.855 163.433 237.559 163.433 237.193C163.433 236.827 163.807 236.531 164.268 236.531C164.728 236.531 165.102 236.827 165.102 237.193Z" fill="white" stroke="#263238" stroke-miterlimit="10"/>
</svg>
