<?xml version="1.0" encoding="utf-8"?>
<!-- Generator: Adobe Illustrator 27.5.0, SVG Export Plug-In . SVG Version: 6.00 Build 0)  -->
<svg version="1.1" id="_x3C_Layer_x3E_" xmlns="http://www.w3.org/2000/svg" xmlns:xlink="http://www.w3.org/1999/xlink" x="0px"
	 y="0px" viewBox="0 0 2827.734 1820.014" style="enable-background:new 0 0 2827.734 1820.014;" xml:space="preserve">
<linearGradient id="SVGID_1_" gradientUnits="userSpaceOnUse" x1="1953.021" y1="913.6956" x2="1953.021" y2="2310.3254">
	<stop  offset="0" style="stop-color:#F2F2F2"/>
	<stop  offset="1" style="stop-color:#FCFCFC"/>
</linearGradient>
<rect x="1078.308" y="1194.76" style="fill:url(#SVGID_1_);" width="1749.427" height="614.868"/>
<linearGradient id="SVGID_00000070111356301054284080000000429976258127735742_" gradientUnits="userSpaceOnUse" x1="1703.8789" y1="1449.8115" x2="2634.6514" y2="1449.8115">
	<stop  offset="0" style="stop-color:#DBDBE6"/>
	<stop  offset="1" style="stop-color:#FFFFFF"/>
</linearGradient>
<polygon style="fill:url(#SVGID_00000070111356301054284080000000429976258127735742_);" points="1703.879,1240.965 
	1703.879,1395.592 1764.123,1395.592 1764.123,1499.012 1834.408,1499.012 1834.408,1412.661 1888.628,1412.661 1888.628,1536.162 
	1877.583,1536.162 1877.583,1556.243 2002.088,1556.243 2002.088,1535.158 1990.038,1535.158 1990.038,1416.678 2019.157,1416.678 
	2019.157,1388.564 2072.372,1388.564 2072.372,1605.442 2125.588,1658.658 2143.661,1640.585 2161.343,1640.585 2161.343,1339.364 
	2221.979,1339.364 2221.979,1363.461 2268.165,1409.649 2305.316,1409.649 2305.316,1339.364 2343.472,1339.364 2343.472,1520.098 
	2404.72,1520.098 2404.72,1389.568 2454.923,1389.568 2454.923,1291.169 2521.191,1291.169 2521.191,1399.608 2634.651,1399.608 
	2634.651,1240.965 "/>
<g>
	
		<linearGradient id="SVGID_00000114056289390789387520000016709614642488130186_" gradientUnits="userSpaceOnUse" x1="1820.853" y1="-11159.7822" x2="1820.853" y2="-10798.4805" gradientTransform="matrix(1 0 0 -1 0 -9774.6748)">
		<stop  offset="0" style="stop-color:#FCFCFC"/>
		<stop  offset="1" style="stop-color:#FDFDFD"/>
	</linearGradient>
	
		<rect x="1807.298" y="1240.965" style="fill:url(#SVGID_00000114056289390789387520000016709614642488130186_);" width="27.11" height="258.047"/>
	
		<linearGradient id="SVGID_00000180364063606586460850000007770349963699707318_" gradientUnits="userSpaceOnUse" x1="1918.248" y1="-11159.7813" x2="1918.248" y2="-10798.4824" gradientTransform="matrix(1 0 0 -1 0 -9774.6748)">
		<stop  offset="0" style="stop-color:#FCFCFC"/>
		<stop  offset="1" style="stop-color:#FDFDFD"/>
	</linearGradient>
	<polygon style="fill:url(#SVGID_00000180364063606586460850000007770349963699707318_);" points="1946.194,1556.243 
		1946.194,1329.993 1886.619,1329.993 1886.619,1275.772 1834.408,1275.772 1834.408,1240.965 1990.038,1240.965 1990.038,1535.158 
		2002.088,1535.158 2002.088,1556.243 	"/>
	
		<linearGradient id="SVGID_00000133490758133591291710000004995797677642013622_" gradientUnits="userSpaceOnUse" x1="2075.6904" y1="973.0541" x2="2075.6904" y2="1698.5625">
		<stop  offset="0" style="stop-color:#FCFCFC"/>
		<stop  offset="1" style="stop-color:#FDFDFD"/>
	</linearGradient>
	<polygon style="fill:url(#SVGID_00000133490758133591291710000004995797677642013622_);" points="2125.588,1658.658 
		2125.588,1302.215 2073.376,1302.215 2073.376,1388.564 2044.259,1388.564 2044.259,1312.254 1990.038,1312.254 1990.038,1240.965 
		2161.343,1240.965 2161.343,1640.585 2143.661,1640.585 	"/>
	
		<linearGradient id="SVGID_00000150817102136900796930000009247812967787384478_" gradientUnits="userSpaceOnUse" x1="2233.3296" y1="973.0532" x2="2233.3296" y2="1698.564">
		<stop  offset="0" style="stop-color:#FCFCFC"/>
		<stop  offset="1" style="stop-color:#FDFDFD"/>
	</linearGradient>
	<polygon style="fill:url(#SVGID_00000150817102136900796930000009247812967787384478_);" points="2268.165,1409.649 
		2268.165,1314.263 2234.78,1280.877 2208.926,1280.877 2208.926,1263.557 2161.343,1263.557 2161.343,1240.965 2305.316,1240.965 
		2305.316,1409.649 	"/>
	
		<linearGradient id="SVGID_00000032626013921076856920000001669970128135721625_" gradientUnits="userSpaceOnUse" x1="2391.9175" y1="973.0527" x2="2391.9175" y2="1698.5638">
		<stop  offset="0" style="stop-color:#FCFCFC"/>
		<stop  offset="1" style="stop-color:#FDFDFD"/>
	</linearGradient>
	
		<rect x="2379.115" y="1240.965" style="fill:url(#SVGID_00000032626013921076856920000001669970128135721625_);" width="25.604" height="279.133"/>
	
		<linearGradient id="SVGID_00000012447684477985733000000002761891005440601731_" gradientUnits="userSpaceOnUse" x1="2519.6855" y1="973.0538" x2="2519.6855" y2="1698.5643">
		<stop  offset="0" style="stop-color:#FCFCFC"/>
		<stop  offset="1" style="stop-color:#FDFDFD"/>
	</linearGradient>
	<polygon style="fill:url(#SVGID_00000012447684477985733000000002761891005440601731_);" points="2634.651,1399.608 
		2587.46,1399.608 2587.46,1281.128 2553.321,1281.128 2553.321,1257.699 2404.72,1257.699 2404.72,1240.965 2634.651,1240.965 	"/>
	
		<linearGradient id="SVGID_00000018238678288484555260000010521680426805610914_" gradientUnits="userSpaceOnUse" x1="2431.4526" y1="973.0557" x2="2431.4526" y2="1698.5624">
		<stop  offset="0" style="stop-color:#FCFCFC"/>
		<stop  offset="1" style="stop-color:#FDFDFD"/>
	</linearGradient>
	<polygon style="fill:url(#SVGID_00000018238678288484555260000010521680426805610914_);" points="2454.923,1389.568 
		2435.343,1389.568 2435.343,1277.614 2407.982,1250.254 2454.923,1250.254 	"/>
	
		<linearGradient id="SVGID_00000025443934095813035400000000599079177053393817_" gradientUnits="userSpaceOnUse" x1="1750.0659" y1="-11159.7813" x2="1750.0659" y2="-10798.4814" gradientTransform="matrix(1 0 0 -1 0 -9774.6748)">
		<stop  offset="0" style="stop-color:#FCFCFC"/>
		<stop  offset="1" style="stop-color:#FDFDFD"/>
	</linearGradient>
	
		<rect x="1736.009" y="1240.965" style="fill:url(#SVGID_00000025443934095813035400000000599079177053393817_);" width="28.114" height="154.627"/>
</g>
<rect x="811.055" y="0.015" style="fill:#FFFFFF;" width="2016.677" height="1240.521"/>
<linearGradient id="SVGID_00000068663127538753195040000001921724760347248786_" gradientUnits="userSpaceOnUse" x1="1819.3999" y1="1853.5477" x2="1819.3999" y2="356.3762">
	<stop  offset="0" style="stop-color:#EEEEFA"/>
	<stop  offset="1" style="stop-color:#FFFFFF"/>
</linearGradient>
<path style="fill:url(#SVGID_00000068663127538753195040000001921724760347248786_);" d="M2827.734,1194.322v41.387
	c-2.33,0.874-4.878,1.711-7.718,2.512c-1.783,0.51-3.712,1.02-5.714,1.529c-9.392,2.293-21.258,4.367-35.964,6.005
	c-11.721,1.348-39.858,2.33-79.497,3.641c-3.604,0.146-7.244,0.255-11.029,0.4c-43.353,1.492-98.79,3.458-160.815,6.808
	c-3.64,0.181-7.353,0.399-11.029,0.618c-38.438,2.147-79.242,4.804-121.176,8.19c-3.64,0.326-7.316,0.618-10.992,0.91
	c-52.854,4.404-107.308,9.973-160.852,17.107c-3.677,0.509-7.316,0.982-10.993,1.492c-41.423,5.678-82.19,12.304-121.176,20.093
	c-3.677,0.729-7.353,1.456-10.993,2.221c-31.667,6.515-62.099,13.832-90.6,21.985c-6.879,1.965-13.613,3.967-20.237,6.079
	c-5.751,1.783-11.394,3.604-16.963,5.46c-172.464,57.875-254.108,153.754-74.875,314.313
	c51.36,46.01,124.088,97.334,222.223,154.555H811.065v-621.821h2005.348c0,0,1.42,0.691,3.604,1.893
	C2822.056,1190.792,2824.786,1192.393,2827.734,1194.322z"/>
<linearGradient id="SVGID_00000165917493725027732500000014811611495441782696_" gradientUnits="userSpaceOnUse" x1="1274.749" y1="696.0469" x2="1274.749" y2="1439.7983">
	<stop  offset="0" style="stop-color:#DBDBE6"/>
	<stop  offset="1" style="stop-color:#FFFFFF"/>
</linearGradient>
<polygon style="fill:url(#SVGID_00000165917493725027732500000014811611495441782696_);" points="809.363,1227.664 
	809.363,1073.037 869.607,1073.037 869.607,969.618 939.893,969.618 939.893,1055.969 994.112,1055.969 994.112,932.468 
	983.067,932.468 983.067,912.386 1107.572,912.386 1107.572,933.473 1095.522,933.473 1095.522,1051.952 1124.641,1051.952 
	1124.641,1080.066 1177.856,1080.066 1177.856,863.188 1231.073,809.972 1249.146,828.045 1266.827,828.045 1266.827,1129.266 
	1327.464,1129.266 1327.464,1105.167 1373.65,1058.98 1410.801,1058.98 1410.801,1129.266 1448.956,1129.266 1448.956,948.532 
	1510.204,948.532 1510.204,1079.062 1560.407,1079.062 1560.407,1177.461 1626.676,1177.461 1626.676,1069.021 1740.135,1069.021 
	1740.135,1227.664 "/>
<g>
	
		<linearGradient id="SVGID_00000175314660020613789950000003161018655904265384_" gradientUnits="userSpaceOnUse" x1="926.3374" y1="1400.3641" x2="926.3374" y2="634.2104">
		<stop  offset="0" style="stop-color:#FCFCFC"/>
		<stop  offset="1" style="stop-color:#FDFDFD"/>
	</linearGradient>
	
		<rect x="912.782" y="969.618" style="fill:url(#SVGID_00000175314660020613789950000003161018655904265384_);" width="27.11" height="258.046"/>
	
		<linearGradient id="SVGID_00000096033448298250850770000002928502961278354819_" gradientUnits="userSpaceOnUse" x1="1023.7324" y1="1650.7394" x2="1023.7324" y2="762.6569">
		<stop  offset="0" style="stop-color:#FCFCFC"/>
		<stop  offset="1" style="stop-color:#FDFDFD"/>
	</linearGradient>
	<polygon style="fill:url(#SVGID_00000096033448298250850770000002928502961278354819_);" points="1051.679,912.386 
		1051.679,1138.637 992.104,1138.637 992.104,1192.855 939.893,1192.855 939.893,1227.664 1095.522,1227.664 1095.522,933.473 
		1107.572,933.473 1107.572,912.386 	"/>
	
		<linearGradient id="SVGID_00000135666613582733127040000007619323616922899609_" gradientUnits="userSpaceOnUse" x1="1181.1748" y1="1650.7363" x2="1181.1748" y2="762.6555">
		<stop  offset="0" style="stop-color:#FCFCFC"/>
		<stop  offset="1" style="stop-color:#FDFDFD"/>
	</linearGradient>
	<polygon style="fill:url(#SVGID_00000135666613582733127040000007619323616922899609_);" points="1231.073,809.972 
		1231.073,1166.416 1178.86,1166.416 1178.86,1080.066 1149.743,1080.066 1149.743,1156.375 1095.522,1156.375 1095.522,1227.664 
		1266.827,1227.664 1266.827,828.045 1249.146,828.045 	"/>
	
		<linearGradient id="SVGID_00000067915191353270298030000000056416953120979353_" gradientUnits="userSpaceOnUse" x1="1338.814" y1="1650.7378" x2="1338.814" y2="762.6574">
		<stop  offset="0" style="stop-color:#FCFCFC"/>
		<stop  offset="1" style="stop-color:#FDFDFD"/>
	</linearGradient>
	<polygon style="fill:url(#SVGID_00000067915191353270298030000000056416953120979353_);" points="1373.65,1058.98 
		1373.65,1154.367 1340.265,1187.752 1314.409,1187.752 1314.409,1205.072 1266.827,1205.072 1266.827,1227.664 1410.801,1227.664 
		1410.801,1058.98 	"/>
	
		<linearGradient id="SVGID_00000124874746955113922760000011030603429045845390_" gradientUnits="userSpaceOnUse" x1="1497.4023" y1="1650.7388" x2="1497.4023" y2="762.6555">
		<stop  offset="0" style="stop-color:#FCFCFC"/>
		<stop  offset="1" style="stop-color:#FDFDFD"/>
	</linearGradient>
	
		<rect x="1484.601" y="948.532" style="fill:url(#SVGID_00000124874746955113922760000011030603429045845390_);" width="25.604" height="279.132"/>
	
		<linearGradient id="SVGID_00000165934871875290766290000012679841219437470135_" gradientUnits="userSpaceOnUse" x1="1625.1694" y1="1650.7369" x2="1625.1694" y2="762.6572">
		<stop  offset="0" style="stop-color:#FCFCFC"/>
		<stop  offset="1" style="stop-color:#FDFDFD"/>
	</linearGradient>
	<polygon style="fill:url(#SVGID_00000165934871875290766290000012679841219437470135_);" points="1740.135,1069.021 
		1676.948,1069.021 1676.948,1187.501 1658.806,1187.501 1658.806,1210.93 1510.204,1210.93 1510.204,1227.664 1740.135,1227.664 	
		"/>
	
		<linearGradient id="SVGID_00000078045725628724811310000001138350863111857026_" gradientUnits="userSpaceOnUse" x1="1536.937" y1="1650.7412" x2="1536.937" y2="762.6551">
		<stop  offset="0" style="stop-color:#FCFCFC"/>
		<stop  offset="1" style="stop-color:#FDFDFD"/>
	</linearGradient>
	<polygon style="fill:url(#SVGID_00000078045725628724811310000001138350863111857026_);" points="1560.407,1079.062 
		1540.828,1079.062 1540.828,1191.016 1513.467,1218.377 1560.407,1218.377 	"/>
	
		<linearGradient id="SVGID_00000107560259863695518890000002523386107810807716_" gradientUnits="userSpaceOnUse" x1="855.5503" y1="1400.3639" x2="855.5503" y2="634.2087">
		<stop  offset="0" style="stop-color:#FCFCFC"/>
		<stop  offset="1" style="stop-color:#FDFDFD"/>
	</linearGradient>
	
		<rect x="841.493" y="1073.037" style="fill:url(#SVGID_00000107560259863695518890000002523386107810807716_);" width="28.114" height="154.627"/>
</g>
<linearGradient id="SVGID_00000163037448479969160780000013434778505189556877_" gradientUnits="userSpaceOnUse" x1="2169.2651" y1="696.0469" x2="2169.2651" y2="1439.7983">
	<stop  offset="0" style="stop-color:#DBDBE6"/>
	<stop  offset="1" style="stop-color:#FFFFFF"/>
</linearGradient>
<polygon style="fill:url(#SVGID_00000163037448479969160780000013434778505189556877_);" points="1703.879,1227.664 
	1703.879,1073.037 1764.123,1073.037 1764.123,969.618 1834.408,969.618 1834.408,1055.969 1888.628,1055.969 1888.628,932.468 
	1877.583,932.468 1877.583,912.386 2002.088,912.386 2002.088,933.473 1990.038,933.473 1990.038,1051.952 2019.157,1051.952 
	2019.157,1080.066 2072.372,1080.066 2072.372,863.188 2125.588,809.972 2143.661,828.045 2161.343,828.045 2161.343,1129.266 
	2221.979,1129.266 2221.979,1105.167 2268.165,1058.98 2305.316,1058.98 2305.316,1129.266 2343.472,1129.266 2343.472,948.532 
	2404.72,948.532 2404.72,1079.062 2454.923,1079.062 2454.923,1177.461 2521.191,1177.461 2521.191,1069.021 2634.651,1069.021 
	2634.651,1227.664 "/>
<g>
	
		<linearGradient id="SVGID_00000172411658085405420210000013448071778057021872_" gradientUnits="userSpaceOnUse" x1="1820.853" y1="1650.738" x2="1820.853" y2="762.6577">
		<stop  offset="0" style="stop-color:#FCFCFC"/>
		<stop  offset="1" style="stop-color:#FDFDFD"/>
	</linearGradient>
	
		<rect x="1807.298" y="969.618" style="fill:url(#SVGID_00000172411658085405420210000013448071778057021872_);" width="27.11" height="258.046"/>
	
		<linearGradient id="SVGID_00000174582396852478783460000008876047801445839746_" gradientUnits="userSpaceOnUse" x1="1918.248" y1="1650.7394" x2="1918.248" y2="762.6569">
		<stop  offset="0" style="stop-color:#FCFCFC"/>
		<stop  offset="1" style="stop-color:#FDFDFD"/>
	</linearGradient>
	<polygon style="fill:url(#SVGID_00000174582396852478783460000008876047801445839746_);" points="1946.194,912.386 
		1946.194,1138.637 1886.619,1138.637 1886.619,1192.855 1834.408,1192.855 1834.408,1227.664 1990.038,1227.664 1990.038,933.473 
		2002.088,933.473 2002.088,912.386 	"/>
	
		<linearGradient id="SVGID_00000030471362623307658300000001683032238963469447_" gradientUnits="userSpaceOnUse" x1="2075.6904" y1="1650.7363" x2="2075.6904" y2="762.6555">
		<stop  offset="0" style="stop-color:#FCFCFC"/>
		<stop  offset="1" style="stop-color:#FDFDFD"/>
	</linearGradient>
	<polygon style="fill:url(#SVGID_00000030471362623307658300000001683032238963469447_);" points="2125.588,809.972 
		2125.588,1166.416 2073.376,1166.416 2073.376,1080.066 2044.259,1080.066 2044.259,1156.375 1990.038,1156.375 1990.038,1227.664 
		2161.343,1227.664 2161.343,828.045 2143.661,828.045 	"/>
	
		<linearGradient id="SVGID_00000126304791424948979140000004193130390757804475_" gradientUnits="userSpaceOnUse" x1="2233.3296" y1="1650.7378" x2="2233.3296" y2="762.6574">
		<stop  offset="0" style="stop-color:#FCFCFC"/>
		<stop  offset="1" style="stop-color:#FDFDFD"/>
	</linearGradient>
	<polygon style="fill:url(#SVGID_00000126304791424948979140000004193130390757804475_);" points="2268.165,1058.98 
		2268.165,1154.367 2234.78,1187.752 2208.926,1187.752 2208.926,1205.072 2161.343,1205.072 2161.343,1227.664 2305.316,1227.664 
		2305.316,1058.98 	"/>
	
		<linearGradient id="SVGID_00000065033162869300955350000006372134002561826961_" gradientUnits="userSpaceOnUse" x1="2391.9175" y1="1650.7388" x2="2391.9175" y2="762.6555">
		<stop  offset="0" style="stop-color:#FCFCFC"/>
		<stop  offset="1" style="stop-color:#FDFDFD"/>
	</linearGradient>
	
		<rect x="2379.115" y="948.532" style="fill:url(#SVGID_00000065033162869300955350000006372134002561826961_);" width="25.604" height="279.132"/>
	
		<linearGradient id="SVGID_00000131327442562058461400000018153267332432142476_" gradientUnits="userSpaceOnUse" x1="2519.6855" y1="1650.7369" x2="2519.6855" y2="762.6572">
		<stop  offset="0" style="stop-color:#FCFCFC"/>
		<stop  offset="1" style="stop-color:#FDFDFD"/>
	</linearGradient>
	<polygon style="fill:url(#SVGID_00000131327442562058461400000018153267332432142476_);" points="2634.651,1069.021 
		2587.46,1069.021 2587.46,1187.501 2553.321,1187.501 2553.321,1210.93 2404.72,1210.93 2404.72,1227.664 2634.651,1227.664 	"/>
	
		<linearGradient id="SVGID_00000119110622865898201820000014894830959935567513_" gradientUnits="userSpaceOnUse" x1="2431.4526" y1="1650.7412" x2="2431.4526" y2="762.6551">
		<stop  offset="0" style="stop-color:#FCFCFC"/>
		<stop  offset="1" style="stop-color:#FDFDFD"/>
	</linearGradient>
	<polygon style="fill:url(#SVGID_00000119110622865898201820000014894830959935567513_);" points="2454.923,1079.062 
		2435.343,1079.062 2435.343,1191.016 2407.982,1218.377 2454.923,1218.377 	"/>
	
		<linearGradient id="SVGID_00000103250649611287099340000010768037002486218425_" gradientUnits="userSpaceOnUse" x1="1750.0659" y1="1650.7375" x2="1750.0659" y2="762.6543">
		<stop  offset="0" style="stop-color:#FCFCFC"/>
		<stop  offset="1" style="stop-color:#FDFDFD"/>
	</linearGradient>
	
		<rect x="1736.009" y="1073.037" style="fill:url(#SVGID_00000103250649611287099340000010768037002486218425_);" width="28.114" height="154.627"/>
</g>
<path style="fill:#FAFAFA;" d="M1074.667,1218.609c0,0,79.676-36.217,95.974-25.352c16.297,10.865,90.541-13.12,143.056-2.033
	c52.514,11.088,83.298,36.835,134.001,12.19c50.703-24.644,110.461-15.194,119.515,0c9.055,15.194,21.729,8.347,79.677,0
	c57.946-8.347,54.325-4.724,130.38,15.194c76.055,19.92,126.052,19.92,126.052,19.92h-828.653V1218.609z"/>
<path style="fill:#FAFAFA;" d="M964.232,1261.466c0,0,18.108-66.397,112.271-33.802s114.686,72.434,251.102,67.604
	s196.777,60.361,252.31,59.153c55.532-1.207,58.498,25.352,58.498,25.352H940.087L964.232,1261.466z"/>
<linearGradient id="SVGID_00000179643752097990817360000011194864683474196129_" gradientUnits="userSpaceOnUse" x1="2005.7019" y1="1643.3312" x2="2005.7019" y2="970.8102">
	<stop  offset="0" style="stop-color:#DBDBE6"/>
	<stop  offset="1" style="stop-color:#FFFFFF"/>
</linearGradient>
<path style="fill:url(#SVGID_00000179643752097990817360000011194864683474196129_);" d="M2446.888,1238.548
	c-8.009,0.235-103.486,3.387-223.926,16.592c-3.642,0.404-7.305,0.809-11.011,1.235c-93.519,10.606-200.604,27.283-293.036,53.244
	c-3.686,1.022-7.348,2.066-10.99,3.131c-28.604,8.391-55.65,17.678-80.271,28.007c-89.153,37.42-146.529,88.259-130.769,157.327
	c22.873,100.163,140.906,208.675,293.781,311.544h-266.5c-68.557-74.053-123.229-152.45-147.167-229.846
	c-35.333-114.241,6.496-189.316,98.183-239.025c59.229-32.16,139.267-53.734,232.742-68.451c3.643-0.575,7.305-1.129,10.99-1.683
	c88.215-13.27,187.889-20.681,293.036-25.302c3.663-0.171,7.326-0.319,11.011-0.469
	C2295.758,1241.786,2371.067,1240.018,2446.888,1238.548z"/>
<path style="fill:#FAFAFA;" d="M1554.718,1224.042c0,0,56.135,17.203,94.162-13.128c38.028-30.332,132.191-27.615,173.841,0
	s92.353,12.09,117.704-1.877c25.352-13.969,74.243-9.951,135.813,4.338c61.568,14.289,61.568-6.215,123.136-4.338
	c61.568,1.877,248.083,29.492,248.083,29.492h-918.09L1554.718,1224.042z"/>
<path style="fill:#FAFAFA;" d="M2218.613,1238.529c0,0,69.958-55.64,106.278-40.25c36.321,15.39,69.34,34.6,94.104,18.779
	c24.765-15.819,64.387-17.208,75.943-3.196c11.557,14.013,52.908,5.651,74.523,3.196c58.173-6.607,81.487,21.471,81.487,21.471
	H2218.613z"/>
<path style="fill:#E7E7E7;" d="M1696.924,1809.628H982.915v-78.845c0,0,34.161-62.211,90.175-75.692
	c13.183-3.174,27.602-3.663,43.042,0c10.266,2.428,21.021,6.708,32.203,13.247c99.269,58.079,184.502-13.14,251.868,71.348
	c67.407,84.531,138.351-26.899,257.681,42.383C1673.772,1791.29,1686.53,1800.512,1696.924,1809.628z"/>
<circle style="fill:#FFFFFF;" cx="2018.846" cy="555.607" r="6.321"/>
<path style="fill:#FFFFFF;" d="M2311.638,912.386c0,3.492-2.831,6.321-6.321,6.321c-3.491,0-6.32-2.829-6.32-6.321
	c0-3.49,2.829-6.32,6.32-6.32C2308.807,906.065,2311.638,908.896,2311.638,912.386z"/>
<path style="fill:#FFFFFF;" d="M1888.368,402.154c0,3.491-2.83,6.321-6.321,6.321c-3.49,0-6.321-2.831-6.321-6.321
	c0-3.491,2.831-6.32,6.321-6.32C1885.538,395.834,1888.368,398.663,1888.368,402.154z"/>
<path style="fill:#FFFFFF;" d="M1933.854,712.421c0,6.594-5.346,11.94-11.94,11.94s-11.941-5.346-11.941-11.94
	c0-6.596,5.347-11.941,11.941-11.941S1933.854,705.825,1933.854,712.421z"/>
<path style="fill:#FFFFFF;" d="M1338.206,214.396c0,5.456-4.422,9.879-9.879,9.879c-5.456,0-9.88-4.423-9.88-9.879
	c0-5.457,4.424-9.88,9.88-9.88C1333.784,204.516,1338.206,208.94,1338.206,214.396z"/>
<path style="fill:#FFFFFF;" d="M1983.559,329.591c-0.585,2.438-3.035,3.938-5.472,3.354c-2.438-0.585-3.939-3.035-3.354-5.473
	c0.584-2.437,3.034-3.938,5.472-3.354C1982.642,324.705,1984.144,327.155,1983.559,329.591z"/>
<path style="fill:#FFFFFF;" d="M1838.378,512.283c-1.245,5.188-6.46,8.383-11.647,7.138c-5.187-1.245-8.382-6.459-7.137-11.647
	c1.245-5.186,6.46-8.382,11.647-7.137C1836.428,501.882,1839.624,507.097,1838.378,512.283z"/>
<path style="fill:#FFFFFF;" d="M1928.233,214.396c0,3.491-2.829,6.32-6.319,6.32c-3.491,0-6.321-2.83-6.321-6.32
	c0-3.491,2.83-6.321,6.321-6.321C1925.404,208.075,1928.233,210.906,1928.233,214.396z"/>
<path style="fill:#FFFFFF;" d="M2007.225,96.011c-0.586,2.437-3.036,3.938-5.473,3.353c-2.438-0.585-3.938-3.035-3.354-5.472
	c0.585-2.437,3.034-3.938,5.472-3.353C2006.308,91.123,2007.81,93.573,2007.225,96.011z"/>
<path style="fill:#FFFFFF;" d="M1833.398,847.192c-0.585,2.438-3.034,3.939-5.473,3.353c-2.437-0.585-3.938-3.035-3.353-5.473
	c0.585-2.437,3.035-3.939,5.472-3.353C1832.482,842.305,1833.984,844.754,1833.398,847.192z"/>
<path style="fill:#FFFFFF;" d="M1766.046,97.206c-1.246,5.188-6.461,8.383-11.646,7.137c-5.188-1.245-8.384-6.46-7.138-11.647
	c1.245-5.187,6.459-8.382,11.646-7.137C1764.096,86.804,1767.291,92.019,1766.046,97.206z"/>
<path style="fill:#FFFFFF;" d="M2214.571,736.302c0,6.595-5.346,11.941-11.941,11.941c-6.595,0-11.94-5.347-11.94-11.941
	c0-6.595,5.346-11.941,11.94-11.941C2209.226,724.36,2214.571,729.707,2214.571,736.302z"/>
<circle style="fill:#FFFFFF;" cx="1646.907" cy="286.742" r="11.941"/>
<path style="fill:#FFFFFF;" d="M2168.604,106.892c0,6.595-5.346,11.941-11.94,11.941c-6.594,0-11.94-5.346-11.94-11.941
	c0-6.594,5.347-11.94,11.94-11.94C2163.258,94.952,2168.604,100.298,2168.604,106.892z"/>
<path style="fill:#FFFFFF;" d="M2133.637,396.893c-0.585,2.437-3.035,3.938-5.472,3.354c-2.438-0.586-3.938-3.036-3.354-5.474
	c0.584-2.436,3.034-3.938,5.472-3.353C2132.721,392.005,2134.222,394.456,2133.637,396.893z"/>
<path style="fill:#FFFFFF;" d="M2435.866,847.192c-0.586,2.438-3.035,3.939-5.473,3.353c-2.438-0.585-3.939-3.035-3.354-5.473
	c0.586-2.437,3.036-3.939,5.473-3.353C2434.949,842.305,2436.45,844.754,2435.866,847.192z"/>
<path style="fill:#FFFFFF;" d="M1308.812,650.629c-0.584,2.438-3.035,3.94-5.472,3.354s-3.938-3.035-3.354-5.473
	c0.586-2.436,3.036-3.938,5.473-3.352C1307.896,645.742,1309.396,648.192,1308.812,650.629z"/>
<path style="fill:#FFFFFF;" d="M2659.901,804.71c-0.586,2.438-3.035,3.938-5.473,3.353c-2.438-0.585-3.938-3.035-3.354-5.472
	c0.586-2.438,3.035-3.94,5.473-3.354C2658.985,799.823,2660.486,802.273,2659.901,804.71z"/>
<path style="fill:#FFFFFF;" d="M1607.061,687.461c0,6.594-5.346,11.941-11.94,11.941s-11.941-5.347-11.941-11.941
	c0-6.596,5.347-11.94,11.941-11.94S1607.061,680.865,1607.061,687.461z"/>
<path style="fill:#FFFFFF;" d="M1611.474,464.632c-0.584,2.437-3.035,3.939-5.472,3.354c-2.438-0.586-3.938-3.036-3.354-5.473
	c0.585-2.438,3.035-3.939,5.473-3.354C1610.558,459.744,1612.059,462.195,1611.474,464.632z"/>
<polygon style="fill:#FAFAFA;" points="2827.734,0.002 2827.734,1809.628 0,1809.628 0,0.002 1178.669,0.002 1178.669,1340.76 
	1471.688,1340.76 1471.688,0.002 1482.681,0.002 1482.681,1340.76 1775.738,1340.76 1775.738,0.002 1786.73,0.002 1786.73,1340.76 
	2079.786,1340.76 2079.786,0.002 2090.779,0.002 2090.779,1340.76 2383.8,1340.76 2383.8,0.002 2394.792,0.002 2394.792,1340.76 
	2687.813,1340.76 2687.813,0.002 2698.842,0.002 2698.842,1340.76 2778.339,1340.76 2778.339,0.002 "/>
<g>
	<rect x="1552.503" y="0.018" style="fill:#EBF3F7;" width="4.508" height="525.05"/>
	<path style="fill:#EBF3F7;" d="M1389.937,573.206c0,0,80.552-67.011,164.82-67.011s164.819,67.011,164.819,67.011H1389.937z"/>
</g>
<g>
	<rect x="1005.97" y="0.018" style="fill:#EBF3F7;" width="4.509" height="525.05"/>
	<path style="fill:#EBF3F7;" d="M843.404,573.206c0,0,80.551-67.011,164.819-67.011c84.27,0,164.82,67.011,164.82,67.011H843.404z"
		/>
</g>
<rect x="0.01" y="1610.695" style="fill:#EEF6FA;" width="2827.725" height="209.319"/>
<g>
	
		<linearGradient id="SVGID_00000129178758620258778490000005416757689888066448_" gradientUnits="userSpaceOnUse" x1="2936.0457" y1="-371.3529" x2="3261.323" y2="-371.3529" gradientTransform="matrix(0.9184 0.3957 -0.3957 0.9184 -2037.0992 -177.3933)">
		<stop  offset="0" style="stop-color:#FF9F55"/>
		<stop  offset="1" style="stop-color:#FFD255"/>
	</linearGradient>
	<path style="fill:url(#SVGID_00000129178758620258778490000005416757689888066448_);" d="M1094.306,729.134
		c2.025-13.043,2.149-26.132,0.532-38.909l22.97-14.956l-11.004-27.669l-11.005-27.669l-26.968,4.906
		c-7.6-10.398-16.678-19.827-27.109-27.915l5.662-26.797l-27.346-11.783l-27.346-11.784l-15.588,22.521
		c-13.043-2.026-26.131-2.151-38.908-0.533l-14.956-22.971l-27.669,11.004l-27.67,11.005l4.906,26.968
		c-10.398,7.6-19.826,16.68-27.915,27.109l-26.796-5.662l-11.784,27.346l-11.783,27.347l22.519,15.587
		c-2.025,13.043-2.15,26.132-0.532,38.909l-22.971,14.955l11.004,27.67l11.005,27.669l26.968-4.905
		c7.6,10.398,16.679,19.825,27.108,27.914l-5.662,26.797l27.346,11.783l27.347,11.784l15.588-22.52
		c13.043,2.025,26.131,2.149,38.908,0.532l14.956,22.97l27.669-11.003l27.669-11.006l-4.905-26.968
		c10.398-7.6,19.826-16.678,27.916-27.108l26.795,5.662l11.783-27.346l11.784-27.347L1094.306,729.134z M914.387,803.528
		c-52.922-22.805-77.336-84.192-54.532-137.113c22.804-52.922,84.191-77.336,137.113-54.532
		c52.921,22.805,77.335,84.191,54.531,137.113C1028.694,801.917,967.308,826.332,914.387,803.528z"/>
</g>
<g>
	<polygon style="fill:#B8D6FF;" points="314.98,757.529 309.493,757.529 326.236,723.688 331.723,723.688 	"/>
	<rect x="138.475" y="754.429" style="fill:#B8D6FF;" width="265.611" height="4.21"/>
	<rect x="138.475" y="768.077" style="fill:#B8D6FF;" width="141.886" height="24.363"/>
	<rect x="309.493" y="710.297" style="fill:#B8D6FF;" width="73.93" height="13.392"/>
	<rect x="309.493" y="704.046" style="fill:#B8D6FF;" width="73.93" height="2.52"/>
</g>
<g style="opacity:0.44;">
	<rect x="1639.733" y="870.5" style="fill:#B8D6FF;" width="82.857" height="6.186"/>
	<rect x="1639.733" y="879.392" style="fill:#B8D6FF;" width="82.857" height="16.752"/>
	<polygon style="fill:#B8D6FF;" points="1653.522,740.609 1653.522,796.636 1516.165,796.636 1516.165,806.481 1653.522,806.481 
		1653.522,815.191 1516.165,815.191 1516.165,856.583 1653.522,856.583 1656.615,856.583 1659.708,856.583 1659.708,740.609 	"/>
</g>
<g>
	
		<linearGradient id="SVGID_00000036229848100016490140000009764210331789140669_" gradientUnits="userSpaceOnUse" x1="3138.124" y1="-631.3094" x2="3287.2458" y2="-631.3094" gradientTransform="matrix(0.9184 0.3957 -0.3957 0.9184 -2037.0992 -177.3933)">
		<stop  offset="0" style="stop-color:#FF9F55"/>
		<stop  offset="1" style="stop-color:#FFD255"/>
	</linearGradient>
	<path style="fill:url(#SVGID_00000036229848100016490140000009764210331789140669_);" d="M1226.793,523.896
		c0.929-5.979,0.985-11.98,0.244-17.837l10.531-6.857l-5.045-12.685l-5.046-12.685l-12.362,2.249
		c-3.485-4.767-7.646-9.089-12.429-12.798l2.596-12.284l-12.536-5.402l-12.536-5.402l-7.147,10.324
		c-5.979-0.928-11.979-0.985-17.837-0.244l-6.856-10.53l-12.685,5.045L1123,449.834l2.249,12.363
		c-4.768,3.483-9.089,7.647-12.798,12.428l-12.284-2.596l-5.402,12.537l-5.402,12.536l10.324,7.145
		c-0.929,5.98-0.986,11.981-0.244,17.838l-10.53,6.856l5.045,12.686l5.044,12.685l12.364-2.248
		c3.483,4.767,7.646,9.088,12.427,12.797l-2.596,12.285l12.537,5.401l12.537,5.402l7.146-10.324
		c5.979,0.93,11.98,0.986,17.838,0.244l6.855,10.531l12.686-5.045l12.685-5.045l-2.248-12.363
		c4.767-3.484,9.088-7.647,12.797-12.429l12.285,2.597l5.4-12.537l5.402-12.536L1226.793,523.896z M1144.31,558.001
		c-24.261-10.454-35.453-38.598-24.999-62.858c10.454-24.262,38.597-35.454,62.858-25s35.455,38.597,25,62.858
		C1196.715,557.263,1168.571,568.456,1144.31,558.001z"/>
</g>
<g>
	<g>
		<path style="fill:#D0E5F5;" d="M803.286,464.207H677.03c-5.337,0-9.662-4.325-9.662-9.661v-19.498
			c0-5.336,4.325-9.661,9.662-9.661h126.256c5.336,0,9.662,4.325,9.662,9.661v19.498
			C812.948,459.882,808.622,464.207,803.286,464.207z"/>
	</g>
</g>
<g>
	<g>
		<path style="fill:#D0E5F5;" d="M803.286,536.893H677.03c-5.337,0-9.662-4.326-9.662-9.662v-19.498
			c0-5.335,4.325-9.661,9.662-9.661h126.256c5.336,0,9.662,4.326,9.662,9.661v19.498
			C812.948,532.566,808.622,536.893,803.286,536.893z"/>
	</g>
</g>
<g>
	<g>
		<path style="fill:#D0E5F5;" d="M803.286,609.577H677.03c-5.337,0-9.662-4.326-9.662-9.661v-19.499c0-5.335,4.325-9.66,9.662-9.66
			h126.256c5.336,0,9.662,4.325,9.662,9.66v19.499C812.948,605.251,808.622,609.577,803.286,609.577z"/>
	</g>
</g>
<g>
	<g>
		<g>
			<path style="fill:#D0E5F5;" d="M596.982,338.797c-32.384-90.547-118.92-146.162-210.126-143.42
				c-22.081,0.664-44.434,4.748-66.369,12.592c-66.433,23.763-114.073,76.679-133.643,139.194
				c-13.563,43.327-13.65,91.262,2.82,137.307c1.635,4.579,3.416,9.085,5.324,13.484c8.663,19.943,20.029,37.984,33.53,53.842
				c56.599,66.542,150.518,94.662,237.645,63.507C578.641,575.071,637.208,451.279,596.982,338.797z M447.932,564.327
				c-65.323,23.364-135.733,2.277-178.172-47.604c-10.114-11.89-18.644-25.417-25.131-40.374c-1.432-3.302-2.769-6.676-3.999-10.111
				c-12.346-34.52-12.277-70.46-2.109-102.936c14.673-46.878,50.384-86.554,100.193-104.362c16.441-5.881,33.202-8.942,49.758-9.446
				c68.372-2.064,133.263,39.636,157.545,107.526C576.177,441.353,532.262,534.163,447.932,564.327z"/>
		</g>
	</g>
	<g>
		<g>
			<path style="fill:#78B0DE;" d="M238.52,363.301l-51.676-16.138c19.57-62.516,67.21-115.432,133.643-139.194
				c21.936-7.844,44.288-11.928,66.369-12.592l1.615,54.117c-16.556,0.504-33.316,3.564-49.758,9.446
				C288.905,276.747,253.193,316.423,238.52,363.301z"/>
		</g>
	</g>
	<g>
		<g>
			<path style="fill:#98C3E6;" d="M244.629,476.349l-49.641,21.605c-1.908-4.399-3.689-8.905-5.324-13.484
				c-16.47-46.045-16.383-93.979-2.82-137.307l51.676,16.138c-10.167,32.477-10.237,68.417,2.109,102.936
				C241.86,469.673,243.197,473.047,244.629,476.349z"/>
		</g>
	</g>
	<g>
		<g>
			<path style="fill:#B5D2EB;" d="M228.518,551.796c-13.501-15.857-24.867-33.898-33.53-53.842l49.641-21.605
				c6.487,14.957,15.017,28.484,25.131,40.374L228.518,551.796z"/>
		</g>
	</g>
</g>
<g>
	<g>
		<g>
			
				<linearGradient id="SVGID_00000078748077582157400250000002034487289037264256_" gradientUnits="userSpaceOnUse" x1="1258.5499" y1="847.6312" x2="1280.0863" y2="913.9915">
				<stop  offset="0" style="stop-color:#FF9F55"/>
				<stop  offset="1" style="stop-color:#FFD255"/>
			</linearGradient>
			<path style="fill:url(#SVGID_00000078748077582157400250000002034487289037264256_);" d="M1256.282,921.717l-48.579-42.351
				c-3.983-3.473-4.397-9.518-0.925-13.501c3.473-3.982,9.517-4.396,13.501-0.926l34.353,29.949l48.987-54.641
				c3.528-3.935,9.578-4.265,13.513-0.736c3.935,3.527,4.265,9.577,0.736,13.512L1256.282,921.717z"/>
		</g>
	</g>
</g>
<g>
	<g>
		
			<linearGradient id="SVGID_00000170970838578671140660000015157580607355276460_" gradientUnits="userSpaceOnUse" x1="1373.1785" y1="619.8917" x2="1413.7832" y2="745.0074">
			<stop  offset="0" style="stop-color:#FF9F55"/>
			<stop  offset="1" style="stop-color:#FFD255"/>
		</linearGradient>
		<path style="fill:url(#SVGID_00000170970838578671140660000015157580607355276460_);" d="M1393.48,751.148
			c-4.794,0-8.679-3.886-8.679-8.679V622.43c0-4.792,3.885-8.679,8.679-8.679c4.793,0,8.68,3.887,8.68,8.679v120.04
			C1402.16,747.263,1398.273,751.148,1393.48,751.148z"/>
	</g>
	<g>
		
			<linearGradient id="SVGID_00000003091942536002775330000017220955259123001772_" gradientUnits="userSpaceOnUse" x1="1385.0809" y1="656.5698" x2="1401.8793" y2="708.3306">
			<stop  offset="0" style="stop-color:#FF9F55"/>
			<stop  offset="1" style="stop-color:#FFD255"/>
		</linearGradient>
		<path style="fill:url(#SVGID_00000003091942536002775330000017220955259123001772_);" d="M1453.499,691.13h-120.038
			c-4.793,0-8.68-3.887-8.68-8.68c0-4.794,3.887-8.68,8.68-8.68h120.038c4.794,0,8.68,3.886,8.68,8.68
			C1462.179,687.243,1458.293,691.13,1453.499,691.13z"/>
	</g>
</g>
<g>
	
		<linearGradient id="SVGID_00000036219271960047733440000010769176338035242672_" gradientUnits="userSpaceOnUse" x1="486.832" y1="1706.1639" x2="486.832" y2="1549.9591">
		<stop  offset="0" style="stop-color:#FF9F55"/>
		<stop  offset="1" style="stop-color:#FFD255"/>
	</linearGradient>
	<path style="fill:url(#SVGID_00000036219271960047733440000010769176338035242672_);" d="M782.375,1719.083H231.486
		c-22.201,0-40.197-17.996-40.197-40.197v-65.251c0-22.2,17.997-40.197,40.197-40.197h550.889V1719.083z"/>
	<path style="fill:#FF9F55;" d="M876.986,1588.433V1704.1h9.662v14.992H487.346c-22.2,0-40.197-17.997-40.197-40.198v-65.255
		c0-22.201,17.997-40.197,40.197-40.197h399.303v14.991H876.986z"/>
	<path style="fill:#EFF7FE;" d="M876.977,1704.093H516.819c-22.199,0-40.197-17.997-40.197-40.198v-35.27
		c0-22.201,17.998-40.198,40.197-40.198h360.157V1704.093z"/>
	
		<linearGradient id="SVGID_00000114791407686138938800000007287312372335391360_" gradientUnits="userSpaceOnUse" x1="481.3198" y1="1353.9594" x2="481.3198" y2="1570.1973">
		<stop  offset="0" style="stop-color:#40D5E6"/>
		<stop  offset="1" style="stop-color:#5577FF"/>
	</linearGradient>
	<path style="fill:url(#SVGID_00000114791407686138938800000007287312372335391360_);" d="M808.111,1573.432H205.035
		c-27.895,0-50.507-22.613-50.507-50.507v-68.368c0-27.895,22.612-50.507,50.507-50.507h603.076V1573.432z"/>
	<path style="fill:#5284FC;" d="M915.088,1421.49v134.515h8.321v17.437H595.406c-27.894,0-50.507-22.613-50.507-50.507v-68.374
		c0-27.893,22.613-50.506,50.507-50.506h328.003v17.436H915.088z"/>
	<path style="fill:#EFF7FE;" d="M915.079,1555.998H620.791c-27.895,0-50.507-22.613-50.507-50.507v-33.501
		c0-27.895,22.612-50.508,50.507-50.508h294.288V1555.998z"/>
	
		<linearGradient id="SVGID_00000050637032949464387980000003473945325597468290_" gradientUnits="userSpaceOnUse" x1="630.1353" y1="1364.334" x2="630.1353" y2="1202.6697">
		<stop  offset="0" style="stop-color:#FF9F55"/>
		<stop  offset="1" style="stop-color:#FFD255"/>
	</linearGradient>
	<path style="fill:url(#SVGID_00000050637032949464387980000003473945325597468290_);" d="M373.622,1404.017h458.366
		c30.188,0,54.66-24.472,54.66-54.659v-98.342c0-30.188-24.473-54.66-54.66-54.66H373.622V1404.017z"/>
	<path style="fill:#FF9F55;" d="M291.507,1217.736v164.917h-8.386v21.376h326.798c30.188,0,54.66-24.473,54.66-54.66v-98.348
		c0-30.188-24.473-54.66-54.66-54.66H283.121v21.375H291.507z"/>
	<path style="fill:#EFF7FE;" d="M291.516,1382.644h288.989c30.007,0,54.331-24.325,54.331-54.331v-56.252
		c0-30.007-24.324-54.332-54.331-54.332H291.516V1382.644z"/>
	
		<linearGradient id="SVGID_00000060723783078245896110000001339090178967335351_" gradientUnits="userSpaceOnUse" x1="445.1138" y1="929.6757" x2="445.1138" y2="1111.2942">
		<stop  offset="0" style="stop-color:#40D5E6"/>
		<stop  offset="1" style="stop-color:#5577FF"/>
	</linearGradient>
	<path style="fill:url(#SVGID_00000060723783078245896110000001339090178967335351_);" d="M716.86,1196.306h-486.03
		c-31.736,0-57.463-25.727-57.463-57.463v-92.736c0-31.735,25.728-57.463,57.463-57.463h486.03V1196.306z"/>
	<path style="fill:#5284FC;" d="M803.853,1010.024v164.917h8.884v21.376H466.088c-31.735,0-57.462-25.728-57.462-57.462v-92.743
		c0-31.735,25.726-57.462,57.462-57.462h346.649v21.374H803.853z"/>
	<path style="fill:#EFF7FE;" d="M803.846,1174.932H496.012c-31.604,0-57.224-25.619-57.224-57.224v-50.468
		c0-31.604,25.62-57.223,57.224-57.223h307.834V1174.932z"/>
	
		<linearGradient id="SVGID_00000147901750784752126310000004255272137502197123_" gradientUnits="userSpaceOnUse" x1="582.1968" y1="840.1225" x2="582.1968" y2="985.3895">
		<stop  offset="0" style="stop-color:#40D5E6"/>
		<stop  offset="1" style="stop-color:#5577FF"/>
	</linearGradient>
	<path style="fill:url(#SVGID_00000147901750784752126310000004255272137502197123_);" d="M853.943,988.585H346.117
		c-19.698,0-35.667-15.969-35.667-35.667v-85.817c0-19.698,15.969-35.667,35.667-35.667h507.826V988.585z"/>
	<path style="fill:#5284FC;" d="M940.937,847.614v124.804h8.884v16.176H581.375c-19.698,0-35.666-15.969-35.666-35.667v-85.821
		c0-19.698,15.968-35.667,35.666-35.667H949.82v16.176H940.937z"/>
	<path style="fill:#EFF7FE;" d="M940.929,972.41H608.477c-19.698,0-35.667-15.969-35.667-35.668v-53.467
		c0-19.698,15.969-35.667,35.667-35.667h332.452V972.41z"/>
</g>
<g>
	<g>
		<path style="fill:#8DBDE3;" d="M1679.883,1157.123l-511.545,2.635c-21.29,0.111-38.637-17.06-38.747-38.35l-1.734-336.709
			c-0.109-21.289,17.06-38.637,38.35-38.746l511.545-2.635c21.29-0.11,38.638,17.06,38.747,38.349l1.735,336.71
			C1718.342,1139.666,1701.173,1157.014,1679.883,1157.123z"/>
		
			<rect x="1351.273" y="738.693" transform="matrix(1 -0.0052 0.0052 1 -3.8692 7.3393)" style="fill:#706865;" width="143.542" height="32.415"/>
		<g>
			<g>
				<path style="fill:#FFFFFF;" d="M1279.644,826.318c0,0,0.161,94.057-10.054,131.755l-22.116,14l-78.227,0.403
					c14.658-39.627,14.458-145.664,14.458-145.664L1279.644,826.318z"/>
				<polygon style="fill:#C9C9C9;" points="1247.474,972.073 1247.4,957.865 1269.588,957.752 				"/>
			</g>
		</g>
		<g>
			<g>
				<path style="fill:#FFFFFF;" d="M1374.231,803.157c0,0,0.111,65.068-6.955,91.147l-15.299,9.685l-54.117,0.278
					c10.141-27.413,10.002-100.769,10.002-100.769L1374.231,803.157z"/>
				<polygon style="fill:#C9C9C9;" points="1351.978,903.99 1351.927,894.161 1367.275,894.082 				"/>
			</g>
		</g>
		<g>
			<g>
				<path style="fill:#FFFFFF;" d="M1506.97,819.799c0,0,0.153,89.134-9.528,124.858l-20.958,13.268l-74.132,0.382
					c13.892-37.553,13.701-138.04,13.701-138.04L1506.97,819.799z"/>
				<polygon style="fill:#C9C9C9;" points="1476.483,957.925 1476.415,944.461 1497.44,944.352 				"/>
			</g>
		</g>
		<g>
			<g>
				<path style="fill:#FFFFFF;" d="M1601.533,933.279c0,0,0.104,60.206-6.435,84.336l-14.156,8.961l-50.072,0.258
					c9.382-25.364,9.254-93.238,9.254-93.238L1601.533,933.279z"/>
				<polygon style="fill:#C9C9C9;" points="1580.942,1026.576 1580.895,1017.482 1595.097,1017.409 				"/>
			</g>
		</g>
		<g>
			<g>
				<path style="fill:#FFFFFF;" d="M1601.533,809.806c0,0,0.104,60.205-6.435,84.335l-14.156,8.962l-50.072,0.258
					c9.382-25.365,9.254-93.238,9.254-93.238L1601.533,809.806z"/>
				<polygon style="fill:#C9C9C9;" points="1580.942,903.102 1580.895,894.008 1595.097,893.935 				"/>
			</g>
		</g>
		<g>
			<g>
				<path style="fill:#FFFFFF;" d="M1679.303,869.28c0,0,0.079,46.224-4.94,64.75l-10.869,6.881l-38.443,0.198
					c7.203-19.475,7.104-71.586,7.104-71.586L1679.303,869.28z"/>
				<polygon style="fill:#C9C9C9;" points="1663.493,940.911 1663.458,933.929 1674.361,933.872 				"/>
			</g>
		</g>
		<g>
			<g>
				<path style="fill:#FFFFFF;" d="M1370.821,944.729c0,0,0.059,47.981-5.886,67.217l-12.847,7.15l-45.42,0.233
					c8.525-20.221,8.447-74.314,8.447-74.314L1370.821,944.729z"/>
				<polygon style="fill:#C9C9C9;" points="1352.089,1019.097 1352.052,1011.849 1364.936,1011.782 				"/>
			</g>
		</g>
		<g>
			<g>
				<rect x="1172.917" y="1056.237" style="fill:#FFFFFF;" width="136.842" height="7.108"/>
			</g>
			<g>
				<rect x="1172.917" y="1105.592" style="fill:#FFFFFF;" width="157.811" height="7.107"/>
			</g>
			<g>
				<rect x="1172.917" y="1080.914" style="fill:#FFFFFF;" width="97.203" height="7.109"/>
			</g>
		</g>
	</g>
	<g>
		<g>
			<rect x="1055.242" y="1266.086" style="fill:#FFAA55;" width="157.529" height="9.351"/>
		</g>
		<g>
			
				<rect x="1076.354" y="1299.773" transform="matrix(-1 -1.224647e-16 1.224647e-16 -1 2166.5127 3024.8184)" style="fill:#706865;" width="13.804" height="425.272"/>
		</g>
		<g>
			<rect x="1188.117" y="1263.435" style="fill:#CCBDB7;" width="109.497" height="13.354"/>
		</g>
		<g>
			<rect x="1222.134" y="1149.495" style="fill:#FFAA55;" width="41.465" height="125.941"/>
		</g>
		<g>
			<rect x="998.733" y="1275.594" style="fill:#B59074;" width="606.686" height="24.18"/>
		</g>
		<g>
			<path style="fill:#D44040;" d="M882.296,1129.238c0,0-6.636,93.053,11.545,104.188c11.391,6.976,56.804,30.507,55.456,34.919
				c-1.347,4.412-25.641,39.263-25.641,39.263s-87.231-57.443-90.043-75.546c-2.748-17.686,4.294-136.247,16.282-141.707
				c8.981-4.092,13.721-0.709,25.038,7.693C890.817,1109.842,882.296,1129.238,882.296,1129.238z"/>
		</g>
		<g>
			<g>
				<g>
					<path style="fill:#EAD8CF;" d="M1041.275,1155.806l7.688-2.844c0,0-9.588-22.507-13.772-21.959
						c-4.821,0.631-10.839,2.221-10.839,2.221L1041.275,1155.806z"/>
				</g>
			</g>
		</g>
		<g>
			<g>
				<g>
					<path style="fill:#DA9B5B;" d="M1043.03,1159.688c-0.983-0.731-16.342-30.2-16.342-30.2l-32.818,4.459l17.733,34.904
						L1043.03,1159.688z"/>
				</g>
			</g>
		</g>
		<g>
			<g>
				<g>
					<path style="fill:#424773;" d="M989.619,1666.98c0,0-2.713,18.827-3.051,21.656c-0.34,2.827-30.176-1.666-30.176-1.666
						l-2.416-22.416C953.977,1664.555,985.89,1664.324,989.619,1666.98z"/>
				</g>
			</g>
		</g>
		<g>
			<g>
				<g>
					<path style="fill:#292C47;" d="M986.886,1686.242c0,0,9.452,11.346,18.596,16.29c9.143,4.944,23.511,6.904,28.917,12.022
						c3.902,3.695,14.214,19.604-23.759,19.282c-37.973-0.321-56.281,2.247-60.35-3.853c-4.068-6.099,5.887-45.018,5.887-45.018
						S965.17,1688.203,986.886,1686.242z"/>
				</g>
			</g>
		</g>
		<g>
			<g>
				<g>
					<path style="fill:#424773;" d="M1180.774,1667.158c0,0-2.712,18.828-3.051,21.656s-30.176-1.666-30.176-1.666l-2.415-22.415
						C1145.133,1664.733,1177.045,1664.503,1180.774,1667.158z"/>
				</g>
			</g>
		</g>
		<g>
			<g>
				<g>
					<path style="fill:#292C47;" d="M1178.041,1686.421c0,0,9.453,11.345,18.596,16.289c9.144,4.946,42.79,9.008,48.195,14.127
						c3.903,3.694,10.394,18.569-43.036,17.178c-37.96-0.988-56.282,2.247-60.351-3.852c-4.067-6.099,5.888-45.019,5.888-45.019
						S1155.806,1688.602,1178.041,1686.421z"/>
				</g>
			</g>
		</g>
		<g>
			<g>
				<g>
					<path style="fill:#292C47;" d="M893.386,1341.747c0,0,108.473,18.354,132.973,22.201c24.5,3.849,157.339,36.904,173.952,46.977
						c13.224,8.018-6.936,200.575-11.646,274.042h-52.322l-3.794-220.376c-62.787,1.569-107.592-14.688-153.313-7.743
						c-45.722,6.944-83.841,16.814-112.894-22.157C866.342,1434.69,865.265,1350.26,893.386,1341.747z"/>
				</g>
			</g>
		</g>
		<g>
			<g>
				<g>
					<path style="fill:#292C47;" d="M1000.303,1685.145l-50.989-3.15l-4.971-217.403c-27.029,0.675-36.295-1.038-58.169-3.691
						l-41.169-95.693c36.079,7.212,151.68,36.369,167.094,45.717C1025.324,1418.944,1005.012,1611.676,1000.303,1685.145z"/>
				</g>
			</g>
		</g>
		<g>
			<g>
				<g>
					<path style="fill:#EEA886;" d="M943.319,935.152c0,0,39.764-10.99,54.935,19.879c15.171,30.868,8.293,89.387-11.747,94.893
						c-20.041,5.506-48.859-0.834-57.179-20.046c-8.32-19.212-14.956-46.513-12.965-64.191
						C918.354,948.008,932.761,939.377,943.319,935.152z"/>
				</g>
			</g>
		</g>
		<g>
			<g>
				<g>
					<path style="fill:#EEA886;" d="M976.116,1043.765c0,0-0.438,23.476,2.15,28.479c2.588,5.005-55.369,3.75-55.369,3.75
						s9.134-28.19,3.952-52.208C921.721,1000.014,976.116,1043.765,976.116,1043.765z"/>
				</g>
			</g>
		</g>
		<g>
			<g>
				<g>
					<path style="fill:#3A3F47;" d="M923.727,1014.896c0,0,3.098,6.3,18.101,5.283c15.002-1.018,34.788-19.116,41.157-20.733
						c6.369-1.617,6.747-5.242,6.747-5.242l3.37,5.991l6.526,0.994c0,0-1.319-14.971,5.228-24.525
						c2.868-4.188-4.352-57.829-53.271-45.422c0,0-37.334,6.837-37.834,27.685C913.252,979.773,916.481,1003.854,923.727,1014.896z"
						/>
				</g>
			</g>
		</g>
		<g>
			<g>
				<g>
					<path style="fill:#E2D2CA;" d="M981.315,1071.643c0,0-0.162-9.563-4.497-10.479c-4.334-0.917-45.56-6.588-50.879-4.496
						l-2.282,12.626C923.656,1069.293,933.906,1075.602,981.315,1071.643z"/>
				</g>
			</g>
		</g>
		<g>
			<g>
				<g>
					<path style="fill:#EEA886;" d="M993.243,989.93c-1.112-7.838-10.023-16.84-15.127-4.633
						c-5.103,12.208,3.446,29.984,9.171,29.032C993.012,1013.376,994.753,1000.563,993.243,989.93z"/>
				</g>
			</g>
		</g>
		<g>
			<g>
				<g>
					<path style="fill:#323657;" d="M1153.985,1184.621c-0.021-0.008-0.043-0.01-0.071-0.005
						C1154.212,1184.747,1154.254,1184.759,1153.985,1184.621z"/>
				</g>
			</g>
		</g>
		<g>
			<g>
				<g>
					<path style="fill:#3A3F47;" d="M931.721,940.75c0,0-48.482-2.282-8.462,73.403L931.721,940.75z"/>
				</g>
			</g>
		</g>
		<g>
			<g>
				<polygon style="fill:#918783;" points="823.696,1710.934 827.304,1721.079 979.692,1673.862 972.39,1653.318 				"/>
			</g>
		</g>
		<g>
			<g>
				<rect x="967.6" y="1500.955" style="fill:#918783;" width="17.321" height="165.679"/>
			</g>
		</g>
		<g>
			<g>
				<rect x="925.181" y="1492.152" style="fill:#5E5854;" width="102.158" height="9.762"/>
			</g>
		</g>
		<g>
			<g>
				<polygon style="fill:#918783;" points="1130.161,1710.934 1126.556,1721.079 974.167,1673.862 980.862,1652.027 				"/>
			</g>
		</g>
		<g>
			<g>
				<polygon style="fill:#918783;" points="1022.793,1719.993 1022.793,1731.796 974.167,1673.862 980.862,1652.027 				"/>
			</g>
		</g>
		<g>
			<g>
				<path style="fill:#BFB2AC;" d="M1144.403,1725.045c0,7.866-6.376,14.242-14.242,14.242c-7.864,0-14.24-6.376-14.24-14.242
					c0-7.865,6.376-14.241,14.24-14.241C1138.027,1710.804,1144.403,1717.18,1144.403,1725.045z"/>
			</g>
		</g>
		<g>
			<g>
				<path style="fill:#BFB2AC;" d="M1024.003,1725.045c0,7.866-6.376,14.242-14.241,14.242c-7.865,0-14.241-6.376-14.241-14.242
					c0-7.865,6.376-14.241,14.241-14.241C1017.627,1710.804,1024.003,1717.18,1024.003,1725.045z"/>
			</g>
		</g>
		<g>
			<g>
				<path style="fill:#BFB2AC;" d="M837.938,1725.045c0,7.866-6.376,14.242-14.242,14.242c-7.864,0-14.24-6.376-14.24-14.242
					c0-7.865,6.376-14.241,14.24-14.241C831.563,1710.804,837.938,1717.18,837.938,1725.045z"/>
			</g>
		</g>
		<g>
			<path style="fill:#254380;" d="M1079.684,1492.152H874.175c-10.082,0-18.255-8.174-18.255-18.256v-0.469
				c0-10.082,8.173-18.256,18.255-18.256h205.509c10.082,0,18.255,8.174,18.255,18.256v0.469
				C1097.938,1483.979,1089.766,1492.152,1079.684,1492.152z"/>
		</g>
		<g>
			<rect x="1513.994" y="1299.773" style="fill:#706865;" width="13.804" height="425.272"/>
		</g>
		<g>
			
				<linearGradient id="SVGID_00000078016488774570687200000005805505271998057364_" gradientUnits="userSpaceOnUse" x1="-4273.3242" y1="1083.8711" x2="-3915.2793" y2="1083.8711" gradientTransform="matrix(-1 0 0 1 -2851.4355 0)">
				<stop  offset="0" style="stop-color:#FF9F55"/>
				<stop  offset="1" style="stop-color:#FFD255"/>
			</linearGradient>
			<path style="fill:url(#SVGID_00000078016488774570687200000005805505271998057364_);" d="M1403.678,1210.162h-321.624
				c-10.057,0-18.21-8.152-18.21-18.211v-216.16c0-10.058,8.153-18.211,18.21-18.211h321.624c10.058,0,18.211,8.153,18.211,18.211
				v216.16C1421.889,1202.01,1413.735,1210.162,1403.678,1210.162z"/>
		</g>
		<g>
			<rect x="1077.866" y="971.232" style="fill:#F5F7FF;" width="330" height="199.348"/>
		</g>
		<g>
			<path style="fill:#FFC655;" d="M1316.987,1275.916v-4.494c0,0-6.318-27.958-51.015-27.958c-44.697,0-43.793,32.452-43.793,32.452
				H1316.987z"/>
		</g>
		<g>
			<g>
				<path style="fill:#EEA886;" d="M1221.638,1247.618c0,0,9.711-0.754,13.268-2.901c3.558-2.146,24.842-16.461,29.841-14.169
					c5,2.291,38.271,12.482,37.114,17.349c-1.154,4.865-4.233,4.396-6.58,3.535s-26.507-5.932-28.639-5.078
					c0,0,23.73,8.658,23.826,14.974c0.096,6.317-4.966,7.856-7.217,10.245c-2.25,2.388-4.951,8.32-11.067,8.775
					c-6.115,0.455-35.955-9.928-42.099-10.401c-6.143-0.474-17.512,0.38-18.284-0.62S1221.638,1247.618,1221.638,1247.618z"/>
			</g>
		</g>
		<g>
			<g>
				<g>
					<path style="fill:#D44040;" d="M1044.861,1084.895c-30.96-5.441-63.547-13.254-63.547-13.254l-57.66-2.35
						c0,0-52.919,11.65-73.759,21.064c-1.977,0.891-1.986,47.207-7.41,59.354l17.278,36.453c0,0,9.981,72.208,12.052,104.322
						c0.952,14.742-2.688,142.479-2.688,142.479s5.18,2.557,44.532,6.894c39.352,4.338,137.676-1.568,138.295-6.215
						c0.622-4.65-19.041-173.07-19.912-181.792c-1.336-13.386,3.867-75.241,3.867-75.241c7.414,9.959,26.316,54.936,46.018,76.334
						c11.591,12.59,68.977,20.308,79.792,20.668c23.546,0.785,66.501,5.473,67.756,3.184c1.003-1.375,3.742-38.127,1.05-39.024
						c-2.357-0.787-82.119-5.378-102.554-16.22c-7.476-3.968-29.823-52.699-29.823-52.699S1061.94,1092.57,1044.861,1084.895z"/>
				</g>
			</g>
		</g>
		<g>
			<path style="fill:#254380;" d="M931.232,1429.273h-96.798c-19.358,0-35.052-15.694-35.052-35.053v-161.055
				c0-19.358,15.693-35.052,35.052-35.052h96.798c19.358,0,35.052,15.693,35.052,35.052v161.055
				C966.283,1413.579,950.59,1429.273,931.232,1429.273z"/>
		</g>
		<g>
			<path style="fill:#254380;" d="M936.708,1482.948c-24.602,0-44.562-8.265-59.324-24.563
				c-33.363-36.835-27.368-101.588-27.098-104.327c0.507-5.104,5.063-8.834,10.156-8.324c5.102,0.506,8.828,5.05,8.326,10.151
				c-0.072,0.737-5.388,59.432,22.416,90.072c11.246,12.395,26.137,18.418,45.523,18.418c5.128,0,9.286,4.159,9.286,9.287
				S941.836,1482.948,936.708,1482.948z"/>
		</g>
		<g>
			<g>
				<g>
					<path style="fill:#DFE1E8;" d="M1195.317,997.644h-91.444c-1.442,0-2.611-1.169-2.611-2.611v-5.311
						c0-1.442,1.169-2.61,2.611-2.61h91.444c1.442,0,2.61,1.168,2.61,2.61v5.311C1197.928,996.475,1196.76,997.644,1195.317,997.644
						z"/>
				</g>
			</g>
		</g>
		<g>
			<g>
				<g>
					<path style="fill:#DFE1E8;" d="M1195.317,1020.233h-91.444c-1.442,0-2.611-1.169-2.611-2.61v-5.311
						c0-1.441,1.169-2.61,2.611-2.61h91.444c1.442,0,2.61,1.169,2.61,2.61v5.311
						C1197.928,1019.065,1196.76,1020.233,1195.317,1020.233z"/>
				</g>
			</g>
		</g>
		<g>
			<g>
				<g>
					<path style="fill:#DFE1E8;" d="M1189.149,1154.703h-79.109c-4.848,0-8.778-3.931-8.778-8.779v-101.535
						c0-4.849,3.931-8.779,8.778-8.779h79.109c4.848,0,8.778,3.931,8.778,8.779v101.535
						C1197.928,1150.772,1193.997,1154.703,1189.149,1154.703z"/>
				</g>
			</g>
		</g>
		<g>
			<g>
				<g>
					<path style="fill:#DFE1E8;" d="M1375.689,1154.703h-144.351c-7.674,0-13.896-6.222-13.896-13.896v-139.8
						c0-7.675,6.222-13.895,13.896-13.895h144.351c7.675,0,13.896,6.221,13.896,13.895v139.8
						C1389.586,1148.481,1383.364,1154.703,1375.689,1154.703z"/>
				</g>
			</g>
		</g>
	</g>
	<g>
		<path style="fill:#36572B;" d="M1530.961,1141.139c-21.572,0-39.063-17.488-39.063-39.063c0-5.824,1.272-11.345,3.562-16.309
			c6.178-13.43,19.749-22.753,35.501-22.753c21.573,0,39.062,17.489,39.062,39.062c0,7.407-2.061,14.336-5.646,20.238
			C1557.532,1133.596,1545.127,1141.139,1530.961,1141.139z"/>
		<path style="fill:#45613C;" d="M1491.289,1137.636c-15.094,0-27.335-12.239-27.335-27.335c0-0.871,0.039-1.731,0.121-2.583
			c1.301-13.885,12.991-24.751,27.214-24.751c15.095,0,27.335,12.24,27.335,27.334c0,9.57-4.92,17.993-12.366,22.875
			C1501.957,1135.996,1496.814,1137.636,1491.289,1137.636z"/>
		<path style="fill:#925E2E;" d="M1531.599,1104.131c0,0,2.176,18.142,2.902,42.814c0.725,24.672-18.867,24.672-18.867,24.672
			v90.375h-13.602c0,0,0.322-92.183-6.451-99.602c-6.772-7.419-6.772-42.574-6.772-42.574l3.87-2.258
			c0,0-5.806,41.606,20.643,47.734c26.447,6.129,16.449-59.346,16.449-59.346L1531.599,1104.131z"/>
		<path style="fill:#48753A;" d="M1540.638,1108.366c-22.425-4.189-37.195-13.886-45.178-22.599
			c6.178-13.43,19.749-22.753,35.501-22.753c21.573,0,39.062,17.489,39.062,39.062c0,7.407-2.061,14.336-5.646,20.238
			C1563.303,1117.002,1557.488,1111.511,1540.638,1108.366z"/>
		<path style="fill:#538742;" d="M1483.308,1117.801c-9.063-2.613-15.202-6.197-19.232-10.083
			c1.301-13.885,12.991-24.751,27.214-24.751c15.095,0,27.335,12.24,27.335,27.334c0,9.57-4.92,17.993-12.366,22.875
			C1503.486,1127.94,1497.216,1121.806,1483.308,1117.801z"/>
		<polygon style="fill:#877670;" points="1467.919,1219.98 1559.839,1219.98 1555.101,1237.037 1473.604,1237.037 		"/>
		<polygon style="fill:#876455;" points="1479.403,1237.039 1547.622,1237.039 1538.147,1275.625 1486.036,1275.625 		"/>
		<path style="fill:#538742;" d="M1488.809,1086.398l-2.357,0.726c0,0-3.709-10.079-3.951-11.45
			C1482.259,1074.304,1488.809,1086.398,1488.809,1086.398z"/>
		<path style="fill:#538742;" d="M1466.535,1087.124l11.691,3.548c0,0-0.08,1.048-1.612,1.048
			C1475.083,1091.72,1466.535,1087.124,1466.535,1087.124z"/>
		<path style="fill:#538742;" d="M1470.567,1111.637h2.983c0,0-0.564,4.435-2.983,7.257
			C1468.147,1121.716,1470.567,1111.637,1470.567,1111.637z"/>
		<path style="fill:#48753A;" d="M1542.33,1055.678c1.21,0.887-4.273,14.271-4.273,14.271h-2.741
			C1535.315,1069.949,1541.12,1054.79,1542.33,1055.678z"/>
		<path style="fill:#48753A;" d="M1529.59,1066.644c-0.483-3.629,2.339-9.757,2.339-9.757v9.192
			C1531.929,1066.079,1530.074,1070.271,1529.59,1066.644z"/>
		<path style="fill:#48753A;" d="M1551.2,1119.393c-1.693-1.386-1.774-13.562-1.774-13.562l2.661,0.968
			C1552.087,1106.799,1552.894,1120.777,1551.2,1119.393z"/>
		<path style="fill:#715346;" d="M1502.002,1237.039h45.62l-9.475,38.586h-14.939
			C1531.65,1244.575,1502.002,1237.039,1502.002,1237.039z"/>
	</g>
	<g>
		<path style="fill:#9E633A;" d="M1535.749,1275.625c-3.742-1.56-9.788-19.233-12.697-28.385c-1.032-3.247-1.67-5.422-1.67-5.422
			h34.229c-2.957,21.129-10.142,33.807-10.142,33.807H1535.749z"/>
		<path style="fill:#97A43C;" d="M1533.003,1231.292c0-1.229-5.494-6.377-8.241-9.738s1.057-9.739,1.057-9.739
			c12.255,5.071,10.142,19.478,10.142,19.478S1533.003,1232.521,1533.003,1231.292z"/>
		<path style="fill:#97A43C;" d="M1539.976,1231.839h-1.479c0,0-1.057-24.883,8.029-28.265c9.085-3.381,9.085-10.142,9.085-10.142
			s2.747,9.297-1.69,14.157c-4.437,4.859-9.508,10.564-8.663,15.213C1546.103,1227.45,1539.976,1231.839,1539.976,1231.839z"/>
		<path style="fill:#82522F;" d="M1523.052,1247.24c-1.032-3.247-1.67-5.422-1.67-5.422h34.229
			c-2.957,21.129-10.142,33.807-10.142,33.807h-2.234C1543.65,1255.841,1530.623,1249.344,1523.052,1247.24z"/>
		<polygon style="fill:#C67B47;" points="1521.389,1231.292 1555.871,1231.292 1557.833,1241.818 1519.987,1241.818 		"/>
	</g>
	<path style="fill:#254380;" d="M1006.488,971.844c0,0-9.921,29.742-83.229,42.31l-7.252-9.879c0,0,64.808-7.089,88.789-44.099
		L1006.488,971.844z"/>
	<g>
		<path style="fill:#254380;" d="M877.186,1032.221c-7.182,4.041-6.284,23.346-6.284,23.346h6.284h6.286
			C883.472,1055.566,884.369,1036.262,877.186,1032.221z"/>
		<g>
			<rect x="876.027" y="977.447" style="fill:#254380;" width="2.319" height="60.498"/>
		</g>
		<polygon style="fill:#1A2F59;" points="854.01,981.422 954.257,1018.817 1044.643,937.544 940.937,910.857 		"/>
	</g>
</g>
<g>
	
		<linearGradient id="SVGID_00000064353587690152101460000008494162113260032384_" gradientUnits="userSpaceOnUse" x1="-9190.6064" y1="1494.8003" x2="-9434.4746" y2="1494.8003" gradientTransform="matrix(-1 0 0 1 -7451.7983 0)">
		<stop  offset="0" style="stop-color:#FF9F55"/>
		<stop  offset="1" style="stop-color:#FFD255"/>
	</linearGradient>
	<path style="fill:url(#SVGID_00000064353587690152101460000008494162113260032384_);" d="M1654.367,1556.117h346.048
		c12.49,0,22.615-10.124,22.615-22.614v-77.404c0-12.489-10.125-22.615-22.615-22.615h-346.048V1556.117z"/>
	
		<linearGradient id="SVGID_00000162313737890289168950000007489070861976048827_" gradientUnits="userSpaceOnUse" x1="-9076.0479" y1="1697.8896" x2="-9317.5537" y2="1697.8896" gradientTransform="matrix(-1 0 0 1 -7451.7983 0)">
		<stop  offset="0" style="stop-color:#FF9F55"/>
		<stop  offset="1" style="stop-color:#FFD255"/>
	</linearGradient>
	<path style="fill:url(#SVGID_00000162313737890289168950000007489070861976048827_);" d="M1545.196,1739.854h421.72
		c8.976,0,16.252-7.275,16.252-16.252v-51.423c0-8.976-7.276-16.253-16.252-16.253h-421.72V1739.854z"/>
	<path style="fill:#F08533;" d="M1500.271,1665.101v65.581h-11.134v9.169h197.862c6.19,0,11.229-5.025,11.229-11.229v-61.462
		c0-6.202-5.038-11.228-11.229-11.228h-197.862v9.168H1500.271z"/>
	<path style="fill:#FAE6DE;" d="M1500.274,1730.679h177.13c5.962,0,10.794-4.833,10.794-10.794v-43.988
		c0-5.962-4.832-10.795-10.794-10.795h-177.13V1730.679z"/>
	<path style="fill:#F08533;" d="M1595.358,1446.109v97.392h-6.025v12.624h250.743c12.909,0,23.375-10.465,23.375-23.375v-75.889
		c0-12.909-10.466-23.374-23.375-23.374h-250.743v12.622H1595.358z"/>
	<path style="fill:#FAE6DE;" d="M1595.365,1543.496h231.882c12.909,0,23.375-10.465,23.375-23.375v-50.641
		c0-12.909-10.466-23.375-23.375-23.375h-231.882V1543.496z"/>
	
		<linearGradient id="SVGID_00000165957073130012501040000000667859214349751729_" gradientUnits="userSpaceOnUse" x1="-9611.9648" y1="1606.0254" x2="-9151.3311" y2="1606.0254" gradientTransform="matrix(-1 0 0 1 -7451.7983 0)">
		<stop  offset="0" style="stop-color:#609FF0"/>
		<stop  offset="1" style="stop-color:#5A3F9E"/>
	</linearGradient>
	<path style="fill:url(#SVGID_00000165957073130012501040000000667859214349751729_);" d="M1729.105,1655.926h339.769
		c15.958,0,28.895-12.936,28.895-28.895v-42.012c0-15.959-12.937-28.895-28.895-28.895h-339.769V1655.926z"/>
	<path style="fill:#495DA1;" d="M1670.097,1566.4v79.258h-6.025v10.274h245.222c15.959,0,28.896-12.938,28.896-28.896v-42.013
		c0-15.959-12.937-28.896-28.896-28.896h-245.222v10.273H1670.097z"/>
	<path style="fill:#FAE6DE;" d="M1670.104,1645.654h227.146c15.958,0,28.895-12.937,28.895-28.896v-21.467
		c0-15.958-12.937-28.896-28.895-28.896h-227.146V1645.654z"/>
	
		<rect x="1710.169" y="1591.668" transform="matrix(-1 -1.224647e-16 1.224647e-16 -1 3517.6348 3185.8418)" style="fill:#DECCC5;" width="97.297" height="2.506"/>
	
		<rect x="1749.181" y="1599.285" transform="matrix(-1 -1.224647e-16 1.224647e-16 -1 3602.2588 3201.0762)" style="fill:#DECCC5;" width="103.897" height="2.506"/>
	
		<rect x="1523.675" y="1682.066" transform="matrix(-1 -1.224647e-16 1.224647e-16 -1 3144.6465 3366.6377)" style="fill:#DECCC5;" width="97.297" height="2.505"/>
	
		<rect x="1562.687" y="1689.683" transform="matrix(-1 -1.224647e-16 1.224647e-16 -1 3229.2705 3381.8711)" style="fill:#DECCC5;" width="103.897" height="2.506"/>
	
		<rect x="1633.992" y="1696.639" transform="matrix(-1 -1.224647e-16 1.224647e-16 -1 3310.9688 3395.7832)" style="fill:#DECCC5;" width="42.984" height="2.506"/>
	
		<rect x="1709.115" y="1511.959" transform="matrix(-1 -1.224647e-16 1.224647e-16 -1 3522.1279 3026.4248)" style="fill:#DECCC5;" width="103.897" height="2.507"/>
	
		<rect x="1700.56" y="1518.915" transform="matrix(-1 -1.224647e-16 1.224647e-16 -1 3444.1035 3040.3359)" style="fill:#DECCC5;" width="42.984" height="2.506"/>
</g>
<g>
	
		<linearGradient id="SVGID_00000093163690639244855380000014065988596534550685_" gradientUnits="userSpaceOnUse" x1="1823.5098" y1="1429.3894" x2="1823.5098" y2="1379.8763">
		<stop  offset="0" style="stop-color:#FF9F55"/>
		<stop  offset="1" style="stop-color:#FFD255"/>
	</linearGradient>
	<path style="fill:url(#SVGID_00000093163690639244855380000014065988596534550685_);" d="M1917.188,1433.484h-174.615
		c-7.038,0-12.742-5.704-12.742-12.742v-20.682c0-7.037,5.704-12.742,12.742-12.742h174.615V1433.484z"/>
	<path style="fill:#FF9F55;" d="M1947.177,1392.071v36.663h3.063v4.753h-126.568c-7.036,0-12.741-5.704-12.741-12.742v-20.684
		c0-7.037,5.705-12.741,12.741-12.741h126.568v4.751H1947.177z"/>
	<path style="fill:#EFF7FE;" d="M1947.175,1428.732h-114.16c-7.036,0-12.742-5.704-12.742-12.741v-11.18
		c0-7.036,5.706-12.742,12.742-12.742h114.16V1428.732z"/>
	
		<linearGradient id="SVGID_00000029734470820196991650000001698458653023683717_" gradientUnits="userSpaceOnUse" x1="1821.7622" y1="1317.7506" x2="1821.7622" y2="1386.2922">
		<stop  offset="0" style="stop-color:#40D5E6"/>
		<stop  offset="1" style="stop-color:#5577FF"/>
	</linearGradient>
	<path style="fill:url(#SVGID_00000029734470820196991650000001698458653023683717_);" d="M1925.346,1387.317h-191.157
		c-8.842,0-16.01-7.169-16.01-16.01v-21.67c0-8.843,7.168-16.01,16.01-16.01h191.157V1387.317z"/>
	<path style="fill:#5284FC;" d="M1959.255,1339.155v42.638h2.638v5.527h-103.968c-8.841,0-16.009-7.168-16.009-16.01v-21.672
		c0-8.842,7.168-16.01,16.009-16.01h103.968v5.526H1959.255z"/>
	<path style="fill:#EFF7FE;" d="M1959.253,1381.791h-93.282c-8.842,0-16.009-7.168-16.009-16.01v-10.618
		c0-8.843,7.167-16.009,16.009-16.009h93.282V1381.791z"/>
	
		<linearGradient id="SVGID_00000010286565033656169760000018136998307015798662_" gradientUnits="userSpaceOnUse" x1="1868.9326" y1="1321.0388" x2="1868.9326" y2="1269.7953">
		<stop  offset="0" style="stop-color:#FF9F55"/>
		<stop  offset="1" style="stop-color:#FFD255"/>
	</linearGradient>
	<path style="fill:url(#SVGID_00000010286565033656169760000018136998307015798662_);" d="M1787.625,1333.617h145.289
		c9.569,0,17.326-7.757,17.326-17.325v-31.172c0-9.568-7.757-17.326-17.326-17.326h-145.289V1333.617z"/>
	<path style="fill:#FF9F55;" d="M1761.598,1274.571v52.274h-2.659v6.775h103.586c9.568,0,17.326-7.757,17.326-17.326v-31.174
		c0-9.568-7.758-17.325-17.326-17.325h-103.586v6.775H1761.598z"/>
	<path style="fill:#EFF7FE;" d="M1761.6,1326.843h91.602c9.511,0,17.222-7.711,17.222-17.223v-17.829
		c0-9.512-7.711-17.222-17.222-17.222H1761.6V1326.843z"/>
	
		<linearGradient id="SVGID_00000092425087282556927970000009392562939647798423_" gradientUnits="userSpaceOnUse" x1="1810.2861" y1="1183.2651" x2="1810.2861" y2="1240.8324">
		<stop  offset="0" style="stop-color:#40D5E6"/>
		<stop  offset="1" style="stop-color:#5577FF"/>
	</linearGradient>
	<path style="fill:url(#SVGID_00000092425087282556927970000009392562939647798423_);" d="M1896.422,1267.778h-154.058
		c-10.06,0-18.214-8.154-18.214-18.214v-29.395c0-10.06,8.154-18.214,18.214-18.214h154.058V1267.778z"/>
	<path style="fill:#5284FC;" d="M1923.997,1208.733v52.273h2.814v6.776h-109.877c-10.06,0-18.215-8.156-18.215-18.215v-29.396
		c0-10.06,8.155-18.214,18.215-18.214h109.877v6.775H1923.997z"/>
	<path style="fill:#EFF7FE;" d="M1923.993,1261.004h-97.574c-10.018,0-18.138-8.121-18.138-18.139v-15.996
		c0-10.018,8.12-18.139,18.138-18.139h97.574V1261.004z"/>
	
		<linearGradient id="SVGID_00000183243585160584397040000008217429226462724248_" gradientUnits="userSpaceOnUse" x1="1853.7378" y1="1154.879" x2="1853.7378" y2="1200.9236">
		<stop  offset="0" style="stop-color:#40D5E6"/>
		<stop  offset="1" style="stop-color:#5577FF"/>
	</linearGradient>
	<path style="fill:url(#SVGID_00000183243585160584397040000008217429226462724248_);" d="M1939.874,1201.937h-160.967
		c-6.244,0-11.306-5.062-11.306-11.305v-27.201c0-6.244,5.062-11.306,11.306-11.306h160.967V1201.937z"/>
	<path style="fill:#5284FC;" d="M1967.448,1157.253v39.56h2.815v5.128h-116.786c-6.244,0-11.306-5.063-11.306-11.306v-27.203
		c0-6.244,5.062-11.305,11.306-11.305h116.786v5.126H1967.448z"/>
	<path style="fill:#EFF7FE;" d="M1967.444,1196.81h-105.377c-6.244,0-11.306-5.061-11.306-11.305v-16.948
		c0-6.243,5.062-11.305,11.306-11.305h105.377V1196.81z"/>
</g>
</svg>
