<?xml version="1.0" encoding="utf-8"?>
<!-- Generator: Adobe Illustrator 27.5.0, SVG Export Plug-In . SVG Version: 6.00 Build 0)  -->
<svg version="1.1" xmlns="http://www.w3.org/2000/svg" xmlns:xlink="http://www.w3.org/1999/xlink" x="0px" y="0px"
	 viewBox="0 0 750 500" style="enable-background:new 0 0 750 500;" xml:space="preserve">
<g id="Background_Complete">
	<g>
		<g>
			<g>
				<path style="fill:#EBEBEB;" d="M242.915,350.033c0,0-6.164,2.677,1.348,15.718c7.512,13.041,12.581,19.428,12.581,19.428
					s1.37,3.046-1.222,3.662c-2.592,0.616-8.4-0.01-9.402,3.251c-1.04,3.382,1.531,6.392,6.561,8.891
					c5.03,2.499,15.849,8.378,16.825,8.914c0.959,0.526,1.964,1.924,0.266,2.627c-1.698,0.703-14.588,2.714-13.267,8.773
					c1.321,6.059,16.477,10.718,18.124,11.259s2.068,1.206,1.982,2.1c-0.086,0.893-4.483,1.161-8.125,1.884
					c-3.643,0.722-7.74,2.198-6.685,5.63c1.055,3.432,10.241,10.287,31.751,11.296l9.998-0.185l5.003-8.709
					c9.571-19.29,8.043-30.65,5.556-33.24c-2.487-2.59-5.768,0.274-8.169,3.106c-2.401,2.832-4.771,6.545-5.594,6.186
					c-0.823-0.358-1.2-1.05-0.872-2.752c0.327-1.703,3.62-17.213-1.034-21.312c-4.654-4.099-12.675,6.189-14.114,7.332
					c-1.439,1.143-2.173-0.416-2.167-1.509c0.007-1.113,0.125-13.426,0.385-19.037c0.26-5.61-1.121-9.32-4.582-10.054
					c-3.337-0.708-5.613,4.672-7.41,6.638c-1.798,1.966-3.794-0.711-3.794-0.711s-3.119-7.535-10.867-20.436
					c-7.747-12.902-13.196-8.686-13.196-8.686"/>
			</g>
		</g>
		<g>
			<g>
				<g>
					<path style="fill:#E0E0E0;" d="M304.287,455.602c-5.652-9.498-15.415-26.547-23.873-41.141
						c-8.455-14.589-16.122-27.791-21.726-37.317c-2.802-4.752-5.072-8.601-6.648-11.274c-0.779-1.323-1.386-2.354-1.806-3.067
						c-0.199-0.344-0.352-0.61-0.463-0.802c-0.103-0.181-0.148-0.279-0.148-0.279s0.064,0.086,0.176,0.262
						c0.117,0.188,0.279,0.449,0.489,0.786c0.431,0.706,1.055,1.727,1.856,3.037c1.609,2.639,3.909,6.474,6.734,11.224
						c5.653,9.498,13.351,22.683,21.806,37.273c8.458,14.594,18.19,31.66,23.794,41.185"/>
				</g>
			</g>
		</g>
		<g>
			<g>
				<g>
					<path style="fill:#E0E0E0;" d="M254.309,393.294c0.006-0.02,0.257,0.037,0.706,0.159c0.449,0.119,1.094,0.311,1.888,0.556
						c1.587,0.492,3.762,1.228,6.147,2.083c2.349,0.852,4.473,1.622,6.097,2.212c0.734,0.261,1.353,0.481,1.851,0.658
						c0.438,0.154,0.677,0.248,0.671,0.269c-0.006,0.021-0.257-0.035-0.707-0.153c-0.449-0.121-1.094-0.313-1.886-0.566
						c-1.583-0.508-3.747-1.272-6.131-2.127c-2.354-0.835-4.482-1.59-6.111-2.167c-0.736-0.257-1.356-0.475-1.855-0.649
						C254.541,393.411,254.302,393.315,254.309,393.294z"/>
				</g>
			</g>
		</g>
		<g>
			<g>
				<g>
					<path style="fill:#E0E0E0;" d="M272.318,398.558c-0.082-0.025,1.238-4.575,2.947-10.161c1.71-5.588,3.162-10.097,3.244-10.072
						c0.082,0.025-1.237,4.574-2.947,10.163C273.853,394.074,272.4,398.583,272.318,398.558z"/>
				</g>
			</g>
		</g>
		<g>
			<g>
				<g>
					<path style="fill:#E0E0E0;" d="M284.294,421.552c-0.018-0.012,0.117-0.239,0.374-0.637c0.295-0.45,0.663-1.012,1.1-1.678
						c0.927-1.418,2.198-3.382,3.522-5.599c1.329-2.216,2.462-4.263,3.27-5.751c0.381-0.7,0.702-1.29,0.959-1.763
						c0.229-0.415,0.365-0.64,0.384-0.631c0.019,0.01-0.08,0.253-0.276,0.685c-0.196,0.432-0.491,1.052-0.873,1.81
						c-0.76,1.517-1.865,3.587-3.198,5.809c-1.327,2.224-2.632,4.175-3.607,5.563c-0.49,0.692-0.893,1.248-1.183,1.624
						C284.479,421.362,284.312,421.564,284.294,421.552z"/>
				</g>
			</g>
		</g>
		<g>
			<g>
				<g>
					<path style="fill:#E0E0E0;" d="M266.957,420.376c0.001-0.021,0.244-0.028,0.682-0.023c0.504,0.014,1.124,0.032,1.855,0.053
						c1.565,0.058,3.727,0.159,6.113,0.29c2.387,0.131,4.546,0.267,6.109,0.381c0.729,0.06,1.346,0.11,1.849,0.151
						c0.436,0.043,0.677,0.076,0.676,0.098c-0.001,0.021-0.244,0.029-0.682,0.023c-0.504-0.014-1.124-0.032-1.855-0.053
						c-1.565-0.058-3.727-0.159-6.114-0.29c-2.386-0.131-4.545-0.267-6.108-0.381c-0.729-0.06-1.346-0.11-1.849-0.151
						C267.196,420.431,266.955,420.397,266.957,420.376z"/>
				</g>
			</g>
		</g>
		<g>
			<g>
				<g>
					<path style="fill:#E0E0E0;" d="M274.95,442.018c0.001-0.021,0.312-0.028,0.874-0.021c0.619,0.015,1.418,0.035,2.377,0.058
						c2.007,0.063,4.778,0.172,7.837,0.31c3.061,0.139,5.83,0.282,7.834,0.401c0.957,0.064,1.754,0.116,2.373,0.157
						c0.56,0.044,0.869,0.078,0.868,0.1c-0.001,0.021-0.312,0.028-0.873,0.021c-0.619-0.015-1.418-0.035-2.377-0.059
						c-2.007-0.063-4.778-0.171-7.839-0.31c-3.06-0.139-5.829-0.282-7.833-0.401c-0.957-0.063-1.754-0.116-2.372-0.157
						C275.258,442.074,274.949,442.04,274.95,442.018z"/>
				</g>
			</g>
		</g>
		<g>
			<g>
				<g>
					<path style="fill:#E0E0E0;" d="M296.59,442.851c-0.018-0.012,0.144-0.303,0.453-0.819c0.34-0.562,0.784-1.295,1.318-2.178
						c1.111-1.84,2.636-4.387,4.239-7.247c1.609-2.858,2.996-5.483,3.987-7.39c0.477-0.916,0.873-1.676,1.176-2.258
						c0.28-0.532,0.444-0.822,0.463-0.813c0.019,0.009-0.108,0.317-0.354,0.866c-0.247,0.549-0.616,1.337-1.088,2.304
						c-0.942,1.934-2.301,4.58-3.912,7.443c-1.606,2.864-3.163,5.398-4.323,7.21c-0.582,0.905-1.061,1.632-1.403,2.127
						C296.805,442.594,296.608,442.863,296.59,442.851z"/>
				</g>
			</g>
		</g>
	</g>
	<g>
		<g>
			<path style="fill-rule:evenodd;clip-rule:evenodd;fill:#E0E0E0;" d="M561.313,93.345c0.253,2.792,0.123,5.57-0.358,8.266
				l6.068,4.694l-5.357,11.506l-7.498-1.62c-1.753,2.104-3.796,3.992-6.095,5.596l0.971,7.607l-11.924,4.348l-4.154-6.445
				c-2.793,0.253-5.571,0.123-8.267-0.359l-4.694,6.068l-11.506-5.356l1.62-7.498c-2.104-1.754-3.991-3.796-5.595-6.095
				l-7.607,0.971l-4.349-11.923l6.445-4.154c-0.253-2.792-0.123-5.571,0.358-8.267l-6.068-4.694l5.356-11.506l7.499,1.62
				c1.754-2.104,3.795-3.991,6.094-5.596l-0.971-7.607l11.924-4.349l4.154,6.445c2.793-0.253,5.571-0.123,8.267,0.358l4.694-6.068
				l11.506,5.356l-1.62,7.499c2.104,1.753,3.991,3.795,5.595,6.094l7.607-0.971l4.349,11.923L561.313,93.345L561.313,93.345z
				 M543.153,92.025c-2.577-7.064-10.392-10.702-17.456-8.125c-7.064,2.577-10.702,10.392-8.125,17.456
				c2.577,7.064,10.392,10.702,17.456,8.126C542.092,106.905,545.73,99.089,543.153,92.025z"/>
		</g>
		<g>
			<path style="fill-rule:evenodd;clip-rule:evenodd;fill:#EBEBEB;" d="M625.715,133.233c0.2,2.212,0.097,4.413-0.283,6.549
				l4.807,3.719l-4.244,9.116l-5.94-1.284c-1.389,1.667-3.007,3.163-4.828,4.433l0.769,6.026l-9.446,3.445l-3.291-5.105
				c-2.212,0.201-4.414,0.097-6.549-0.284l-3.719,4.807l-9.115-4.243l1.284-5.94c-1.667-1.389-3.162-3.007-4.433-4.828l-6.026,0.769
				l-3.446-9.446l5.106-3.291c-0.201-2.212-0.097-4.413,0.284-6.549l-4.807-3.718l4.243-9.116l5.941,1.284
				c1.389-1.667,3.007-3.162,4.828-4.433l-0.769-6.026l9.446-3.445l3.291,5.106c2.212-0.2,4.413-0.098,6.549,0.284l3.719-4.807
				l9.115,4.243l-1.284,5.941c1.667,1.389,3.162,3.007,4.433,4.828l6.026-0.769l3.445,9.446L625.715,133.233L625.715,133.233z
				 M611.328,132.187c-2.041-5.597-8.233-8.479-13.829-6.437c-5.596,2.041-8.478,8.233-6.437,13.829
				c2.041,5.596,8.233,8.479,13.829,6.437C610.487,143.975,613.369,137.784,611.328,132.187z"/>
		</g>
		<g>
			<path style="fill-rule:evenodd;clip-rule:evenodd;fill:#F5F5F5;" d="M560.678,172.034c0.17,1.881,0.083,3.752-0.241,5.569
				l4.088,3.162l-3.608,7.751l-5.051-1.092c-1.181,1.417-2.557,2.689-4.106,3.77l0.654,5.124l-8.032,2.929l-2.798-4.341
				c-1.881,0.17-3.753,0.082-5.569-0.242l-3.162,4.088l-7.751-3.608l1.091-5.051c-1.417-1.181-2.689-2.557-3.769-4.106l-5.124,0.654
				l-2.93-8.032l4.342-2.799c-0.17-1.881-0.083-3.753,0.241-5.569l-4.088-3.162l3.608-7.751l5.052,1.092
				c1.181-1.417,2.557-2.689,4.105-3.769l-0.654-5.124l8.032-2.93l2.798,4.342c1.881-0.17,3.753-0.083,5.569,0.241l3.162-4.087
				l7.751,3.608l-1.091,5.052c1.417,1.181,2.689,2.557,3.769,4.105l5.125-0.654l2.93,8.032L560.678,172.034L560.678,172.034z
				 M548.444,171.145c-1.736-4.759-7-7.209-11.759-5.474c-4.759,1.736-7.209,7.001-5.473,11.759c1.736,4.759,7,7.209,11.759,5.474
				C547.729,181.168,550.18,175.903,548.444,171.145z"/>
		</g>
	</g>
	<g>
		
			<rect x="224.507" y="289.786" transform="matrix(-1 -1.224647e-16 1.224647e-16 -1 481.0693 583.9615)" style="fill:#E0E0E0;" width="32.056" height="4.389"/>
		
			<rect x="224.507" y="282.363" transform="matrix(-1 -1.224647e-16 1.224647e-16 -1 481.0693 569.1137)" style="fill:#E0E0E0;" width="32.056" height="4.389"/>
		
			<rect x="242.692" y="297.734" transform="matrix(-1 -1.224647e-16 1.224647e-16 -1 499.2543 599.8564)" style="fill:#E0E0E0;" width="13.871" height="4.389"/>
	</g>
</g>
<g id="Background_Simple" style="display:none;">
	<path style="display:inline;fill-rule:evenodd;clip-rule:evenodd;fill:#EBEBEB;" d="M634.767,95.141
		c-15.193-5.656-33.87-0.809-47.007-10.31c-10.296-7.447-13.465-21.103-20.015-31.992c-12.417-20.644-39.565-31.108-62.626-24.139
		c-23.061,6.969-39.87,30.716-38.776,54.782c-0.051,38.39,16.575,62.593,41.997,86.977c22.295,21.385,56.456,27.439,87.006,22.849
		c15.891-2.387,31.597-8.085,43.863-18.465c12.266-10.38,20.741-25.818,20.577-41.886
		C659.622,116.888,649.826,100.747,634.767,95.141z"/>
	<path style="display:inline;fill-rule:evenodd;clip-rule:evenodd;fill:#EBEBEB;" d="M247.407,231.821
		c-7.673-4.188-20.027-3.502-20.027-3.502c-12.718,0.846-24.272,10.559-27.583,22.868c-3.311,12.309,1.668,26.34,11.814,34.055
		c8.872,6.747,21.38,8.541,31.644,4.194c10.263-4.347,19.489-14.931,19.739-26.074C263.311,249.214,257.19,237.161,247.407,231.821z
		"/>
</g>
<g id="Floor">
	<g>
		<path style="fill:#263238;" d="M711.605,456.568c0,0.144-150.715,0.26-336.589,0.26c-185.938,0-336.621-0.117-336.621-0.26
			c0-0.144,150.683-0.26,336.621-0.26C560.89,456.308,711.605,456.424,711.605,456.568z"/>
	</g>
</g>
<g id="Plant">
	<g>
		<g>
			<g>
				<g>
					<path style="fill:#E8505B;" d="M514.823,408.546c-2.383,0.484-4.417,2.161-5.698,4.228c-1.281,2.068-1.872,4.498-2.106,6.919
						c-0.452,4.684,1.167,9.853,3.189,14.102c4.565-2.544,6.696-8.22,7.596-11.167C519.227,417.969,518.969,408.686,514.823,408.546
						"/>
				</g>
			</g>
		</g>
		<g>
			<g>
				<g>
					<path style="fill:#E8505B;" d="M504.129,440.393c1.165-2.454,0.691-5.518-0.918-7.708c-1.609-2.189-4.223-3.526-6.916-3.885
						c-1.245-0.166-2.645-0.09-3.561,0.77c-0.856,0.804-1.062,2.136-0.746,3.267c0.316,1.131,1.076,2.088,1.919,2.905
						C496.801,438.544,500.115,440.725,504.129,440.393"/>
				</g>
			</g>
		</g>
		<g>
			<g>
				<g>
					<g>
						<path style="fill:#263238;" d="M506.092,455.466c0.024,0,0.042-0.345,0.062-0.968c0.019-0.686,0.044-1.573,0.073-2.639
							c0.025-2.213,0.124-5.37-0.899-8.671c-1.002-3.289-2.82-5.941-4.51-7.424c-0.836-0.753-1.599-1.258-2.152-1.554
							c-0.27-0.16-0.499-0.247-0.647-0.319c-0.151-0.067-0.232-0.096-0.237-0.086c-0.043,0.069,1.267,0.603,2.871,2.135
							c1.617,1.501,3.362,4.114,4.349,7.348c1.004,3.234,0.948,6.355,0.984,8.569c0.007,1.114,0.014,2.017,0.035,2.64
							C506.042,455.122,506.069,455.467,506.092,455.466z"/>
					</g>
				</g>
			</g>
		</g>
		<g>
			<g>
				<g>
					<g>
						<path style="fill:#263238;" d="M514.395,415.632c-0.011-0.003-0.057,0.135-0.134,0.4c-0.083,0.301-0.189,0.687-0.32,1.164
							c-0.272,1.012-0.647,2.482-1.095,4.302c-0.896,3.64-2.065,8.686-3.229,14.286c-1.163,5.602-2.101,10.697-2.728,14.393
							c-0.314,1.848-0.556,3.345-0.709,4.382c-0.07,0.49-0.126,0.886-0.17,1.195c-0.035,0.274-0.048,0.418-0.036,0.42
							c0.012,0.002,0.047-0.139,0.104-0.409c0.06-0.306,0.137-0.698,0.233-1.184c0.201-1.072,0.477-2.552,0.816-4.362
							c0.688-3.683,1.663-8.767,2.825-14.366c1.164-5.596,2.293-10.647,3.13-14.3c0.41-1.795,0.746-3.263,0.989-4.326
							c0.106-0.484,0.191-0.875,0.258-1.179C514.383,415.779,514.406,415.635,514.395,415.632z"/>
					</g>
				</g>
			</g>
		</g>
		<g>
			<g>
				<g>
					<path style="fill:#E8505B;" d="M510.202,444.592c2.051-5.348,6.843-9.56,12.41-10.908c1.418-0.343,3.184-0.389,4.039,0.792
						c0.856,1.184,0.253,2.855-0.548,4.077c-3.333,5.084-9.958,7.767-15.89,6.434"/>
				</g>
			</g>
		</g>
		<g>
			<g>
				<g>
					<g>
						<path style="fill:#263238;" d="M521.067,437.89c-0.006-0.023-0.322,0.043-0.893,0.183c-0.286,0.068-0.636,0.153-1.028,0.296
							c-0.392,0.143-0.855,0.265-1.332,0.488c-0.483,0.208-1.019,0.424-1.56,0.727c-0.558,0.271-1.119,0.623-1.708,0.997
							c-1.156,0.776-2.359,1.741-3.462,2.918c-1.092,1.187-1.969,2.456-2.652,3.671c-0.323,0.618-0.632,1.205-0.852,1.785
							c-0.256,0.565-0.424,1.118-0.585,1.619c-0.179,0.496-0.255,0.969-0.358,1.373c-0.105,0.405-0.154,0.761-0.191,1.053
							c-0.08,0.582-0.112,0.904-0.089,0.907c0.076,0.013,0.214-1.284,0.868-3.259c0.174-0.49,0.352-1.031,0.616-1.582
							c0.228-0.567,0.542-1.139,0.866-1.743c0.687-1.186,1.555-2.426,2.627-3.592c1.083-1.155,2.259-2.11,3.387-2.888
							c0.575-0.375,1.122-0.731,1.666-1.009c0.527-0.31,1.051-0.535,1.522-0.755C519.815,438.244,521.087,437.962,521.067,437.89z"
							/>
					</g>
				</g>
			</g>
		</g>
	</g>
</g>
<g id="Gears">
	<g>
		<g>
			<path style="fill-rule:evenodd;clip-rule:evenodd;fill:#E8505B;" d="M294.396,213.317c0.744-1.454,1.672-2.782,2.747-3.96
				l-1.529-4.199l6.216-4.001l3.189,3.13c1.518-0.491,3.111-0.786,4.742-0.861l1.887-4.049l7.225,1.566l0.042,4.466
				c1.454,0.744,2.782,1.672,3.96,2.747l4.199-1.529l4.002,6.216l-3.13,3.189c0.491,1.518,0.786,3.111,0.861,4.742l4.049,1.887
				l-1.566,7.225l-4.466,0.042c-0.744,1.454-1.672,2.782-2.747,3.96l1.529,4.199l-6.216,4.002l-3.189-3.13
				c-1.518,0.491-3.11,0.786-4.742,0.861l-1.887,4.048l-7.225-1.566l-0.042-4.466c-1.454-0.744-2.782-1.672-3.96-2.747l-4.199,1.529
				l-4.001-6.216l3.13-3.19c-0.491-1.518-0.786-3.11-0.861-4.741l-4.049-1.887l1.565-7.225L294.396,213.317L294.396,213.317z
				 M302.93,219.614c-0.928,4.281,1.79,8.503,6.071,9.43c4.281,0.927,8.503-1.79,9.43-6.071c0.928-4.281-1.79-8.503-6.071-9.43
				C308.079,212.616,303.857,215.334,302.93,219.614z"/>
		</g>
		<g>
			<path style="fill-rule:evenodd;clip-rule:evenodd;fill:#E8505B;" d="M282.698,180.406c0.361-0.706,0.811-1.35,1.333-1.922
				l-0.742-2.038l3.017-1.942l1.548,1.519c0.737-0.238,1.51-0.382,2.302-0.418l0.916-1.965l3.507,0.76l0.02,2.167
				c0.706,0.361,1.35,0.812,1.922,1.334l2.038-0.742l1.942,3.017l-1.519,1.548c0.238,0.737,0.381,1.51,0.418,2.302l1.965,0.916
				l-0.76,3.507l-2.168,0.02c-0.361,0.706-0.812,1.35-1.333,1.922l0.742,2.038l-3.017,1.942l-1.548-1.519
				c-0.737,0.238-1.51,0.381-2.301,0.418l-0.916,1.965l-3.507-0.76l-0.02-2.168c-0.706-0.361-1.35-0.811-1.922-1.333l-2.038,0.742
				l-1.942-3.017l1.519-1.548c-0.238-0.737-0.381-1.51-0.418-2.301l-1.965-0.916l0.76-3.507L282.698,180.406L282.698,180.406z
				 M286.84,183.462c-0.45,2.078,0.869,4.127,2.947,4.577c2.078,0.45,4.127-0.869,4.577-2.947c0.45-2.078-0.869-4.127-2.947-4.577
				S287.29,181.385,286.84,183.462z"/>
		</g>
		<g>
			<g>
				<path style="fill:none;" d="M256.334,204.034c0.462-0.904,1.039-1.729,1.708-2.462l-0.951-2.61l3.865-2.488l1.982,1.946
					c0.944-0.305,1.934-0.488,2.948-0.535l1.173-2.517l4.492,0.974l0.026,2.776c0.904,0.462,1.73,1.039,2.462,1.708l2.61-0.951
					l2.488,3.864l-1.946,1.983c0.305,0.944,0.488,1.934,0.535,2.948l2.517,1.173l-0.973,4.492l-2.777,0.026
					c-0.462,0.904-1.039,1.73-1.708,2.462l0.951,2.61l-3.865,2.488l-1.983-1.946c-0.944,0.305-1.934,0.488-2.948,0.535l-1.173,2.517
					l-4.492-0.973l-0.026-2.776c-0.904-0.462-1.729-1.039-2.462-1.708l-2.61,0.951l-2.488-3.864l1.946-1.983
					c-0.305-0.943-0.488-1.934-0.535-2.948l-2.517-1.173l0.973-4.492L256.334,204.034L256.334,204.034z M261.639,207.949
					c-0.577,2.661,1.113,5.286,3.774,5.863c2.661,0.577,5.286-1.113,5.862-3.774c0.577-2.661-1.113-5.286-3.774-5.863
					C264.84,203.598,262.216,205.288,261.639,207.949z"/>
				<g>
					<path style="fill:#263238;" d="M261.639,207.949c-0.018-0.004-0.007-0.112,0.032-0.318c0.034-0.206,0.12-0.506,0.283-0.871
						c0.314-0.721,1.022-1.748,2.34-2.396c1.279-0.657,3.239-0.789,4.913,0.256c1.67,0.983,2.83,3.235,2.323,5.471
						c-0.464,2.247-2.452,3.817-4.38,4.02c-1.957,0.258-3.686-0.674-4.579-1.801c-0.932-1.135-1.151-2.363-1.138-3.149
						c0.002-0.399,0.048-0.708,0.103-0.91C261.587,208.048,261.621,207.945,261.639,207.949c0.05,0.009-0.051,0.438-0.003,1.206
						c0.048,0.754,0.316,1.894,1.216,2.917c0.864,1.018,2.465,1.824,4.234,1.565c1.745-0.212,3.518-1.636,3.936-3.655
						c0.454-2.01-0.569-4.04-2.07-4.955c-1.503-0.968-3.294-0.897-4.501-0.328c-1.243,0.559-1.959,1.486-2.315,2.152
						C261.774,207.529,261.689,207.962,261.639,207.949z"/>
				</g>
				<g>
					<path style="fill:#263238;" d="M256.334,204.034c0.008,0.012-0.225,0.027-0.691,0.046c-0.509,0.016-1.201,0.037-2.086,0.064
						l0.08-0.065c-0.24,1.168-0.551,2.68-0.925,4.502l-0.073-0.148c0.767,0.351,1.617,0.739,2.525,1.154l0.083,0.038l0.005,0.094
						c0.049,0.927,0.219,1.91,0.545,2.902l0.032,0.098l-0.073,0.075c-0.604,0.622-1.257,1.294-1.935,1.993l0.024-0.23
						c0.789,1.214,1.626,2.502,2.504,3.854l-0.242-0.082c0.807-0.297,1.696-0.625,2.607-0.96l0.122-0.045l0.097,0.088
						c0.677,0.615,1.502,1.202,2.419,1.667l0.121,0.061l0.002,0.137c0.01,0.861,0.022,1.81,0.034,2.776l-0.183-0.225
						c1.412,0.303,2.934,0.629,4.494,0.963l-0.271,0.134c0.364-0.785,0.764-1.646,1.168-2.519l0.063-0.136l0.15-0.007
						c0.918-0.043,1.915-0.212,2.882-0.528l0.145-0.047l0.109,0.107c0.622,0.609,1.3,1.273,1.985,1.943l-0.317-0.032
						c1.223-0.789,2.534-1.634,3.862-2.491l-0.103,0.306c-0.301-0.824-0.625-1.714-0.952-2.61l-0.054-0.148l0.106-0.116
						c0.628-0.687,1.21-1.508,1.667-2.403l0.001-0.002c0.458-0.283,0.127-0.078,0.23-0.142h0.001l0.001,0h0.005l0.011,0l0.022,0
						l0.044,0l0.087-0.001l0.175-0.002l0.349-0.003l0.696-0.007c0.463-0.004,0.925-0.008,1.384-0.013l-0.252,0.205
						c0.33-1.518,0.655-3.015,0.975-4.491l0.143,0.288c-0.847-0.396-1.685-0.787-2.516-1.175l-0.141-0.066l-0.007-0.154
						c-0.044-0.99-0.223-1.961-0.52-2.882l-0.047-0.146l0.107-0.109c0.659-0.67,1.308-1.329,1.948-1.98l-0.031,0.308
						c-0.847-1.321-1.674-2.611-2.48-3.869l0.283,0.096c-0.886,0.32-1.757,0.635-2.612,0.945l-0.134,0.048l-0.104-0.095
						c-0.739-0.678-1.554-1.24-2.407-1.68l-0.122-0.063l-0.001-0.136c-0.006-0.952-0.012-1.875-0.017-2.776l0.171,0.21
						c-1.578-0.348-3.068-0.677-4.488-0.99l0.223-0.111c-0.416,0.883-0.807,1.712-1.184,2.511l-0.049,0.103l-0.112,0.005
						c-1.051,0.044-2.018,0.231-2.904,0.511l-0.1,0.032l-0.073-0.072c-0.715-0.711-1.36-1.352-1.97-1.958l0.191,0.02
						c-1.5,0.949-2.781,1.759-3.884,2.456l0.046-0.138c0.365,1.04,0.666,1.898,0.92,2.621l0.017,0.048l-0.034,0.037
						C256.748,203.122,256.382,204.068,256.334,204.034c-0.003-0.006,0.02-0.068,0.066-0.174c0.052-0.111,0.134-0.28,0.257-0.498
						c0.246-0.434,0.646-1.082,1.322-1.846l-0.017,0.085c-0.271-0.717-0.592-1.568-0.982-2.599l-0.033-0.086l0.079-0.052
						c1.092-0.715,2.36-1.546,3.844-2.519l0.102-0.067l0.089,0.087c0.617,0.599,1.27,1.231,1.994,1.933l-0.172-0.041
						c0.91-0.299,1.905-0.503,2.992-0.559l-0.161,0.108c0.37-0.803,0.753-1.636,1.162-2.522l0.066-0.144l0.157,0.033
						c1.422,0.303,2.914,0.62,4.495,0.957l0.169,0.036l0.002,0.174c0.011,0.901,0.023,1.824,0.035,2.776l-0.123-0.198
						c0.891,0.452,1.743,1.034,2.517,1.736l-0.237-0.047c0.854-0.313,1.723-0.632,2.608-0.956l0.179-0.066l0.104,0.161
						c0.811,1.255,1.643,2.542,2.495,3.859l0.107,0.166l-0.139,0.142c-0.639,0.653-1.286,1.314-1.943,1.985l0.06-0.254
						c0.313,0.962,0.502,1.978,0.55,3.014l-0.147-0.22c0.831,0.387,1.67,0.777,2.518,1.171l0.187,0.087l-0.044,0.202
						c-0.319,1.476-0.643,2.974-0.971,4.492l-0.044,0.203l-0.208,0.002c-0.459,0.004-0.921,0.009-1.384,0.013l-0.696,0.007
						l-0.349,0.003l-0.175,0.002l-0.087,0.001l-0.044,0l-0.022,0l-0.011,0l-0.006,0h-0.001h-0.001
						c0.102-0.063-0.229,0.142,0.229-0.142l-0.001,0.003c-0.478,0.938-1.089,1.798-1.746,2.516l0.052-0.264
						c0.326,0.896,0.65,1.786,0.949,2.611l0.071,0.195l-0.174,0.112c-1.33,0.855-2.642,1.698-3.866,2.484l-0.172,0.11l-0.145-0.143
						c-0.683-0.672-1.36-1.338-1.98-1.948l0.254,0.06c-1.011,0.327-2.055,0.501-3.014,0.543l0.213-0.143
						c-0.408,0.871-0.811,1.731-1.178,2.515l-0.082,0.176l-0.189-0.041c-1.558-0.341-3.079-0.674-4.489-0.983l-0.182-0.04
						l-0.001-0.185c-0.006-0.966-0.013-1.915-0.018-2.776l0.122,0.198c-0.952-0.489-1.806-1.105-2.505-1.749l0.219,0.043
						c-0.913,0.329-1.804,0.65-2.614,0.941l-0.155,0.056l-0.088-0.137c-0.867-1.359-1.692-2.654-2.471-3.875l-0.08-0.126
						l0.104-0.105c0.686-0.692,1.346-1.357,1.956-1.973l-0.041,0.172c-0.325-1.026-0.487-2.04-0.525-2.993l0.088,0.131
						c-0.902-0.429-1.746-0.83-2.508-1.192l-0.097-0.046l0.023-0.102c0.413-1.814,0.756-3.318,1.021-4.481l0.015-0.066l0.066,0.001
						c0.87,0.01,1.551,0.019,2.052,0.025c0.214,0.006,0.39,0.011,0.536,0.015C256.266,204.022,256.33,204.028,256.334,204.034z"/>
				</g>
			</g>
		</g>
		<g style="opacity:0.8;">
			<path style="fill-rule:evenodd;clip-rule:evenodd;fill:#FFFFFF;" d="M294.396,213.317c0.744-1.454,1.672-2.782,2.747-3.96
				l-1.529-4.199l6.216-4.001l3.189,3.13c1.518-0.491,3.111-0.786,4.742-0.861l1.887-4.049l7.225,1.566l0.042,4.466
				c1.454,0.744,2.782,1.672,3.96,2.747l4.199-1.529l4.002,6.216l-3.13,3.189c0.491,1.518,0.786,3.111,0.861,4.742l4.049,1.887
				l-1.566,7.225l-4.466,0.042c-0.744,1.454-1.672,2.782-2.747,3.96l1.529,4.199l-6.216,4.002l-3.189-3.13
				c-1.518,0.491-3.11,0.786-4.742,0.861l-1.887,4.048l-7.225-1.566l-0.042-4.466c-1.454-0.744-2.782-1.672-3.96-2.747l-4.199,1.529
				l-4.001-6.216l3.13-3.19c-0.491-1.518-0.786-3.11-0.861-4.741l-4.049-1.887l1.565-7.225L294.396,213.317L294.396,213.317z
				 M302.93,219.614c-0.928,4.281,1.79,8.503,6.071,9.43c4.281,0.927,8.503-1.79,9.43-6.071c0.928-4.281-1.79-8.503-6.071-9.43
				C308.079,212.616,303.857,215.334,302.93,219.614z"/>
		</g>
	</g>
</g>
<g id="Platform">
	<g>
		<g>
			<g>
				<path style="fill:#E8505B;" d="M476.44,205.785c-1.792-20.136-8.806-40.271-22.47-55.169
					c-13.664-14.899-34.508-23.842-54.444-20.486c-19.935,3.357-37.579,20.4-38.924,40.571c-0.714,10.706,2.861,21.34,2.267,32.054
					c-1.026,18.516-14.286,34.184-29.153,45.269c-12.81,9.551-26.612,12.976-35.798,26.05
					c-16.466,23.434-13.725,50.441-3.992,66.594c3.346,5.552,8.826,10.769,15.397,15.224c18.872,12.796,42.479,16.097,64.573,10.463
					c34.299-8.746,65.253-30.38,83.091-58.448C477.714,275.295,479.385,238.862,476.44,205.785z"/>
				<g style="opacity:0.8;">
					<path style="fill:#FFFFFF;" d="M476.44,205.785c-1.792-20.136-8.806-40.271-22.47-55.169
						c-13.664-14.899-34.508-23.842-54.444-20.486c-19.935,3.357-37.579,20.4-38.924,40.571c-0.714,10.706,2.861,21.34,2.267,32.054
						c-1.026,18.516-14.286,34.184-29.153,45.269c-12.81,9.551-26.612,12.976-35.798,26.05
						c-16.466,23.434-13.725,50.441-3.992,66.594c3.346,5.552,8.826,10.769,15.397,15.224
						c18.872,12.796,42.479,16.097,64.573,10.463c34.299-8.746,65.253-30.38,83.091-58.448
						C477.714,275.295,479.385,238.862,476.44,205.785z"/>
				</g>
			</g>
			<circle style="fill-rule:evenodd;clip-rule:evenodd;fill:#E8505B;" cx="332.151" cy="347.945" r="1.421"/>
			<circle style="fill-rule:evenodd;clip-rule:evenodd;fill:#E8505B;" cx="354.752" cy="372.349" r="0.753"/>
			<g>
				<path style="fill:#E8505B;" d="M404.206,376.724c-5.116,2.098-10.972,9.435-11.387,15.203
					c-0.414,5.768,2.634,11.508,7.285,14.945c4.651,3.437,10.707,4.688,16.456,4.065c4.107-0.445,8.275-1.909,11.061-4.959
					c3.077-3.37,4.051-8.251,3.598-12.791c-0.623-6.25-3.897-12.32-9.152-15.759C416.812,373.988,409.596,373.498,404.206,376.724"
					/>
				<g style="opacity:0.8;">
					<path style="fill:#FFFFFF;" d="M404.206,376.724c-5.116,2.098-10.972,9.435-11.387,15.203
						c-0.414,5.768,2.634,11.508,7.285,14.945c4.651,3.437,10.707,4.688,16.456,4.065c4.107-0.445,8.275-1.909,11.061-4.959
						c3.077-3.37,4.051-8.251,3.598-12.791c-0.623-6.25-3.897-12.32-9.152-15.759C416.812,373.988,409.596,373.498,404.206,376.724"
						/>
				</g>
			</g>
			<path style="fill-rule:evenodd;clip-rule:evenodd;fill:#E8505B;" d="M444.023,265.925c0,1.415-1.147,2.563-2.562,2.563
				c-1.415,0-2.563-1.147-2.563-2.563c0-1.415,1.147-2.562,2.563-2.562C442.876,263.362,444.023,264.509,444.023,265.925z"/>
			<circle style="fill-rule:evenodd;clip-rule:evenodd;fill:#E8505B;" cx="402.918" cy="169.722" r="1.421"/>
		</g>
		<g>
			<path style="fill:#FAFAFA;" d="M437.332,430.277c0,1.67-24.737,3.024-55.252,3.024c-30.515,0-55.252-1.354-55.252-3.024
				c0-1.67,24.737-3.024,55.252-3.024C412.595,427.253,437.332,428.607,437.332,430.277z"/>
			<path style="fill:#263238;" d="M298.301,456.561l12.621-26.031h139.211l16.59,25.967
				C466.723,456.497,298.301,458.249,298.301,456.561"/>
			<g>
				<path style="fill:#455A64;" d="M384.765,456.987c-0.116,0-0.21-5.053-0.21-11.284c0-6.234,0.094-11.285,0.21-11.285
					s0.21,5.052,0.21,11.285C384.975,451.935,384.881,456.987,384.765,456.987z"/>
			</g>
			<g>
				<path style="fill:#455A64;" d="M455.512,440.773c0.001,0.012-0.181,0.041-0.532,0.085c-0.384,0.044-0.897,0.102-1.543,0.175
					c-1.385,0.141-3.338,0.34-5.77,0.589c-4.958,0.473-11.863,1.132-19.813,1.89l0.154-0.095c-1.323,2.136-2.714,4.382-4.146,6.692
					l-0.06,0.097l-0.114,0.002c-0.516,0.011-1.071,0.022-1.629,0.034c-10.283,0.189-19.59,0.361-26.37,0.486
					c-3.347,0.042-6.068,0.075-7.992,0.099c-0.916,0.002-1.642,0.004-2.173,0.006c-0.227-0.004-0.413-0.007-0.565-0.009
					c-0.127-0.004-0.193-0.01-0.193-0.017c0-0.007,0.065-0.016,0.192-0.025c0.152-0.009,0.337-0.02,0.564-0.033
					c0.532-0.021,1.256-0.049,2.172-0.084c1.924-0.056,4.644-0.135,7.989-0.232c6.78-0.156,16.085-0.371,26.368-0.608
					c0.558-0.012,1.114-0.023,1.63-0.034l-0.173,0.099c1.435-2.308,2.83-4.551,4.157-6.685l0.054-0.086l0.1-0.009
					c7.956-0.7,14.864-1.307,19.826-1.743c2.437-0.198,4.394-0.357,5.781-0.47c0.649-0.045,1.164-0.081,1.549-0.108
					C455.327,440.766,455.511,440.761,455.512,440.773z"/>
			</g>
			<g>
				<path style="fill:#455A64;" d="M442.932,441.926c-0.115,0.018-0.54-2.109-0.951-4.75c-0.411-2.642-0.651-4.797-0.537-4.815
					c0.114-0.018,0.54,2.109,0.951,4.751C442.806,439.752,443.046,441.908,442.932,441.926z"/>
			</g>
			<g>
				<path style="fill:#455A64;" d="M331.338,457.295c-0.018,0.004-0.093-0.141-0.219-0.416c-0.139-0.32-0.312-0.719-0.523-1.202
					c-0.45-1.096-1.056-2.572-1.779-4.331l0.151,0.096c-2.76-0.207-6.031-0.452-9.544-0.716c-4.854-0.378-9.245-0.737-12.422-1.014
					c-1.534-0.141-2.802-0.257-3.759-0.344c-0.887-0.089-1.376-0.148-1.373-0.17c0.003-0.022,0.497-0.005,1.389,0.044
					c0.961,0.061,2.233,0.143,3.773,0.242c3.184,0.218,7.58,0.542,12.434,0.919c3.51,0.283,6.78,0.546,9.537,0.768l0.118,0.009
					l0.032,0.087c0.664,1.772,1.223,3.261,1.637,4.365c0.173,0.492,0.315,0.898,0.43,1.224
					C331.314,457.138,331.356,457.291,331.338,457.295z"/>
			</g>
			<g>
				<path style="fill:#455A64;" d="M384.765,440.773c0,0.006-0.056,0.013-0.164,0.019c-0.131,0.005-0.29,0.011-0.483,0.019
					c-0.457,0.009-1.079,0.021-1.865,0.036c-1.659,0.015-4.01,0.036-6.928,0.062c-5.921,0.018-14.134,0.043-23.467,0.071
					l0.073-0.013c-2.051,0.771-4.189,1.576-6.371,2.397c-1.183,0.444-2.354,0.884-3.455,1.297l-0.048,0.018l-0.051-0.006
					c-10.025-1.241-18.95-2.345-25.409-3.145c-3.186-0.413-5.761-0.747-7.578-0.982c-0.864-0.121-1.546-0.216-2.046-0.285
					c-0.213-0.034-0.387-0.061-0.529-0.084c-0.119-0.021-0.179-0.035-0.178-0.042c0.001-0.007,0.063-0.006,0.183,0.002
					c0.144,0.012,0.319,0.027,0.534,0.045c0.502,0.052,1.187,0.122,2.055,0.211c1.82,0.205,4.401,0.495,7.593,0.855
					c6.463,0.766,15.394,1.823,25.425,3.011l-0.098,0.012c1.101-0.414,2.271-0.854,3.454-1.299c2.183-0.819,4.322-1.621,6.373-2.391
					l0.035-0.013l0.037,0c9.333,0.028,17.547,0.053,23.467,0.071c2.918,0.026,5.269,0.047,6.928,0.062
					c0.786,0.015,1.407,0.027,1.865,0.036c0.193,0.008,0.352,0.014,0.483,0.019C384.709,440.76,384.765,440.766,384.765,440.773z"/>
			</g>
		</g>
	</g>
	<g>
		<rect x="456.453" y="230.315" style="fill:#E8505B;" width="32.056" height="4.389"/>
		<rect x="456.453" y="238.263" style="fill:#E8505B;" width="13.871" height="4.389"/>
	</g>
</g>
<g id="Robot_3">
	<g>
		<g>
			<g>
				<g>
					<path style="fill:#263238;" d="M655.768,239.773c-0.006-0.007,0.063-0.071,0.203-0.19c0.166-0.136,0.374-0.307,0.633-0.52
						c0.144-0.115,0.302-0.24,0.474-0.376c0.193-0.116,0.401-0.242,0.625-0.377c0.228-0.137,0.473-0.283,0.732-0.438
						c0.28-0.124,0.576-0.255,0.889-0.393c2.474-1.141,6.692-1.741,11.396-0.196c2.32,0.785,4.786,2.048,6.883,4.069
						c2.113,2,3.801,4.702,4.838,7.792c2.102,6.192,1.561,13.789-1.466,20.641c-3.069,6.878-7.865,12.333-12.405,16.887
						c-4.586,4.555-9.001,8.333-12.507,11.715c-3.531,3.357-6.191,6.27-7.902,8.388c-0.863,1.053-1.505,1.894-1.929,2.473
						c-0.201,0.267-0.363,0.482-0.491,0.652c-0.113,0.145-0.175,0.217-0.182,0.212c-0.007-0.005,0.04-0.087,0.138-0.243
						c0.118-0.179,0.266-0.404,0.449-0.683c0.397-0.599,1.014-1.462,1.856-2.538c1.667-2.164,4.299-5.128,7.805-8.527
						c3.482-3.423,7.875-7.234,12.423-11.788c4.504-4.555,9.243-9.976,12.269-16.759c2.981-6.744,3.521-14.214,1.488-20.277
						c-1.002-3.027-2.639-5.674-4.681-7.632c-2.03-1.985-4.435-3.241-6.703-4.033c-4.599-1.559-8.742-1.033-11.201,0.034
						C656.891,238.707,655.824,239.861,655.768,239.773z"/>
				</g>
				<path style="fill:#E8505B;" d="M573.046,404.204v-31.832c0-11.284,7.555-18.933,16.95-19.05l97.085-1.211
					c6.503-0.081,11.818,5.168,11.818,11.672v39.834L573.046,404.204z"/>
				<rect x="647.675" y="362.01" style="fill:#FAFAFA;" width="39.329" height="18.385"/>
				<g>
					<path style="fill:#263238;" d="M635.341,403.434c-0.144,0-0.26-11.262-0.26-25.152c0-13.894,0.117-25.154,0.26-25.154
						c0.144,0,0.26,11.26,0.26,25.154C635.601,392.171,635.485,403.434,635.341,403.434z"/>
				</g>
				<g>
					<path style="fill:#263238;" d="M635.737,337.879c-0.012-0.026,0.317-0.216,0.956-0.463c0.637-0.249,1.605-0.512,2.831-0.627
						c2.411-0.253,6.058,0.336,8.965,2.849c2.887,2.538,3.966,6.072,4.044,8.495c0.053,1.23-0.075,2.224-0.236,2.89
						c-0.157,0.666-0.301,1.018-0.328,1.009c-0.112-0.019,0.394-1.48,0.196-3.874c-0.168-2.348-1.269-5.711-4.019-8.127
						c-2.768-2.394-6.249-3.027-8.597-2.874C637.15,337.287,635.771,337.988,635.737,337.879z"/>
				</g>
				<polygon style="fill:#E8505B;" points="587.559,353.545 635.341,224.971 669.882,241.368 629.352,362.01 				"/>
				<g>
					
						<ellipse transform="matrix(0.7868 -0.6173 0.6173 0.7868 -107.9809 450.7231)" style="opacity:0.4;" cx="598.368" cy="381.649" rx="19.177" ry="19.176"/>
					
						<ellipse transform="matrix(0.4161 -0.9093 0.9093 0.4161 10.5123 764.7056)" style="fill:#263238;" cx="600.728" cy="374.167" rx="19.728" ry="19.728"/>
					<path style="fill:#455A64;" d="M607.592,377.192c-1.671,3.791-6.098,5.51-9.889,3.839c-3.791-1.671-5.51-6.099-3.839-9.889
						c1.671-3.791,6.098-5.51,9.889-3.839C607.544,368.974,609.263,373.401,607.592,377.192z"/>
				</g>
				<g>
					<path style="fill:#263238;" d="M607.992,357.684c-0.017-0.006,0.067-0.281,0.241-0.798c0.195-0.56,0.457-1.311,0.786-2.254
						c0.721-1.998,1.735-4.806,2.981-8.255c2.58-6.995,6.114-16.579,10.018-27.166c2.604-6.968,5.046-13.501,7.122-19.057
						l0.138,0.292c-5.792-2.046-10.636-3.757-14.086-4.975c-1.659-0.602-2.981-1.082-3.937-1.429
						c-0.421-0.16-0.762-0.29-1.032-0.393c-0.232-0.093-0.35-0.146-0.346-0.158c0.004-0.011,0.13,0.02,0.369,0.09
						c0.276,0.086,0.624,0.195,1.054,0.329c0.966,0.318,2.302,0.759,3.978,1.311c3.465,1.175,8.33,2.825,14.147,4.798l0.218,0.074
						l-0.081,0.218c-2.057,5.563-4.477,12.104-7.057,19.081c-3.96,10.566-7.545,20.132-10.161,27.113
						c-1.31,3.425-2.377,6.213-3.136,8.197c-0.367,0.929-0.659,1.668-0.877,2.22C608.126,357.427,608.009,357.69,607.992,357.684z"
						/>
				</g>
				<g>
					<path style="fill:#263238;" d="M652.382,295.102c-0.053,0.134-8.507-3.091-18.88-7.202c-10.377-4.113-18.743-7.554-18.69-7.687
						c0.053-0.134,8.505,3.091,18.882,7.203C644.067,291.526,652.435,294.968,652.382,295.102z"/>
				</g>
				<g>
					<path style="fill:#263238;" d="M610.584,393.152c-0.026-0.034,0.48-0.455,1.366-1.243c0.889-0.785,2.131-1.972,3.546-3.547
						c2.85-3.13,6.195-7.997,8.896-13.876c2.707-5.879,4.45-11.5,5.708-15.554c0.602-1.973,1.099-3.599,1.47-4.815
						c0.166-0.518,0.304-0.949,0.418-1.305c0.101-0.297,0.162-0.45,0.18-0.445c0.017,0.005-0.01,0.168-0.079,0.474
						c-0.088,0.363-0.195,0.802-0.323,1.331c-0.293,1.153-0.732,2.817-1.312,4.865c-1.17,4.085-2.862,9.746-5.589,15.669
						c-2.721,5.923-6.152,10.813-9.097,13.905c-1.462,1.557-2.753,2.711-3.686,3.453c-0.457,0.384-0.842,0.644-1.093,0.831
						C610.734,393.077,610.595,393.166,610.584,393.152z"/>
				</g>
				<g>
					<path style="fill:#263238;" d="M585.472,382.418c-0.005,0.017-0.122-0.006-0.344-0.068c-0.216-0.075-0.538-0.195-0.907-0.434
						c-0.743-0.456-1.694-1.398-2.291-2.867c-0.615-1.466-0.74-3.388-0.511-5.421c0.232-2.035,0.618-4.239,1.119-6.54
						c1.008-4.601,2.406-8.643,3.578-11.491c0.58-1.428,1.111-2.556,1.486-3.331c0.387-0.77,0.616-1.187,0.649-1.172
						c0.033,0.015-0.135,0.462-0.464,1.255c-0.318,0.798-0.795,1.945-1.328,3.382c-1.079,2.869-2.412,6.899-3.412,11.468
						c-0.91,4.538-1.905,8.851-0.774,11.715c0.524,1.413,1.384,2.345,2.062,2.834C585.017,382.25,585.491,382.369,585.472,382.418z"
						/>
				</g>
			</g>
			<g>
				<g>
					<g>
						<circle style="fill:#455A64;" cx="578.074" cy="429.999" r="17.383"/>
					</g>
					<g>
						<circle style="fill:#263238;" cx="578.074" cy="429.999" r="5.958"/>
					</g>
				</g>
				<g>
					<g>
						<circle style="fill:#455A64;" cx="635.177" cy="430.458" r="17.383"/>
					</g>
					<g>
						<circle style="fill:#263238;" cx="635.177" cy="430.458" r="5.958"/>
					</g>
				</g>
				<g>
					<g>
						<circle style="fill:#455A64;" cx="692.727" cy="430.458" r="17.383"/>
					</g>
					<g>
						<circle style="fill:#263238;" cx="692.727" cy="430.458" r="5.958"/>
					</g>
				</g>
				<g>
					<path style="fill:#263238;" d="M693.353,456.382H577.679c-14.547,0-26.382-11.835-26.382-26.382
						c0-14.547,11.836-26.383,26.382-26.383h115.674c14.547,0,26.382,11.836,26.382,26.383
						C719.735,444.547,707.9,456.382,693.353,456.382z M577.679,412.265c-9.779,0-17.734,7.955-17.734,17.734
						c0,9.778,7.955,17.734,17.734,17.734h115.674c9.779,0,17.734-7.955,17.734-17.734c0-9.779-7.955-17.734-17.734-17.734H577.679z
						"/>
				</g>
				<g>
					<g>
						<g>
							<path style="fill:#455A64;" d="M635.177,412.249c-0.086,0-0.156-1.894-0.156-4.231c0-2.337,0.07-4.231,0.156-4.231
								s0.156,1.894,0.156,4.231C635.334,410.354,635.264,412.249,635.177,412.249z"/>
						</g>
						<g>
							<path style="fill:#455A64;" d="M656.859,412.249c-0.086,0-0.156-1.894-0.156-4.231c0-2.337,0.07-4.231,0.156-4.231
								c0.086,0,0.156,1.894,0.156,4.231C657.016,410.354,656.946,412.249,656.859,412.249z"/>
						</g>
						<g>
							<path style="fill:#455A64;" d="M678.541,412.249c-0.086,0-0.156-1.894-0.156-4.231c0-2.337,0.07-4.231,0.156-4.231
								s0.156,1.894,0.156,4.231C678.698,410.354,678.628,412.249,678.541,412.249z"/>
						</g>
						<g>
							<path style="fill:#455A64;" d="M698.685,413.075c-0.082-0.025,0.401-1.858,1.079-4.094c0.679-2.237,1.296-4.029,1.378-4.004
								c0.083,0.025-0.401,1.858-1.079,4.094C699.385,411.308,698.768,413.1,698.685,413.075z"/>
						</g>
						<g>
							<path style="fill:#455A64;" d="M710.11,423.938c-0.039-0.077,1.616-1.001,3.696-2.064c2.081-1.064,3.8-1.863,3.839-1.786
								c0.039,0.077-1.616,1.001-3.697,2.065C711.868,423.216,710.149,424.015,710.11,423.938z"/>
						</g>
					</g>
					<g>
						<g>
							<path style="fill:#455A64;" d="M634.11,448.106c0.086,0,0.156,1.894,0.156,4.231c0,2.337-0.07,4.231-0.156,4.231
								s-0.156-1.894-0.156-4.231C633.954,450,634.024,448.106,634.11,448.106z"/>
						</g>
						<g>
							<path style="fill:#455A64;" d="M655.792,447.841c0.086,0,0.156,1.895,0.156,4.231c0,2.337-0.07,4.231-0.156,4.231
								s-0.156-1.894-0.156-4.231C655.636,449.735,655.706,447.841,655.792,447.841z"/>
						</g>
						<g>
							<path style="fill:#455A64;" d="M677.474,447.841c0.086,0,0.156,1.895,0.156,4.231c0,2.337-0.07,4.231-0.156,4.231
								c-0.086,0-0.156-1.894-0.156-4.231C677.318,449.735,677.388,447.841,677.474,447.841z"/>
						</g>
						<g>
							<path style="fill:#455A64;" d="M697.618,447.28c0.083-0.025,0.7,1.767,1.378,4.003c0.679,2.236,1.162,4.069,1.079,4.094
								c-0.083,0.025-0.7-1.767-1.378-4.004C698.019,449.138,697.535,447.305,697.618,447.28z"/>
						</g>
						<g>
							<path style="fill:#455A64;" d="M709.638,437.304c0.039-0.077,1.758,0.723,3.839,1.786c2.081,1.063,3.736,1.988,3.697,2.064
								c-0.039,0.077-1.758-0.723-3.839-1.786C711.254,438.305,709.599,437.381,709.638,437.304z"/>
						</g>
					</g>
				</g>
				<g>
					<g>
						<g>
							<path style="fill:#455A64;" d="M614.475,448.106c0.086,0,0.156,1.894,0.156,4.231c0,2.337-0.07,4.231-0.156,4.231
								s-0.156-1.894-0.156-4.231C614.318,450,614.388,448.106,614.475,448.106z"/>
						</g>
						<g>
							<path style="fill:#455A64;" d="M592.793,448.106c0.086,0,0.156,1.894,0.156,4.231c0,2.337-0.07,4.231-0.156,4.231
								c-0.086,0-0.156-1.894-0.156-4.231C592.637,450,592.706,448.106,592.793,448.106z"/>
						</g>
						<g>
							<path style="fill:#455A64;" d="M572.649,447.28c0.083,0.025-0.401,1.858-1.079,4.094c-0.679,2.236-1.296,4.029-1.378,4.004
								c-0.083-0.025,0.4-1.858,1.079-4.094C571.949,449.047,572.566,447.254,572.649,447.28z"/>
						</g>
						<g>
							<path style="fill:#455A64;" d="M561.224,436.417c0.039,0.077-1.616,1.001-3.696,2.064c-2.081,1.064-3.8,1.863-3.839,1.786
								c-0.039-0.077,1.615-1.001,3.697-2.064C559.466,437.139,561.185,436.34,561.224,436.417z"/>
						</g>
					</g>
					<g>
						<g>
							<path style="fill:#455A64;" d="M615.542,412.514c-0.086,0-0.156-1.894-0.156-4.231c0-2.337,0.07-4.231,0.156-4.231
								s0.156,1.894,0.156,4.231C615.698,410.62,615.628,412.514,615.542,412.514z"/>
						</g>
						<g>
							<path style="fill:#455A64;" d="M593.86,412.514c-0.086,0-0.156-1.894-0.156-4.231c0-2.337,0.07-4.231,0.156-4.231
								c0.086,0,0.156,1.894,0.156,4.231C594.016,410.62,593.946,412.514,593.86,412.514z"/>
						</g>
						<g>
							<path style="fill:#455A64;" d="M573.716,413.075c-0.083,0.025-0.7-1.768-1.378-4.003c-0.679-2.237-1.162-4.069-1.079-4.094
								c0.083-0.025,0.7,1.767,1.378,4.004C573.315,411.217,573.799,413.05,573.716,413.075z"/>
						</g>
						<g>
							<path style="fill:#455A64;" d="M561.696,423.051c-0.039,0.077-1.758-0.723-3.839-1.786c-2.081-1.064-3.736-1.988-3.697-2.065
								c0.039-0.077,1.758,0.723,3.839,1.786C560.08,422.05,561.735,422.974,561.696,423.051z"/>
						</g>
					</g>
				</g>
			</g>
			<g>
				<polygon style="fill:#E0E0E0;" points="528.757,279.154 593.624,253.053 597.324,267.01 535.358,293.97 				"/>
				<polygon style="fill:#E8505B;" points="645.375,257.753 599.639,275.89 588.919,247.165 640.719,225.478 				"/>
				<polygon style="fill:#E0E0E0;" points="661.729,236.907 690.317,225.004 685.611,213.18 657.86,224.386 				"/>
				<g>
					<circle style="opacity:0.4;" cx="647.495" cy="248.459" r="18.023"/>
					<path style="fill:#263238;" d="M661.124,226.174c6.943,7.527,6.469,19.257-1.058,26.2c-7.527,6.943-19.257,6.469-26.2-1.058
						c-6.943-7.527-6.469-19.257,1.058-26.2C642.452,218.173,654.182,218.647,661.124,226.174z"/>
					<path style="fill:#455A64;" d="M652.677,233.965c2.64,2.862,2.46,7.322-0.402,9.962c-2.862,2.64-7.322,2.46-9.962-0.402
						c-2.64-2.862-2.46-7.322,0.402-9.962C645.577,230.923,650.038,231.103,652.677,233.965z"/>
				</g>
				<g>
					<path style="fill:#263238;" d="M594.586,243.327c0.021-0.019,0.288,0.229,0.763,0.707c0.526,0.543,1.198,1.236,2.012,2.077
						c1.758,1.87,4.127,4.392,6.873,7.313l-0.271-0.062c1.959-0.78,4.091-1.628,6.313-2.512c5.332-2.108,10.168-3.99,13.679-5.327
						c1.695-0.634,3.098-1.159,4.167-1.559c0.988-0.357,1.541-0.539,1.554-0.506c0.013,0.033-0.514,0.279-1.48,0.694
						c-1.053,0.439-2.436,1.016-4.106,1.713c-3.476,1.425-8.291,3.361-13.623,5.469c-2.225,0.874-4.36,1.714-6.323,2.485
						l-0.159,0.062l-0.113-0.124c-2.691-2.972-5.013-5.537-6.735-7.44c-0.772-0.88-1.409-1.605-1.908-2.173
						C594.791,243.632,594.565,243.346,594.586,243.327z"/>
				</g>
				<polygon style="fill:#E8505B;" points="481.033,291.285 526.825,271.849 539.87,298.861 492.403,319.328 				"/>
				<g>
					
						<ellipse transform="matrix(0.2331 -0.9725 0.9725 0.2331 81.8555 711.1398)" style="opacity:0.4;" cx="491.785" cy="303.674" rx="14.804" ry="14.804"/>
					
						<ellipse transform="matrix(0.3037 -0.9528 0.9528 0.3037 46.8863 676.0818)" style="fill:#263238;" cx="485.977" cy="305.964" rx="15.841" ry="15.841"/>
					<path style="fill:#455A64;" d="M483.632,300.416c3.064-1.295,6.598,0.139,7.893,3.203c1.295,3.064-0.139,6.598-3.203,7.893
						c-3.064,1.295-6.598-0.139-7.893-3.203C479.134,305.245,480.568,301.711,483.632,300.416z"/>
				</g>
				<g>
					<path style="fill:#263238;" d="M510.156,311.673c-0.029,0.004-0.112-0.395-0.24-1.134c-0.131-0.823-0.301-1.884-0.507-3.175
						c-0.407-2.806-0.956-6.599-1.59-10.97l-0.028-0.191l0.181-0.074c1.761-0.717,3.66-1.491,5.626-2.292
						c5.511-2.234,10.511-4.229,14.14-5.65c1.756-0.675,3.208-1.234,4.307-1.657c1.021-0.38,1.592-0.575,1.606-0.542
						c0.013,0.033-0.532,0.291-1.53,0.729c-1.083,0.462-2.514,1.072-4.245,1.81c-3.593,1.508-8.571,3.557-14.083,5.791
						c-1.969,0.794-3.871,1.561-5.634,2.272l0.153-0.265c0.561,4.381,1.047,8.183,1.407,10.995c0.147,1.299,0.268,2.367,0.362,3.195
						C510.159,311.263,510.185,311.669,510.156,311.673z"/>
				</g>
			</g>
		</g>
		<g>
			
				<rect x="450.192" y="309.745" transform="matrix(0.1687 0.9857 -0.9857 0.1687 685.9877 -182.4132)" style="fill:#263238;" width="1.895" height="11.491"/>
			<polygon style="fill:#263238;" points="478.18,303.892 471.524,305.031 470.945,301.645 468.376,302.084 469.135,306.522 
				464.465,307.321 464.844,309.54 466.343,318.297 471.014,317.498 471.733,321.701 474.01,321.311 473.55,318.626 
				480.498,317.437 			"/>
			
				<rect x="454.741" y="310.398" transform="matrix(0.9857 -0.1687 0.1687 0.9857 -46.3662 82.1181)" style="fill:#455A64;" width="10.78" height="7.108"/>
		</g>
	</g>
</g>
<g id="Robot_2">
	<g>
		<g>
			<path style="fill:#E8505B;" d="M386.26,244.902c0,0-45.99-1.488-45.99,22.968c0.001,27.73,9.139,79.689,45.99,79.151
				c36.85-0.539,43.616-73.397,44.031-76.645C430.29,270.376,432.214,247.027,386.26,244.902z"/>
			<g>
				<path style="fill:#263238;" d="M429.186,264.063c0.005,0.008-0.059,0.058-0.189,0.148c-0.157,0.106-0.348,0.234-0.583,0.392
					c-0.512,0.346-1.29,0.819-2.309,1.4c-2.042,1.151-5.099,2.667-9.07,4.038c-3.965,1.377-8.841,2.591-14.343,3.331
					c-5.5,0.756-11.608,1.039-18.002,0.994c-6.393-0.081-12.493-0.221-18.01-0.908c-5.513-0.668-10.401-1.994-14.234-3.733
					c-3.848-1.72-6.621-3.769-8.362-5.338c-0.867-0.794-1.498-1.453-1.904-1.918c-0.182-0.216-0.331-0.392-0.453-0.537
					c-0.1-0.123-0.148-0.188-0.141-0.194c0.007-0.006,0.068,0.048,0.181,0.159c0.132,0.135,0.293,0.299,0.49,0.5
					c0.429,0.44,1.08,1.073,1.961,1.837c1.77,1.511,4.548,3.492,8.377,5.153c3.816,1.679,8.662,2.955,14.144,3.594
					c5.48,0.657,11.575,0.783,17.955,0.864c6.379,0.045,12.46-0.223,17.935-0.949c5.477-0.71,10.33-1.879,14.288-3.204
					c3.964-1.319,7.027-2.776,9.092-3.867c1.03-0.552,1.823-0.995,2.351-1.311c0.245-0.14,0.445-0.254,0.609-0.347
					C429.107,264.091,429.181,264.055,429.186,264.063z"/>
			</g>
			<g>
				<path style="fill:#263238;" d="M401.39,273.297c0.018-0.001,0.04,0.235,0.065,0.686c0.028,0.45,0.047,1.115,0.044,1.972
					c-0.017,1.71-0.097,4.211-0.763,7.221c-0.331,1.502-0.831,3.124-1.569,4.782c-0.736,1.653-1.694,3.368-3.029,4.928
					c-1.31,1.573-2.973,2.988-4.91,4.101c-0.976,0.544-2.025,0.997-3.127,1.348c-1.109,0.33-2.274,0.53-3.464,0.584
					c-2.385,0.079-4.715-0.535-6.671-1.623c-1.966-1.079-3.596-2.548-4.881-4.139c-2.609-3.202-3.716-6.853-4.253-9.856
					c-0.516-3.038-0.508-5.536-0.458-7.246c0.026-0.857,0.073-1.52,0.112-1.969c0.041-0.449,0.071-0.684,0.089-0.683
					c0.018,0.001,0.023,0.238,0.016,0.688c-0.004,0.502-0.008,1.155-0.014,1.967c0.012,1.703,0.063,4.186,0.618,7.177
					c0.577,2.96,1.702,6.521,4.263,9.619c1.262,1.542,2.852,2.959,4.753,3.994c1.892,1.044,4.122,1.626,6.409,1.551
					c1.141-0.052,2.261-0.243,3.332-0.56c1.064-0.337,2.079-0.773,3.027-1.297c1.881-1.074,3.508-2.442,4.794-3.967
					c1.309-1.508,2.26-3.175,3.001-4.794c0.741-1.621,1.254-3.21,1.604-4.688c0.703-2.961,0.84-5.441,0.919-7.142
					c0.022-0.811,0.04-1.464,0.053-1.966C401.359,273.535,401.372,273.298,401.39,273.297z"/>
			</g>
			<g>
				<path style="fill:#263238;" d="M412.331,329.784c-0.058,0.02-0.357-0.984-1.141-2.693c-0.78-1.706-2.106-4.106-4.252-6.687
					c-2.161-2.549-5.192-5.263-9.148-7.261c-3.93-2.021-8.806-3.161-13.909-2.984c-5.103,0.209-9.88,1.714-13.647,4.027
					c-3.794,2.291-6.612,5.227-8.573,7.933c-1.945,2.735-3.086,5.229-3.734,6.989c-0.653,1.763-0.875,2.787-0.934,2.771
					c-0.017-0.004,0.034-0.26,0.147-0.745c0.1-0.489,0.305-1.193,0.596-2.094c0.595-1.793,1.694-4.337,3.625-7.134
					c1.947-2.767,4.778-5.776,8.625-8.13c3.82-2.377,8.683-3.926,13.876-4.137c5.193-0.181,10.158,0.995,14.146,3.077
					c4.013,2.056,7.063,4.842,9.214,7.453c2.137,2.643,3.426,5.096,4.154,6.84c0.359,0.876,0.616,1.564,0.753,2.044
					C412.278,329.528,412.349,329.779,412.331,329.784z"/>
			</g>
			<path style="fill:#FAFAFA;" d="M405.181,305.463l2.115-9.509l18.587,0c-0.658,2.817-1.588,6.105-2.639,9.606L405.181,305.463z"/>
			<path style="fill:#FAFAFA;" d="M363.625,305.463l-2.115-9.509l-18.587,0c0.658,2.817,1.217,6.105,2.269,9.606L363.625,305.463z"
				/>
			<path style="opacity:0.4;" d="M427.865,261.737c-4.444-7.259-16.217-15.661-41.605-16.835c0,0-28.45-0.92-40.597,10.585
				c0,0-2.37,2.471-3.108,3.844c-0.738,1.374,9.496,13.662,42.374,12.606C418.848,270.848,427.865,261.737,427.865,261.737z"/>
		</g>
		<g>
			<g>
				<path style="fill:#263238;" d="M339.473,218.36c-1.632-3.65-2.42-7.833-1.311-11.674c1.108-3.841,4.412-7.187,8.395-7.539"/>
				<g>
					<path style="fill:#E8505B;" d="M345.231,199.38c0.048,0.067-0.669,0.613-1.622,1.7c-0.947,1.081-2.179,2.685-3.103,4.667
						c-0.881,2.02-1.536,3.924-1.936,5.314c-0.402,1.393-0.584,2.277-0.662,2.265c-0.064-0.009-0.01-0.919,0.305-2.356
						c0.315-1.438,0.919-3.376,1.819-5.44c0.962-2.061,2.27-3.66,3.309-4.703C344.387,199.78,345.2,199.328,345.231,199.38z"/>
				</g>
			</g>
			<g>
				<path style="fill:#263238;" d="M431.418,218.36c1.632-3.65,2.42-7.833,1.311-11.674c-1.108-3.841-4.412-7.187-8.395-7.539"/>
				<g>
					<path style="fill:#E8505B;" d="M425.661,199.38c0.031-0.052,0.844,0.4,1.89,1.448c1.039,1.043,2.346,2.642,3.309,4.703
						c0.9,2.063,1.504,4.002,1.819,5.44c0.316,1.436,0.369,2.347,0.305,2.356c-0.078,0.013-0.26-0.872-0.662-2.265
						c-0.4-1.391-1.055-3.295-1.936-5.314c-0.924-1.982-2.156-3.586-3.103-4.667C426.33,199.993,425.612,199.447,425.661,199.38z"/>
				</g>
			</g>
			<path style="fill:#E8505B;" d="M343.156,236.482c-4.518-4.555-6.377-11.113-5.131-17.406
				c2.652-13.399,12.402-37.518,48.235-37.009c37.592,0.533,44.646,26.553,45.861,39.088c0.502,5.181-1.058,10.352-4.379,14.36
				c-5.593,6.75-17.465,15.464-41.482,15.455C362.467,250.96,349.68,243.06,343.156,236.482z"/>
			<g>
				<path style="fill:#263238;" d="M369.514,183.653c0.017-0.006,0.089,0.149,0.21,0.449c0.14,0.357,0.31,0.792,0.515,1.316
					c0.449,1.14,1.077,2.803,2.061,4.752c0.992,1.932,2.356,4.192,4.491,6.112c2.094,1.901,5.057,3.493,8.365,3.367
					c3.296-0.103,6.247-1.629,8.419-3.453c2.186-1.857,3.669-4.04,4.745-5.927c1.076-1.899,1.77-3.535,2.253-4.66
					c0.477-1.129,0.732-1.759,0.769-1.746c0.017,0.006-0.025,0.171-0.121,0.481c-0.095,0.31-0.248,0.762-0.459,1.339
					c-0.426,1.152-1.071,2.819-2.119,4.764c-1.049,1.933-2.521,4.179-4.756,6.114c-2.218,1.896-5.258,3.497-8.715,3.608
					c-1.716,0.059-3.393-0.32-4.862-0.977c-1.479-0.647-2.752-1.567-3.84-2.555c-2.181-1.999-3.538-4.33-4.498-6.304
					c-0.953-1.993-1.53-3.682-1.922-4.846c-0.193-0.583-0.334-1.04-0.423-1.351C369.536,183.825,369.497,183.659,369.514,183.653z"
					/>
			</g>
			<path style="fill:#263238;" d="M410.015,234.965c-17.443,4.266-34.468,4.426-51.046,0.186c-6.229-1.593-10.55-7.264-10.55-13.693
				v-0.242c0-7.818,6.338-14.156,14.156-14.156h44.046c7.818,0,14.156,6.338,14.156,14.156l0,0
				C420.778,227.727,416.339,233.419,410.015,234.965z"/>
			<g>
				<path style="fill:#FFFFFF;" d="M371.577,223.939c-0.281,1.751-1.927,2.943-3.678,2.662c-1.751-0.281-2.943-1.927-2.662-3.678
					c0.281-1.751,1.927-2.943,3.678-2.662C370.666,220.541,371.858,222.188,371.577,223.939z"/>
			</g>
			<g>
				<path style="fill:#FFFFFF;" d="M408.358,222.079c-0.281,1.751-1.927,2.943-3.678,2.662c-1.751-0.281-2.943-1.927-2.662-3.678
					c0.281-1.751,1.927-2.943,3.678-2.662C407.446,218.682,408.638,220.328,408.358,222.079z"/>
			</g>
			<g>
				<g>
					<path style="fill:#FFFFFF;" d="M394.237,222.489c0.057-0.019,0.243,1.132-0.477,2.786c-0.364,0.808-0.967,1.717-1.885,2.457
						c-0.911,0.747-2.145,1.257-3.473,1.359c-1.329,0.095-2.611-0.228-3.6-0.834c-0.996-0.598-1.698-1.41-2.152-2.157
						c-0.904-1.533-0.852-2.702-0.793-2.691c0.113-0.032,0.231,1.07,1.168,2.427c0.47,0.664,1.152,1.376,2.069,1.889
						c0.909,0.52,2.065,0.792,3.271,0.707c1.204-0.094,2.319-0.535,3.16-1.184c0.85-0.645,1.444-1.451,1.834-2.179
						C394.131,223.584,394.121,222.474,394.237,222.489z"/>
				</g>
			</g>
		</g>
	</g>
</g>
<g id="Robot_1">
	<g>
		<g>
			<g>
				<path style="fill:#263238;" d="M88.095,241.8c0.002,0.009-0.088,0.046-0.268,0.11c-0.208,0.071-0.471,0.16-0.799,0.272
					c-0.701,0.238-1.728,0.617-3.008,1.198c-2.521,1.18-6.189,3.2-9.468,7.019c-1.638,1.888-3.106,4.254-4.059,7.033
					c-0.936,2.775-1.189,5.987-0.602,9.231c0.64,3.208,2.053,6.531,4.598,9.062c1.255,1.268,2.769,2.311,4.457,3.044
					c1.692,0.728,3.542,1.142,5.435,1.269c3.805,0.225,7.516-0.611,10.924-1.754c3.418-1.159,6.572-2.691,9.635-4.015
					c3.057-1.337,6.032-2.505,8.94-3.201c2.897-0.696,5.731-0.93,8.254-0.534c5.083,0.699,8.689,3.299,10.35,5.574
					c0.456,0.549,0.73,1.126,1.014,1.591c0.211,0.505,0.418,0.92,0.53,1.276c0.093,0.336,0.168,0.605,0.227,0.818
					c0.048,0.185,0.068,0.28,0.06,0.282c-0.009,0.002-0.046-0.089-0.111-0.268c-0.071-0.207-0.161-0.469-0.274-0.796
					c-0.127-0.346-0.347-0.75-0.568-1.24c-0.295-0.451-0.576-1.01-1.037-1.539c-1.679-2.195-5.244-4.693-10.24-5.333
					c-2.477-0.365-5.242-0.116-8.102,0.588c-2.864,0.704-5.806,1.876-8.849,3.221c-3.05,1.332-6.205,2.877-9.664,4.059
					c-3.445,1.162-7.213,2.021-11.121,1.79c-1.944-0.13-3.856-0.558-5.606-1.313c-1.748-0.761-3.321-1.848-4.615-3.162
					c-2.627-2.625-4.065-6.043-4.707-9.334c-0.589-3.327-0.313-6.617,0.665-9.457c0.991-2.834,2.507-5.233,4.189-7.134
					c3.366-3.846,7.1-5.832,9.664-6.964C86.548,242.092,88.095,241.8,88.095,241.8z"/>
			</g>
			<path style="fill:#E8505B;" d="M216.189,397.754v-37.545c0-10.518-8.457-19.08-18.973-19.212l-108.674-1.355
				c-7.279-0.091-13.229,5.785-13.229,13.065v44.589L216.189,397.754z"/>
			
				<rect x="88.628" y="350.723" transform="matrix(-1 -1.224647e-16 1.224647e-16 -1 221.2796 722.0244)" style="fill:#FAFAFA;" width="44.024" height="20.579"/>
			<g>
				<path style="fill:#263238;" d="M146.458,397.091c-0.144,0-0.26-12.607-0.26-28.154c0-15.553,0.117-28.157,0.26-28.157
					s0.26,12.604,0.26,28.157C146.719,384.484,146.602,397.091,146.458,397.091z"/>
			</g>
			<g>
				<path style="fill:#263238;" d="M146.015,323.711c-0.034,0.114-1.576-0.678-4.265-0.83c-2.633-0.177-6.539,0.529-9.646,3.215
					c-3.086,2.712-4.317,6.487-4.5,9.119c-0.216,2.685,0.36,4.32,0.242,4.338c-0.027,0.008-0.183-0.386-0.355-1.132
					c-0.176-0.745-0.316-1.856-0.254-3.231c0.058-1.373,0.373-3.008,1.086-4.692c0.707-1.68,1.852-3.391,3.44-4.795
					c1.607-1.381,3.457-2.282,5.218-2.754c1.764-0.477,3.427-0.566,4.795-0.437c1.37,0.126,2.453,0.416,3.167,0.691
					C145.657,323.478,146.027,323.686,146.015,323.711z"/>
			</g>
			<polygon style="fill:#E8505B;" points="199.943,341.247 146.458,197.327 107.794,215.68 153.162,350.723 			"/>
			<g>
				
					<ellipse transform="matrix(0.034 -0.9994 0.9994 0.034 -191.0407 547.7534)" style="opacity:0.4;" cx="187.844" cy="372.706" rx="21.465" ry="21.466"/>
				
					<ellipse transform="matrix(0.3669 -0.9303 0.9303 0.3669 -221.6698 402.9553)" style="fill:#263238;" cx="185.203" cy="364.331" rx="22.082" ry="22.082"/>
				<path style="fill:#455A64;" d="M177.519,367.717c1.87,4.243,6.826,6.167,11.07,4.297c4.243-1.87,6.167-6.827,4.297-11.07
					c-1.87-4.243-6.826-6.167-11.07-4.297C177.573,358.518,175.649,363.474,177.519,367.717z"/>
			</g>
			<g>
				<path style="fill:#263238;" d="M177.071,345.88c-0.008,0.003-0.045-0.069-0.107-0.213c-0.072-0.173-0.159-0.384-0.266-0.642
					c-0.239-0.609-0.565-1.439-0.977-2.487c-0.843-2.211-2.035-5.336-3.501-9.179c-2.923-7.806-6.934-18.519-11.366-30.352
					c-2.89-7.81-5.6-15.133-7.903-21.358l-0.081-0.218l0.218-0.074c6.518-2.216,11.965-4.067,15.832-5.382
					c1.883-0.624,3.379-1.12,4.45-1.474c0.487-0.154,0.876-0.276,1.179-0.372c0.268-0.081,0.408-0.116,0.412-0.105
					c0.004,0.011-0.129,0.07-0.389,0.172c-0.297,0.112-0.679,0.256-1.156,0.436c-1.061,0.383-2.544,0.919-4.409,1.593
					c-3.852,1.358-9.278,3.27-15.77,5.558l0.138-0.292c2.322,6.217,5.054,13.532,7.968,21.333
					c4.376,11.854,8.336,22.586,11.223,30.405c1.401,3.867,2.54,7.012,3.346,9.237c0.373,1.062,0.668,1.903,0.885,2.521
					c0.087,0.265,0.159,0.482,0.218,0.66C177.06,345.799,177.079,345.877,177.071,345.88z"/>
			</g>
			<g>
				<path style="fill:#263238;" d="M127.382,275.828c-0.053-0.134,9.319-3.973,20.931-8.575c11.615-4.603,21.072-8.226,21.124-8.092
					c0.053,0.134-9.317,3.973-20.933,8.576C136.893,272.339,127.435,275.962,127.382,275.828z"/>
			</g>
			<g>
				<path style="fill:#263238;" d="M174.17,385.582c-0.011,0.014-0.165-0.087-0.45-0.293c-0.28-0.212-0.709-0.504-1.219-0.935
					c-1.042-0.833-2.484-2.127-4.118-3.871c-3.29-3.464-7.126-8.936-10.171-15.563c-3.051-6.627-4.948-12.961-6.263-17.533
					c-0.651-2.291-1.147-4.153-1.478-5.442c-0.148-0.599-0.27-1.091-0.368-1.489c-0.078-0.342-0.111-0.524-0.094-0.529
					c0.017-0.005,0.084,0.168,0.195,0.5c0.123,0.39,0.276,0.874,0.462,1.462c0.408,1.346,0.962,3.171,1.636,5.393
					c1.404,4.54,3.351,10.834,6.383,17.418c3.025,6.583,6.774,12.033,9.97,15.534c1.586,1.762,2.98,3.088,3.977,3.965
					C173.628,385.079,174.197,385.547,174.17,385.582z"/>
			</g>
			<g>
				<path style="fill:#263238;" d="M202.28,373.568c-0.02-0.051,0.512-0.18,1.28-0.739c0.763-0.545,1.73-1.589,2.321-3.174
					c0.608-1.575,0.708-3.637,0.43-5.87c-0.284-2.241-0.73-4.703-1.286-7.258c-1.121-5.117-2.616-9.629-3.83-12.839
					c-0.6-1.609-1.138-2.891-1.497-3.783c-0.372-0.886-0.563-1.384-0.53-1.399c0.033-0.015,0.285,0.454,0.715,1.316
					c0.417,0.869,1.008,2.133,1.654,3.732c1.306,3.189,2.868,7.712,3.995,12.861c0.56,2.574,0.993,5.041,1.254,7.317
					c0.257,2.273,0.12,4.42-0.564,6.057c-0.663,1.641-1.723,2.694-2.55,3.207c-0.411,0.268-0.77,0.404-1.011,0.49
					C202.415,373.556,202.285,373.585,202.28,373.568z"/>
			</g>
		</g>
		<g>
			<g>
				<g>
					<circle style="fill:#455A64;" cx="210.561" cy="426.828" r="19.458"/>
				</g>
				<g>
					<circle style="fill:#263238;" cx="210.561" cy="426.828" r="6.669"/>
				</g>
			</g>
			<g>
				<g>
					<circle style="fill:#455A64;" cx="146.641" cy="427.341" r="19.458"/>
				</g>
				<g>
					<circle style="fill:#263238;" cx="146.641" cy="427.341" r="6.669"/>
				</g>
			</g>
			<g>
				<g>
					<circle style="fill:#455A64;" cx="82.222" cy="427.341" r="19.458"/>
				</g>
				<g>
					<circle style="fill:#263238;" cx="82.222" cy="427.341" r="6.67"/>
				</g>
			</g>
			<g>
				<path style="fill:#263238;" d="M51.99,426.828c0-16.284,13.248-29.532,29.531-29.532h129.482
					c16.283,0,29.532,13.248,29.532,29.532c0,16.284-13.248,29.532-29.532,29.532H81.521C65.238,456.36,51.99,443.112,51.99,426.828
					z M81.521,406.977c-10.946,0-19.85,8.905-19.85,19.851c0,10.946,8.904,19.851,19.85,19.851h129.482
					c10.946,0,19.851-8.905,19.851-19.851c0-10.946-8.904-19.851-19.851-19.851H81.521z"/>
			</g>
			<g>
				<g>
					<g>
						<path style="fill:#455A64;" d="M146.641,406.959c-0.086,0-0.156-2.121-0.156-4.736c0-2.616,0.07-4.736,0.156-4.736
							s0.156,2.12,0.156,4.736C146.797,404.838,146.727,406.959,146.641,406.959z"/>
					</g>
					<g>
						<path style="fill:#455A64;" d="M122.371,406.959c-0.086,0-0.156-2.121-0.156-4.736c0-2.616,0.07-4.736,0.156-4.736
							c0.086,0,0.156,2.12,0.156,4.736C122.527,404.838,122.457,406.959,122.371,406.959z"/>
					</g>
					<g>
						<path style="fill:#455A64;" d="M98.101,406.959c-0.086,0-0.156-2.121-0.156-4.736c0-2.616,0.07-4.736,0.156-4.736
							c0.086,0,0.156,2.12,0.156,4.736C98.257,404.838,98.187,406.959,98.101,406.959z"/>
					</g>
					<g>
						<path style="fill:#455A64;" d="M75.553,407.884c-0.083,0.025-0.765-1.984-1.525-4.486c-0.76-2.503-1.308-4.553-1.226-4.578
							c0.083-0.025,0.765,1.983,1.525,4.487C75.086,405.809,75.635,407.859,75.553,407.884z"/>
					</g>
					<g>
						<path style="fill:#455A64;" d="M62.764,420.043c-0.039,0.077-1.959-0.826-4.288-2.016c-2.33-1.191-4.186-2.218-4.146-2.294
							c0.039-0.077,1.959,0.826,4.289,2.016C60.947,418.94,62.804,419.967,62.764,420.043z"/>
					</g>
				</g>
				<g>
					<g>
						<path style="fill:#455A64;" d="M147.836,447.096c0.086,0,0.156,2.121,0.156,4.736c0,2.616-0.07,4.736-0.156,4.736
							s-0.156-2.12-0.156-4.736C147.679,449.217,147.749,447.096,147.836,447.096z"/>
					</g>
					<g>
						<path style="fill:#455A64;" d="M123.565,446.799c0.086,0,0.156,2.121,0.156,4.736c0,2.616-0.07,4.736-0.156,4.736
							c-0.086,0-0.156-2.12-0.156-4.736C123.409,448.92,123.479,446.799,123.565,446.799z"/>
					</g>
					<g>
						<path style="fill:#455A64;" d="M99.295,446.799c0.086,0,0.156,2.121,0.156,4.736c0,2.616-0.07,4.736-0.156,4.736
							c-0.086,0-0.156-2.12-0.156-4.736C99.139,448.92,99.209,446.799,99.295,446.799z"/>
					</g>
					<g>
						<path style="fill:#455A64;" d="M76.747,446.171c0.083,0.025-0.466,2.075-1.226,4.577c-0.76,2.504-1.442,4.512-1.525,4.487
							c-0.083-0.025,0.466-2.074,1.226-4.578C75.982,448.155,76.665,446.146,76.747,446.171z"/>
					</g>
					<g>
						<path style="fill:#455A64;" d="M63.292,435.004c0.039,0.077-1.817,1.104-4.146,2.294c-2.33,1.19-4.249,2.093-4.289,2.016
							c-0.039-0.077,1.817-1.104,4.146-2.294C61.333,435.83,63.253,434.927,63.292,435.004z"/>
					</g>
				</g>
			</g>
			<g>
				<g>
					<g>
						<path style="fill:#455A64;" d="M169.815,447.096c0.086,0,0.156,2.121,0.156,4.736c0,2.616-0.07,4.736-0.156,4.736
							c-0.086,0-0.156-2.12-0.156-4.736C169.659,449.217,169.729,447.096,169.815,447.096z"/>
					</g>
					<g>
						<path style="fill:#455A64;" d="M194.085,447.096c0.086,0,0.156,2.121,0.156,4.736c0,2.616-0.07,4.736-0.156,4.736
							c-0.086,0-0.156-2.12-0.156-4.736C193.929,449.217,193.999,447.096,194.085,447.096z"/>
					</g>
					<g>
						<path style="fill:#455A64;" d="M216.633,446.171c0.083-0.025,0.765,1.984,1.525,4.487c0.76,2.504,1.308,4.552,1.226,4.578
							c-0.082,0.025-0.765-1.983-1.525-4.487C217.1,448.245,216.551,446.196,216.633,446.171z"/>
					</g>
					<g>
						<path style="fill:#455A64;" d="M229.421,434.011c0.039-0.077,1.959,0.826,4.288,2.016c2.33,1.191,4.186,2.217,4.146,2.294
							c-0.039,0.077-1.959-0.826-4.289-2.016C231.239,435.115,229.382,434.088,229.421,434.011z"/>
					</g>
				</g>
				<g>
					<g>
						<path style="fill:#455A64;" d="M168.62,407.255c-0.086,0-0.156-2.121-0.156-4.736c0-2.616,0.07-4.736,0.156-4.736
							c0.086,0,0.156,2.12,0.156,4.736C168.777,405.135,168.707,407.255,168.62,407.255z"/>
					</g>
					<g>
						<path style="fill:#455A64;" d="M192.891,407.255c-0.086,0-0.156-2.121-0.156-4.736c0-2.616,0.07-4.736,0.156-4.736
							c0.086,0,0.156,2.12,0.156,4.736C193.047,405.135,192.977,407.255,192.891,407.255z"/>
					</g>
					<g>
						<path style="fill:#455A64;" d="M215.439,407.884c-0.083-0.025,0.466-2.075,1.226-4.577c0.76-2.503,1.442-4.512,1.525-4.487
							c0.083,0.025-0.466,2.074-1.226,4.578C216.204,405.9,215.521,407.909,215.439,407.884z"/>
					</g>
					<g>
						<path style="fill:#455A64;" d="M228.894,419.05c-0.039-0.077,1.817-1.104,4.146-2.294c2.33-1.19,4.249-2.093,4.289-2.016
							c0.039,0.077-1.817,1.104-4.146,2.294C230.853,418.224,228.933,419.127,228.894,419.05z"/>
					</g>
				</g>
			</g>
		</g>
		<g>
			<g>
				<path style="fill:#263238;" d="M169.961,166.252c0,0,0.08-0.131,0.257-0.372c0.193-0.257,0.457-0.608,0.795-1.058
					c0.71-0.921,1.746-2.287,3.058-4.064c2.616-3.556,6.362-8.739,10.57-15.419c4.235-6.659,8.92-14.824,13.484-24.207
					c2.28-4.693,4.511-9.693,6.678-14.944c2.186-5.243,4.383-10.707,6.955-16.17c2.577-5.456,5.414-10.661,8.779-15.276
					c3.363-4.606,7.182-8.646,11.347-11.846c4.171-3.182,8.671-5.532,13.171-6.808c4.491-1.35,8.945-1.45,12.871-0.926
					c3.94,0.544,7.365,1.81,10.132,3.309c2.776,1.507,4.868,3.288,6.394,4.894c1.465,1.668,2.426,3.106,2.974,4.134
					c0.255,0.503,0.454,0.895,0.6,1.182c0.132,0.267,0.188,0.41,0.188,0.41s-0.088-0.127-0.236-0.386
					c-0.156-0.28-0.369-0.663-0.643-1.153c-0.574-1.006-1.557-2.415-3.03-4.047c-1.536-1.57-3.625-3.309-6.385-4.776
					c-2.75-1.458-6.147-2.686-10.044-3.2c-3.886-0.494-8.275-0.374-12.7,0.976c-4.439,1.278-8.878,3.614-12.999,6.774
					c-4.115,3.178-7.895,7.19-11.227,11.765c-3.333,4.582-6.153,9.762-8.721,15.199c-2.563,5.444-4.762,10.901-6.955,16.144
					c-2.175,5.252-4.422,10.263-6.718,14.958c-4.597,9.39-9.323,17.551-13.604,24.195c-4.254,6.665-8.05,11.821-10.718,15.343
					c-1.338,1.759-2.401,3.106-3.137,4.007c-0.356,0.437-0.633,0.777-0.836,1.026C170.07,166.143,169.961,166.252,169.961,166.252z"
					/>
			</g>
			<polygon style="fill:#E0E0E0;" points="239.64,108.846 175.25,161.656 187.71,173.51 251.336,124.22 			"/>
			<polygon style="fill:#E8505B;" points="150.539,218.398 195.66,181.011 171.794,153.372 119.495,195.062 			"/>
			<polygon style="fill:#E0E0E0;" points="119.405,223.547 90.611,246.594 80.954,234.91 108.542,212.339 			"/>
			<g>
				
					<rect x="299.748" y="89.64" transform="matrix(0.8279 -0.5609 0.5609 0.8279 -3.2884 190.6462)" style="fill:#E0E0E0;" width="18.532" height="22.082"/>
				<polyline style="fill:#263238;" points="321.453,102.521 349.081,102.914 364.408,125.538 356.939,149.076 350.292,147.419 
					353.743,131.853 342.376,118.188 328.377,118.963 318.832,125.578 312.805,138.122 323.598,154.054 336.482,156.767 
					336.344,162.974 315.107,161.109 298.772,136.997 306.11,112.916 322.941,101.513 				"/>
			</g>
			<g>
				
					<ellipse transform="matrix(0.8983 -0.4393 0.4393 0.8983 -82.5562 79.8991)" style="opacity:0.4;" cx="131.344" cy="218.313" rx="21.466" ry="21.465"/>
				
					<ellipse transform="matrix(0.4448 -0.8956 0.8956 0.4448 -115.9599 232.4044)" style="fill:#263238;" cx="129.472" cy="209.733" rx="22.082" ry="22.082"/>
				<path style="fill:#455A64;" d="M121.514,212.41c1.478,4.395,6.24,6.76,10.635,5.282c4.395-1.478,6.76-6.24,5.282-10.635
					c-1.478-4.395-6.24-6.76-10.635-5.282C122.4,203.253,120.035,208.014,121.514,212.41z"/>
			</g>
			<g>
				<path style="fill:#263238;" d="M165.088,158.718c0.026-0.009,0.174,0.348,0.425,1.018c0.269,0.744,0.618,1.711,1.046,2.894
					c0.889,2.569,2.101,6.068,3.513,10.15l0.054,0.156l-0.128,0.107c-2.121,1.769-4.44,3.702-6.872,5.73
					c-5.072,4.211-9.681,8-13.034,10.723c-1.635,1.314-2.982,2.396-3.988,3.203c-0.438,0.339-0.801,0.619-1.101,0.851
					c-0.255,0.19-0.395,0.283-0.406,0.269c-0.012-0.014,0.106-0.134,0.339-0.35c0.283-0.252,0.625-0.557,1.039-0.926
					c0.979-0.84,2.29-1.965,3.882-3.331c3.293-2.795,7.865-6.629,12.936-10.84c2.441-2.018,4.768-3.941,6.896-5.701l-0.075,0.262
					c-1.341-4.106-2.491-7.626-3.335-10.21c-0.374-1.201-0.68-2.183-0.915-2.938C165.16,159.1,165.062,158.726,165.088,158.718z"/>
			</g>
			<polygon style="fill:#E8505B;" points="279.626,65.943 233.117,102.647 253.862,131.732 302.408,93.87 			"/>
			<g>
				
					<ellipse transform="matrix(0.0542 -0.9985 0.9985 0.0542 186.751 365.69)" style="opacity:0.4;" cx="286.412" cy="84.265" rx="17.632" ry="17.632"/>
				<path style="fill:#263238;" d="M280.417,64.717c-8.17,6.468-9.55,18.334-3.082,26.503c6.467,8.17,18.333,9.55,26.503,3.083
					c8.17-6.467,9.55-18.334,3.083-26.503C300.453,59.63,288.587,58.25,280.417,64.717z"/>
				<path style="fill:#455A64;" d="M287.675,73.885c-3.107,2.459-3.631,6.971-1.172,10.078c2.459,3.107,6.971,3.631,10.078,1.172
					c3.107-2.459,3.631-6.971,1.172-10.078C295.293,71.951,290.782,71.426,287.675,73.885z"/>
			</g>
			<g>
				<path style="fill:#263238;" d="M284.251,108.031c-0.018,0.024-0.424-0.241-1.157-0.751c-0.788-0.56-1.836-1.305-3.121-2.218
					c-2.704-1.971-6.401-4.666-10.669-7.777l0.306-0.007c-1.751,1.433-3.642,2.98-5.6,4.582c-5.488,4.478-10.474,8.508-14.1,11.405
					c-1.774,1.404-3.232,2.557-4.311,3.41c-0.477,0.364-0.87,0.663-1.189,0.907c-0.275,0.203-0.425,0.302-0.437,0.289
					c-0.011-0.014,0.116-0.141,0.37-0.37c0.302-0.264,0.674-0.588,1.127-0.982c1.052-0.885,2.475-2.082,4.206-3.538
					c3.566-2.97,8.515-7.046,14.003-11.523c1.962-1.596,3.857-3.138,5.613-4.566l0.152-0.123l0.155,0.116
					c4.224,3.17,7.882,5.917,10.558,7.926c1.25,0.962,2.268,1.745,3.035,2.335C283.896,107.697,284.269,108.007,284.251,108.031z"/>
			</g>
		</g>
	</g>
</g>
</svg>
