<svg width="329" height="280" viewBox="0 0 329 280" fill="none" xmlns="http://www.w3.org/2000/svg">
<path d="M172.728 83.9513C172.728 83.9513 120.579 32.265 71.7082 69.5162C26.6234 103.882 65.6402 213.992 129.158 221.976C192.676 229.959 237.828 214.455 265.146 168.678C288.68 129.244 275.563 87.5152 234.083 88.5512C199.429 89.417 187.873 95.9936 172.728 83.9513Z" fill="url(#paint0_linear_5_458)"/>
<path d="M205.456 189.286C205.456 189.286 199.223 176.175 211.523 174.986C218.656 174.296 212.194 165.221 216.664 162.91C221.134 160.599 227.693 163.577 230.141 159C232.588 154.423 237.007 150.604 245.082 153.087C253.157 155.57 256.261 148.658 262.06 154.162C267.858 159.667 259.809 165.954 249.833 167.087C239.857 168.219 245.171 176.359 235.368 176.611C225.565 176.861 230.306 187.488 222.286 187.862C214.266 188.236 215.734 195.853 205.456 189.286Z" fill="url(#paint1_linear_5_458)"/>
<path d="M217.835 181.829C217.832 181.817 217.831 181.805 217.831 181.792C217.833 181.718 218.058 174.359 227.554 170.847C234.035 168.451 235.435 166.988 237.372 164.964C238.228 164.07 239.197 163.057 240.756 161.825C245.78 157.854 254.531 158.092 254.901 158.104C255.039 158.108 255.147 158.207 255.141 158.325C255.136 158.442 255.02 158.534 254.882 158.529C254.794 158.526 245.966 158.287 241.096 162.136C239.563 163.347 238.605 164.349 237.76 165.232C235.853 167.225 234.347 168.798 227.753 171.237C218.563 174.635 218.332 181.726 218.331 181.798C218.329 181.915 218.215 182.009 218.078 182.007C217.955 182.006 217.854 181.929 217.835 181.829Z" fill="#B877F5"/>
<path d="M205.446 172.498C205.446 172.498 193.84 158.614 207.863 154.297C215.996 151.793 205.446 142.694 209.926 138.923C214.405 135.152 223.069 137.083 224.435 131.138C225.802 125.193 229.727 119.667 240.005 120.657C250.283 121.648 251.652 112.81 260.254 117.882C268.855 122.955 261.486 132.236 250.166 135.935C238.847 139.633 247.746 147.909 236.34 150.533C224.935 153.157 233.978 164.484 224.702 166.828C215.426 169.173 219.646 177.75 205.446 172.498Z" fill="url(#paint2_linear_5_458)"/>
<path d="M211.651 157.506C211.647 157.491 211.644 157.477 211.644 157.462C211.638 157.373 211.179 148.512 222.242 143.61C229.793 140.263 231.33 138.405 233.456 135.834C234.396 134.698 235.461 133.41 237.212 131.818C242.855 126.686 253.395 126.343 253.841 126.33C254.008 126.326 254.147 126.436 254.152 126.578C254.157 126.719 254.027 126.837 253.861 126.842C253.754 126.845 243.122 127.192 237.651 132.168C235.929 133.734 234.877 135.006 233.949 136.129C231.855 138.66 230.201 140.659 222.52 144.064C211.813 148.809 212.238 157.347 212.244 157.433C212.254 157.574 212.127 157.695 211.961 157.703C211.813 157.71 211.684 157.625 211.651 157.506Z" fill="#B877F5"/>
<path d="M101.859 151.544C101.859 151.544 85.7116 158.103 83.4047 146.931C82.067 140.453 71.031 146.957 67.82 143.02C64.6089 139.084 67.9397 132.89 62.0006 130.951C56.0608 129.012 50.9488 125.221 53.5558 117.673C56.1628 110.125 47.2318 107.739 53.8019 102.075C60.3727 96.4115 68.8392 103.362 70.9218 112.412C73.005 121.462 82.9355 116.068 83.8943 125.017C84.853 133.966 97.961 128.935 98.9578 136.245C99.9547 143.555 109.477 141.714 101.859 151.544Z" fill="url(#paint3_linear_5_458)"/>
<path d="M91.9824 144.615C91.9673 144.616 91.9515 144.617 91.9357 144.617C91.8423 144.615 82.5382 144.27 78.2737 135.505C75.3627 129.523 73.5394 128.213 71.0159 126.401C69.9013 125.6 68.6373 124.693 67.1087 123.242C62.1803 118.565 62.6448 110.552 62.6672 110.213C62.6751 110.087 62.8021 109.989 62.9508 109.998C63.0989 110.005 63.2127 110.112 63.2041 110.239C63.1989 110.32 62.7317 118.403 67.5094 122.936C69.013 124.363 70.2619 125.26 71.3633 126.051C73.848 127.835 75.8101 129.244 78.7711 135.33C82.8987 143.813 91.8633 144.157 91.9535 144.159C92.1015 144.163 92.218 144.269 92.2134 144.395C92.2081 144.508 92.1094 144.599 91.9824 144.615Z" fill="#B877F5"/>
<path d="M109.898 145.416C109.898 145.416 92.6234 149.378 92.7306 138.037C92.7931 131.459 80.5556 136.156 78.2355 131.789C75.9148 127.422 80.5083 121.844 75.0791 119.022C69.6499 116.2 65.4289 111.684 69.5986 104.663C73.7684 97.6415 65.492 93.9186 73.1591 89.3608C80.8261 84.803 87.6739 92.9426 87.7976 102.164C87.9213 111.386 98.8349 107.611 97.8742 116.56C96.9135 125.509 110.875 122.58 110.301 129.923C109.726 137.265 119.482 136.922 109.898 145.416Z" fill="url(#paint4_linear_5_458)"/>
<path d="M101.059 132.737C101.044 132.737 101.028 132.737 101.012 132.734C100.92 132.72 91.7686 131.251 89.0142 122.059C87.1343 115.784 85.5485 114.267 83.3541 112.167C82.3849 111.239 81.2853 110.188 80.0147 108.567C75.92 103.341 77.7203 95.4658 77.7986 95.1332C77.8276 95.0094 77.9697 94.9282 78.1151 94.954C78.2605 94.9792 78.3546 95.0996 78.3257 95.2233C78.3066 95.3029 76.4918 103.246 80.4615 108.313C81.7111 109.908 82.7968 110.946 83.7548 111.863C85.9157 113.931 87.6219 115.563 89.5347 121.945C92.2002 130.842 101.016 132.27 101.104 132.283C101.25 132.305 101.348 132.424 101.322 132.548C101.3 132.659 101.187 132.737 101.059 132.737Z" fill="#B877F5"/>
<path d="M114.772 185.739C114.772 185.739 119.5 171.054 106.173 171.097C98.444 171.122 104.014 160.727 98.8927 158.734C93.7715 156.741 87.1988 160.627 83.9055 155.994C80.6128 151.362 75.3238 147.75 67.0561 151.269C58.7883 154.788 54.4488 147.729 49.0611 154.235C43.6734 160.741 53.2085 166.603 64.0431 166.747C74.8777 166.891 70.3967 176.163 80.9155 175.383C91.4343 174.604 87.9344 186.473 96.5647 186.015C105.196 185.558 104.75 193.86 114.772 185.739Z" fill="url(#paint5_linear_5_458)"/>
<path d="M103.348 176.598C103.347 176.585 103.345 176.572 103.341 176.559C103.318 176.481 100.991 168.807 90.0314 167.076C82.5506 165.895 80.6668 164.649 78.0604 162.924C76.9089 162.162 75.6035 161.298 73.6189 160.327C67.2205 157.194 58.1072 159.245 57.7223 159.333C57.5789 159.366 57.4927 159.492 57.5328 159.614C57.5716 159.736 57.719 159.808 57.8625 159.775C57.9546 159.754 67.1482 157.687 73.3505 160.723C75.3028 161.678 76.5924 162.532 77.7301 163.285C80.2963 164.983 82.3236 166.324 89.9334 167.526C100.541 169.201 102.797 176.593 102.819 176.667C102.855 176.79 103 176.865 103.144 176.835C103.272 176.808 103.356 176.707 103.348 176.598Z" fill="#B877F5"/>
<path d="M73.7927 225.023L67.0238 221.553L73.7927 218.325L80.5608 221.553L73.7927 225.023Z" fill="url(#paint6_linear_5_458)"/>
<path d="M73.7926 225.023V231.468L80.5608 228.246V221.553L73.7926 225.023Z" fill="url(#paint7_linear_5_458)"/>
<path d="M73.7927 225.023V231.468L67.0238 228.246V221.553L73.7927 225.023Z" fill="url(#paint8_linear_5_458)"/>
<path d="M90.698 225.024L83.9292 221.553L90.698 218.325L97.4662 221.553L90.698 225.024Z" fill="url(#paint9_linear_5_458)"/>
<path d="M90.698 225.024V231.468L97.4662 228.246V221.553L90.698 225.024Z" fill="url(#paint10_linear_5_458)"/>
<path d="M90.698 225.024V231.468L83.9292 228.246V221.553L90.698 225.024Z" fill="url(#paint11_linear_5_458)"/>
<path d="M81.9657 212.98L75.1975 209.51L81.9657 206.282L88.7339 209.51L81.9657 212.98Z" fill="url(#paint12_linear_5_458)"/>
<path d="M81.9657 212.98V219.425L88.7339 216.203V209.51L81.9657 212.98Z" fill="url(#paint13_linear_5_458)"/>
<path d="M81.9657 212.98V219.425L75.1975 216.203V209.51L81.9657 212.98Z" fill="url(#paint14_linear_5_458)"/>
<path d="M65.5222 213.108L58.754 209.637L65.5222 206.409L72.2904 209.637L65.5222 213.108Z" fill="url(#paint15_linear_5_458)"/>
<path d="M65.5222 213.108V219.552L72.2904 216.33V209.637L65.5222 213.108Z" fill="url(#paint16_linear_5_458)"/>
<path d="M65.5222 213.108V219.552L58.754 216.33V209.637L65.5222 213.108Z" fill="url(#paint17_linear_5_458)"/>
<path d="M56.8873 225.15L50.1191 221.679L56.8873 218.452L63.6555 221.679L56.8873 225.15Z" fill="url(#paint18_linear_5_458)"/>
<path d="M56.8873 225.151V231.596L63.6555 228.373V221.68L56.8873 225.151Z" fill="url(#paint19_linear_5_458)"/>
<path d="M56.8873 225.151V231.596L50.1191 228.373V221.68L56.8873 225.151Z" fill="url(#paint20_linear_5_458)"/>
<ellipse cx="274.043" cy="59.2693" rx="4.935" ry="4.2" fill="url(#paint21_linear_5_458)"/>
<ellipse cx="266.702" cy="44.5018" rx="4.935" ry="4.2" fill="url(#paint22_linear_5_458)"/>
<ellipse cx="249.374" cy="38.202" rx="4.935" ry="4.2" fill="url(#paint23_linear_5_458)"/>
<ellipse cx="231.999" cy="43.7977" rx="4.935" ry="4.2" fill="url(#paint24_linear_5_458)"/>
<ellipse cx="266.702" cy="73.3328" rx="4.935" ry="4.2" fill="url(#paint25_linear_5_458)"/>
<ellipse cx="249.374" cy="79.9705" rx="4.935" ry="4.2" fill="url(#paint26_linear_5_458)"/>
<ellipse cx="231.999" cy="74.0369" rx="4.935" ry="4.2" fill="url(#paint27_linear_5_458)"/>
<ellipse cx="224.965" cy="59.2693" rx="4.935" ry="4.2" fill="url(#paint28_linear_5_458)"/>
<ellipse cx="263.43" cy="54.0461" rx="3.29" ry="2.8" fill="url(#paint29_linear_5_458)"/>
<ellipse cx="263.584" cy="64.093" rx="3.29" ry="2.8" fill="url(#paint30_linear_5_458)"/>
<ellipse cx="255.504" cy="71.4162" rx="3.29" ry="2.8" fill="url(#paint31_linear_5_458)"/>
<ellipse cx="244.175" cy="71.4035" rx="3.29" ry="2.8" fill="url(#paint32_linear_5_458)"/>
<ellipse cx="235.313" cy="64.6379" rx="3.29" ry="2.8" fill="url(#paint33_linear_5_458)"/>
<ellipse cx="234.901" cy="54.6613" rx="3.29" ry="2.8" fill="url(#paint34_linear_5_458)"/>
<ellipse cx="243.059" cy="47.4865" rx="3.29" ry="2.8" fill="url(#paint35_linear_5_458)"/>
<ellipse cx="255.257" cy="46.9934" rx="3.29" ry="2.8" fill="url(#paint36_linear_5_458)"/>
<ellipse cx="249.642" cy="53.0407" rx="0.329" ry="0.28" fill="url(#paint37_linear_5_458)"/>
<ellipse cx="254.811" cy="54.9195" rx="1.645" ry="1.4" fill="url(#paint38_linear_5_458)"/>
<ellipse cx="257" cy="59.3238" rx="1.645" ry="1.4" fill="url(#paint39_linear_5_458)"/>
<ellipse cx="254.811" cy="63.5182" rx="1.645" ry="1.4" fill="url(#paint40_linear_5_458)"/>
<ellipse cx="249.643" cy="65.4977" rx="1.645" ry="1.4" fill="url(#paint41_linear_5_458)"/>
<ellipse cx="244.461" cy="63.7281" rx="1.645" ry="1.4" fill="url(#paint42_linear_5_458)"/>
<ellipse cx="242.363" cy="59.3238" rx="1.645" ry="1.4" fill="url(#paint43_linear_5_458)"/>
<ellipse cx="244.461" cy="54.7096" rx="1.645" ry="1.4" fill="url(#paint44_linear_5_458)"/>
<ellipse cx="249.643" cy="53.0406" rx="1.645" ry="1.4" fill="url(#paint45_linear_5_458)"/>
<path d="M219.267 190.354H96.6004C94.3955 190.354 92.6077 188.832 92.6077 186.956V82.5582C92.6077 80.6817 94.3955 79.1602 96.6004 79.1602H219.267C221.472 79.1602 223.259 80.6817 223.259 82.5582V186.956C223.26 188.832 221.472 190.354 219.267 190.354Z" fill="url(#paint46_linear_5_458)"/>
<path d="M176.069 67.4424H170.266V83.982H176.069V67.4424Z" fill="url(#paint47_linear_5_458)"/>
<path d="M190.577 67.4424H184.774V83.982H190.577V67.4424Z" fill="url(#paint48_linear_5_458)"/>
<path d="M205.084 67.4424H199.281V83.982H205.084V67.4424Z" fill="url(#paint49_linear_5_458)"/>
<path d="M132.548 67.4424H126.745V83.982H132.548V67.4424Z" fill="url(#paint50_linear_5_458)"/>
<path d="M147.055 67.4424H141.252V83.982H147.055V67.4424Z" fill="url(#paint51_linear_5_458)"/>
<path d="M161.562 67.4424H155.759V83.982H161.562V67.4424Z" fill="url(#paint52_linear_5_458)"/>
<path d="M118.041 67.4424H112.238V83.982H118.041V67.4424Z" fill="url(#paint53_linear_5_458)"/>
<path d="M217.963 149.818V144.879H237.397V149.818H217.963Z" fill="url(#paint54_linear_5_458)"/>
<path d="M217.963 162.164V157.226H237.397V162.164H217.963Z" fill="url(#paint55_linear_5_458)"/>
<path d="M217.963 174.511V169.572H237.397V174.511H217.963Z" fill="url(#paint56_linear_5_458)"/>
<path d="M217.963 112.778V107.84H237.397V112.778H217.963Z" fill="url(#paint57_linear_5_458)"/>
<path d="M217.963 125.125V120.187H237.397V125.125H217.963Z" fill="url(#paint58_linear_5_458)"/>
<path d="M217.963 137.472V132.533H237.397V137.472H217.963Z" fill="url(#paint59_linear_5_458)"/>
<path d="M217.963 100.432V95.4932H237.397V100.432H217.963Z" fill="url(#paint60_linear_5_458)"/>
<path d="M176.069 186.022H170.266V202.562H176.069V186.022Z" fill="url(#paint61_linear_5_458)"/>
<path d="M190.577 186.022H184.774V202.562H190.577V186.022Z" fill="url(#paint62_linear_5_458)"/>
<path d="M205.084 186.022H199.281V202.562H205.084V186.022Z" fill="url(#paint63_linear_5_458)"/>
<path d="M132.548 186.022H126.745V202.562H132.548V186.022Z" fill="url(#paint64_linear_5_458)"/>
<path d="M147.055 186.022H141.252V202.562H147.055V186.022Z" fill="url(#paint65_linear_5_458)"/>
<path d="M161.562 186.022H155.759V202.562H161.562V186.022Z" fill="url(#paint66_linear_5_458)"/>
<path d="M118.041 186.022H112.238V202.562H118.041V186.022Z" fill="url(#paint67_linear_5_458)"/>
<path d="M97.7019 120.187V125.125H78.2678V120.187H97.7019Z" fill="url(#paint68_linear_5_458)"/>
<path d="M97.7019 107.84V112.778H78.2678V107.84H97.7019Z" fill="url(#paint69_linear_5_458)"/>
<path d="M97.7019 95.4941V100.432H78.2678V95.4941H97.7019Z" fill="url(#paint70_linear_5_458)"/>
<path d="M97.7019 157.226V162.164H78.2678V157.226H97.7019Z" fill="url(#paint71_linear_5_458)"/>
<path d="M97.7019 144.879V149.818H78.2678V144.879H97.7019Z" fill="url(#paint72_linear_5_458)"/>
<path d="M97.7019 132.533V137.472H78.2678V132.533H97.7019Z" fill="url(#paint73_linear_5_458)"/>
<path d="M97.7019 169.572V174.511H78.2678V169.572H97.7019Z" fill="url(#paint74_linear_5_458)"/>
<path d="M208.55 90.8994H105.252V178.813H208.55V90.8994Z" fill="url(#paint75_linear_5_458)"/>
<path d="M208.843 88.624H107.024C105.044 88.624 103.44 89.9899 103.44 91.6743V178.329C103.44 180.014 105.044 181.38 107.024 181.38H208.843C210.823 181.38 212.427 180.014 212.427 178.329V91.6743C212.427 89.9899 210.823 88.624 208.843 88.624ZM207.494 176.426C207.494 176.891 207.051 177.267 206.505 177.267H109.16C108.613 177.267 108.171 176.891 108.171 176.426V93.5778C108.171 93.113 108.614 92.7367 109.16 92.7367H206.505C207.052 92.7367 207.494 93.1135 207.494 93.5778V176.426Z" fill="url(#paint76_linear_5_458)"/>
<path d="M180.235 151.829C178.719 145.284 175.028 137.405 169.843 129.644C164.658 121.883 158.591 115.154 152.757 110.698C146.745 106.105 141.617 104.45 138.32 106.047C138.339 106.038 138.361 106.032 138.381 106.022C138.04 106.115 137.71 106.227 137.4 106.377C134.103 107.972 133.148 112.567 134.712 119.314C136.229 125.859 139.919 133.738 145.104 141.5C150.29 149.261 156.357 155.989 162.19 160.445C166.772 163.946 170.839 165.738 173.975 165.687C174.928 165.671 175.793 165.482 176.563 165.123C176.905 165.03 177.237 164.917 177.548 164.766C180.844 163.171 181.799 158.576 180.235 151.829ZM175.737 165.291C175.756 165.289 175.774 165.284 175.793 165.281C175.774 165.284 175.755 165.288 175.737 165.291ZM176.88 163.767C174.165 165.079 169.478 163.436 164.011 159.261C158.284 154.884 152.313 148.258 147.198 140.602C142.083 132.945 138.446 125.188 136.957 118.763C135.536 112.629 136.276 108.359 138.987 107.047C139.573 106.764 140.249 106.618 141.006 106.606C143.759 106.561 147.569 108.278 151.855 111.553C157.583 115.93 163.554 122.556 168.668 130.211C173.784 137.869 177.421 145.625 178.91 152.051C180.332 158.185 179.591 162.455 176.88 163.767Z" fill="url(#paint77_linear_5_458)"/>
<path d="M134.658 151.775C136.195 145.233 139.913 137.363 145.123 129.615C150.333 121.866 156.422 115.151 162.27 110.71C168.298 106.13 173.431 104.488 176.724 106.093C176.704 106.083 176.682 106.077 176.663 106.068C177.003 106.161 177.334 106.274 177.643 106.424C180.935 108.028 181.874 112.625 180.288 119.368C178.75 125.91 175.034 133.779 169.824 141.529C164.613 149.278 158.524 155.992 152.676 160.433C148.082 163.924 144.009 165.705 140.874 165.647C139.921 165.629 139.056 165.439 138.289 165.077C137.946 164.984 137.615 164.869 137.305 164.718C134.012 163.115 133.072 158.518 134.658 151.775ZM137.975 163.72C140.685 165.04 145.378 163.407 150.858 159.245C156.599 154.883 162.592 148.27 167.732 140.627C172.872 132.982 176.534 125.234 178.045 118.812C179.486 112.682 178.76 108.41 176.053 107.091C175.468 106.806 174.792 106.659 174.035 106.645C171.283 106.594 167.467 108.302 163.17 111.566C157.428 115.929 151.435 122.541 146.295 130.185C141.155 137.83 137.492 145.577 135.982 151.999C134.541 158.13 135.267 162.403 137.975 163.72Z" fill="url(#paint78_linear_5_458)"/>
<path d="M185.676 126.51C178.215 124.465 168.328 123.393 157.839 123.489C147.349 123.586 137.492 124.84 130.086 127.022C122.45 129.27 118.264 132.285 118.306 135.514C118.306 135.495 118.31 135.476 118.31 135.457C118.241 135.755 118.195 136.056 118.199 136.359C118.24 139.587 122.499 142.525 130.191 144.632C137.653 146.676 147.539 147.749 158.029 147.653C168.519 147.555 178.375 146.302 185.782 144.12C191.601 142.406 195.415 140.247 196.882 137.889C197.328 137.172 197.554 136.437 197.557 135.69C197.627 135.389 197.672 135.088 197.668 134.784C197.627 131.555 193.368 128.617 185.676 126.51ZM197.33 136.385C197.336 136.37 197.341 136.354 197.347 136.339C197.341 136.354 197.336 136.369 197.33 136.385ZM196.317 134.795C196.351 137.452 192.389 140.145 185.448 142.19C178.174 144.331 168.469 145.563 158.122 145.659C147.774 145.754 138.039 144.701 130.713 142.694C123.72 140.778 119.691 138.157 119.657 135.503C119.649 134.93 119.828 134.355 120.182 133.786C121.471 131.715 125.083 129.711 130.527 128.108C137.801 125.967 147.506 124.734 157.853 124.639C168.203 124.544 177.936 125.597 185.262 127.604C192.254 129.52 196.284 132.141 196.317 134.795Z" fill="url(#paint79_linear_5_458)"/>
<ellipse cx="157.473" cy="135.149" rx="6.58" ry="5.6" fill="white"/>
<ellipse cx="186.396" cy="142.693" rx="3.29" ry="2.8" fill="white"/>
<ellipse cx="149.059" cy="161.486" rx="3.29" ry="2.8" fill="white"/>
<ellipse cx="135.312" cy="117.959" rx="3.29" ry="2.8" fill="white"/>
<path d="M250.299 214.894H190.908C189.143 214.894 187.712 213.676 187.712 212.173V164.206C187.712 162.704 189.143 161.485 190.908 161.485H250.299C252.064 161.485 253.495 162.703 253.495 164.206V212.173C253.496 213.675 252.065 214.894 250.299 214.894Z" fill="url(#paint80_linear_5_458)"/>
<path d="M251.413 161.485H249.504C251.709 161.485 253.496 163.404 253.496 165.77V210.607C253.496 212.974 251.709 214.893 249.504 214.893H251.413C253.618 214.893 255.405 212.975 255.405 210.607V165.771C255.405 163.404 253.618 161.485 251.413 161.485Z" fill="#A5C0D6"/>
<path d="M196.6 203.26C196.6 202.107 196.793 201.207 197.18 200.56C197.573 199.907 198.247 199.58 199.2 199.58C200.153 199.58 200.823 199.907 201.21 200.56C201.603 201.207 201.8 202.107 201.8 203.26C201.8 204.427 201.603 205.34 201.21 206C200.823 206.653 200.153 206.98 199.2 206.98C198.247 206.98 197.573 206.653 197.18 206C196.793 205.34 196.6 204.427 196.6 203.26ZM200.68 203.26C200.68 202.72 200.643 202.263 200.57 201.89C200.503 201.517 200.363 201.213 200.15 200.98C199.937 200.74 199.62 200.62 199.2 200.62C198.78 200.62 198.463 200.74 198.25 200.98C198.037 201.213 197.893 201.517 197.82 201.89C197.753 202.263 197.72 202.72 197.72 203.26C197.72 203.82 197.753 204.29 197.82 204.67C197.887 205.05 198.027 205.357 198.24 205.59C198.46 205.823 198.78 205.94 199.2 205.94C199.62 205.94 199.937 205.823 200.15 205.59C200.37 205.357 200.513 205.05 200.58 204.67C200.647 204.29 200.68 203.82 200.68 203.26ZM202.856 200.75V199.71H204.936V207H203.786V200.75H202.856ZM206.352 200.75V199.71H208.432V207H207.282V200.75H206.352ZM209.998 203.26C209.998 202.107 210.192 201.207 210.578 200.56C210.972 199.907 211.645 199.58 212.598 199.58C213.552 199.58 214.222 199.907 214.608 200.56C215.002 201.207 215.198 202.107 215.198 203.26C215.198 204.427 215.002 205.34 214.608 206C214.222 206.653 213.552 206.98 212.598 206.98C211.645 206.98 210.972 206.653 210.578 206C210.192 205.34 209.998 204.427 209.998 203.26ZM214.078 203.26C214.078 202.72 214.042 202.263 213.968 201.89C213.902 201.517 213.762 201.213 213.548 200.98C213.335 200.74 213.018 200.62 212.598 200.62C212.178 200.62 211.862 200.74 211.648 200.98C211.435 201.213 211.292 201.517 211.218 201.89C211.152 202.263 211.118 202.72 211.118 203.26C211.118 203.82 211.152 204.29 211.218 204.67C211.285 205.05 211.425 205.357 211.638 205.59C211.858 205.823 212.178 205.94 212.598 205.94C213.018 205.94 213.335 205.823 213.548 205.59C213.768 205.357 213.912 205.05 213.978 204.67C214.045 204.29 214.078 203.82 214.078 203.26ZM216.405 203.26C216.405 202.107 216.598 201.207 216.985 200.56C217.378 199.907 218.051 199.58 219.005 199.58C219.958 199.58 220.628 199.907 221.015 200.56C221.408 201.207 221.605 202.107 221.605 203.26C221.605 204.427 221.408 205.34 221.015 206C220.628 206.653 219.958 206.98 219.005 206.98C218.051 206.98 217.378 206.653 216.985 206C216.598 205.34 216.405 204.427 216.405 203.26ZM220.485 203.26C220.485 202.72 220.448 202.263 220.375 201.89C220.308 201.517 220.168 201.213 219.955 200.98C219.741 200.74 219.425 200.62 219.005 200.62C218.585 200.62 218.268 200.74 218.055 200.98C217.841 201.213 217.698 201.517 217.625 201.89C217.558 202.263 217.525 202.72 217.525 203.26C217.525 203.82 217.558 204.29 217.625 204.67C217.691 205.05 217.831 205.357 218.045 205.59C218.265 205.823 218.585 205.94 219.005 205.94C219.425 205.94 219.741 205.823 219.955 205.59C220.175 205.357 220.318 205.05 220.385 204.67C220.451 204.29 220.485 203.82 220.485 203.26ZM222.661 200.75V199.71H224.741V207H223.591V200.75H222.661ZM226.157 200.75V199.71H228.237V207H227.087V200.75H226.157ZM229.653 200.75V199.71H231.733V207H230.583V200.75H229.653ZM233.149 200.75V199.71H235.229V207H234.079V200.75H233.149ZM236.795 203.26C236.795 202.107 236.989 201.207 237.375 200.56C237.769 199.907 238.442 199.58 239.395 199.58C240.349 199.58 241.019 199.907 241.405 200.56C241.799 201.207 241.995 202.107 241.995 203.26C241.995 204.427 241.799 205.34 241.405 206C241.019 206.653 240.349 206.98 239.395 206.98C238.442 206.98 237.769 206.653 237.375 206C236.989 205.34 236.795 204.427 236.795 203.26ZM240.875 203.26C240.875 202.72 240.839 202.263 240.765 201.89C240.699 201.517 240.559 201.213 240.345 200.98C240.132 200.74 239.815 200.62 239.395 200.62C238.975 200.62 238.659 200.74 238.445 200.98C238.232 201.213 238.089 201.517 238.015 201.89C237.949 202.263 237.915 202.72 237.915 203.26C237.915 203.82 237.949 204.29 238.015 204.67C238.082 205.05 238.222 205.357 238.435 205.59C238.655 205.823 238.975 205.94 239.395 205.94C239.815 205.94 240.132 205.823 240.345 205.59C240.565 205.357 240.709 205.05 240.775 204.67C240.842 204.29 240.875 203.82 240.875 203.26ZM243.052 200.75V199.71H245.132V207H243.982V200.75H243.052Z" fill="#004D8A"/>
<path d="M196.6 190.26C196.6 189.107 196.793 188.207 197.18 187.56C197.573 186.907 198.247 186.58 199.2 186.58C200.153 186.58 200.823 186.907 201.21 187.56C201.603 188.207 201.8 189.107 201.8 190.26C201.8 191.427 201.603 192.34 201.21 193C200.823 193.653 200.153 193.98 199.2 193.98C198.247 193.98 197.573 193.653 197.18 193C196.793 192.34 196.6 191.427 196.6 190.26ZM200.68 190.26C200.68 189.72 200.643 189.263 200.57 188.89C200.503 188.517 200.363 188.213 200.15 187.98C199.937 187.74 199.62 187.62 199.2 187.62C198.78 187.62 198.463 187.74 198.25 187.98C198.037 188.213 197.893 188.517 197.82 188.89C197.753 189.263 197.72 189.72 197.72 190.26C197.72 190.82 197.753 191.29 197.82 191.67C197.887 192.05 198.027 192.357 198.24 192.59C198.46 192.823 198.78 192.94 199.2 192.94C199.62 192.94 199.937 192.823 200.15 192.59C200.37 192.357 200.513 192.05 200.58 191.67C200.647 191.29 200.68 190.82 200.68 190.26ZM202.856 187.75V186.71H204.936V194H203.786V187.75H202.856ZM206.352 187.75V186.71H208.432V194H207.282V187.75H206.352ZM209.998 190.26C209.998 189.107 210.192 188.207 210.578 187.56C210.972 186.907 211.645 186.58 212.598 186.58C213.552 186.58 214.222 186.907 214.608 187.56C215.002 188.207 215.198 189.107 215.198 190.26C215.198 191.427 215.002 192.34 214.608 193C214.222 193.653 213.552 193.98 212.598 193.98C211.645 193.98 210.972 193.653 210.578 193C210.192 192.34 209.998 191.427 209.998 190.26ZM214.078 190.26C214.078 189.72 214.042 189.263 213.968 188.89C213.902 188.517 213.762 188.213 213.548 187.98C213.335 187.74 213.018 187.62 212.598 187.62C212.178 187.62 211.862 187.74 211.648 187.98C211.435 188.213 211.292 188.517 211.218 188.89C211.152 189.263 211.118 189.72 211.118 190.26C211.118 190.82 211.152 191.29 211.218 191.67C211.285 192.05 211.425 192.357 211.638 192.59C211.858 192.823 212.178 192.94 212.598 192.94C213.018 192.94 213.335 192.823 213.548 192.59C213.768 192.357 213.912 192.05 213.978 191.67C214.045 191.29 214.078 190.82 214.078 190.26ZM216.405 190.26C216.405 189.107 216.598 188.207 216.985 187.56C217.378 186.907 218.051 186.58 219.005 186.58C219.958 186.58 220.628 186.907 221.015 187.56C221.408 188.207 221.605 189.107 221.605 190.26C221.605 191.427 221.408 192.34 221.015 193C220.628 193.653 219.958 193.98 219.005 193.98C218.051 193.98 217.378 193.653 216.985 193C216.598 192.34 216.405 191.427 216.405 190.26ZM220.485 190.26C220.485 189.72 220.448 189.263 220.375 188.89C220.308 188.517 220.168 188.213 219.955 187.98C219.741 187.74 219.425 187.62 219.005 187.62C218.585 187.62 218.268 187.74 218.055 187.98C217.841 188.213 217.698 188.517 217.625 188.89C217.558 189.263 217.525 189.72 217.525 190.26C217.525 190.82 217.558 191.29 217.625 191.67C217.691 192.05 217.831 192.357 218.045 192.59C218.265 192.823 218.585 192.94 219.005 192.94C219.425 192.94 219.741 192.823 219.955 192.59C220.175 192.357 220.318 192.05 220.385 191.67C220.451 191.29 220.485 190.82 220.485 190.26ZM222.661 187.75V186.71H224.741V194H223.591V187.75H222.661ZM226.157 187.75V186.71H228.237V194H227.087V187.75H226.157ZM229.653 187.75V186.71H231.733V194H230.583V187.75H229.653ZM233.149 187.75V186.71H235.229V194H234.079V187.75H233.149ZM236.795 190.26C236.795 189.107 236.989 188.207 237.375 187.56C237.769 186.907 238.442 186.58 239.395 186.58C240.349 186.58 241.019 186.907 241.405 187.56C241.799 188.207 241.995 189.107 241.995 190.26C241.995 191.427 241.799 192.34 241.405 193C241.019 193.653 240.349 193.98 239.395 193.98C238.442 193.98 237.769 193.653 237.375 193C236.989 192.34 236.795 191.427 236.795 190.26ZM240.875 190.26C240.875 189.72 240.839 189.263 240.765 188.89C240.699 188.517 240.559 188.213 240.345 187.98C240.132 187.74 239.815 187.62 239.395 187.62C238.975 187.62 238.659 187.74 238.445 187.98C238.232 188.213 238.089 188.517 238.015 188.89C237.949 189.263 237.915 189.72 237.915 190.26C237.915 190.82 237.949 191.29 238.015 191.67C238.082 192.05 238.222 192.357 238.435 192.59C238.655 192.823 238.975 192.94 239.395 192.94C239.815 192.94 240.132 192.823 240.345 192.59C240.565 192.357 240.709 192.05 240.775 191.67C240.842 191.29 240.875 190.82 240.875 190.26ZM243.052 187.75V186.71H245.132V194H243.982V187.75H243.052Z" fill="#004D8A"/>
<path d="M196.6 176.26C196.6 175.107 196.793 174.207 197.18 173.56C197.573 172.907 198.247 172.58 199.2 172.58C200.153 172.58 200.823 172.907 201.21 173.56C201.603 174.207 201.8 175.107 201.8 176.26C201.8 177.427 201.603 178.34 201.21 179C200.823 179.653 200.153 179.98 199.2 179.98C198.247 179.98 197.573 179.653 197.18 179C196.793 178.34 196.6 177.427 196.6 176.26ZM200.68 176.26C200.68 175.72 200.643 175.263 200.57 174.89C200.503 174.517 200.363 174.213 200.15 173.98C199.937 173.74 199.62 173.62 199.2 173.62C198.78 173.62 198.463 173.74 198.25 173.98C198.037 174.213 197.893 174.517 197.82 174.89C197.753 175.263 197.72 175.72 197.72 176.26C197.72 176.82 197.753 177.29 197.82 177.67C197.887 178.05 198.027 178.357 198.24 178.59C198.46 178.823 198.78 178.94 199.2 178.94C199.62 178.94 199.937 178.823 200.15 178.59C200.37 178.357 200.513 178.05 200.58 177.67C200.647 177.29 200.68 176.82 200.68 176.26ZM202.856 173.75V172.71H204.936V180H203.786V173.75H202.856ZM206.352 173.75V172.71H208.432V180H207.282V173.75H206.352ZM209.998 176.26C209.998 175.107 210.192 174.207 210.578 173.56C210.972 172.907 211.645 172.58 212.598 172.58C213.552 172.58 214.222 172.907 214.608 173.56C215.002 174.207 215.198 175.107 215.198 176.26C215.198 177.427 215.002 178.34 214.608 179C214.222 179.653 213.552 179.98 212.598 179.98C211.645 179.98 210.972 179.653 210.578 179C210.192 178.34 209.998 177.427 209.998 176.26ZM214.078 176.26C214.078 175.72 214.042 175.263 213.968 174.89C213.902 174.517 213.762 174.213 213.548 173.98C213.335 173.74 213.018 173.62 212.598 173.62C212.178 173.62 211.862 173.74 211.648 173.98C211.435 174.213 211.292 174.517 211.218 174.89C211.152 175.263 211.118 175.72 211.118 176.26C211.118 176.82 211.152 177.29 211.218 177.67C211.285 178.05 211.425 178.357 211.638 178.59C211.858 178.823 212.178 178.94 212.598 178.94C213.018 178.94 213.335 178.823 213.548 178.59C213.768 178.357 213.912 178.05 213.978 177.67C214.045 177.29 214.078 176.82 214.078 176.26ZM216.405 176.26C216.405 175.107 216.598 174.207 216.985 173.56C217.378 172.907 218.051 172.58 219.005 172.58C219.958 172.58 220.628 172.907 221.015 173.56C221.408 174.207 221.605 175.107 221.605 176.26C221.605 177.427 221.408 178.34 221.015 179C220.628 179.653 219.958 179.98 219.005 179.98C218.051 179.98 217.378 179.653 216.985 179C216.598 178.34 216.405 177.427 216.405 176.26ZM220.485 176.26C220.485 175.72 220.448 175.263 220.375 174.89C220.308 174.517 220.168 174.213 219.955 173.98C219.741 173.74 219.425 173.62 219.005 173.62C218.585 173.62 218.268 173.74 218.055 173.98C217.841 174.213 217.698 174.517 217.625 174.89C217.558 175.263 217.525 175.72 217.525 176.26C217.525 176.82 217.558 177.29 217.625 177.67C217.691 178.05 217.831 178.357 218.045 178.59C218.265 178.823 218.585 178.94 219.005 178.94C219.425 178.94 219.741 178.823 219.955 178.59C220.175 178.357 220.318 178.05 220.385 177.67C220.451 177.29 220.485 176.82 220.485 176.26ZM222.661 173.75V172.71H224.741V180H223.591V173.75H222.661ZM226.157 173.75V172.71H228.237V180H227.087V173.75H226.157ZM229.653 173.75V172.71H231.733V180H230.583V173.75H229.653ZM233.149 173.75V172.71H235.229V180H234.079V173.75H233.149ZM236.795 176.26C236.795 175.107 236.989 174.207 237.375 173.56C237.769 172.907 238.442 172.58 239.395 172.58C240.349 172.58 241.019 172.907 241.405 173.56C241.799 174.207 241.995 175.107 241.995 176.26C241.995 177.427 241.799 178.34 241.405 179C241.019 179.653 240.349 179.98 239.395 179.98C238.442 179.98 237.769 179.653 237.375 179C236.989 178.34 236.795 177.427 236.795 176.26ZM240.875 176.26C240.875 175.72 240.839 175.263 240.765 174.89C240.699 174.517 240.559 174.213 240.345 173.98C240.132 173.74 239.815 173.62 239.395 173.62C238.975 173.62 238.659 173.74 238.445 173.98C238.232 174.213 238.089 174.517 238.015 174.89C237.949 175.263 237.915 175.72 237.915 176.26C237.915 176.82 237.949 177.29 238.015 177.67C238.082 178.05 238.222 178.357 238.435 178.59C238.655 178.823 238.975 178.94 239.395 178.94C239.815 178.94 240.132 178.823 240.345 178.59C240.565 178.357 240.709 178.05 240.775 177.67C240.842 177.29 240.875 176.82 240.875 176.26ZM243.052 173.75V172.71H245.132V180H243.982V173.75H243.052Z" fill="#004D8A"/>
<defs>
<linearGradient id="paint0_linear_5_458" x1="276.77" y1="140" x2="52.23" y2="140" gradientUnits="userSpaceOnUse">
<stop offset="0.0017" stop-color="#EFF5FF"/>
<stop offset="1" stop-color="#EFF5FF"/>
</linearGradient>
<linearGradient id="paint1_linear_5_458" x1="252.287" y1="163.673" x2="194.627" y2="188.959" gradientUnits="userSpaceOnUse">
<stop stop-color="#CC66CC"/>
<stop offset="0.9926" stop-color="#004D8A"/>
</linearGradient>
<linearGradient id="paint2_linear_5_458" x1="235.361" y1="121.052" x2="229.238" y2="184.141" gradientUnits="userSpaceOnUse">
<stop stop-color="#CC66CC"/>
<stop offset="0.9926" stop-color="#004D8A"/>
</linearGradient>
<linearGradient id="paint3_linear_5_458" x1="51.3349" y1="126.743" x2="104.79" y2="126.743" gradientUnits="userSpaceOnUse">
<stop stop-color="#CC66CC"/>
<stop offset="0.9926" stop-color="#004D8A"/>
</linearGradient>
<linearGradient id="paint4_linear_5_458" x1="67.9116" y1="117.071" x2="114.135" y2="117.071" gradientUnits="userSpaceOnUse">
<stop stop-color="#CC66CC"/>
<stop offset="0.9926" stop-color="#004D8A"/>
</linearGradient>
<linearGradient id="paint5_linear_5_458" x1="60.9148" y1="163.361" x2="126.847" y2="182.334" gradientUnits="userSpaceOnUse">
<stop stop-color="#CC66CC"/>
<stop offset="0.9926" stop-color="#004D8A"/>
</linearGradient>
<linearGradient id="paint6_linear_5_458" x1="69.3264" y1="221.674" x2="82.863" y2="221.674" gradientUnits="userSpaceOnUse">
<stop offset="0.2102" stop-color="#CCD9E5"/>
<stop offset="0.9979" stop-color="#AAD5E8"/>
</linearGradient>
<linearGradient id="paint7_linear_5_458" x1="74.2023" y1="225.571" x2="81.806" y2="228.888" gradientUnits="userSpaceOnUse">
<stop offset="0.2102" stop-color="#CCD9E5"/>
<stop offset="0.9979" stop-color="#AAD5E8"/>
</linearGradient>
<linearGradient id="paint8_linear_5_458" x1="67.1214" y1="222.352" x2="73.2506" y2="233.376" gradientUnits="userSpaceOnUse">
<stop offset="0.2102" stop-color="#CCD9E5"/>
<stop offset="0.9979" stop-color="#AAD5E8"/>
</linearGradient>
<linearGradient id="paint9_linear_5_458" x1="83.9293" y1="221.675" x2="101.987" y2="221.675" gradientUnits="userSpaceOnUse">
<stop offset="0.2102" stop-color="#CCD9E5"/>
<stop offset="0.9979" stop-color="#AAD5E8"/>
</linearGradient>
<linearGradient id="paint10_linear_5_458" x1="91.0463" y1="225.635" x2="99.3197" y2="228.929" gradientUnits="userSpaceOnUse">
<stop offset="0.2102" stop-color="#CCD9E5"/>
<stop offset="0.9979" stop-color="#AAD5E8"/>
</linearGradient>
<linearGradient id="paint11_linear_5_458" x1="82.9228" y1="223.372" x2="91.8905" y2="232.572" gradientUnits="userSpaceOnUse">
<stop offset="0.2102" stop-color="#CCD9E5"/>
<stop offset="0.9979" stop-color="#AAD5E8"/>
</linearGradient>
<linearGradient id="paint12_linear_5_458" x1="77.4664" y1="209.631" x2="91.0029" y2="209.631" gradientUnits="userSpaceOnUse">
<stop offset="0.2102" stop-color="#CCD9E5"/>
<stop offset="0.9979" stop-color="#AAD5E8"/>
</linearGradient>
<linearGradient id="paint13_linear_5_458" x1="82.2484" y1="213.671" x2="90.7737" y2="216.694" gradientUnits="userSpaceOnUse">
<stop offset="0.2102" stop-color="#CCD9E5"/>
<stop offset="0.9979" stop-color="#AAD5E8"/>
</linearGradient>
<linearGradient id="paint14_linear_5_458" x1="73.7058" y1="210.607" x2="83.2138" y2="221.334" gradientUnits="userSpaceOnUse">
<stop offset="0.2102" stop-color="#CCD9E5"/>
<stop offset="0.9979" stop-color="#AAD5E8"/>
</linearGradient>
<linearGradient id="paint15_linear_5_458" x1="61.6113" y1="210.17" x2="75.5314" y2="208.147" gradientUnits="userSpaceOnUse">
<stop offset="0.2102" stop-color="#CCD9E5"/>
<stop offset="0.9979" stop-color="#AAD5E8"/>
</linearGradient>
<linearGradient id="paint16_linear_5_458" x1="65.9789" y1="213.61" x2="73.9247" y2="217.299" gradientUnits="userSpaceOnUse">
<stop offset="0.2102" stop-color="#CCD9E5"/>
<stop offset="0.9979" stop-color="#AAD5E8"/>
</linearGradient>
<linearGradient id="paint17_linear_5_458" x1="58.6569" y1="211.391" x2="65.2378" y2="220.076" gradientUnits="userSpaceOnUse">
<stop offset="0.2102" stop-color="#CCD9E5"/>
<stop offset="0.9979" stop-color="#AAD5E8"/>
</linearGradient>
<linearGradient id="paint18_linear_5_458" x1="51.9176" y1="222.002" x2="69.9394" y2="220.998" gradientUnits="userSpaceOnUse">
<stop offset="0.2102" stop-color="#CCD9E5"/>
<stop offset="0.9979" stop-color="#AAD5E8"/>
</linearGradient>
<linearGradient id="paint19_linear_5_458" x1="57.285" y1="225.71" x2="67.5153" y2="230.098" gradientUnits="userSpaceOnUse">
<stop offset="0.2102" stop-color="#CCD9E5"/>
<stop offset="0.9979" stop-color="#AAD5E8"/>
</linearGradient>
<linearGradient id="paint20_linear_5_458" x1="49.7513" y1="223.343" x2="58.4421" y2="234.277" gradientUnits="userSpaceOnUse">
<stop offset="0.2102" stop-color="#CCD9E5"/>
<stop offset="0.9979" stop-color="#AAD5E8"/>
</linearGradient>
<linearGradient id="paint21_linear_5_458" x1="270.675" y1="56.2" x2="276.273" y2="63.2435" gradientUnits="userSpaceOnUse">
<stop offset="0.2102" stop-color="#CCD9E5"/>
<stop offset="0.9979" stop-color="#AAD5E8"/>
</linearGradient>
<linearGradient id="paint22_linear_5_458" x1="263.334" y1="41.4322" x2="268.933" y2="48.4757" gradientUnits="userSpaceOnUse">
<stop offset="0.2102" stop-color="#CCD9E5"/>
<stop offset="0.9979" stop-color="#AAD5E8"/>
</linearGradient>
<linearGradient id="paint23_linear_5_458" x1="246.006" y1="35.1323" x2="251.605" y2="42.1759" gradientUnits="userSpaceOnUse">
<stop offset="0.2102" stop-color="#CCD9E5"/>
<stop offset="0.9979" stop-color="#AAD5E8"/>
</linearGradient>
<linearGradient id="paint24_linear_5_458" x1="228.631" y1="40.7284" x2="234.23" y2="47.7719" gradientUnits="userSpaceOnUse">
<stop offset="0.2102" stop-color="#CCD9E5"/>
<stop offset="0.9979" stop-color="#AAD5E8"/>
</linearGradient>
<linearGradient id="paint25_linear_5_458" x1="263.334" y1="70.2633" x2="268.933" y2="77.3068" gradientUnits="userSpaceOnUse">
<stop offset="0.2102" stop-color="#CCD9E5"/>
<stop offset="0.9979" stop-color="#AAD5E8"/>
</linearGradient>
<linearGradient id="paint26_linear_5_458" x1="246.006" y1="76.9012" x2="251.605" y2="83.9448" gradientUnits="userSpaceOnUse">
<stop offset="0.2102" stop-color="#CCD9E5"/>
<stop offset="0.9979" stop-color="#AAD5E8"/>
</linearGradient>
<linearGradient id="paint27_linear_5_458" x1="228.631" y1="70.9672" x2="234.23" y2="78.0108" gradientUnits="userSpaceOnUse">
<stop offset="0.2102" stop-color="#CCD9E5"/>
<stop offset="0.9979" stop-color="#AAD5E8"/>
</linearGradient>
<linearGradient id="paint28_linear_5_458" x1="221.597" y1="56.2" x2="227.195" y2="63.2435" gradientUnits="userSpaceOnUse">
<stop offset="0.2102" stop-color="#CCD9E5"/>
<stop offset="0.9979" stop-color="#AAD5E8"/>
</linearGradient>
<linearGradient id="paint29_linear_5_458" x1="260.14" y1="54.0461" x2="266.72" y2="54.0461" gradientUnits="userSpaceOnUse">
<stop offset="0.2102" stop-color="#CCD9E5"/>
<stop offset="0.9979" stop-color="#AAD5E8"/>
</linearGradient>
<linearGradient id="paint30_linear_5_458" x1="260.293" y1="64.0928" x2="266.873" y2="64.0928" gradientUnits="userSpaceOnUse">
<stop offset="0.2102" stop-color="#CCD9E5"/>
<stop offset="0.9979" stop-color="#AAD5E8"/>
</linearGradient>
<linearGradient id="paint31_linear_5_458" x1="252.214" y1="71.4162" x2="258.794" y2="71.4162" gradientUnits="userSpaceOnUse">
<stop offset="0.2102" stop-color="#CCD9E5"/>
<stop offset="0.9979" stop-color="#AAD5E8"/>
</linearGradient>
<linearGradient id="paint32_linear_5_458" x1="240.885" y1="71.4035" x2="247.465" y2="71.4035" gradientUnits="userSpaceOnUse">
<stop offset="0.2102" stop-color="#CCD9E5"/>
<stop offset="0.9979" stop-color="#AAD5E8"/>
</linearGradient>
<linearGradient id="paint33_linear_5_458" x1="232.023" y1="64.6379" x2="238.603" y2="64.6379" gradientUnits="userSpaceOnUse">
<stop offset="0.2102" stop-color="#CCD9E5"/>
<stop offset="0.9979" stop-color="#AAD5E8"/>
</linearGradient>
<linearGradient id="paint34_linear_5_458" x1="231.611" y1="54.6612" x2="238.191" y2="54.6612" gradientUnits="userSpaceOnUse">
<stop offset="0.2102" stop-color="#CCD9E5"/>
<stop offset="0.9979" stop-color="#AAD5E8"/>
</linearGradient>
<linearGradient id="paint35_linear_5_458" x1="239.768" y1="47.4865" x2="246.348" y2="47.4865" gradientUnits="userSpaceOnUse">
<stop offset="0.2102" stop-color="#CCD9E5"/>
<stop offset="0.9979" stop-color="#AAD5E8"/>
</linearGradient>
<linearGradient id="paint36_linear_5_458" x1="251.967" y1="46.9931" x2="258.547" y2="46.9931" gradientUnits="userSpaceOnUse">
<stop offset="0.2102" stop-color="#CCD9E5"/>
<stop offset="0.9979" stop-color="#AAD5E8"/>
</linearGradient>
<linearGradient id="paint37_linear_5_458" x1="249.418" y1="52.8362" x2="249.791" y2="53.3057" gradientUnits="userSpaceOnUse">
<stop offset="0.2102" stop-color="#CCD9E5"/>
<stop offset="0.9979" stop-color="#AAD5E8"/>
</linearGradient>
<linearGradient id="paint38_linear_5_458" x1="253.688" y1="53.8965" x2="255.554" y2="56.2443" gradientUnits="userSpaceOnUse">
<stop offset="0.2102" stop-color="#CCD9E5"/>
<stop offset="0.9979" stop-color="#AAD5E8"/>
</linearGradient>
<linearGradient id="paint39_linear_5_458" x1="255.877" y1="58.3005" x2="257.743" y2="60.6483" gradientUnits="userSpaceOnUse">
<stop offset="0.2102" stop-color="#CCD9E5"/>
<stop offset="0.9979" stop-color="#AAD5E8"/>
</linearGradient>
<linearGradient id="paint40_linear_5_458" x1="253.688" y1="62.4951" x2="255.554" y2="64.8429" gradientUnits="userSpaceOnUse">
<stop offset="0.2102" stop-color="#CCD9E5"/>
<stop offset="0.9979" stop-color="#AAD5E8"/>
</linearGradient>
<linearGradient id="paint41_linear_5_458" x1="248.52" y1="64.4746" x2="250.386" y2="66.8225" gradientUnits="userSpaceOnUse">
<stop offset="0.2102" stop-color="#CCD9E5"/>
<stop offset="0.9979" stop-color="#AAD5E8"/>
</linearGradient>
<linearGradient id="paint42_linear_5_458" x1="243.338" y1="62.7051" x2="245.204" y2="65.0529" gradientUnits="userSpaceOnUse">
<stop offset="0.2102" stop-color="#CCD9E5"/>
<stop offset="0.9979" stop-color="#AAD5E8"/>
</linearGradient>
<linearGradient id="paint43_linear_5_458" x1="241.24" y1="58.3005" x2="243.106" y2="60.6483" gradientUnits="userSpaceOnUse">
<stop offset="0.2102" stop-color="#CCD9E5"/>
<stop offset="0.9979" stop-color="#AAD5E8"/>
</linearGradient>
<linearGradient id="paint44_linear_5_458" x1="243.338" y1="53.6866" x2="245.204" y2="56.0344" gradientUnits="userSpaceOnUse">
<stop offset="0.2102" stop-color="#CCD9E5"/>
<stop offset="0.9979" stop-color="#AAD5E8"/>
</linearGradient>
<linearGradient id="paint45_linear_5_458" x1="248.52" y1="52.0176" x2="250.386" y2="54.3654" gradientUnits="userSpaceOnUse">
<stop offset="0.2102" stop-color="#CCD9E5"/>
<stop offset="0.9979" stop-color="#AAD5E8"/>
</linearGradient>
<linearGradient id="paint46_linear_5_458" x1="92.6074" y1="134.757" x2="223.26" y2="134.757" gradientUnits="userSpaceOnUse">
<stop stop-color="#004D8A"/>
<stop offset="0.7321" stop-color="#075F9B"/>
</linearGradient>
<linearGradient id="paint47_linear_5_458" x1="170.266" y1="75.7121" x2="176.069" y2="75.7121" gradientUnits="userSpaceOnUse">
<stop offset="0.001" stop-color="#00BBF2"/>
<stop offset="0.867" stop-color="#0B87D3"/>
</linearGradient>
<linearGradient id="paint48_linear_5_458" x1="184.774" y1="75.7121" x2="190.576" y2="75.7121" gradientUnits="userSpaceOnUse">
<stop offset="0.001" stop-color="#00BBF2"/>
<stop offset="0.867" stop-color="#0B87D3"/>
</linearGradient>
<linearGradient id="paint49_linear_5_458" x1="199.281" y1="75.7121" x2="205.083" y2="75.7121" gradientUnits="userSpaceOnUse">
<stop offset="0.001" stop-color="#00BBF2"/>
<stop offset="0.867" stop-color="#0B87D3"/>
</linearGradient>
<linearGradient id="paint50_linear_5_458" x1="126.745" y1="75.7121" x2="132.548" y2="75.7121" gradientUnits="userSpaceOnUse">
<stop offset="0.001" stop-color="#00BBF2"/>
<stop offset="0.867" stop-color="#0B87D3"/>
</linearGradient>
<linearGradient id="paint51_linear_5_458" x1="141.252" y1="75.7121" x2="147.055" y2="75.7121" gradientUnits="userSpaceOnUse">
<stop offset="0.001" stop-color="#00BBF2"/>
<stop offset="0.867" stop-color="#0B87D3"/>
</linearGradient>
<linearGradient id="paint52_linear_5_458" x1="155.759" y1="75.7121" x2="161.562" y2="75.7121" gradientUnits="userSpaceOnUse">
<stop offset="0.001" stop-color="#00BBF2"/>
<stop offset="0.867" stop-color="#0B87D3"/>
</linearGradient>
<linearGradient id="paint53_linear_5_458" x1="112.238" y1="75.7121" x2="118.041" y2="75.7121" gradientUnits="userSpaceOnUse">
<stop offset="0.001" stop-color="#00BBF2"/>
<stop offset="0.867" stop-color="#0B87D3"/>
</linearGradient>
<linearGradient id="paint54_linear_5_458" x1="217.963" y1="147.348" x2="237.397" y2="147.348" gradientUnits="userSpaceOnUse">
<stop offset="0.001" stop-color="#00BBF2"/>
<stop offset="0.867" stop-color="#0B87D3"/>
</linearGradient>
<linearGradient id="paint55_linear_5_458" x1="217.963" y1="159.695" x2="237.397" y2="159.695" gradientUnits="userSpaceOnUse">
<stop offset="0.001" stop-color="#00BBF2"/>
<stop offset="0.867" stop-color="#0B87D3"/>
</linearGradient>
<linearGradient id="paint56_linear_5_458" x1="217.963" y1="172.042" x2="237.397" y2="172.042" gradientUnits="userSpaceOnUse">
<stop offset="0.001" stop-color="#00BBF2"/>
<stop offset="0.867" stop-color="#0B87D3"/>
</linearGradient>
<linearGradient id="paint57_linear_5_458" x1="217.963" y1="110.309" x2="237.397" y2="110.309" gradientUnits="userSpaceOnUse">
<stop offset="0.001" stop-color="#00BBF2"/>
<stop offset="0.867" stop-color="#0B87D3"/>
</linearGradient>
<linearGradient id="paint58_linear_5_458" x1="217.963" y1="122.656" x2="237.397" y2="122.656" gradientUnits="userSpaceOnUse">
<stop offset="0.001" stop-color="#00BBF2"/>
<stop offset="0.867" stop-color="#0B87D3"/>
</linearGradient>
<linearGradient id="paint59_linear_5_458" x1="217.963" y1="135.002" x2="237.397" y2="135.002" gradientUnits="userSpaceOnUse">
<stop offset="0.001" stop-color="#00BBF2"/>
<stop offset="0.867" stop-color="#0B87D3"/>
</linearGradient>
<linearGradient id="paint60_linear_5_458" x1="217.963" y1="97.9627" x2="237.397" y2="97.9627" gradientUnits="userSpaceOnUse">
<stop offset="0.001" stop-color="#00BBF2"/>
<stop offset="0.867" stop-color="#0B87D3"/>
</linearGradient>
<linearGradient id="paint61_linear_5_458" x1="170.266" y1="194.292" x2="176.069" y2="194.292" gradientUnits="userSpaceOnUse">
<stop offset="0.001" stop-color="#00BBF2"/>
<stop offset="0.867" stop-color="#0B87D3"/>
</linearGradient>
<linearGradient id="paint62_linear_5_458" x1="184.773" y1="194.292" x2="190.576" y2="194.292" gradientUnits="userSpaceOnUse">
<stop offset="0.001" stop-color="#00BBF2"/>
<stop offset="0.867" stop-color="#0B87D3"/>
</linearGradient>
<linearGradient id="paint63_linear_5_458" x1="199.281" y1="194.292" x2="205.083" y2="194.292" gradientUnits="userSpaceOnUse">
<stop offset="0.001" stop-color="#00BBF2"/>
<stop offset="0.867" stop-color="#0B87D3"/>
</linearGradient>
<linearGradient id="paint64_linear_5_458" x1="126.745" y1="194.292" x2="132.548" y2="194.292" gradientUnits="userSpaceOnUse">
<stop offset="0.001" stop-color="#00BBF2"/>
<stop offset="0.867" stop-color="#0B87D3"/>
</linearGradient>
<linearGradient id="paint65_linear_5_458" x1="141.252" y1="194.292" x2="147.055" y2="194.292" gradientUnits="userSpaceOnUse">
<stop offset="0.001" stop-color="#00BBF2"/>
<stop offset="0.867" stop-color="#0B87D3"/>
</linearGradient>
<linearGradient id="paint66_linear_5_458" x1="155.759" y1="194.292" x2="161.562" y2="194.292" gradientUnits="userSpaceOnUse">
<stop offset="0.001" stop-color="#00BBF2"/>
<stop offset="0.867" stop-color="#0B87D3"/>
</linearGradient>
<linearGradient id="paint67_linear_5_458" x1="112.238" y1="194.292" x2="118.041" y2="194.292" gradientUnits="userSpaceOnUse">
<stop offset="0.001" stop-color="#00BBF2"/>
<stop offset="0.867" stop-color="#0B87D3"/>
</linearGradient>
<linearGradient id="paint68_linear_5_458" x1="78.268" y1="122.656" x2="97.7021" y2="122.656" gradientUnits="userSpaceOnUse">
<stop offset="0.001" stop-color="#00BBF2"/>
<stop offset="0.867" stop-color="#0B87D3"/>
</linearGradient>
<linearGradient id="paint69_linear_5_458" x1="78.268" y1="110.309" x2="97.7021" y2="110.309" gradientUnits="userSpaceOnUse">
<stop offset="0.001" stop-color="#00BBF2"/>
<stop offset="0.867" stop-color="#0B87D3"/>
</linearGradient>
<linearGradient id="paint70_linear_5_458" x1="78.268" y1="97.9632" x2="97.7021" y2="97.9632" gradientUnits="userSpaceOnUse">
<stop offset="0.001" stop-color="#00BBF2"/>
<stop offset="0.867" stop-color="#0B87D3"/>
</linearGradient>
<linearGradient id="paint71_linear_5_458" x1="78.268" y1="159.695" x2="97.7021" y2="159.695" gradientUnits="userSpaceOnUse">
<stop offset="0.001" stop-color="#00BBF2"/>
<stop offset="0.867" stop-color="#0B87D3"/>
</linearGradient>
<linearGradient id="paint72_linear_5_458" x1="78.268" y1="147.348" x2="97.7021" y2="147.348" gradientUnits="userSpaceOnUse">
<stop offset="0.001" stop-color="#00BBF2"/>
<stop offset="0.867" stop-color="#0B87D3"/>
</linearGradient>
<linearGradient id="paint73_linear_5_458" x1="78.268" y1="135.002" x2="97.7021" y2="135.002" gradientUnits="userSpaceOnUse">
<stop offset="0.001" stop-color="#00BBF2"/>
<stop offset="0.867" stop-color="#0B87D3"/>
</linearGradient>
<linearGradient id="paint74_linear_5_458" x1="78.268" y1="172.042" x2="97.7021" y2="172.042" gradientUnits="userSpaceOnUse">
<stop offset="0.001" stop-color="#00BBF2"/>
<stop offset="0.867" stop-color="#0B87D3"/>
</linearGradient>
<linearGradient id="paint75_linear_5_458" x1="105.252" y1="134.856" x2="208.55" y2="134.856" gradientUnits="userSpaceOnUse">
<stop offset="0.001" stop-color="#00BBF2"/>
<stop offset="0.867" stop-color="#0B87D3"/>
</linearGradient>
<linearGradient id="paint76_linear_5_458" x1="103.44" y1="135.002" x2="212.427" y2="135.002" gradientUnits="userSpaceOnUse">
<stop stop-color="white"/>
<stop offset="1" stop-color="#BCC9CE"/>
</linearGradient>
<linearGradient id="paint77_linear_5_458" x1="133.979" y1="135.571" x2="180.969" y2="135.571" gradientUnits="userSpaceOnUse">
<stop stop-color="white"/>
<stop offset="1" stop-color="#BCC9CE"/>
</linearGradient>
<linearGradient id="paint78_linear_5_458" x1="133.906" y1="135.571" x2="181.04" y2="135.571" gradientUnits="userSpaceOnUse">
<stop stop-color="white"/>
<stop offset="1" stop-color="#BCC9CE"/>
</linearGradient>
<linearGradient id="paint79_linear_5_458" x1="118.199" y1="135.571" x2="197.668" y2="135.571" gradientUnits="userSpaceOnUse">
<stop stop-color="white"/>
<stop offset="1" stop-color="#BCC9CE"/>
</linearGradient>
<linearGradient id="paint80_linear_5_458" x1="195.808" y1="174.025" x2="247.711" y2="214.961" gradientUnits="userSpaceOnUse">
<stop stop-color="#FAFFFF"/>
<stop offset="1" stop-color="#CAEBEF"/>
</linearGradient>
</defs>
</svg>
